<svg viewBox="0 0 64 64" xmlns="http://www.w3.org/2000/svg" fill="none">
    <path fill="#94A6C4" d="M63.046 39.741c-4.274 17.143-21.64 27.576-38.786 23.301C7.12 58.768-3.314 41.404.962 24.262 5.235 7.117 22.6-3.317 39.742.957c17.145 4.274 27.578 21.64 23.304 38.784z"/>
    <path stroke="#fff" stroke-opacity=".24" stroke-width="6" d="M3.873 24.988h0C7.745 9.45 23.482-.006 39.016 3.867h0c15.538 3.873 24.993 19.61 21.12 35.147-3.874 15.535-19.61 24.99-35.15 21.116C9.453 56.258-.002 40.522 3.873 24.988z"/>
    <path fill="#fff" d="M62.091 21.127L.413 37.13a31.878 31.878 0 01.546-12.867C5.23 7.118 22.596-3.317 39.738.958c10.74 2.677 18.846 10.49 22.353 20.17z" opacity=".3"/>
    <g filter="url(#filter0_di_1inch)">
        <path fill="#94A6C4" d="M57.222 38.29C53.749 52.218 39.64 60.695 25.708 57.22 11.782 53.75 3.304 39.642 6.778 25.713 10.25 11.783 24.36 3.305 38.288 6.778 52.217 10.25 60.695 24.36 57.222 38.29z"/>
    </g>
    <g clip-path="url(#clip0_1inch)">
        <path fill="#ECF3FF" d="M32 52.958c11.197 0 20.278-9.005 20.278-20.11 0-11.104-9.08-20.11-20.278-20.11-11.197.01-20.278 9.006-20.278 20.11 0 11.105 9.08 20.11 20.278 20.11z"/>
        <path fill="#fff" d="M26.523 20.584l-7.098-2.814v1.008l6.082 5.427-.403 5.628-1.823 7.644-2.436 3.419.605 4.821 3.04.403 2.436-.403 2.436.403 4.26-2.612.814-4.225 5.065-4.822 2.226 1.605 2.226 3.217v6.434l3.041-.806 3.04-6.636.816-8.442-10.946-15.885-1.822-.403-11.559 7.04z"/>
        <path fill="#94A6C4" d="M15.78 32.21c.084-.68.117-1.37.327-2.008.571-2.654 1.663-5.19 3.285-7.24.285-.362.529-.68.848-1.008l-1.823-1.689c-.327.479-.647.966-.932 1.445-1.504 2.57-2.31 5.468-2.512 8.324-.084.723-.042 1.445-.042 2.134 0 .722.084 1.411.202 2.134a19.281 19.281 0 001.058 4.065 20.258 20.258 0 01-.529-4.141c-.008-.655-.008-1.336.118-2.016zM24.096 19.182c-1.017-.48-2.436-1.126-3.444-1.605.932-.882 2.637-1.806 4.057-2.41-1.025.797-1.025 2.486-.613 4.015zM19.996 26.01a15.2 15.2 0 00-1.058 4.344c-.042.36-.084.722-.042 1.083 0 .361 0 .723.042 1.084l.042.571c0 .16.042.361.084.52l.16 1.084.042-1.083c0-.16 0-.361.042-.521l.084-.52c.042-.362.117-.723.16-1.042.041-.362.159-.68.243-1.008.361-1.37.974-2.613 1.705-3.78.487-.765 1.058-1.445 1.663-2.092l-1.579-1.487a12.119 12.119 0 00-1.588 2.848zM43.474 19.14c-2.15-.765-2.998-.521-2.998-.521s-1.336 3.578-6.452 3.822c.042.033 4.629 2.688 9.45-3.301zM44.936 26.254c-.202 4.427-3.646 6.074-6.325 5.754-1.462-.201-3.612.48-3.612.48l-2.713 4.661-.89.32 1.536-2.815s-3.645 1.328-3.93 1.445c-.286.118-1.42 1.773-2.353 3.495-.201-1.21-.974-2.05-.974-2.092 0 .202.403 3.822-.042 4.822-.445 1.041-2.436 1.73-2.436 1.73l2.923 1.084.202.084 2.192-2.05.815-3.058 1.016-.722s2.512-.286 2.15 1.974c-.159 1.084-1.377 1.008-2.755 1.848-.814.479-1.864 1.243-2.394 1.772l1.462 1.042s1.747-.286 4.217-2.21c2.511-2.007 1.26-4.182 1.26-4.182l4.099-4.864 2.68.202s4.62 1.167 6.123 5.51c2.982-8.316-1.848-13.826-2.251-14.23z"/>
        <path fill="#1C324F" d="M49.64 22.802c.73.32 1.294.806 1.823 1.243-3.646-12.55-15.49-11.138-15.733-11.063.285-.445 1.335-1.125 2.31-1.486 0 0-5.032-1.773-9.61 1.369.084-.723.974-1.806.974-1.806-6.325 2.688-6.728 5.905-5.51 7.837-1.016-.479-2.024-.924-3.04-1.411-3.126-1.487-5.797-2.739-5.965-2.772-.285-.084-.403.042-.403.042s-.126.117.118.361c3.687 3.662 6.04 5.872 9.97 9.45-.646 1.445-.73 2.176-.403 2.932.445 1.041.403 1.57.244 2.25-.202.681-1.823 6.754-2.109 7.443-.285.723-2.436 3.133-2.47 3.94-.041.806.606 4.343 1.504 4.863.69.362 2.352 1.126 3.57 1.286.404.084.815.042 1.017-.118.815-.52 1.016-.605 1.537-.563l.118.042c.201.042.445.118.772.16.69.084 1.58.084 2.31-.403 1.059-.807 2.84-1.806 3.444-2.336.731-.722 1.218-1.73 1.218-2.856 0-1.008.69-1.806 1.462-2.612.73-.722 2.554-2.495 3.284-3.26 1.865.648 2.554 3.302 2.554 4.747 0 4.023-3.284 9.895-10.828 10.332-.285 0-.57.042-.89.042-9.811 0-17.842-8.602-17.842-18.699 0-7.963 4.822-13.356 4.864-13.398-3.898 3.671-6.208 8.778-6.208 14.49 0 11.097 9.08 20.11 20.278 20.11 11.197 0 20.278-9.013 20.278-20.11 0-3.62-.933-7.114-2.638-10.046zm-27.695-2.579c-.571-.479-1.134-.966-1.705-1.445.773.404 1.537.807 2.226 1.168 2.108 1.084 3.856 2.05 4.175 2.293l.084.084c.201.244.403.647.042 1.168-.202.285-.445.201-.815-.042-.32-.21-2.058-1.58-4.007-3.226zm11.802 20.908c0 .68-.327 1.285-.73 1.73-.202.202-1.017.723-1.58 1.084-.571.403-1.176.764-1.663 1.125-.202.118-.53.202-1.058.118l-1.26-.16c.772-.764 2.88-2.41 3.57-2.738.814-.403 1.293-.848.932-1.772-.328-.966-1.58-.924-1.58-.924s.774-.202 1.378-.118c-.772-.32-1.822-.244-2.352.118-.57.403-.73 2.05-1.092 3.057-.36 1.042-1.176 1.487-2.394 2.335-.688.446-1.134.563-1.461.521-.689-.201-1.504-.563-2.067-.848-.327-.605-.73-2.495-.772-3.26.16-.403.814-1.209 1.134-1.688.646-.882 1.016-1.411 1.176-1.89.285-.68 1.461-4.99 1.906-6.795.446.764 1.059 2.05.773 2.772 1.462-1.53.815-3.335.487-4.066-.285-.722-.604-2.134.042-3.494.605-1.37 2.714-5.066 2.714-5.066s.36.966 1.134.882c.73-.084 7.744-7.879 7.744-7.879s1.092 3.62-.932 5.83c-2.024 2.209-3.73 2.453-3.73 2.453s2.268.722 4.62-.48c.605 2.176 1.134 4.428 1.134 4.705-.16.285-2.436 4.065-2.637 4.3-.084.085-.731.16-1.134.16-.731.118-1.176.16-1.378.286-.327.201-2.192 3.696-3.083 5.384-.814.118-1.62.403-2.268 1.168.328-.16 1.26-.16 1.95-.16.604.042 2.267 1.243 2.469 3.133.008.143.008.143.008.177zm-4.746 1.688c.445-.479.53-1.411.605-1.688.084-.286.244-.807.605-.849.361-.042 1.134.202 1.058.807-.084.563-.689.605-1.176.882-.319.21-1.016.773-1.092.848zm17.64.53c-.487-5.15-4.057-7.56-5.636-8.367 1.823-.202 6.527-1.604 3.931-8.728.084.32.815 3.864-1.26 5.712-2.108 1.89-5.191 1.084-5.552 1.084-.328-.042-1.865 1.445-3.974 4.3-.201-.117-1.058-.444-2.108-.402 1.058-1.974 2.638-4.788 2.881-5.024.084-.084.773-.16 1.176-.201.815-.084 1.218-.16 1.378-.32.084-.117.647-1.007 1.218-1.973.361.042 1.335.117 1.461.084.084-.084 1.176-2.008 1.218-2.252.042-.16-.73-3.175-1.218-5.107 10.013 4.704 11.592 15.078 6.485 21.193z"/>
        <path fill="#1C324F" d="M36.99 19.417c1.134-1.008.974-2.739.974-2.739l-3.402 3.738c-.05.009 1.008.21 2.428-1zM24.255 40.694l.571-1.604s-1.747 2.209-1.906 2.536c-.16.362-.084 1.042.487 1.084.571.042 1.335-.68 1.42-1.243.117-.773-.572-.773-.572-.773zM29.606 30.958c1.218-.117 3.402-1.083 4.343-1.848.932-.806.773-2.57-.689-3.1.487-.806 1.294-2.494 1.294-2.494s-5.234 6.073-5.637 6.149c-.403.084-.571-1.445-.571-1.445-1.21 2.94.857 3.662 1.26 2.738z"/>
        <path fill="#FFD925" d="M30.051 30.194l2.713-3.419s1.176.807.404 1.73c-.966 1.084-3.117 1.689-3.117 1.689z"/>
        <path fill="#D82423" d="M37.275 14.956l-1.865 2.008c-1.503.445-2.956 1.243-4.342 2.57 0-.756 2.234-4.099 6.207-4.578zM39.627 16.687c.042-.521 0-1.126-.084-1.689 2.436.32 5.309 1.73 8.593 4.906-2.713-1.487-5.594-2.856-8.509-3.217zM40.358 19.3s9.038 3.939 10.702 15.002c.243-14.398-10.055-15.12-10.702-15.003zM27.178 12.949c-.117.319-5.233 5.754 1.134 7.879-3.486-3.1-1.176-7.846-1.134-7.88zM29.892 19.98s.529-6.15 4.258-7.804c-.285.084-7.862 2.377-4.258 7.804z"/>
    </g>
    <defs>
        <clipPath id="clip0_1inch">
            <path fill="#fff" d="M0 0h42v42H0z" transform="translate(11 11)"/>
        </clipPath>
        <filter id="filter0_di_1inch" width="53" height="54" x="5" y="6" color-interpolation-filters="sRGB" filterUnits="userSpaceOnUse">
            <feFlood flood-opacity="0" result="BackgroundImageFix"/>
            <feColorMatrix in="SourceAlpha" values="0 0 0 0 0 0 0 0 0 0 0 0 0 0 0 0 0 0 127 0"/>
            <feOffset dx="-1" dy="1"/>
            <feColorMatrix values="0 0 0 0 1 0 0 0 0 1 0 0 0 0 1 0 0 0 0.32 0"/>
            <feBlend in2="BackgroundImageFix" result="effect1_dropShadow"/>
            <feBlend in="SourceGraphic" in2="effect1_dropShadow" result="shape"/>
            <feColorMatrix in="SourceAlpha" result="hardAlpha" values="0 0 0 0 0 0 0 0 0 0 0 0 0 0 0 0 0 0 127 0"/>
            <feOffset dx="-1" dy="2"/>
            <feGaussianBlur stdDeviation="1"/>
            <feComposite in2="hardAlpha" k2="-1" k3="1" operator="arithmetic"/>
            <feColorMatrix values="0 0 0 0 0 0 0 0 0 0 0 0 0 0 0 0 0 0 0.16 0"/>
            <feBlend in2="shape" result="effect2_innerShadow"/>
        </filter>
    </defs>
</svg>
