<svg viewBox="0 0 64 64" xmlns="http://www.w3.org/2000/svg" fill="none">
    <path fill="url(#paint0_linear_aave)" d="M63.046 39.741c-4.274 17.143-21.64 27.576-38.786 23.301C7.12 58.768-3.314 41.404.962 24.262 5.235 7.117 22.6-3.317 39.742.957c17.145 4.274 27.578 21.64 23.304 38.784z"/>
    <path stroke="#fff" stroke-opacity=".24" stroke-width="6" d="M3.873 24.988h0C7.745 9.45 23.482-.006 39.016 3.867h0c15.538 3.873 24.993 19.61 21.12 35.147-3.874 15.535-19.61 24.99-35.15 21.116C9.453 56.258-.002 40.522 3.873 24.988z"/>
    <path fill="#fff" d="M62.091 21.127L.413 37.13a31.878 31.878 0 01.546-12.867C5.23 7.118 22.596-3.317 39.738.958c10.74 2.677 18.846 10.49 22.353 20.17z" opacity=".3"/>
    <g filter="url(#filter0_di_aave)">
        <path fill="url(#paint1_linear_aave)" d="M57.222 38.29C53.749 52.218 39.64 60.695 25.708 57.22 11.782 53.75 3.304 39.642 6.778 25.713 10.25 11.783 24.36 3.305 38.288 6.778 52.217 10.25 60.695 24.36 57.222 38.29z"/>
    </g>
    <g filter="url(#filter1_d_aave)">
        <path fill="#fff" d="M46.156 44.143l-11.2-27.06C34.328 15.68 33.38 15 32.152 15h-.988c-1.241 0-2.176.68-2.803 2.083L23.488 28.87h-3.684c-1.095.013-2.003.894-2.003 2.002v.027c.013 1.095.908 2.002 2.003 2.002h1.975l-4.645 11.241a2.55 2.55 0 00-.134.774c0 .628.2 1.122.547 1.509.348.387.855.574 1.482.574a1.978 1.978 0 001.148-.387c.36-.254.601-.6.801-1.015l5.127-12.696h3.55c1.095-.013 2.003-.894 2.003-2.002v-.053c-.013-1.095-.908-2.003-2.002-2.003H27.76l3.912-9.732 10.653 26.486c.2.414.44.775.801 1.015a2.01 2.01 0 001.148.387c.627 0 1.121-.187 1.482-.574.36-.387.547-.881.547-1.509 0-.267-.04-.534-.147-.774z"/>
    </g>
    <defs>
        <linearGradient id="paint0_linear_aave" x1="32.004" x2="32.004" y1="-.001" y2="64" gradientUnits="userSpaceOnUse">
            <stop stop-color="#B5529F"/>
            <stop offset="1" stop-color="#2EBAC6"/>
        </linearGradient>
        <linearGradient id="paint1_linear_aave" x1="32" x2="32" y1="6" y2="58" gradientUnits="userSpaceOnUse">
            <stop stop-color="#B5529F"/>
            <stop offset="1" stop-color="#2EBAC6"/>
        </linearGradient>
        <filter id="filter0_di_aave" width="53" height="54" x="5" y="6" color-interpolation-filters="sRGB" filterUnits="userSpaceOnUse">
            <feFlood flood-opacity="0" result="BackgroundImageFix"/>
            <feColorMatrix in="SourceAlpha" values="0 0 0 0 0 0 0 0 0 0 0 0 0 0 0 0 0 0 127 0"/>
            <feOffset dx="-1" dy="1"/>
            <feColorMatrix values="0 0 0 0 1 0 0 0 0 1 0 0 0 0 1 0 0 0 0.32 0"/>
            <feBlend in2="BackgroundImageFix" result="effect1_dropShadow"/>
            <feBlend in="SourceGraphic" in2="effect1_dropShadow" result="shape"/>
            <feColorMatrix in="SourceAlpha" result="hardAlpha" values="0 0 0 0 0 0 0 0 0 0 0 0 0 0 0 0 0 0 127 0"/>
            <feOffset dx="-1" dy="2"/>
            <feGaussianBlur stdDeviation="1"/>
            <feComposite in2="hardAlpha" k2="-1" k3="1" operator="arithmetic"/>
            <feColorMatrix values="0 0 0 0 0 0 0 0 0 0 0 0 0 0 0 0 0 0 0.16 0"/>
            <feBlend in2="shape" result="effect2_innerShadow"/>
        </filter>
        <filter id="filter1_d_aave" width="31.303" height="34" x="15" y="15" color-interpolation-filters="sRGB" filterUnits="userSpaceOnUse">
            <feFlood flood-opacity="0" result="BackgroundImageFix"/>
            <feColorMatrix in="SourceAlpha" values="0 0 0 0 0 0 0 0 0 0 0 0 0 0 0 0 0 0 127 0"/>
            <feOffset dx="-1" dy="1"/>
            <feGaussianBlur stdDeviation=".5"/>
            <feColorMatrix values="0 0 0 0 0 0 0 0 0 0 0 0 0 0 0 0 0 0 0.08 0"/>
            <feBlend in2="BackgroundImageFix" result="effect1_dropShadow"/>
            <feBlend in="SourceGraphic" in2="effect1_dropShadow" result="shape"/>
        </filter>
    </defs>
</svg>
