<svg width="64" height="64" fill="none" xmlns="http://www.w3.org/2000/svg"><g clip-path="url(#a)"><path d="M63.046 39.741c-4.274 17.143-21.64 27.576-38.786 23.301C7.12 58.768-3.314 41.404.962 24.262 5.235 7.117 22.6-3.317 39.742.957c17.145 4.274 27.578 21.64 23.304 38.784Z" fill="#0033AD"/><path d="M3.873 24.988C7.745 9.45 23.482-.005 39.016 3.867c15.538 3.873 24.993 19.61 21.12 35.147-3.874 15.535-19.61 24.99-35.15 21.116C9.453 56.258-.002 40.522 3.873 24.988Z" stroke="#fff" stroke-opacity=".24" stroke-width="6"/><path d="M62.091 21.127.413 37.13a31.878 31.878 0 0 1 .546-12.867C5.23 7.118 22.596-3.317 39.738.958c10.74 2.677 18.846 10.49 22.353 20.17Z" fill="#fff" style="mix-blend-mode:screen" opacity=".3"/><g filter="url(#b)"><path d="M57.222 38.29C53.749 52.218 39.64 60.695 25.708 57.222 11.782 53.749 3.304 39.64 6.778 25.713 10.25 11.783 24.36 3.305 38.288 6.778c13.93 3.473 22.408 17.582 18.935 31.512Z" fill="#0033AD"/></g></g><g clip-path="url(#c)" fill="#fff"><path d="M24.596 31.745c-.075 1.272.924 2.362 2.221 2.435h.14c1.307 0 2.361-1.034 2.352-2.316 0-1.282-1.055-2.316-2.361-2.307-1.25 0-2.287.961-2.352 2.188ZM15.803 31.15a.75.75 0 0 0-.802.705.753.753 0 0 0 .718.787.757.757 0 0 0 .803-.705c.028-.412-.299-.76-.719-.787ZM24.447 18.325a.748.748 0 0 0 .336-1.007.777.777 0 0 0-1.027-.33.738.738 0 0 0-.336.998.761.761 0 0 0 1.027.34s-.01 0 0 0ZM26.836 22.417c.579-.284.812-.98.523-1.547a1.188 1.188 0 0 0-1.577-.513c-.58.284-.812.98-.523 1.547.29.568.999.797 1.577.513ZM18.79 25.227a.988.988 0 0 0 1.345-.274.946.946 0 0 0-.28-1.319.988.988 0 0 0-1.345.275.937.937 0 0 0 .28 1.318ZM20.218 30.738a1.165 1.165 0 0 0-1.241 1.09c-.038.64.457 1.18 1.11 1.217a1.165 1.165 0 0 0 1.242-1.09 1.164 1.164 0 0 0-1.111-1.217ZM18.92 38.492a.946.946 0 0 0-.429 1.281.983.983 0 0 0 1.307.421.946.946 0 0 0 .429-1.281.985.985 0 0 0-1.307-.421ZM23.494 28.349c.644.412 1.503.238 1.913-.394a1.332 1.332 0 0 0-.4-1.876c-.645-.412-1.504-.238-1.914.393a1.335 1.335 0 0 0 .401 1.877ZM38.008 22.326a1.199 1.199 0 0 0 1.633-.33 1.148 1.148 0 0 0-.336-1.602 1.199 1.199 0 0 0-1.633.33 1.13 1.13 0 0 0 .336 1.602ZM40.415 18.252a.767.767 0 0 0 1.055-.22.735.735 0 0 0-.224-1.034.773.773 0 0 0-1.055.21.762.762 0 0 0 .224 1.044ZM38.184 29.539c-1.297-.073-2.417.906-2.483 2.178-.075 1.273.924 2.371 2.221 2.436h.131c1.297 0 2.352-1.035 2.352-2.316.01-1.218-.97-2.234-2.221-2.298ZM27.61 28.184a2.367 2.367 0 0 0 2.109 1.272c1.297 0 2.352-1.034 2.352-2.316 0-.357-.084-.713-.252-1.043-.588-1.144-2.007-1.602-3.164-1.025-1.167.585-1.633 1.977-1.045 3.112ZM46.08 25.227a.945.945 0 0 0 .42-1.281.982.982 0 0 0-1.306-.412.946.946 0 0 0-.43 1.272c.252.467.83.66 1.316.421ZM40.108 25.96a1.346 1.346 0 0 0-.616 1.821 1.397 1.397 0 0 0 1.857.605 1.346 1.346 0 0 0 .616-1.822 1.405 1.405 0 0 0-1.857-.604ZM32.408 17.904a.977.977 0 0 0 1.027-.897c.037-.522-.383-.97-.915-1.007a.97.97 0 0 0-1.027.888c-.027.53.383.98.915 1.016ZM32.398 23.882a1.365 1.365 0 0 0 1.456-1.282c.047-.75-.541-1.391-1.306-1.428a1.365 1.365 0 0 0-1.456 1.282 1.364 1.364 0 0 0 1.306 1.428ZM24.894 37.76a1.345 1.345 0 0 0 .616-1.822 1.397 1.397 0 0 0-1.857-.605 1.345 1.345 0 0 0-.616 1.822 1.397 1.397 0 0 0 1.857.604ZM33.294 25.868c-.709 1.071-.41 2.5.682 3.195 1.092.696 2.548.403 3.257-.668.71-1.071.41-2.5-.681-3.195a2.372 2.372 0 0 0-1.288-.375c-.794 0-1.53.393-1.97 1.043ZM37.391 35.535c-.588-1.144-2.006-1.602-3.164-1.025-1.166.576-1.633 1.968-1.045 3.103.588 1.144 2.007 1.602 3.164 1.025 1.157-.568 1.633-1.94 1.055-3.085 0-.01 0-.01-.01-.018ZM41.508 35.37c-.644-.412-1.503-.238-1.913.394a1.332 1.332 0 0 0 .401 1.876c.644.412 1.503.238 1.913-.393a1.335 1.335 0 0 0-.401-1.877ZM46.024 31.9a1.159 1.159 0 0 0-1.11-1.217 1.165 1.165 0 0 0-1.242 1.09c-.037.64.457 1.18 1.11 1.217a1.177 1.177 0 0 0 1.242-1.09ZM49.282 31.077a.75.75 0 0 0-.803.705.753.753 0 0 0 .719.787.756.756 0 0 0 .803-.705.759.759 0 0 0-.719-.787ZM46.212 38.492a.988.988 0 0 0-1.344.274.946.946 0 0 0 .28 1.318.988.988 0 0 0 1.344-.274.937.937 0 0 0-.28-1.319ZM24.577 45.467a.773.773 0 0 0-1.055.21.74.74 0 0 0 .215 1.035.773.773 0 0 0 1.055-.21.727.727 0 0 0-.215-1.035ZM40.555 45.394a.748.748 0 0 0-.336 1.007.777.777 0 0 0 1.027.33.738.738 0 0 0 .336-.999.762.762 0 0 0-1.027-.338s.01 0 0 0ZM31.707 37.85a2.29 2.29 0 0 0-.68-3.203c-1.093-.696-2.549-.403-3.268.668-.718 1.071-.41 2.5.682 3.204.383.247.83.375 1.288.375.803.01 1.54-.384 1.979-1.043ZM26.994 41.393a1.199 1.199 0 0 0-1.634.33 1.148 1.148 0 0 0 .336 1.602 1.199 1.199 0 0 0 1.634-.33 1.132 1.132 0 0 0-.336-1.602ZM32.492 45.815a.977.977 0 0 0-1.027.897c-.037.522.383.97.915 1.007a.97.97 0 0 0 1.026-.888.974.974 0 0 0-.914-1.016ZM32.502 39.837a1.365 1.365 0 0 0-1.456 1.282c-.047.75.54 1.391 1.306 1.428.766.036 1.419-.531 1.456-1.282.047-.741-.541-1.391-1.306-1.428ZM38.167 41.302a1.146 1.146 0 0 0-.513 1.556 1.19 1.19 0 0 0 1.586.504c.579-.284.812-.98.523-1.547a1.202 1.202 0 0 0-1.596-.513Z"/></g><defs><clipPath id="a"><path fill="#fff" d="M0 0h64v64H0z"/></clipPath><clipPath id="c"><path fill="#fff" transform="translate(15 16)" d="M0 0h35v31.719H0z"/></clipPath><filter id="b" x="5" y="6" width="53" height="54" filterUnits="userSpaceOnUse" color-interpolation-filters="sRGB"><feFlood flood-opacity="0" result="BackgroundImageFix"/><feColorMatrix in="SourceAlpha" values="0 0 0 0 0 0 0 0 0 0 0 0 0 0 0 0 0 0 127 0" result="hardAlpha"/><feOffset dx="-1" dy="1"/><feColorMatrix values="0 0 0 0 1 0 0 0 0 1 0 0 0 0 1 0 0 0 0.32 0"/><feBlend in2="BackgroundImageFix" result="effect1_dropShadow_1436_29240"/><feBlend in="SourceGraphic" in2="effect1_dropShadow_1436_29240" result="shape"/><feColorMatrix in="SourceAlpha" values="0 0 0 0 0 0 0 0 0 0 0 0 0 0 0 0 0 0 127 0" result="hardAlpha"/><feOffset dx="-1" dy="2"/><feGaussianBlur stdDeviation="1"/><feComposite in2="hardAlpha" operator="arithmetic" k2="-1" k3="1"/><feColorMatrix values="0 0 0 0 0 0 0 0 0 0 0 0 0 0 0 0 0 0 0.16 0"/><feBlend in2="shape" result="effect2_innerShadow_1436_29240"/></filter></defs></svg>