<svg width="65" height="64" fill="none" xmlns="http://www.w3.org/2000/svg"><path d="M63.046 39.742c-4.274 17.143-21.64 27.576-38.786 23.3C7.12 58.77-3.314 41.406.962 24.263 5.235 7.119 22.6-3.315 39.742.959c17.145 4.274 27.578 21.64 23.304 38.784Z" fill="url(#a)"/><path d="M3.873 24.989v-.001C7.745 9.451 23.482-.005 39.016 3.868c15.538 3.874 24.993 19.611 21.12 35.148-3.874 15.535-19.61 24.99-35.15 21.116C9.453 56.259-.002 40.522 3.873 24.989Z" stroke="#fff" stroke-opacity=".24" stroke-width="6"/><path d="M62.091 21.128.413 37.13a31.879 31.879 0 0 1 .546-12.868C5.23 7.118 22.596-3.316 39.738.958c10.74 2.677 18.846 10.491 22.353 20.17Z" fill="#fff" style="mix-blend-mode:screen" opacity=".3"/><g filter="url(#b)"><path d="M57.222 38.29C53.749 52.22 39.64 60.696 25.708 57.222 11.782 53.75 3.304 39.642 6.778 25.714 10.25 11.784 24.36 3.306 38.288 6.779 52.217 10.25 60.695 24.36 57.222 38.29Z" fill="url(#c)"/></g><path d="M25.42 20.677c2.924-5.064 10.233-5.064 13.157 0l8.618 13.05c2.924 5.065-.73 11.395-6.578 11.395H23.38c-5.848 0-9.502-6.33-6.579-11.394l8.618-13.051Z" fill="url(#d)"/><path d="M26.49 40.667c2.517 0 4.557-2.483 4.557-5.545 0-3.063-2.04-5.545-4.558-5.545-2.517 0-4.557 2.482-4.557 5.545 0 3.063 2.04 5.545 4.557 5.545Z" fill="#1F1C3E"/><path d="M25.992 35.609a2.051 2.051 0 1 0 0-4.102 2.051 2.051 0 0 0 0 4.102Z" fill="#fff"/><path d="M37.17 40.667c2.516 0 4.557-2.483 4.557-5.545 0-3.063-2.04-5.545-4.558-5.545-2.517 0-4.558 2.482-4.558 5.545 0 3.063 2.04 5.545 4.558 5.545Z" fill="#1F1C3E"/><path d="M36.486 35.609a2.051 2.051 0 1 0 0-4.102 2.051 2.051 0 0 0 0 4.102Z" fill="#fff"/><defs><linearGradient id="a" x1="32.004" y1="0" x2="32.004" y2="64.001" gradientUnits="userSpaceOnUse"><stop stop-color="#35D8FB"/><stop offset=".521" stop-color="#3B5FFA"/><stop offset="1" stop-color="#BF85EA"/></linearGradient><linearGradient id="c" x1="17.527" y1="10.324" x2="43.717" y2="54.549" gradientUnits="userSpaceOnUse"><stop stop-color="#35D8FB"/><stop offset=".521" stop-color="#3B5FFA"/><stop offset="1" stop-color="#BF85EA"/></linearGradient><linearGradient id="d" x1="22.235" y1="19.166" x2="44.842" y2="43.268" gradientUnits="userSpaceOnUse"><stop stop-color="#fff"/><stop offset=".679" stop-color="#fff" stop-opacity=".9"/><stop offset="1" stop-color="#fff" stop-opacity=".61"/></linearGradient><filter id="b" x="5" y="6" width="53" height="54" filterUnits="userSpaceOnUse" color-interpolation-filters="sRGB"><feFlood flood-opacity="0" result="BackgroundImageFix"/><feColorMatrix in="SourceAlpha" values="0 0 0 0 0 0 0 0 0 0 0 0 0 0 0 0 0 0 127 0" result="hardAlpha"/><feOffset dx="-1" dy="1"/><feColorMatrix values="0 0 0 0 1 0 0 0 0 1 0 0 0 0 1 0 0 0 0.32 0"/><feBlend in2="BackgroundImageFix" result="effect1_dropShadow_7056_152074"/><feBlend in="SourceGraphic" in2="effect1_dropShadow_7056_152074" result="shape"/><feColorMatrix in="SourceAlpha" values="0 0 0 0 0 0 0 0 0 0 0 0 0 0 0 0 0 0 127 0" result="hardAlpha"/><feOffset dx="-1" dy="2"/><feGaussianBlur stdDeviation="1"/><feComposite in2="hardAlpha" operator="arithmetic" k2="-1" k3="1"/><feColorMatrix values="0 0 0 0 0 0 0 0 0 0 0 0 0 0 0 0 0 0 0.16 0"/><feBlend in2="shape" result="effect2_innerShadow_7056_152074"/></filter></defs></svg>