<svg width="64" height="64" fill="none" xmlns="http://www.w3.org/2000/svg"><g clip-path="url(#a)"><path d="M63.046 39.742c-4.274 17.143-21.64 27.576-38.786 23.3C7.12 58.77-3.314 41.406.962 24.263 5.235 7.119 22.6-3.315 39.742.959c17.145 4.274 27.578 21.64 23.304 38.784Z" fill="#fff"/><path d="M3.873 24.989v-.001C7.745 9.451 23.482-.005 39.016 3.868c15.538 3.874 24.993 19.611 21.12 35.148-3.874 15.535-19.61 24.99-35.15 21.116C9.453 56.259-.002 40.522 3.873 24.989Z" stroke="#fff" stroke-opacity=".24" stroke-width="6"/><path d="M62.091 21.127.413 37.13a31.878 31.878 0 0 1 .546-12.867C5.23 7.118 22.596-3.317 39.738.958c10.74 2.677 18.846 10.49 22.353 20.17Z" fill="#fff" style="mix-blend-mode:screen" opacity=".3"/><g filter="url(#b)"><path d="M57.222 38.29C53.749 52.218 39.64 60.695 25.708 57.222 11.782 53.749 3.304 39.64 6.778 25.713 10.25 11.783 24.36 3.305 38.288 6.778c13.93 3.473 22.408 17.582 18.935 31.512Z" fill="#F3F3F3"/></g></g><path d="M28.012 18.673c.649-1.311 1.587-2.278 3.076-2.591.052-.011.11-.009.13-.075h.197c.192.052.395.052.588 0h.196c.017.065.075.065.13.075 1.488.315 2.425 1.284 3.076 2.593.008.121-.089.135-.17.156-.107.023-.217.03-.326.024-2.134 0-4.269.003-6.4-.005-.177-.001-.41.09-.497-.177Z" fill="#00D0FE"/><path d="M20.072 23.771c.112.13.199.281.255.444 0 .155-.123.173-.222.174-1.317.01-2.634.06-3.95-.024-.043-.003.013 0-.03-.01-.17-.114-.02-.314-.117-.447v-.13a.7.7 0 0 1 .403-.106h3.29a.615.615 0 0 1 .37.1Z" fill="#2EAEFE"/><path d="M20.188 40.032c-.06.166-.148.32-.261.453-.126.109-.281.104-.433.105h-2.927c-.152 0-.306.004-.433-.104-.078-.043-.029-.166-.126-.196v-.13c.048-.044.023-.117.065-.162.101-.082.222-.073.341-.073 1.144 0 2.289 0 3.434.005.116.001.274-.077.34.102ZM43.484 40.489a1.608 1.608 0 0 1-.261-.457c.08-.117.204-.108.322-.108 1.157 0 2.314 0 3.471.007.118 0 .242-.015.337.083.043.065-.008.152.054.211v.065c-.097.03-.053.153-.13.196-.126.11-.281.104-.432.104-.975.003-1.951.003-2.927 0-.153 0-.307.004-.434-.101Z" fill="#B04BFE"/><path d="M20.188 40.032c-.196-.084-.392-.033-.592-.034-1.045-.006-2.09-.004-3.135 0-.127 0-.254.02-.382.03-.092-.117.017-.272-.07-.391v-.065a.059.059 0 0 1 .053-.004c.13-.102.282-.1.433-.1 1.223-.003 2.445-.003 3.668 0 .097 0 .247-.07.289.109-.063.165-.152.319-.264.455Z" fill="#AC4EFE"/><path d="m20.072 23.77-4.064.007v-.066c.134-.095.079-.287.196-.391.117-.105.28-.105.432-.106h2.736c.153 0 .305 0 .436.1.113.136.203.29.264.456Z" fill="#2AB1FE"/><path d="M16.082 24.296h3.887c.122 0 .26.05.358-.082.116.141.208.3.275.47-.117.127-.276.11-.424.11-1.202.005-2.404.005-3.605 0-.151 0-.306.007-.43-.105-.078-.07-.032-.204-.135-.262v-.065c.025-.023.03-.066.074-.066ZM47.404 24.428c-.106.055-.06.19-.135.262-.125.113-.28.105-.43.105a833.31 833.31 0 0 1-3.606 0c-.15 0-.308.017-.425-.112.05-.14.126-.27.224-.383a.611.611 0 0 1 .337-.102c1.236-.004 2.472-.008 3.708 0 .066 0 .13.011.192.033.059.026.107.073.136.13v.067Z" fill="#31ABFE"/><path d="M31.215 47.993c-.356-.164-.76-.196-1.103-.398-.111-.065-.218-.135-.327-.202.05-.171.2-.15.322-.15 1.065-.011 2.13-.011 3.195 0 .121 0 .27-.02.323.148-.388.285-.833.43-1.297.53-.066.015-.155-.014-.196.072h-.196a.85.85 0 0 0-.523 0h-.198Z" fill="#EB1EFE"/><path d="M47.404 40.228c-.086-.043-.06-.126-.07-.195-.092-.137-.113-.271.014-.4.019 0 .038.002.056.008v.587Z" fill="#D298FE"/><path d="M31.999 16.007a.588.588 0 0 1-.588 0H32Z" fill="#5EDFFE"/><path d="m47.405 24.361-.074-.065c-.111-.18-.13-.357.016-.528.02 0 .039.003.058.006v.587Z" fill="#85D2FE"/><path d="M16.008 39.64c.125.114.036.262.07.392-.006.053-.013.106-.07.131v-.522Z" fill="#CA8CFE"/><path d="M31.411 47.994a.497.497 0 0 1 .523 0h-.523Z" fill="#EA65FE"/><path d="m16.082 24.297-.074.065v-.457c.123.112.035.264.074.392Z" fill="#71C8FE"/><path d="M40.366 27.281c.133.163.24.346.315.541-.082.09-.196.096-.3.094-.563-.007-1.126.043-1.686-.039a.553.553 0 0 0-.283.047.369.369 0 0 1-.122.009c-1.442-.018-2.883 0-4.324-.009-.181 0-.372.032-.533-.093-.053-.3.022-.436.312-.569 2.131-.005 4.263.004 6.395-.005.076.003.151.011.226.024Z" fill="#4A98FE"/><path d="M28.012 18.672c.091.117.22.074.334.074 2.24.002 4.48.002 6.719 0 .114 0 .243.043.334-.072.115.138.205.294.267.462-.143.139-.326.1-.493.1-1.244.004-2.488 0-3.732.003-.116 0-.277-.065-.29.15-.138.1-.236-.016-.344-.065a1.853 1.853 0 0 0-.322-.125 1.459 1.459 0 0 0-.789.028c-.13.04-.257.124-.407.077-.343-.138-.703-.04-1.054-.07-.167-.014-.348.04-.49-.099.059-.17.15-.327.267-.463Z" fill="#04CDFE"/><path d="M36.384 20.375c.137.173.247.365.326.57-.047.202-.214.121-.326.121-1.22.006-2.44.006-3.663 0-.16 0-.322.025-.484.005a1.045 1.045 0 0 1-.362-.598c0-.164.108-.196.239-.196 1.334.005 2.668-.013 4.001 0a.392.392 0 0 1 .269.098Z" fill="#12C3FE"/><path d="m39.925 26.508.23.405c-.084.222-.282.161-.44.163-1.032.008-2.065.004-3.098.004h-2.22c-.152 0-.305.011-.451-.047-.156-.25-.066-.477.25-.616 1.773-.01 3.546 0 5.319-.004a.742.742 0 0 1 .41.095Z" fill="#439DFE"/><path d="m33.864 26.964 6.083.01c.075 0 .154.007.21-.062a.984.984 0 0 1 .209.37c-.085.122-.215.081-.327.081-2.002.003-4.007.003-6.013 0-.113 0-.242.044-.332-.073-.07-.175.004-.273.17-.326Z" fill="#479BFE"/><path d="M38.87 24.687c.126.163.23.342.308.532 0 .148-.113.099-.182.099-1.436 0-2.87.006-4.304-.006a.137.137 0 0 1-.06-.026 1.102 1.102 0 0 1-.27-.404c-.044-.107-.065-.214.088-.261.256-.058.517-.032.775-.033 1.05-.002 2.098-.002 3.146 0 .173-.002.348-.015.5.099ZM42.808 24.68l4.461.009c-.041.227-.162.416-.296.599-.54.065-1.082.022-1.623.024-.858.005-1.716.005-2.574 0-.093 0-.242.085-.268-.106.074-.189.175-.366.3-.525Z" fill="#35A8FE"/><path d="M37.742 22.73c.138.18.25.376.335.585a.334.334 0 0 1-.267.099c-1.392 0-2.782.035-4.173-.016-.311-.164-.44-.411-.343-.657a.93.93 0 0 1 .385-.05h3.709c.119 0 .238.013.354.04Z" fill="#25B4FE"/><path d="m38.342 23.77.322.523a.331.331 0 0 1-.265.1c-1.393 0-2.785.035-4.18-.017-.346-.18-.456-.403-.331-.66a.957.957 0 0 1 .384-.048h3.603c.162.001.329-.007.467.103Z" fill="#2EAEFE"/><path d="M34.696 25.273c.22-.066.446-.034.668-.034 1.256 0 2.512.01 3.768.015.015 0 .03-.028.046-.042.112.137.2.291.261.457-.044.18-.204.13-.317.145-.368.04-.738.017-1.11.018h-2.804c-.196 0-.392.011-.576-.075-.139-.181-.041-.332.064-.484Z" fill="#39A5FE"/><path d="M32.254 21.034c.36-.074.724-.032 1.086-.036 1.014-.009 2.025.003 3.04 0 .108 0 .235.066.327-.05.117.132.206.286.265.453-.053.246-.261.188-.413.19-.887.01-1.773.007-2.66.003-.433 0-.866.026-1.297-.02-.247-.096-.388-.26-.348-.54Z" fill="#16BFFE"/><path d="M37.743 22.732c-.097.105-.224.061-.339.062-1.381.003-2.762.003-4.143 0-.2-.08-.258-.261-.3-.447.08-.121.208-.103.327-.105 1.324-.017 2.648 0 3.973-.008.076.008.15.021.224.042.11.137.197.291.258.456Z" fill="#21B7FE"/><path d="M42.506 25.209c.05.106.138.034.202.034h4.014c.085.008.168.024.25.048l-.261.457a.726.726 0 0 1-.407.094c-1.197 0-2.394.007-3.592-.007-.165 0-.377.058-.473-.168a1.49 1.49 0 0 1 .267-.458Z" fill="#39A5FE"/><path d="M34.603 25.651c.1.077.218.08.334.08l4.39-.018a.117.117 0 0 0 .111-.045c.095.105.167.23.21.365-.007.267-.217.196-.357.196-.955.004-1.911 0-2.867 0-.608 0-1.216.004-1.825.003-.111 0-.25.044-.298-.122.015-.21.09-.38.302-.459Z" fill="#3CA2FE"/><path d="m47.347 23.772-.016.529h-4.298c.076-.19.177-.369.3-.531.144-.098.308-.098.472-.098h3.07c.16 0 .326-.016.465.106l.007-.006Z" fill="#2EAEFE"/><path d="M31.086 19.4c.07-.139-.12-.143-.14-.264h4.72c.114.135.203.29.262.457-.143.139-.327.103-.494.104-1.335.002-2.67.002-4.005 0-.171-.031-.332-.077-.343-.297Z" fill="#07CBFE"/><path d="M38.4 27.885a.202.202 0 0 1 .24-.123c.679.126 1.364.025 2.045.058.05.066.101.127.158.196l.161-.2c.13-.105.282-.103.434-.103h3.645c.15 0 .306-.017.43.104a.858.858 0 0 1-.19.326.69.69 0 0 1-.372.103c-1.794 0-3.587.005-5.38 0-.054 0-.108-.011-.162-.015-.137-.013-.251-.087-.374-.136-.199-.114-.45-.069-.635-.21Z" fill="#4D96FE"/><path d="m38.341 23.772-4.51.004c-.24-.066-.279-.246-.26-.458h4.505c.116.134.206.288.265.454Z" fill="#2AB1FE"/><path d="m46.272 26.514-.277.467c-.144.092-.305.096-.469.096-1.176 0-2.356.005-3.534-.005-.164 0-.38.073-.465-.17.061-.166.15-.32.262-.457.127-.026.256-.038.386-.038h3.603c.17.007.35-.024.494.107Z" fill="#439DFE"/><path d="M45.508 27.82h-4.506c.06-.167.148-.321.261-.457.13-.107.282-.104.434-.104h3.645c.15 0 .308-.016.43.104a1.744 1.744 0 0 1-.264.457Z" fill="#4A98FE"/><path d="M34.346 26.116c.105.119.243.04.359.04 1.54.008 3.079 0 4.618 0 .12 0 .27.063.327-.118.116.142.21.302.277.472l-5.563.01c-.075 0-.154.006-.208-.066-.035-.168.007-.293.19-.338Z" fill="#40A0FE"/><path d="M37.481 22.276c-.025.044-.061.043-.109.042-1.385-.005-2.77-.007-4.154-.008a1.717 1.717 0 0 0-.222.028c-.291-.19-.34-.318-.195-.523a.945.945 0 0 1 .322-.038H36.9c.108 0 .216.016.32.046.111.135.199.288.26.453Z" fill="#1DBAFE"/><path d="M42.245 25.662c.147.084.309.071.468.072l4 .01a1.78 1.78 0 0 1-.27.456c-.768.062-1.538.015-2.308.029-.63.011-1.26.005-1.89 0-.092 0-.244.084-.26-.112a1.58 1.58 0 0 1 .26-.455Z" fill="#3CA2FE"/><path d="M36.382 20.377c-1.425-.066-2.852-.008-4.279-.032-.075 0-.185-.022-.177.118-.19-.03-.246-.18-.299-.334a.262.262 0 0 1 .05-.167c.12-.144.288-.14.45-.141 1.197-.005 2.393-.005 3.589 0 .142 0 .285.004.403.1a1.5 1.5 0 0 1 .263.456Z" fill="#0DC6FE"/><path d="m34.138 24.302 4.527-.006c.096.112.166.245.206.387l-4.512.006c-.184-.068-.269-.187-.22-.387Z" fill="#31ABFE"/><path d="M37.217 21.823c-.1.1-.227.057-.34.057-1.382.003-2.764.003-4.145 0-.169-.076-.28-.183-.217-.392 1.366 0 2.732-.001 4.099-.004.123 0 .265.05.358-.087.107.127.19.27.245.426Z" fill="#1ABDFE"/><path d="M45.772 27.363h-4.506a1.53 1.53 0 0 1 .265-.457c.105.117.244.066.368.066 1.366.006 2.733.01 4.1.011l-.227.38Z" fill="#479BFE"/><path d="m47.336 23.777-4.004-.01c.065-.165.155-.32.267-.457.142-.103.306-.1.469-.1h2.673c.161 0 .327-.013.464.106.095.135.14.297.13.46Z" fill="#2AB1FE"/><path d="m47.208 23.318-3.606-.007c.096-.223.208-.435.406-.588a25.55 25.55 0 0 1 2.812.004c.187.153.322.36.388.591Z" fill="#25B4FE"/><path d="M41.983 26.117c.03.062.078.047.135.047a738.07 738.07 0 0 1 4.075-.009c.085.007.169.022.25.044l-.17.317h-4.114c-.124 0-.261.05-.368-.065a.911.911 0 0 1 .192-.334Z" fill="#40A0FE"/><path d="M36.118 19.918h-4.036c-.15 0-.307-.024-.408.131-.201-.054-.315-.18-.326-.392a.289.289 0 0 1 .191-.08c1.462.01 2.925.01 4.387.012.09.092.156.206.192.33Z" fill="#0AC9FE"/><path d="M46.82 22.726c-.066.083-.154.065-.24.065h-2.336c-.085 0-.176.014-.236-.071.742-.813 2.062-.812 2.811.006Z" fill="#21B8FE"/><path d="M22.727 27.821c.06-.166.149-.32.26-.457a.742.742 0 0 1 .437-.105h6.427c.307.13.401.34.277.61-.166.073-.342.053-.514.054-1.476.006-2.951-.007-4.427.008a.348.348 0 0 1-.123-.008c-.1-.037-.195-.08-.314-.058-.572.103-1.149.038-1.724.05-.104.004-.216-.003-.3-.094Z" fill="#4A98FE"/><path d="M23.253 26.907c.063-.163.15-.316.261-.451.105-.029.213-.044.322-.045 1.856.003 3.712-.004 5.568.004.309.14.398.353.26.613a.85.85 0 0 1-.351.05c-1.875.002-3.749.002-5.623 0-.158-.002-.357.055-.437-.17Z" fill="#439DFE"/><path d="M23.254 26.906c.065.082.155.066.24.066l6.241-.005c.154.058.246.149.178.327-.105.117-.245.065-.369.065-2.184.003-4.367.003-6.552 0a1.66 1.66 0 0 1 .262-.453Z" fill="#479BFE"/><path d="m16.143 24.686 4.46-.006c.123.162.225.34.302.529.031.13-.077.109-.139.109-1.42-.004-2.839 0-4.258 0a.124.124 0 0 1-.086-.041c-.116-.186-.245-.364-.28-.59ZM24.232 25.212c.076-.19.18-.369.307-.53a.57.57 0 0 1 .337-.095c1.306 0 2.612-.01 3.922 0 .054.002.107.01.16.024.138.04.14.135.093.247a.967.967 0 0 1-.192.286c-.134.13-.302.157-.48.16-1.326.024-2.65 0-3.976.018-.073.004-.185.034-.171-.11Z" fill="#35A8FE"/><path d="M24.232 25.212c.13.131.287.029.425.03 1.205.01 2.409 0 3.613.005.18.008.359-.026.523-.1.172.162.32.332.201.594-.145.093-.31.093-.47.093-1.384.006-2.768.006-4.152 0-.147 0-.333.047-.4-.166.063-.164.151-.317.26-.456Z" fill="#39A5FE"/><path d="M24.813 24.218c.057-.164.143-.316.254-.448.152-.115.327-.093.502-.095 1.26-.004 2.519.006 3.778-.004a.224.224 0 0 1 .213.177c-.005.264-.123.448-.382.532-1.357.047-2.715.018-4.072.013-.117 0-.275.014-.294-.175Z" fill="#2EAEFE"/><path d="M23.967 25.665c.095.11.223.065.338.065 1.413.003 2.828.003 4.244 0 .16 0 .322.016.458-.09.228.07.27.26.298.457-.031.148-.149.13-.256.13a807.467 807.467 0 0 0-5.139-.004c-.072 0-.212.07-.204-.107.064-.163.152-.315.261-.45Z" fill="#3CA2FE"/><path d="M16.422 25.274c.138-.012.275-.034.413-.033 1.331.004 2.663.013 3.995.017.025 0 .05-.032.075-.05.113.136.202.29.26.457-.048.196-.222.143-.345.154-.422.038-.85.015-1.27.017h-2.348c-.173 0-.349.006-.504-.095l-.276-.467Z" fill="#39A5FE"/><path d="M22.727 27.82c.693-.032 1.39.065 2.08-.06.114-.022.217.005.272.125-.206.144-.479.077-.688.215a1.22 1.22 0 0 1-.379.13c-.877.043-1.754.014-2.63.019-.932.005-1.863 0-2.794 0-.172 0-.35.019-.498-.103a.871.871 0 0 1-.19-.326c.122-.12.28-.104.43-.104 1.215-.004 2.43-.004 3.645 0 .152 0 .306 0 .434.103l.158.201.16-.2Z" fill="#4D96FE"/><path d="M23.707 26.122c.11.104.244.034.361.034 1.698.01 3.396.01 5.094.015a.098.098 0 0 0 .102-.06c.175.052.225.173.19.342-.087.096-.202.061-.306.061h-5.325c-.104 0-.219.036-.306-.058a.919.919 0 0 1 .19-.334Z" fill="#40A0FE"/><path d="M22.41 27.821h-4.506a1.693 1.693 0 0 1-.261-.457c.122-.121.28-.104.43-.105 1.215-.003 2.43-.003 3.646 0 .151 0 .306-.004.433.104.111.137.199.292.258.458Z" fill="#4A98FE"/><path d="m17.399 26.97-.261-.457c.1-.106.235-.1.363-.1 1.277-.007 2.553 0 3.83-.005.097.005.193.019.288.04.111.137.2.29.261.455-.03.184-.186.164-.305.165-1.29.013-2.583.011-3.874 0a.522.522 0 0 1-.302-.098Z" fill="#439DFE"/><path d="m16.698 25.741 3.907-.009c.19 0 .38.007.56-.065.114.134.202.287.262.453-.043.2-.207.1-.304.101-1.206.016-2.412.018-3.618.007-.182 0-.369.054-.547-.027l-.26-.46Z" fill="#3CA2FE"/><path d="M29.388 23.708c-.183.124-.387.066-.583.066-1.246 0-2.493-.002-3.74-.004.06-.166.15-.321.262-.457.109-.087.238-.095.37-.096 1.093-.008 2.185.013 3.278-.019a.576.576 0 0 1 .413.51Z" fill="#2AB1FE"/><path d="M29.061 23.25c-1.24.14-2.488.036-3.732.062.086-.21.199-.407.336-.587 1.052-.034 2.103-.09 3.151.036.274.069.227.296.245.49Z" fill="#25B4FE"/><path d="M28.93 22.861c-.961-.13-1.93-.035-2.893-.065-.125-.004-.261.05-.371-.065.062-.166.15-.32.261-.457.638-.082 1.279-.038 1.918-.032.24 0 .367-.008.269-.286a.105.105 0 0 1 .051-.11.452.452 0 0 1 .327-.02c.134.15.315.243.465.374.017.104.032.204.115.286.07.07.11.159.019.249a.366.366 0 0 0-.16.127Z" fill="#21B7FE"/><path d="M24.812 24.218c.098.13.24.077.362.077 1.365.005 2.73.007 4.096.006.059.203-.032.322-.218.388l-4.512-.007c.06-.17.153-.328.272-.464Z" fill="#31ABFE"/><path d="M17.4 26.972h4.15c.113 0 .24.043.334-.066.112.137.2.292.261.457H17.64l-.239-.391Z" fill="#479BFE"/><path d="m19.808 23.314-3.604.006c.064-.234.201-.442.392-.592a24.587 24.587 0 0 1 2.808 0c.196.151.312.36.404.586Z" fill="#25B4FE"/><path d="M16.96 26.2c.16-.015.32-.041.48-.042 1.25-.005 2.5-.004 3.75-.007.081 0 .17.043.24-.033.087.096.153.21.192.333-.097.107-.225.066-.338.066-1.382.003-2.763.003-4.143 0l-.18-.318Z" fill="#40A0FE"/><path d="M19.403 22.725c-.051.072-.13.066-.205.066h-2.4c-.076 0-.153.003-.204-.07.744-.814 2.075-.813 2.81.004Z" fill="#21B8FE"/><path d="M27.744 19.134c.445 0 .89.007 1.334 0 .118 0 .207.01.246.134.023.05-.004.085-.034.12-.117.113-.257.196-.38.305a2.018 2.018 0 0 0-.275.29c-.072.083-.13.19-.271.152-.138-.13-.311-.12-.484-.13-.196-.01-.412.06-.588-.09.122-.276.273-.538.452-.781Z" fill="#08CBFE"/><path d="M28.146 21.881c-.033.126.288.261-.01.378.062.107-.025.07-.069.069a19.468 19.468 0 0 0-2.066 0c-.024 0-.05-.035-.074-.054.063-.165.151-.32.261-.457.395-.06.792-.017 1.189-.026.143 0 .278-.01.387-.117.179-.02.29.079.382.207Z" fill="#1DBAFE"/><path d="M26.645 21.033c.1-.233.229-.454.382-.657.355-.154.714-.121 1.073-.019a.236.236 0 0 1 .07.081c.015.221-.161.356-.24.535a.275.275 0 0 1-.16.103c-.295.009-.593-.023-.888.02-.085.012-.172.012-.238-.063Z" fill="#12C3FE"/><path d="M27.82 21.686c-.046.13-.106.22-.28.2-.449-.049-.906.072-1.35-.064a.86.86 0 0 1 .195-.33c.14-.1.303-.094.463-.094.246 0 .494.014.73-.072.186-.006.298.104.365.255.048.11-.001.158-.123.105Z" fill="#1ABDFE"/><path d="M28.147 20.444c-.367-.137-.75-.028-1.123-.069.06-.167.148-.322.262-.457.303 0 .607.018.908 0 .176-.012.18.095.21.202.004.177-.072.292-.257.324Z" fill="#0DC6FE"/><path d="M27.625 21.36c-.087.11-.2.137-.34.133-.3-.01-.6-.003-.901-.004.061-.166.15-.32.261-.457.37-.005.74-.085 1.11 0 .088.162 0 .253-.13.327Z" fill="#16BFFE"/><path d="M28.082 45.453a3.352 3.352 0 0 1-.385-.66c.073-.107.186-.09.29-.093.269-.007.536 0 .804-.014.127-.006.308.098.355-.13.173-.012.283.13.433.174a1.257 1.257 0 0 0 1.017.017.762.762 0 0 1 .275-.072c.454.058.91.012 1.365.015 1.045.005 2.085-.007 3.127.013.117 0 .308-.07.3.172a2.339 2.339 0 0 1-.332.578c-.954-.066-1.908-.02-2.861-.025-1.28-.009-2.56 0-3.839-.005a3.694 3.694 0 0 0-.55.03Z" fill="#D82EFE"/><path d="M28.081 45.453c.047-.148.17-.103.27-.103h6.707c.1 0 .224-.048.273.099a1.75 1.75 0 0 1-.313.522c-.14.106-.304.101-.467.101h-5.692c-.163 0-.327 0-.469-.1a1.947 1.947 0 0 1-.309-.52Z" fill="#DC2AFE"/><path d="M45.316 35.852c.097.114.173.245.223.386-.097.113-.233.109-.361.11-1.272.006-2.547 0-3.816.003a1.955 1.955 0 0 1-.29-.039l-.214-.307c-.13.036-.12.188-.215.25a.685.685 0 0 1-.372.094h-3.8a.755.755 0 0 1-.287-.042c-.124-.218-.052-.365.241-.49 2.857-.005 5.713-.005 8.57 0 .107.002.215.014.321.035Z" fill="#8E65FE"/><path d="M28.388 45.976h6.628c-.08.175-.194.332-.337.461-.17.072-.355.104-.54.096h-4.915a1.082 1.082 0 0 1-.506-.1 1.491 1.491 0 0 1-.33-.457Z" fill="#E027FE"/><path d="M39.325 38.53a2.385 2.385 0 0 1-.339.588.49.49 0 0 1-.335.101c-1.29.005-2.583.006-3.874 0a.642.642 0 0 1-.224-.037c-.076-.033-.13-.094-.098-.173.103-.238.161-.519.478-.582h3.932c.16-.002.33-.028.46.103Z" fill="#A554FE"/><path d="M40.303 36.832c-.084.211-.197.409-.337.588a.493.493 0 0 1-.335.101c-1.29.005-2.58.005-3.87 0a.622.622 0 0 1-.224-.036c-.173-.086-.087-.214-.04-.323.07-.166.157-.326.334-.403.2-.072.408-.027.61-.028a728.18 728.18 0 0 1 3.371 0c.169-.001.35-.036.491.101ZM45.839 36.761c.152.205.28.425.383.658-.122.122-.28.104-.43.104-1.214.004-2.429.004-3.643 0-.153 0-.306 0-.434-.102a2.533 2.533 0 0 1-.343-.584c.098-.112.233-.109.362-.11 1.294-.006 2.587 0 3.881-.003a.811.811 0 0 1 .224.038Z" fill="#975EFE"/><path d="M38.009 40.815c-.103.236-.232.46-.386.666-.215.05-.434.023-.65.024-1.089.003-2.176.003-3.262 0-.161 0-.326.015-.483-.048-.14-.246-.015-.522.327-.718.528-.059 1.058-.022 1.588-.027.8-.006 1.601-.004 2.402 0 .162-.003.333-.027.464.103Z" fill="#B746FE"/><path d="M46.87 38.53c.131.183.24.38.326.588-.122.122-.28.104-.43.104-1.212.004-2.425.004-3.638 0-.152 0-.305 0-.433-.102a2.508 2.508 0 0 1-.343-.584c.119-.13.278-.11.428-.111 1.219-.004 2.436-.004 3.653 0 .155-.003.307.004.436.106Z" fill="#A554FE"/><path d="M40.304 36.832c-1.322 0-2.644-.005-3.966 0-.182 0-.363-.06-.546 0-.022-.273.111-.457.338-.588l4.513.009a2.639 2.639 0 0 1-.339.579ZM45.84 36.762c-.105.118-.244.065-.368.065-1.366.006-2.732.006-4.099.01a2.195 2.195 0 0 1-.302-.529c.107-.115.246-.065.37-.065 1.365-.006 2.731-.007 4.097-.01.127.16.228.338.302.529Z" fill="#9262FE"/><path d="M28.72 46.434c1.828 0 3.657-.006 5.49 0 .156 0 .315-.056.47.007a1.651 1.651 0 0 1-.466.5c-.17.036-.344.053-.517.052a1017.3 1017.3 0 0 0-3.984 0 2.75 2.75 0 0 1-.518-.05c-.199-.133-.337-.32-.475-.509Z" fill="#E424FE"/><path d="M35.662 44.873c-.056-.16-.187-.106-.299-.106-1.42.006-2.842-.04-4.262.022-.07 0-.143-.04-.215-.066.126-.28.386-.435.593-.641a.168.168 0 0 1 .2.014c.137.089.292.07.442.072 1.139 0 2.278-.004 3.416.004.156 0 .355-.065.44.156-.078.195-.185.38-.315.545Z" fill="#D331FE"/><path d="M38.46 40.033a2.172 2.172 0 0 1-.312.541c-.539.047-1.079.014-1.618.019-.768.006-1.534 0-2.301 0-.151.01-.303-.001-.45-.036-.275-.242.018-.372.107-.542.176-.113.378-.085.57-.085h3.552c.153-.003.327-.054.453.103Z" fill="#B04BFE"/><path d="M29.197 46.94c.08-.082.183-.054.277-.054h4.463c.094 0 .195-.029.277.053a1.98 1.98 0 0 1-.588.453c-.06-.06-.139-.05-.214-.05H30c-.075 0-.153-.01-.213.052a2.023 2.023 0 0 1-.589-.453Z" fill="#E721FE"/><path d="M34.482 39.118h4.506a1.54 1.54 0 0 1-.261.457.484.484 0 0 1-.335.102c-1.29.005-2.58.005-3.87 0a.654.654 0 0 1-.225-.035c-.162-.219-.112-.36.185-.524Z" fill="#A951FE"/><path d="M33.164 41.397c1.365 0 2.73.002 4.095.005.123 0 .261-.05.364.077a1.423 1.423 0 0 1-.262.457 1.291 1.291 0 0 1-.354.03h-3.535c-.161 0-.326.013-.482-.04-.168-.224-.124-.354.174-.529Z" fill="#BC43FE"/><path d="M32.897 41.853c1.366 0 2.731.002 4.096.007.123 0 .261-.05.365.074a1.335 1.335 0 0 1-.261.457 1.154 1.154 0 0 1-.322.032c-1.198-.004-2.397 0-3.596 0-.15 0-.303.01-.45-.038-.17-.22-.13-.347.168-.532Z" fill="#BF40FE"/><path d="M36.506 43.422a1.763 1.763 0 0 1-.261.457c-.105.026-.213.04-.321.041h-3.8a.784.784 0 0 1-.32-.045c-.1-.224-.036-.368.262-.58.115-.03.235-.043.355-.038 1.216 0 2.432-.004 3.648 0 .153.002.352-.059.437.165Z" fill="#CB37FE"/><path d="M31.75 43.82h4.218c.094 0 .196-.027.273.065-.062.165-.15.318-.261.453-.1-.1-.226-.057-.34-.057a708.888 708.888 0 0 0-3.804 0c-.144 0-.299.026-.23-.206-.07-.107-.014-.188.058-.266a.066.066 0 0 1 .086.011Z" fill="#CF34FE"/><path d="M42.695 39.118h4.501a.849.849 0 0 1 .135.457c-.123.117-.28.104-.43.104-1.17.004-2.34.004-3.51 0-.152 0-.305 0-.432-.102a1.413 1.413 0 0 1-.264-.459Z" fill="#A951FE"/><path d="M34.215 39.571h4.506a1.456 1.456 0 0 1-.261.457c-.243-.055-.49-.028-.734-.029-1.11 0-2.22-.005-3.327-.004-.148 0-.297.021-.446.032-.047-.228.052-.374.262-.456Z" fill="#AC4EFE"/><path d="M44.136 41.403a1.235 1.235 0 0 1-.463-.588c.11-.115.255-.106.392-.106.895-.005 1.79-.005 2.685 0 .139 0 .283-.008.392.105-.1.267-.286.493-.528.644-.723.092-1.448.034-2.172.035a.624.624 0 0 1-.306-.09Z" fill="#B746FE"/><path d="M42.958 39.576h4.376a.288.288 0 0 1 .016.057l-.014.4c-.305-.066-.616-.03-.924-.033-.925-.008-1.851-.004-2.777 0-.138 0-.275.023-.413.036a1.334 1.334 0 0 1-.264-.46Z" fill="#AC4EFE"/><path d="M39.75 37.813a1.309 1.309 0 0 1-.237.392.512.512 0 0 1-.337.1 473.68 473.68 0 0 1-3.88 0 .596.596 0 0 1-.224-.04c-.138-.24-.065-.412.236-.554 1.348-.007 2.696 0 4.044 0 .139-.002.288-.015.398.102ZM46.442 37.804c.103.117.182.252.234.399-.122.121-.28.103-.43.104-1.215.003-2.43.003-3.645 0-.153 0-.305-.004-.436-.1a1.219 1.219 0 0 1-.233-.398c.122-.121.28-.104.429-.104 1.215-.004 2.43-.004 3.644 0 .153 0 .305.003.437.1Z" fill="#9E59FE"/><path d="M36.507 43.423c-.097-.106-.225-.062-.34-.062-1.38-.002-2.762-.002-4.144 0-.036-.257.104-.392.327-.475 1.351-.047 2.702-.018 4.053-.014.124 0 .3-.029.315.186-.045.135-.116.26-.211.365Z" fill="#C839FE"/><path d="M39.75 37.812h-4.143c-.114 0-.241.041-.342-.056-.036-.17 0-.295.196-.334h4.506l-.216.39ZM46.442 37.804l-4.51.006a1.13 1.13 0 0 1-.216-.388h4.506c.096.113.17.242.22.382Z" fill="#9A5BFE"/><path d="M36.712 43.057c-.093-.137-.235-.087-.358-.087-1.366-.004-2.732-.005-4.099-.004-.065-.236.082-.331.266-.404.715-.056 1.431-.017 2.147-.024a97.311 97.311 0 0 1 1.856 0c.149 0 .308-.02.43.102a1.39 1.39 0 0 1-.242.417Z" fill="#C53BFE"/><path d="m42.166 38.208 4.511-.006.192.327-4.516.007a.882.882 0 0 1-.187-.328ZM35.004 38.204h4.511a.854.854 0 0 1-.19.327c-1.365 0-2.73-.002-4.095-.006-.123 0-.265.051-.363-.077-.047-.132-.023-.228.137-.244Z" fill="#A157FE"/><path d="M33.689 40.483c1.366 0 2.732.001 4.098.005.123 0 .264-.05.361.082a.47.47 0 0 1-.14.245h-4.51c-.061-.185.017-.287.191-.332Z" fill="#B349FE"/><path d="M36.954 42.641h-4.507c-.05-.176.031-.276.192-.326 1.365 0 2.73 0 4.094.007.124 0 .262-.05.366.072a.506.506 0 0 1-.145.247Z" fill="#C23DFE"/><path d="M47.146 40.817h-3.473a.756.756 0 0 1-.189-.327h3.791a.465.465 0 0 1-.129.327Z" fill="#B349FE"/><path d="M44.136 41.404h2.173c.104 0 .219-.036.308.056a1.902 1.902 0 0 1-2.481-.056Z" fill="#BC44FE"/><path d="M17.9 36.18a.924.924 0 0 1 .196-.327c.138-.029.28-.042.42-.04h8.045c.163 0 .327-.01.486.038.159.105.346.196.209.443a.779.779 0 0 1-.352.054c-1.239.003-2.478.003-3.717 0-.154 0-.305-.007-.435-.104L22.59 36c-.145.061-.138.234-.25.309a1.72 1.72 0 0 1-.321.04c-1.238-.003-2.475 0-3.712-.006-.153 0-.335.045-.407-.164Z" fill="#8E65FE"/><path d="M17.188 37.42c.102-.234.23-.455.384-.66a.675.675 0 0 1 .288-.037c1.227.013 2.455 0 3.683.008.169 0 .352-.036.492.107-.086.21-.2.406-.34.584-.131.105-.282.103-.434.103h-3.644c-.149-.003-.307.013-.43-.105Z" fill="#975EFE"/><path d="M22.752 36.244h4.532c.21.082.265.285.347.462.042.092 0 .162-.097.196-.158.048-.322.036-.484.036h-3.443c-.173 0-.349.013-.5-.098l-.355-.596Z" fill="#9262FE"/><path d="M16.213 39.118a2.54 2.54 0 0 1 .326-.588c.14-.105.304-.105.468-.105h3.589c.16 0 .33-.025.46.11a2.632 2.632 0 0 1-.34.583c-.132.105-.282.103-.434.103h-3.64c-.149-.002-.307.016-.43-.103Z" fill="#A554FE"/><path d="m23.105 36.838 4.512-.005c.237.078.284.292.348.492.03.087-.026.137-.105.164-.159.047-.322.035-.483.036H23.94c-.171 0-.349.019-.496-.103a2.469 2.469 0 0 1-.338-.584Z" fill="#975EFE"/><path d="M24.425 39.117a2.51 2.51 0 0 1-.34-.587c.09-.102.211-.106.328-.107 1.319-.005 2.638-.011 3.956 0 .055.002.108.01.16.025.24.083.327.293.405.503.032.085.034.17-.07.217-.135.054-.277.045-.418.046h-3.527c-.167.005-.346.025-.494-.097Z" fill="#A554FE"/><path d="m22.035 36.838-3.996-.007c-.16 0-.321.013-.468-.07.083-.208.194-.404.33-.581.097.105.223.065.337.065h3.766c.113 0 .24-.043.336.065-.077.19-.18.367-.305.528Z" fill="#9262FE"/><path d="M24.425 39.118h4.506c.217.062.27.234.291.429-.176.139-.379.168-.595.145-1.148-.034-2.296-.004-3.443-.016-.17 0-.35.023-.497-.1a1.43 1.43 0 0 1-.262-.458ZM16.212 39.118h4.502c-.062.168-.151.324-.265.462l-4.39-.012c.022-.158.074-.31.153-.45Z" fill="#A951FE"/><path d="M25.265 40.572a2.052 2.052 0 0 1-.318-.539c.082-.116.206-.104.327-.104h2.892c.117 0 .242-.018.334.085.215.261.06.464-.107.665-.209.149-.405.316-.638.429-.134-.066-.081-.178-.066-.28.061-.279-.151-.242-.301-.244a77.405 77.405 0 0 0-1.829 0 1.99 1.99 0 0 1-.294-.012Z" fill="#B04BFE"/><path d="M19.737 40.817a1.25 1.25 0 0 1-.462.587 1 1 0 0 1-.467.104H17.19a.997.997 0 0 1-.467-.104 1.211 1.211 0 0 1-.457-.587c.11-.114.256-.105.391-.106.895-.004 1.79-.004 2.685 0 .139 0 .284-.01.394.106Z" fill="#B746FE"/><path d="M16.731 38.204c.055-.145.133-.28.233-.4.142-.099.306-.098.47-.098h3.58c.16 0 .33-.024.463.104l-.234.394c-.14.107-.305.1-.468.1h-3.582c-.16.002-.329.027-.462-.1ZM23.896 38.203l-.237-.392c.092-.097.214-.1.333-.1 1.325-.005 2.65-.01 3.975 0a.618.618 0 0 1 .131.018c.31.159.364.265.265.523-.13.061-.275.052-.416.052h-3.581c-.165.001-.333.011-.47-.1Z" fill="#9E59FE"/><path d="m21.477 37.812-4.513-.007c.05-.14.125-.27.223-.383h4.506l-.216.39ZM28.175 37.8l-4.515.009c-.079-.126-.178-.241-.215-.392h4.506c.218.046.244.198.224.383Z" fill="#9A5BFE"/><path d="M28.475 40.033c-.453-.074-.91-.03-1.363-.027-.719 0-1.444-.045-2.163.028a1.508 1.508 0 0 1-.262-.457h3.604c.172-.004.344.018.51.065a.383.383 0 0 1-.326.391Z" fill="#AC4EFE"/><path d="M23.895 38.204h4.507c.2.028.227.159.191.327h-4.509a.733.733 0 0 1-.189-.327ZM16.732 38.204l4.512.005a.833.833 0 0 1-.186.326l-4.517-.006.191-.325Z" fill="#A157FE"/><path d="M19.735 40.817h-3.474a.482.482 0 0 1-.131-.327h3.793a.808.808 0 0 1-.188.327Z" fill="#B349FE"/><path d="M27.167 43.88a6.678 6.678 0 0 1-.523-.914c.21-.163.454-.077.683-.094.138-.011.277-.015.417-.013.305.09.338.412.517.61.049.108.161.205.065.34-.375.182-.767.09-1.159.071Z" fill="#CA38FE"/><path d="M25.79 41.48a3.01 3.01 0 0 1-.387-.664c.352-.172 1.834-.14 2.123.045.085.094.044.175-.033.244-.147.13-.261.306-.472.353-.41.043-.821.05-1.232.022Z" fill="#B746FE"/><path d="M16.723 41.404h2.551a1.908 1.908 0 0 1-2.551 0Z" fill="#BC44FE"/><path d="M27.558 40.946c-.171-.13-.37-.135-.575-.13-.527.006-1.055 0-1.583 0a.453.453 0 0 1-.138-.243c.055-.088.143-.084.23-.084.68 0 1.362.004 2.043-.004.137 0 .25.052.287.159.02.058.013.216-.13.236-.03.048-.06.098-.134.066Z" fill="#B349FE"/><path d="M27.82 42.902c-.386.136-.783.032-1.175.065a2.303 2.303 0 0 1-.332-.575c.017-.215.192-.156.311-.166.242-.02.488.013.725-.065.05-.01.103.001.146.03.116.091.163.227.23.35.047.09.087.184.12.28a.106.106 0 0 1-.025.08Z" fill="#C43CFE"/><path d="M29.129 44.6c.01.118.015.187-.163.177-.423-.023-.85-.044-1.271.018a1.728 1.728 0 0 1-.261-.457c0-.174.144-.13.237-.142.173-.017.348-.018.522-.005a.272.272 0 0 0 .3-.189c.136-.051.189.074.275.131.094.074.183.154.267.24.048.064.136.118.094.226Z" fill="#D331FE"/><path d="M25.79 41.48c.13-.144.302-.069.457-.076.261-.012.53-.004.795-.004.13.122.289.236.175.454-.376.182-.773.08-1.162.082a1.384 1.384 0 0 1-.265-.456Z" fill="#BC43FE"/><path d="M28.538 44.012c.027.192-.012.278-.249.272-.285-.009-.582-.087-.86.053a1.69 1.69 0 0 1-.261-.457c.177-.131.378-.041.567-.066.202-.023.414.045.607-.065a.288.288 0 0 1 .167.111c.032.048.07.092.03.152Z" fill="#CF34FE"/><path d="M26.05 41.935c.131-.144.303-.06.458-.078.242-.027.494.054.727-.065a.161.161 0 0 1 .109.07c.05.101.138.195.087.322-.092.13-.229.123-.37.134-.25.02-.513-.085-.747.075a1.445 1.445 0 0 1-.263-.458Z" fill="#BF40FE"/><path d="m44.836 35.004.334.588c-.122.122-.28.104-.431.104-2.576.003-5.153.003-7.73 0-.151 0-.307.011-.438-.09-.075-.29 0-.45.316-.669.159-.048.323-.038.485-.038h6.9c.194-.001.396-.025.564.105Z" fill="#886AFE"/><path d="M44.336 34.154c.11.138.199.292.261.457-.02.172-.164.15-.273.163a4.989 4.989 0 0 1-.588.01h-6.09c-.19 0-.39.036-.563-.098-.104-.262.055-.401.245-.523.169-.055.344-.042.517-.042h6.067c.142-.006.285.005.424.033Z" fill="#826FFE"/><path d="M43.62 32.916c.141.177.254.376.335.588-.11.115-.256.105-.395.106-1.809.004-3.618.004-5.426 0a.872.872 0 0 1-.32-.042c-.178-.248-.048-.54.306-.688h5.146c.119 0 .238.012.354.036Z" fill="#7776FE"/><path d="M44.337 34.155c-.107.114-.245.066-.37.066-2.222.003-4.445.003-6.668 0 .006-.314.127-.481.405-.564 1.952.005 3.902 0 5.853 0 .196 0 .392-.023.564.105l.216.393Z" fill="#7E72FE"/><path d="M36.563 35.509c.109.138.26.078.395.078 2.738.003 5.476.003 8.214 0l.144.261c-.095.108-.223.066-.338.066h-8.274c-.114 0-.243.043-.334-.073-.06-.181.031-.277.193-.332Z" fill="#8B67FE"/><path d="M43.618 32.914c-.084.101-.2.066-.305.066h-4.948c-.103 0-.22.035-.3-.074-.035-.274.102-.436.346-.529.8-.05 1.6-.014 2.4-.022.683-.006 1.364 0 2.046 0 .175 0 .348 0 .5.105.11.136.2.29.261.454Z" fill="#737AFE"/><path d="M37.087 34.6c.09.119.219.074.332.075h6.843c.113 0 .241.043.337-.065l.239.392h-7.995c-.05-.212.055-.334.244-.401Z" fill="#846DFE"/><path d="M44.195 30.105a2.163 2.163 0 0 1-.311.522c-.08.05-.168.036-.254.036-1.406 0-2.813.007-4.22 0-.195 0-.304-.065-.361-.24-.029-.237.065-.383.307-.428 1.437.014 2.874 0 4.31.008.182.002.375-.04.53.102Z" fill="#6188FE"/><path d="M44.674 29.261c-.062.165-.15.32-.261.457-.119.096-.261.1-.402.1h-4.2c-.142 0-.285-.003-.406-.093-.175-.209-.055-.373.082-.534.09-.051.189-.04.285-.04 1.46.01 2.92 0 4.381.006.176 0 .369-.041.521.104Z" fill="#598CFE"/><path d="M43.626 31.085a1.55 1.55 0 0 1-.261.457.477.477 0 0 1-.334.101c-1.34.005-2.678.008-4.02 0a.596.596 0 0 1-.192-.03c-.237-.15-.065-.333-.042-.505a.32.32 0 0 1 .124-.16c.482.065.967.037 1.45.035.964-.005 1.927 0 2.89 0 .13-.002.28-.033.385.102Z" fill="#6882FE"/><path d="M44.674 29.261c-1.574 0-3.147-.005-4.721 0-.171 0-.342-.065-.513-.003-.087.082-.176.05-.261.003-.093-.066-.13-.173-.06-.244.069-.072.124-.097.035-.18.13-.16.196-.4.474-.384a.164.164 0 0 1 .065.088c.056.255.262.222.441.223 1.04.004 2.079 0 3.119 0 .422 0 .844-.003 1.266 0 .138 0 .285-.018.398.097a1.341 1.341 0 0 1-.243.4Z" fill="#568FFE"/><path d="M43.623 31.085c-.2-.05-.405-.032-.608-.03-1.284.01-2.568-.039-3.853.028-.121.006-.172-.07-.245-.13-.06-.222-.042-.414.196-.523.065.141.167.17.32.168 1.4-.009 2.8-.007 4.2-.006.084.006.167.018.25.036a1.486 1.486 0 0 1-.26.457Z" fill="#6485FE"/><path d="M43.357 32.458h-5.034c-.032-.246.075-.424.272-.557h4.286a.489.489 0 0 1 .253.044c.009.197.173.33.223.513Z" fill="#707CFE"/><path d="M44.911 28.866h-4.942c-.377 0-.392-.023-.332-.392.122-.12.28-.105.43-.105 1.544-.003 3.088-.003 4.631 0 .15 0 .308-.016.43.107-.04.15-.132.267-.217.39Z" fill="#5392FE"/><path d="M43.134 31.94c-.095.07-.205.058-.313.058h-3.965c-.109 0-.217.006-.31-.065a.079.079 0 0 1-.041-.072c.042-.127.076-.26.22-.319h4.636c-.044.152-.14.272-.227.398Z" fill="#6C7FFE"/><path d="M39.375 29.65c.13.08.271.065.411.065l4.624.003a1.17 1.17 0 0 1-.215.389h-4.541c-.14 0-.282.014-.41-.066-.167-.02-.049-.13-.065-.2.052-.077-.008-.268.196-.191Z" fill="#5D8AFE"/><path d="M45.127 28.476H39.572c-.125-.047-.196-.152-.277-.25a.066.066 0 0 1 .015-.077h6.009a.888.888 0 0 1-.192.327Z" fill="#5094FE"/><path d="M44.12 33.764h-6.144c-.123 0-.261.052-.366-.07-.065-.123-.008-.176.11-.195l6.23.004.17.261Z" fill="#7C74FE"/><path d="m18.285 35.518.286-.514a.641.641 0 0 1 .403-.104c2.49 0 4.98-.007 7.47.003.314.11.463.369.398.691-.165.11-.353.1-.537.1-2.52.004-5.038.004-7.558 0-.16-.003-.38.076-.462-.176Z" fill="#886AFE"/><path d="M18.813 34.607c.058-.167.147-.322.26-.457.107-.022.215-.035.323-.039h6.61c.29.122.374.274.316.57-.13.106-.285.095-.435.095-2.214.003-4.428.003-6.643 0-.155.002-.356.06-.431-.169Z" fill="#826FFE"/><path d="M19.45 33.497c.087-.21.201-.407.34-.587a.94.94 0 0 1 .29-.036c1.734.003 3.47 0 5.205 0 .339.14.479.44.321.685-.146.057-.3.046-.451.046h-5.18c-.18 0-.373.04-.525-.108Z" fill="#7876FE"/><path d="M26.062 34.148c-.092.114-.22.07-.334.07-2.106.003-4.211.003-6.317 0-.113 0-.241.044-.337-.065l.215-.392c.16-.12.349-.104.532-.104h5.893c.277.05.38.222.348.491Z" fill="#7D72FE"/><path d="M18.286 35.516c.092.115.22.072.335.072 2.597.002 5.194.002 7.792 0 .149 0 .3.005.433-.078.19.07.293.19.242.404h-8.625c-.124 0-.262.05-.37-.065a.935.935 0 0 1 .193-.333Z" fill="#8B67FE"/><path d="M25.345 32.907c-.08.107-.196.072-.3.072h-4.951c-.104 0-.22.035-.303-.066.06-.164.149-.318.261-.453a.44.44 0 0 1 .302-.1c1.547 0 3.094-.03 4.641.017.248.089.388.25.35.53Z" fill="#737AFE"/><path d="M18.812 34.607c.093.11.222.065.335.065h6.842c.113 0 .242.044.334-.07.185.04.218.169.196.33-.106.116-.245.066-.368.066-2.526.003-5.05.003-7.576 0l.237-.391Z" fill="#846DFE"/><path d="M19.525 30.632a2.085 2.085 0 0 1-.31-.523c.145-.135.327-.1.497-.1 1.272-.004 2.544 0 3.816 0 .184.01.37-.003.55-.041.261 0 .317.09.336.513a.3.3 0 0 1-.3.196c-1.49.009-2.98-.016-4.47.005a.172.172 0 0 1-.119-.05Z" fill="#6188FE"/><path d="M18.998 29.72a1.432 1.432 0 0 1-.26-.457c.141-.14.326-.106.492-.106a673.51 673.51 0 0 1 3.97 0c.206.003.412-.005.617-.024a.29.29 0 0 1 .221.06c.057.102.104.208.14.32.04.106.054.21-.088.26-.18.042-.365.059-.55.05h-4.038c-.172-.004-.353.014-.503-.102Z" fill="#598CFE"/><path d="M20.05 31.544a1.53 1.53 0 0 1-.26-.457c.09-.127.227-.106.354-.105 1.396.005 2.792-.007 4.187.006a.807.807 0 0 0 .276-.044c.083.052.092.139.108.222.004.143.1.3-.065.416-.166.052-.34.075-.515.065-1.205.003-2.41.003-3.616 0-.162 0-.329.014-.469-.103Z" fill="#6882FE"/><path d="M24.558 30.955c-.032.157-.155.104-.251.104-1.4 0-2.8-.002-4.2-.006a2.804 2.804 0 0 0-.32.032 1.334 1.334 0 0 1-.26-.457c.127-.01.254-.031.382-.031 1.39 0 2.778-.005 4.167.008.162 0 .224-.066.288-.175.183.133.23.313.194.525Z" fill="#6485FE"/><path d="M25.085 32.459h-5.028c.037-.188.22-.314.22-.517a.565.565 0 0 1 .286-.043h4.254c.195.132.306.309.268.56Z" fill="#707CFE"/><path d="m18.498 28.866-.22-.388c.1-.11.234-.106.363-.107 1.626-.004 3.25-.004 4.876 0a.772.772 0 0 1 .225.03c.211.143.256.305.05.492-.13.073-.269.074-.41.074-1.483.003-2.966.003-4.45 0-.153.004-.304-.002-.434-.101Z" fill="#5392FE"/><path d="M24.867 31.936c-.093.072-.202.065-.31.065h-3.97c-.108 0-.218.009-.313-.06a1.355 1.355 0 0 1-.225-.397c1.375 0 2.751-.005 4.127 0 .17 0 .34-.065.51-.005.175 0 .197.167.28.262a.11.11 0 0 1-.099.135Z" fill="#6C7FFE"/><path d="M18.5 28.864h4.931c.14 0 .282.014.41-.065.207.1.22.232.065.392-.13.08-.271.065-.411.065l-4.76.004c-.1-.117-.18-.251-.235-.396Z" fill="#568FFE"/><path d="M19 29.719c1.552 0 3.103-.006 4.655 0 .171 0 .342-.065.513-.005a.16.16 0 0 1 .104.205.144.144 0 0 1-.039.057c-.102.15-.257.13-.407.13h-4.61A1.224 1.224 0 0 1 19 29.72Z" fill="#5D8AFE"/><path d="m23.84 28.473-5.561.004a.836.836 0 0 1-.188-.327h6.008c.043.142-.083.192-.148.275a.196.196 0 0 1-.111.048Z" fill="#5094FE"/><path d="M25.801 33.693c-.104.119-.243.065-.367.065-2.046.004-4.094.004-6.144 0l.162-.266h6.235c.123.02.182.076.114.2Z" fill="#7C74FE"/><path d="M33.21 28.141c.053-.14.13-.27.227-.385.105.117.244.065.368.065 1.387.004 2.773 0 4.16.005.124 0 .26-.05.37.065a.065.065 0 0 1 0 .086 1.596 1.596 0 0 1-.218.12c-.13.075-.256.144-.41.145-1.389.032-2.777.011-4.166.01-.12-.002-.243-.006-.33-.11Z" fill="#4D96FE"/><path d="M38.33 27.951v-.065h.065c.226-.019.452.027.653.13-.091.126-.048.34-.26.388a.82.82 0 0 1-.313.05c-.135-.1-.102-.248-.055-.357.063-.134-.071-.092-.09-.146Z" fill="#488BED"/><path d="m31.677 20.167-.403.667c-.024.006-.056.004-.058-.011-.022-.352-.266-.55-.514-.745-.14-.275-.102-.61-.313-.867-.073-.089.023-.12.111-.073.234 0 .401.15.588.26l.265.262.327.392-.003.115Z" fill="#09A7D7"/><path d="M30.498 19.139c.098.186.098.407.186.587.058.115.024.227.074.327.065.12.005.174-.103.142-.093-.028-.097.069-.157.074a.19.19 0 0 1-.213-.152c-.02-.11-.102-.007-.13-.055-.27-.252-.354-.606-.506-.922.285-.067.569-.136.85-.002Z" fill="#07ADDB"/><path d="M29.65 19.14c.256.258.326.62.522.915-.153.04-.257.243-.457.136a.333.333 0 0 1-.08-.045 1.73 1.73 0 0 1-.377-.81l.065-.065.327-.13Z" fill="#08B0E0"/><path d="M38.792 28.343c.177-.037.107-.271.26-.327.115-.009.172.094.262.13v.066a.985.985 0 0 1-.146.542c-.086.13-.192.22-.361.196a.148.148 0 0 1-.058-.071c-.01-.178-.032-.36.043-.536Z" fill="#4D8CF2"/><path d="M30.2 27.815a.84.84 0 0 1 .175.332c-.154.143-.347.102-.526.104-1.355.01-2.71-.011-4.063.012a.402.402 0 0 1-.112.007c-.192-.07-.392-.13-.539-.289a.077.077 0 0 1 .007-.095c.107-.114.246-.065.37-.065l4.688-.006Z" fill="#4D96FE"/><path d="M25.143 27.885v.065c-.021.059-.127.026-.122.114.04.13.14.261-.01.386-.117.075-.233.09-.349 0-.118-.131-.286-.232-.302-.435.223-.111.472-.157.719-.131h.064Z" fill="#488AEC"/><path d="M29.913 23.187a3.326 3.326 0 0 1-.38.659l-.145-.137-.326-.457c-.122-.105-.07-.267-.13-.392-.066-.154-.025-.196.13-.13.201-.095.384-.046.559.07.138.097.198.252.292.387Z" fill="#25B0F9"/><path d="m24.363 28.017.326.391c-.01.16.177.319.007.481-.168.09-.334-.047-.501 0-.154-.125-.32-.242-.289-.479l.196-.26.26-.133Z" fill="#4D8DF3"/><path d="m27.625 21.358.13-.327.131-.065c.145-.091.218.025.29.11.099.113.186.235.276.355.017.152.185.275.087.45h-.392c-.139-.015-.23-.111-.326-.197.054-.007.126-.018.065-.088a2.722 2.722 0 0 0-.261-.238Z" fill="#17BAF9"/><path d="M29.584 22.86c-.154-.127-.347-.093-.523-.13.058-.091.024-.164-.054-.216-.122-.081-.109-.19-.076-.306-.028-.182.054-.298.22-.363a.16.16 0 0 1 .157.077c.107.308.28.597.276.938Z" fill="#1FB1F5"/><path d="m29.126 21.88-.196.327c-.137-.101-.404-.046-.391-.326.013-.15-.179-.231-.131-.392-.007-.13.086-.111.167-.11.116.037.189.136.288.195.098.06.106.254.303.17.042-.015.01.097-.04.137Z" fill="#1AB5F5"/><path d="M29.257 19.336c.175.238.267.519.392.784.069.139.152.281-.074.36-.185-.072-.333-.203-.495-.313a1.557 1.557 0 0 1-.216-.505c.103-.145.262-.218.393-.326Z" fill="#0AB3E5"/><path d="m28.145 20.445.262-.326.196-.196c.115.041.135.144.16.244.02.261.21.495.137.775-.136.107-.234-.03-.35-.055-.13-.13-.304-.213-.404-.376v-.066Z" fill="#0FB8EE"/><path d="M28.669 20.185a.44.44 0 0 0-.066-.262.695.695 0 0 1 .262-.26l.261.456c-.056.094.109.184.004.279-.22.077-.3-.153-.461-.213Z" fill="#0BB6E9"/><path d="M28.147 20.51c.192.034.306.162.392.326.243.171.06.392.065.588-.072 0-.149-.011-.196.065-.2-.149-.233-.463-.522-.522.027-.188.145-.323.261-.457Z" fill="#13B9F4"/><path d="m29.129 44.597-.14-.196c.384.04.535-.28.757-.49.196-.174.409-.337.594-.528a.157.157 0 0 1 .168-.032c.066.102-.009.178-.052.26a.353.353 0 0 0 .005.355c-.155.32-.51.48-.646.813-.096.08-.196-.065-.296.012l-.39-.194Z" fill="#A929D1"/><path d="M29.519 44.794c.087-.127.174-.095.26 0 .316-.065.539-.226.67-.539.04-.096.11-.237.25-.278.196.04.377.136.522.275 0 .203-.173.26-.3.364-.09.072-.218.082-.286.185-.372.203-.744.162-1.116-.007Z" fill="#A426CA"/><path d="M30.636 44.8c.135-.24.465-.267.58-.528.056-.105.082-.274.26-.13-.159.233-.378.404-.591.583l-.25.075Z" fill="#9D26C3"/><path d="m31.298 43.22.372.607-.065.24-.128.075c-.14-.065-.156.124-.26.131a2.195 2.195 0 0 1-.523-.261.196.196 0 0 1-.058-.175c.197-.23.42-.436.662-.617Z" fill="#A22ACB"/><path d="M29.195 39.575c.073.07.123.159.145.257a3.753 3.753 0 0 1-.932.882c-.047-.015-.084-.038-.065-.097.185-.165.223-.362.13-.588.181-.07.257-.228.327-.392.135-.004.242-.171.395-.062Z" fill="#AB4BFA"/><path d="m27.297 41.856-.065-.065c-.04-.143-.183-.234-.196-.392l.523-.457.13-.065.066.196c.058.106.026.222.036.334-.076.246-.333.294-.494.45Z" fill="#B643FA"/><path d="M27.756 41.4a.38.38 0 0 1 0-.326c.163-.196.4-.293.587-.457l.066.066a.144.144 0 0 1 .098.138c-.118.242-.236.484-.475.636-.099.024-.195.024-.276-.056Z" fill="#B144F7"/><path d="m28.474 43.88-.131-.13c-.035-.092-.138-.148-.13-.261 0-.131.152-.095.195-.18.208-.165.418-.327.668-.427.073.008.1.065.124.12.035.121.023.25-.035.362-.144.165-.345.277-.43.499-.066.165-.17.057-.261.017Z" fill="#B030E0"/><path d="M28.408 43.358c-.014.12-.142.072-.196.131-.186-.16-.261-.392-.392-.588v-.065c.243-.123.492-.23.732-.358a.14.14 0 0 1 .102.137c.022.282-.029.54-.246.743Z" fill="#B334E6"/><path d="M28.539 42.511c-.205.185-.413.362-.719.326a.367.367 0 0 1-.13-.26c-.008-.234.15-.384.312-.487.09-.056.116-.145.196-.196.362-.137.362-.137.488.275-.011.131-.027.258-.147.342Z" fill="#B239EC"/><path d="M27.755 41.4h.327c.06.026.112.07.147.127a.363.363 0 0 1-.018.24c-.261.13-.405.428-.718.481l-.066-.065-.13-.326c.077-.17.166-.32.383-.338.03-.003.053-.078.075-.12Z" fill="#B53FF4"/><path d="M27.494 42.249c.243-.17.416-.436.718-.522.066.065.024.13 0 .196-.13.254-.408.387-.522.652-.103-.085-.13-.218-.196-.326Z" fill="#B53BF1"/><path d="M29.78 43.946a3.74 3.74 0 0 0-.25.326c-.14.229-.316.271-.54.13l-.255-.198c.119-.322.425-.407.69-.546.138.073.394 0 .355.288Z" fill="#AD2BD7"/><path d="M29.452 43.685c-.236.177-.508.305-.718.522l-.196-.196-.065-.13c.091-.014.192.04.236-.124.053-.196.24-.303.416-.398.125-.105.266-.095.41-.057.261.191.048.277-.083.383Z" fill="#AE2EDB"/><path d="M39.245 29.845c.021.065-.076.13 0 .195-.02.139-.219.218-.131.392-.112.156-.143.344-.196.523l-.065.13c-.18.077-.305.045-.333-.173-.01-.217.09-.417.096-.633.028-.147.08-.28.222-.357.13-.055.243-.2.407-.078Z" fill="#5F84F9"/><path d="M39.244 29.846c-.158-.04-.247.13-.392.13-.118.06-.153.014-.114-.099.03-.065.064-.127.103-.187.112-.166.1-.416.337-.497.079.049.17.072.262.066.065.144-.13.246-.066.392-.151-.007-.067.144-.13.195Z" fill="#5889F9"/><path d="M38.596 30.889c-.029.22.154.158.262.196l-.13.457c-.07.112-.092.253-.21.333a3.164 3.164 0 0 1-.385-.66c.11-.166.202-.361.463-.326Z" fill="#667FF8"/><path d="M39.18 29.192c-.136.15-.177.347-.262.522-.181.081-.214-.076-.282-.175.068-.196.045-.419.152-.608.116-.053.245-.083.326-.196.053.028.028.096.066.131-.033.047.196.07.008.142-.07.026-.065.119-.009.184Z" fill="#5488F5"/><path d="M39.18 28.865a.135.135 0 0 1-.066-.13c.092-.165.04-.383.196-.523.154.02.181.167.261.261-.18.082-.22.305-.392.392Z" fill="#4E8FF7"/><path d="M24.231 29.975v-.13c.053-.104.156-.11.202-.033.072.125.137.024.205.024a.625.625 0 0 1 .207.453c0 .033-.074.025-.048.06.117.152.126.331.134.51.014.221-.099.307-.308.29 0-.071.011-.148-.065-.195l-.196-.523-.13-.456Z" fill="#5F84F9"/><path d="M23.904 28.407c.072.18.206.313.327.457.12.145.288.282.03.452a.23.23 0 0 1-.226-.06.135.135 0 0 0-.13-.065.408.408 0 0 0-.066-.392c.103-.109-.102-.217 0-.326l.066-.066Z" fill="#538DFA"/><path d="M24.037 29.258h.261c.216.077.238.303.354.457a.125.125 0 0 1-.028.13c-.06.042-.11.151-.196.033a.129.129 0 0 0-.09-.061.128.128 0 0 0-.106.029l-.065-.131c.012-.167-.195-.273-.13-.457Z" fill="#5889F9"/><path d="M24.625 31.15c.058-.115.27-.077.261-.26.187.041.437.007.392.326-.086.21-.198.407-.334.588-.165-.009-.143-.2-.254-.261l-.065-.392Z" fill="#667FF8"/><path d="M27.52 31.086c-.088-.145-.187-.284-.23-.452.088-.13.226-.11.353-.109 1.233.005 2.466 0 3.699 0 .14-.01.28.026.398.104l.13-.065c.333-.076.669-.029 1.003-.033a151.14 151.14 0 0 1 3.086 0c.114 0 .342-.102.293.186a.912.912 0 0 1-.202.37c-.084.076-.187.037-.28.037-2.667.005-5.333 0-7.999.005-.087 0-.177.023-.25-.043Z" fill="#6484FE"/><path d="M36.25 30.712c-.019-.206-.182-.112-.273-.112-1.345 0-2.69.008-4.034.012-.024 0-.05-.033-.075-.05.059-.167.146-.321.258-.457.126-.106.28-.104.432-.104h3.607c.149 0 .307-.017.425.11-.094.213-.188.424-.34.601ZM31.738 30.628a59.827 59.827 0 0 0-4.45 0 2.149 2.149 0 0 1-.3-.523c.092-.098.214-.1.333-.1 1.289-.008 2.578 0 3.868-.004a.68.68 0 0 1 .223.04c.141.177.229.385.326.587Z" fill="#6188FE"/><path d="M26.782 29.714a1.063 1.063 0 0 1-.208-.38c.022-.188.178-.173.296-.175 1.269-.015 2.537-.011 3.806-.004a.64.64 0 0 1 .308.092c.107.14.19.296.244.463-.12.125-.279.108-.429.108-1.193.004-2.387.004-3.581 0-.155.003-.305-.01-.436-.104ZM36.978 29.4a.797.797 0 0 1-.16.316c-.14.105-.303.105-.466.105-1.17 0-2.34.006-3.51-.005-.162 0-.382.077-.457-.177.056-.168.144-.325.257-.461.421-.055.844-.019 1.267-.021.867-.006 1.735-.008 2.602 0 .187.004.409-.026.467.243Z" fill="#598CFE"/><path d="M30.56 28.473c.096.114.167.248.208.392-.143.137-.326.101-.494.101-1.321 0-2.644.006-3.966 0-.224-.093-.41-.207-.278-.5.142-.106.31-.093.47-.094a826.99 826.99 0 0 1 3.592 0c.163-.002.326 0 .468.1Z" fill="#5392FE"/><path d="M26.259 28.931c.058-.038.096-.082.191-.081 1.437.012 2.879.011 4.318.014l.217.384c-1.35.003-2.698.007-4.044.012-.123 0-.261-.051-.366.074-.055-.028-.075-.158-.175-.062-.108-.087-.175-.193-.141-.34Z" fill="#568FFE"/><path d="M32.385 29.639c.1.124.242.073.365.074 1.356.003 2.712.003 4.068 0l-.228.398-4.464-.005a1.4 1.4 0 0 1 .26-.467Z" fill="#5D8BFE"/><path d="m26.783 29.714 4.446-.003c.087.093.15.206.183.33-.095.106-.223.065-.336.065-1.363.003-2.725.003-4.087 0l-.206-.392Z" fill="#5D8AFE"/><path d="M36.979 29.398c-.107-.13-.248-.143-.406-.143-1.19.005-2.38.005-3.569 0-.122 0-.26.05-.361-.079.04-.14.11-.268.207-.376.126-.027.256-.04.386-.038 1.188 0 2.377.005 3.567 0 .116 0 .24-.024.335.075.103.196-.005.375-.051.56l-.108.001Z" fill="#568FFE"/><path d="M37.16 28.931a.29.29 0 0 0-.225-.076c-1.281.011-2.562.01-3.843.01-.085 0-.176.017-.24-.065a.87.87 0 0 1 .186-.327c.118-.094.26-.099.4-.099h3.534c.15 0 .305 0 .424.118.025.03.043.065.054.102-.023.177-.099.308-.29.337Z" fill="#5392FE"/><path d="M30.558 28.474h-4.155c-.14 0-.282-.014-.41.065-.211-.005-.32-.114-.326-.326.13-.08.27-.065.41-.065h4.298a.914.914 0 0 1 .183.326ZM37.416 28.603c-.101-.153-.257-.13-.408-.13h-3.974a.856.856 0 0 1 .177-.331l4.601.004a.544.544 0 0 1-.396.457Z" fill="#5094FE"/><path d="m30.748 21.748-.454.784a.121.121 0 0 1-.137-.14c.036-.278-.144-.404-.339-.523-.337-.117-.24-.437-.317-.676a.106.106 0 0 1 .05-.065c.112-.034.227-.055.344-.06.183.038.368.065.554.081.173.161.39.304.299.6Z" fill="#17ACE8"/><path d="M29.584 22.861a4.672 4.672 0 0 1-.326-.914.17.17 0 0 1 .079-.048.207.207 0 0 1 .134.028c.22.277.535.457.75.734a2.29 2.29 0 0 1-.308.527c-.233.017-.156-.28-.329-.327Z" fill="#20AFF2"/><path d="M30.497 20.25c.048-.053.03-.21.182-.098.05.036.072-.048.08-.098.297.177.537.392.513.783l-.261.457c-.187-.204-.308-.45-.424-.699a1.377 1.377 0 0 1-.09-.345Z" fill="#0EA8DC"/><path d="M30.63 20.577c.148.227.313.445.382.715-.087.152-.175.305-.265.457-.01-.245-.233-.377-.314-.584-.079-.024.075-.158-.097-.17-.14-.009-.138-.154-.08-.273.08-.16.153-.346.373-.145Z" fill="#12AAE1"/><path d="M30.222 22.661a1.772 1.772 0 0 1-.769-.714c.145 0 .238-.156.392-.13.175.104.175.104.448.714l-.07.13Z" fill="#1CADEE"/><path d="m37.416 28.603.392-.457.327-.13c.065-.041.162-.026.13.045-.106.215-.065.475-.22.67-.178.115-.115.387-.315.488-.22-.119-.31-.311-.312-.554-.003-.02-.002-.04-.002-.062Z" fill="#4881E2"/><path d="M38.009 28.733c.1-.226.056-.49.196-.706l-.066-.012c.047-.076.124-.065.196-.065.115 0 .261-.037.159.176-.038.08-.02.187-.027.281a.562.562 0 0 1-.127.425c-.26.134-.306.12-.331-.099Z" fill="#4985E7"/><path d="M38.335 28.735a.538.538 0 0 1 .131-.327l.326-.065c.082.174.011.348 0 .522-.108.115-.11.334-.331.34-.032-.16-.211-.28-.126-.47Z" fill="#4D88ED"/><path d="M30.628 20.577c-.146-.051-.247.013-.326.13-.274-.118-.508-.275-.588-.588.17.109.293-.121.457-.065.196-.08.183.19.326.196.223.038.04.237.131.327Z" fill="#0DACE0"/><path d="m29.714 20.118.587.588c0 .092-.096.216.076.255.151.034.034.135.055.202-.188.088-.358.041-.522-.065-.29-.128-.22-.434-.327-.653.163-.08-.022-.23.065-.327h.066Z" fill="#10ADE4"/><path d="M38.465 29.193c.155-.066.131-.308.327-.327v.066c0 .204.008.412-.13.587.07.232-.11.243-.254.284a.19.19 0 0 1-.112-.1.522.522 0 0 1 .17-.51Z" fill="#5385F0"/><path d="M24.95 28.017c.021-.066.021-.066.195-.066.139.113.356.085.457.261.092.211.374.288.392.55 0 .184-.176.25-.253.382-.188-.086-.232-.278-.327-.435-.1-.266-.186-.544-.465-.692Z" fill="#4882E2"/><path d="M25.925 28.734c0-.243-.335-.275-.326-.522h.065c.083.132.195.243.327.326l.26.392c.066.106.15.205.142.341-.012.047-.013.102-.081.106-.09-.013-.169-.044-.178-.149-.013-.187-.122-.334-.209-.494Z" fill="#487CDC"/><path d="M24.95 28.017c.235.006.356.17.416.358.032.099.067.197.106.295.13.241-.121.161-.196.229a.18.18 0 0 1-.148-.078c-.035-.138-.253-.226-.113-.413.066-.143-.048-.26-.066-.391Z" fill="#4985E7"/><path d="M25.015 28.407c-.084.173.21.221.13.392.081.185-.079.188-.178.236-.138.017-.236-.032-.278-.17a.346.346 0 0 0-.062-.321c-.065-.096.014-.104.062-.137.109.093.217.013.326 0Z" fill="#4D87ED"/><path d="M24.69 28.865c.09.036.147.14.26.13.131.19.167.412.23.625-.019.093.043.223-.115.252a.34.34 0 0 1-.196-.144c-.083-.114-.162-.02-.243-.015-.21-.079-.17-.338-.326-.457.096-.15-.062-.261-.066-.392.151-.152.303.046.456 0Z" fill="#5387F3"/><path d="M29.322 21.947h-.065a.134.134 0 0 0-.131-.065c.11-.304-.13.082-.163-.081s-.273-.212-.36-.376c-.136-.077-.029-.168-.011-.252a.545.545 0 0 0-.054-.335c.137-.028.224.07.327.13.13 0 .203.075.253.184.075.185.109.387.214.562.047.077.063.159-.01.233Z" fill="#16B4F2"/><path d="M29.584 20.445c.225.159.12.483.326.653-.12.078-.256.065-.392.065-.27-.191-.367-.469-.392-.784.024-.087-.117-.174 0-.26.143.125.345.164.458.326Z" fill="#10B1E8"/><path d="m29.126 20.38.392.783c-.104.065-.212.19-.297-.024-.006-.016-.026.025-.044.035a.092.092 0 0 1-.116-.012l-.196-.195c0-.279-.148-.518-.196-.784.208-.062.272.211.457.196Z" fill="#11B4EC"/><path d="M29.453 43.685c-.053-.148.227-.162.13-.327.084-.252.336-.361.48-.563.065-.054.12-.164.217-.04.027.222.262.42.087.669-.147.229-.362.381-.588.522-.007-.213-.285-.088-.326-.261Z" fill="#A92FD7"/><path d="M31.298 43.22a1.384 1.384 0 0 1-.604.596c-.06.098-.19.057-.261.131-.196-.1-.103-.246-.046-.37.033-.072.114-.123.111-.218.055-.309.294-.452.534-.593.112.137.201.29.266.455Z" fill="#A42DD0"/><path d="m31.034 42.764-.535.594-.13.065c0-.225-.16-.42-.131-.653.098-.245.196-.49.531-.461.115.135.204.29.265.455Z" fill="#A531D7"/><path d="M30.431 43.948c.06-.097.173-.09.262-.13v.195c-.157.243-.275.512-.488.719-.135.13-.282.065-.427.065.03-.386.405-.51.588-.78a.637.637 0 0 1 .065-.069Z" fill="#A727CD"/><path d="M27.52 31.087c.242-.058.489-.026.734-.026 2.46-.004 4.92-.007 7.38-.008.138 0 .277.023.414.035-.058.166-.144.32-.255.457-.127.106-.281.104-.433.104h-7.153c-.153 0-.304-.007-.433-.106l-.255-.456Z" fill="#6882FE"/><path d="M29.245 34.225a3.485 3.485 0 0 1-.392-.718c.12-.124.278-.109.427-.11 1.666-.002 3.332-.002 4.998 0 .149 0 .307-.015.425.114-.11.252-.245.493-.404.718-.14.105-.304.1-.466.1H29.71c-.162-.003-.323.003-.466-.104Z" fill="#7D72FE"/><path d="M27.77 31.542h8.02a1.32 1.32 0 0 1-.258.457c-.131.103-.283.103-.435.103H28.46c-.154 0-.305-.01-.434-.106l-.255-.454Z" fill="#6C7FFE"/><path d="M35.281 32.462a2.433 2.433 0 0 1-.335.595 1.373 1.373 0 0 1-.327.03c-1.834-.005-3.669 0-5.503 0-.196 0-.392.025-.564-.105l-.275-.523c.122-.12.28-.104.43-.104 2.048-.003 4.096-.003 6.145 0 .152-.003.31-.02.43.107Z" fill="#737AFE"/><path d="m35.28 32.462-7-.005a1.591 1.591 0 0 1-.255-.457h7.51a1.428 1.428 0 0 1-.254.462Z" fill="#707CFE"/><path d="M28.556 32.98h6.026c.123 0 .265-.05.364.076a1.452 1.452 0 0 1-.242.451l-5.85-.004-.298-.523Z" fill="#7876FE"/><path d="m33.875 35.005-.373.653c-1.07.072-2.141.021-3.212.03a.508.508 0 0 1-.304-.097c-.105-.165-.22-.326-.274-.516.027-.186.183-.168.3-.169 1.188-.014 2.376-.011 3.565 0 .108-.002.217.01.298.1Z" fill="#886AFE"/><path d="M29.245 34.225H34.3c-.058.165-.144.32-.254.457-.142.099-.306.099-.47.099h-3.613c-.164 0-.326-.004-.47-.098a1.699 1.699 0 0 1-.247-.458Z" fill="#826FFE"/><path d="M30.669 36.839a2.57 2.57 0 0 1-.317-.592c.098-.108.231-.106.36-.108.7-.006 1.401-.006 2.102 0 .13 0 .26 0 .362.104-.083.21-.193.407-.327.588a.628.628 0 0 1-.338.103c-.5.005-1 .004-1.502 0a.64.64 0 0 1-.34-.095Z" fill="#9362FE"/><path d="M29.492 34.685h4.554l-.17.32h-3.797c-.124 0-.262-.051-.367.068a1.33 1.33 0 0 1-.22-.388Z" fill="#856DFE"/><path d="m30.668 36.84 2.18-.006c-.082.21-.192.407-.326.588-.493.185-.997.095-1.502.065a3.327 3.327 0 0 1-.352-.647Z" fill="#975EFE"/><path d="M29.986 35.59c1.138-.005 2.276-.009 3.414-.019.076 0 .092.03.102.087l-.14.261c-.131.096-.28.105-.432.106H30.6c-.15 0-.303.004-.429-.105a.915.915 0 0 1-.185-.33Z" fill="#8C67FE"/><path d="M30.172 35.917h3.19a.904.904 0 0 1-.185.326l-2.825.004a.783.783 0 0 1-.18-.33Z" fill="#8F65FE"/><path d="M28.212 41.531a.118.118 0 0 1-.13-.13l.392-.588c.049-.123.137-.221.268-.161.218.099.321-.044.429-.172.116-.138.23-.257.432-.2a.785.785 0 0 1 .185.332c-.083.253-.223.458-.471.576-.147.057-.284.13-.457.07-.142-.05-.23.076-.327.156-.098.08-.164.21-.32.117Z" fill="#AC43F1"/><path d="m32.311 37.812-.566 1.044-.54-1.044a1.313 1.313 0 0 1 1.106 0Z" fill="#A059FE"/><path d="M32.313 37.812h-1.107a.903.903 0 0 1-.183-.333c.332-.139.677-.031 1.015-.06.16-.013.323 0 .484 0l-.21.393Z" fill="#9B5BFE"/><path d="m37.415 28.67.327.526c.074.09.022.175-.01.261-.131.159-.131.398-.316.523a2.54 2.54 0 0 1-.332-.579c-.115-.176 0-.317.072-.465.096-.083.133-.218.26-.266Z" fill="#4C7CDF"/><path d="m38.336 29.714.065.065c.147.22.054.457.05.691-.057.14-.119.279-.176.419-.038.09-.052.224-.208.2a1.277 1.277 0 0 1-.261-.458c-.044-.302.097-.55.235-.799.075-.085.204-.053.295-.118Z" fill="#5A7FEF"/><path d="M29.604 40.281c-.268.016-.36.27-.533.408-.122.099-.186.14-.32.023-.11-.095-.18.073-.277.101l-.065-.13.93-.854c.112.135.201.288.265.452Z" fill="#AB47F5"/><path d="m29.321 41.138.466-.527c.115.135.204.29.262.458 0 .212-.066.385-.283.46-.118.042-.168.161-.272.215-.083-.005-.166.043-.247-.006-.063-.212-.149-.425.074-.6Z" fill="#A83FEA"/><path d="M25.277 31.217c-.045-.212-.286-.188-.392-.326-.039-.168-.058-.344-.123-.502-.041-.1.01-.077.058-.085.137-.036.18-.227.35-.211a.815.815 0 0 1 .37.667c-.062.166-.151.32-.263.457Z" fill="#5D7FF2"/><path d="M25.541 30.758c-.125-.222-.21-.467-.392-.653-.111-.065-.233-.127-.065-.261.08-.046-.046-.16.065-.196.214.097.215-.138.323-.207a.104.104 0 0 1 .112.058c.086.265.307.493.22.806-.059.166-.148.32-.263.453Z" fill="#577EEC"/><path d="M29.454 41.728c.066-.242.37-.222.482-.44.032-.066 0-.196.118-.219a.791.791 0 0 1 .19.327c.01.399-.32.576-.536.828a.36.36 0 0 1-.32-.035c-.157-.177-.123-.327.066-.461Z" fill="#A93BE4"/><path d="m38.072 29.845-.27.788a3.08 3.08 0 0 1-.383-.657c.056-.19.12-.374.261-.523.372-.013.457.072.392.392Z" fill="#547DE7"/><path d="M30.77 42.31c-.261.059-.346.317-.532.461-.088-.065-.071.075-.13.066-.146-.017-.304-.014-.35-.204.186-.02.036-.211.14-.273.191-.124.337-.308.415-.522.02-.058.027-.13.122-.11.139.177.252.373.335.582Z" fill="#A635DD"/><path d="M25.927 28.734c.162.114.299.243.268.467-.014.099.083.116.12.176-.074.196-.135.401-.312.538-.179-.073-.126-.296-.261-.4-.122-.277-.122-.277-.014-.391.013-.156.225-.213.199-.39Z" fill="#4C7DE0"/><path d="M30.433 41.726c-.03.272-.24.436-.385.639-.044.065-.09.028-.138.014-.154.024-.235-.027-.196-.196.14-.287.433-.47.528-.784a.74.74 0 0 1 .19.327Z" fill="#A739E1"/><path d="M38.063 31.091c.196-.176.153-.474.334-.653.08-.058.058-.319.261-.13.066.205-.085.387-.065.587l-.457.327-.073-.131Z" fill="#5F80F4"/><path d="M25.795 29.52c.174.077.156.256.207.397a.854.854 0 0 1-.205.392c-.017-.286-.236-.504-.26-.788.087-.094.174-.132.258-.002Z" fill="#537DE5"/><path d="M29.778 42.642c.074.126.255.066.327.196-.142.206-.336.36-.523.523h-.457c-.021-.109.072-.218 0-.327.213-.142.335-.43.653-.392Z" fill="#AB32DC"/><path d="M29.78 42.64c-.253.071-.393.338-.654.392a.134.134 0 0 0-.065-.13c-.023-.167.035-.319.083-.473.05-.13.093-.261.244-.31.099.055.213.078.326.065a.275.275 0 0 0 .196.195c-.042.087.033.233-.13.261Z" fill="#AA36E1"/><path d="M29.192 42.446c-.043.152-.032.32-.13.457-.183.203-.418.33-.654.457.066-.24.22-.454.196-.718.166-.138.376-.182.566-.267.004 0 .017.01.024.016.008.008.015.033-.002.055Z" fill="#AF34E3"/><path d="M29.192 42.445c-.196.065-.364.211-.588.196a.131.131 0 0 0-.065-.131c.044-.109.036-.238.13-.326.131-.24.262-.473.588-.458.066.022.131-.075.196 0-.053.126-.158.243-.065.392l-.196.327Z" fill="#AD39E7"/><path d="M29.257 41.727c-.273.053-.37.333-.588.457l-.173-.057c.217-.501-.2-.12-.283-.204-.076-.066.022-.13 0-.196a.173.173 0 0 1 0-.196c.136 0 .203-.108.285-.19.14-.137.262-.295.489-.125.13.097.196-.173.336-.077-.102.188-.014.396-.066.588Z" fill="#AE3EEE"/><path d="M38.662 30.301c-.157-.093-.155.126-.262.13v-.652c.094-.08.241-.107.262-.261.115.028.12.201.26.195.022.098-.207.131-.064.262-.14.065-.106.235-.196.326ZM25.08 29.845c-.084.114.03.178.065.261-.131.029-.09.344-.327.196l-.196-.457v-.13c.263-.343.312.065.457.13Z" fill="#5983F3"/><path d="M29.06 21.163c.152-.104.305.056.457 0 .057.143.223.24.116.45-.082.16.217.048.21.202-.118.081-.23.182-.392.13h-.13c-.039-.276-.265-.49-.261-.782Z" fill="#17B1EE"/><path d="M38.074 29.845c.049-.31-.22-.302-.392-.392l.065-.261c.071-.162.082-.358.261-.458.11.27.218.077.327 0-.013.169.202.272.13.457l-.13.523c-.066.098-.176.092-.261.13Z" fill="#4F82E9"/><path d="M25.795 29.519c-.087-.065-.173 0-.26 0l-.066-.065c-.234-.14-.29-.34-.196-.588.044-.087.247-.014.196-.196l.261.457c-.065.147.072.261.065.392Z" fill="#4E80E6"/><path d="M25.277 28.865c.014.21.081.412.196.588-.015.058-.01.145-.047.171-.079.056.017.187-.1.206-.139.023-.092-.148-.18-.182-.092-.21-.215-.41-.196-.653.045-.086.208-.053.196-.196l.13.066Z" fill="#5183EB"/><defs><clipPath id="a"><path fill="#fff" d="M0 0h64v64H0z"/></clipPath><filter id="b" x="5" y="6" width="53" height="54" filterUnits="userSpaceOnUse" color-interpolation-filters="sRGB"><feFlood flood-opacity="0" result="BackgroundImageFix"/><feColorMatrix in="SourceAlpha" values="0 0 0 0 0 0 0 0 0 0 0 0 0 0 0 0 0 0 127 0" result="hardAlpha"/><feOffset dx="-1" dy="1"/><feColorMatrix values="0 0 0 0 1 0 0 0 0 1 0 0 0 0 1 0 0 0 0.32 0"/><feBlend in2="BackgroundImageFix" result="effect1_dropShadow_320_8459"/><feBlend in="SourceGraphic" in2="effect1_dropShadow_320_8459" result="shape"/><feColorMatrix in="SourceAlpha" values="0 0 0 0 0 0 0 0 0 0 0 0 0 0 0 0 0 0 127 0" result="hardAlpha"/><feOffset dx="-1" dy="2"/><feGaussianBlur stdDeviation="1"/><feComposite in2="hardAlpha" operator="arithmetic" k2="-1" k3="1"/><feColorMatrix values="0 0 0 0 0 0 0 0 0 0 0 0 0 0 0 0 0 0 0.16 0"/><feBlend in2="shape" result="effect2_innerShadow_320_8459"/></filter></defs></svg>