<svg width="65" height="64" viewBox="0 0 65 64" fill="none" xmlns="http://www.w3.org/2000/svg">
<g clip-path="url(#clip0_3068_20769)">
<path d="M63.5461 39.7416C59.2716 56.8846 41.9068 67.3176 24.76 63.0426C7.62012 58.7686 -2.81399 41.4046 1.46247 24.2626C5.73492 7.1176 23.0998 -3.3164 40.2416 0.957596C57.3874 5.2316 67.8205 22.5976 63.5461 39.7416Z" fill="#EAAC3D"/>
<path d="M4.37326 24.9888L4.37345 24.988C8.24523 9.45086 23.9818 -0.00465467 39.5158 3.86848L39.516 3.86852C55.0539 7.74171 64.5089 23.4793 60.6352 39.0158C56.7617 54.5509 41.0252 64.006 25.4857 60.1317C9.95344 56.2585 0.497947 40.5228 4.37326 24.9888Z" stroke="white" stroke-opacity="0.24" stroke-width="6"/>
<g style="mix-blend-mode:screen" opacity="0.3">
<path d="M62.5911 21.1272L0.912762 37.1302C0.235618 32.9715 0.37403 28.6099 1.45856 24.2626C5.73102 7.1176 23.0959 -3.3164 40.2377 0.957596C50.9776 3.63476 59.0837 11.4487 62.5911 21.1272Z" fill="white"/>
</g>
<g filter="url(#filter0_di_3068_20769)">
<path d="M57.7218 38.2897C54.2488 52.2183 40.1398 60.695 26.208 57.2216C12.2819 53.749 3.80421 39.6409 7.27883 25.7132C10.7502 11.783 24.8591 3.30545 38.7869 6.77804C52.7179 10.2506 61.1948 24.3604 57.7218 38.2897Z" fill="#EAAC3D"/>
</g>
<g filter="url(#filter1_d_3068_20769)">
<path d="M43.2965 29.3617L43.3313 29.428V29.4399L43.3415 29.4458C43.3775 29.5856 43.4392 29.7176 43.5234 29.8349L43.5557 29.9122C43.5531 29.9286 43.5555 29.9454 43.5625 29.9605C43.5694 29.9756 43.5806 29.9883 43.5947 29.9971L44.125 31.4063L44.1827 31.549L44.2065 31.6518L44.2439 31.7792C44.2495 31.869 44.276 31.9563 44.3212 32.034C44.3169 32.0533 44.3175 32.0734 44.323 32.0924C44.3285 32.1115 44.3387 32.1288 44.3527 32.1428V32.1538L44.3612 32.1615L44.3705 32.2039C44.3884 32.2889 44.4062 32.3738 44.4249 32.4588C44.4433 32.604 44.4789 32.7466 44.5311 32.8835L44.5897 33.2232C44.5884 33.3351 44.6098 33.4461 44.6526 33.5494V33.5647C44.6526 33.6276 44.6577 33.6913 44.6671 33.7541C44.8341 34.9168 44.8578 36.0956 44.7376 37.264C44.7025 37.4883 44.7292 37.718 44.8149 37.9283C45.0273 38.3997 45.4343 38.6205 45.894 38.7777L46.1812 38.9178C46.2152 38.961 46.2645 38.9893 46.3189 38.9968C46.3327 39.0183 46.3513 39.0362 46.3733 39.0492C46.3953 39.0622 46.42 39.0698 46.4455 39.0716C46.9395 39.3904 47.3817 39.7832 47.7566 40.2362C48.413 41.0605 48.8025 42.0653 48.8731 43.1166V43.1591V43.6687V43.7537L48.7634 44.5717C48.7575 44.5963 48.7507 44.6209 48.7439 44.6456C48.7244 44.7152 48.704 44.7849 48.6844 44.8545C48.6708 44.886 48.6538 44.9165 48.6428 44.9488C48.3301 45.932 47.7313 46.7997 46.923 47.4411C45.329 48.7152 42.9736 48.8707 41.2164 47.8352C39.7915 46.9951 38.3513 46.1796 36.9212 45.3472C36.7785 45.2623 36.7079 45.275 36.5958 45.4041C34.0603 48.3321 30.8637 49.5595 27.0376 48.9649C24.1749 48.5207 21.9394 47.0112 20.2842 44.6328C20.0403 44.282 19.7743 43.932 19.5968 43.554C19.3872 43.1389 19.2182 42.7045 19.092 42.257C18.9603 41.7473 18.7479 41.2606 18.6944 40.728C18.6366 40.1504 18.5321 39.5787 18.5346 38.9943C18.5294 37.7395 18.7561 36.4946 19.2033 35.3222C19.2586 35.1786 19.2186 35.1268 19.1048 35.0614C17.8965 34.3683 16.6891 33.6732 15.4825 32.9761C14.9872 32.6915 14.4765 32.4248 14.0304 32.0663C13.6568 31.753 13.3338 31.384 13.0728 30.9723C13.0064 30.8604 12.92 30.7616 12.8179 30.6809C12.8757 30.6571 12.8612 30.6376 12.8179 30.6189C12.6479 30.1993 12.4432 29.7941 12.3497 29.3447C12.0098 27.7461 12.331 26.2953 13.3201 24.9931C13.3393 24.9641 13.3564 24.9338 13.371 24.9022C13.6135 24.6621 13.8554 24.4214 14.0967 24.1802C14.2227 24.1088 14.3392 24.0217 14.4433 23.9211L14.9795 23.6094C14.9849 23.6112 14.9905 23.6118 14.9962 23.6113C15.0018 23.6107 15.0072 23.609 15.0121 23.6062C15.017 23.6033 15.0213 23.5995 15.0246 23.595C15.0279 23.5904 15.0302 23.5852 15.0313 23.5796L15.3627 23.4344C15.4142 23.4297 15.4623 23.4065 15.4978 23.369C15.6356 23.3493 15.7689 23.3062 15.8921 23.2416L15.9609 23.222L16.8106 23.0589L17.023 23.0462H17.6637L17.8336 23.0564C17.8858 23.0839 17.9452 23.0942 18.0036 23.0861L18.131 23.0989C18.4895 23.1775 18.8437 23.2741 19.1923 23.3885L19.3733 23.4624C19.4322 23.5093 19.5016 23.5414 19.5755 23.5558L19.6163 23.5737C19.705 23.6478 19.8063 23.7053 19.9154 23.7436C19.971 23.8049 20.0434 23.8486 20.1236 23.8693L20.6419 24.2524C20.7187 24.3343 20.8201 24.3888 20.9308 24.4078C20.9796 24.4446 21.0396 24.4635 21.1007 24.4613C21.1247 24.4793 21.1526 24.4914 21.1821 24.4967C21.2116 24.502 21.2419 24.5004 21.2707 24.4919C21.3536 24.518 21.4426 24.518 21.5256 24.4919C21.6652 24.5063 21.8051 24.4681 21.9181 24.3849C22.0736 24.3586 22.1526 24.2201 22.2733 24.1437C22.942 23.7054 23.6323 23.3008 24.3415 22.9315L24.627 22.7956C24.643 22.7986 24.6595 22.7968 24.6746 22.7907C24.6896 22.7845 24.7026 22.7741 24.7119 22.7608C24.7288 22.7629 24.7459 22.7599 24.7611 22.7522C24.7762 22.7444 24.7887 22.7323 24.7969 22.7175C24.904 22.6978 25.0057 22.6555 25.0951 22.5934C25.119 22.5942 25.1428 22.5899 25.1649 22.5808C25.187 22.5717 25.207 22.5581 25.2234 22.5408L25.9882 22.2579C26.0499 22.2613 26.1105 22.2412 26.1581 22.2019C26.29 22.1803 26.4184 22.1409 26.5396 22.0846C26.6145 22.0836 26.6878 22.0628 26.7521 22.0243C26.8278 22.0232 26.9019 22.0015 26.9662 21.9615L27.0511 21.9453C27.0732 21.9514 27.0964 21.9518 27.1186 21.9463C27.1408 21.9408 27.1611 21.9296 27.1777 21.9139L27.2627 21.9003C27.2782 21.9038 27.2944 21.9029 27.3095 21.8976C27.3245 21.8924 27.3377 21.883 27.3477 21.8706L27.4327 21.8553C27.6057 21.8359 27.7764 21.7998 27.9425 21.7474L28.0691 21.733C28.0841 21.7382 28.1004 21.7386 28.1157 21.734C28.131 21.7294 28.1444 21.7201 28.1541 21.7075L28.2798 21.6905C28.3019 21.6966 28.3251 21.6972 28.3474 21.6923C28.3698 21.6874 28.3906 21.6772 28.4081 21.6625L28.5347 21.6489C28.607 21.6614 28.6814 21.6507 28.7471 21.6183C28.7897 21.6308 28.8354 21.6263 28.8746 21.6056C28.9606 21.6239 29.0503 21.6131 29.1295 21.575L29.3844 21.5622C29.4562 21.5745 29.5301 21.5644 29.596 21.5334L29.8942 21.5206C30.728 21.4982 31.5624 21.5328 32.3915 21.6242C32.5258 21.6374 32.6614 21.6218 32.7892 21.5784C33.5955 21.3184 34.2132 20.4036 34.1487 19.561C34.051 18.4282 34.2686 17.2905 34.7774 16.2737C35.0852 15.6845 35.4738 15.1412 35.9322 14.6597L36.6969 14.0176C36.7694 13.9961 36.8333 13.9525 36.8796 13.8927C37.0103 13.8338 37.1333 13.7591 37.2458 13.6702C37.2628 13.6722 37.28 13.6691 37.2951 13.6612C37.3103 13.6533 37.3227 13.641 37.3308 13.626C37.3952 13.6172 37.455 13.5873 37.5007 13.541C37.5654 13.5329 37.6253 13.5029 37.6707 13.4561C37.7766 13.4292 37.8775 13.3856 37.9698 13.327C38.0477 13.3226 38.122 13.2928 38.1813 13.242C38.205 13.2449 38.229 13.2421 38.2514 13.234C38.2739 13.2259 38.2941 13.2126 38.3105 13.1953C38.4004 13.1911 38.4879 13.1648 38.5654 13.1189L38.6504 13.1027C38.6658 13.108 38.6826 13.1079 38.698 13.1025C38.7134 13.0971 38.7265 13.0867 38.7353 13.073L38.8203 13.0577L38.9053 13.0297L38.9902 13.0161C39.005 13.0219 39.0212 13.0228 39.0365 13.0186C39.0518 13.0145 39.0654 13.0056 39.0752 12.9932L39.1602 12.9804C39.2327 12.9939 39.3076 12.9822 39.3726 12.9473L39.5 12.9354C39.5722 12.9499 39.6471 12.9394 39.7125 12.9057L40.3073 12.8887H40.3922L40.7746 12.904C40.8545 12.9396 40.9434 12.9503 41.0295 12.9345L41.1145 12.943C41.1793 12.9775 41.2535 12.99 41.3261 12.9787L41.411 12.9889C41.4282 13.0039 41.4488 13.0145 41.471 13.0197C41.4933 13.0248 41.5164 13.0245 41.5385 13.0186C41.6048 13.0523 41.6782 13.0698 41.7526 13.0696C41.7621 13.0825 41.7753 13.0923 41.7905 13.0976C41.8057 13.1029 41.8221 13.1035 41.8376 13.0993L41.9225 13.1146C41.9386 13.1312 41.9588 13.1433 41.981 13.1497C42.0032 13.1561 42.0267 13.1566 42.0491 13.1511L42.304 13.2361C42.3633 13.2856 42.4376 13.3134 42.5148 13.3151L43.1011 13.5861C43.1618 13.6468 43.2388 13.6887 43.3228 13.7067C43.3299 13.7215 43.3411 13.734 43.3552 13.7426C43.3692 13.7512 43.3854 13.7555 43.4019 13.7551C43.5206 13.8549 43.6506 13.9405 43.7893 14.0099C43.8322 14.0681 43.8913 14.1125 43.9593 14.1373C43.9774 14.1671 44.0022 14.1924 44.0317 14.2111C44.0611 14.2298 44.0945 14.2415 44.1292 14.2452V14.252C44.5541 14.6767 44.9891 15.0947 45.3188 15.6111C45.8197 16.3761 46.1509 17.2395 46.29 18.1433C46.3749 18.6911 46.3333 19.2382 46.3197 19.7861C46.3092 19.8117 46.3007 19.8381 46.2942 19.8651C45.9408 22.0243 44.7818 23.5859 42.8173 24.5497C42.1239 24.8895 41.6022 25.8417 41.7237 26.6138C41.7412 26.7837 41.7995 26.947 41.8936 27.0895L43.2965 29.3617ZM42.683 37.5732L42.6915 37.2028C42.8547 36.1334 42.813 35.064 42.6592 34.0005C42.3372 31.7699 41.4178 29.7949 40.0507 28.0171C40.0039 27.8404 39.902 27.6883 39.8433 27.5142C39.2485 25.7304 40.2486 23.4879 41.9846 22.6809C42.4832 22.4488 42.9292 22.1174 43.2953 21.707C43.6613 21.2966 43.9398 20.8158 44.1135 20.294C44.2872 19.7723 44.3526 19.2206 44.3056 18.6728C44.2586 18.1249 44.1003 17.5924 43.8403 17.1078C43.6806 16.8054 43.5132 16.5022 43.2336 16.2856C43.2268 16.2057 43.1614 16.1675 43.1121 16.1157C42.4316 15.4311 41.526 15.0162 40.563 14.9477C40.0119 14.9024 39.4573 14.9701 38.9333 15.1466C38.4092 15.323 37.9267 15.6046 37.5153 15.974C37.1039 16.3433 36.7723 16.7928 36.5407 17.2947C36.3091 17.7967 36.1824 18.3407 36.1684 18.8933C36.1624 19.1898 36.2117 19.4879 36.1913 19.7827C36.0664 21.5546 35.1496 22.7642 33.5386 23.4718C33.2981 23.5253 33.0729 23.6416 32.8206 23.6476C32.8148 23.6442 32.8082 23.6425 32.8015 23.6425C32.7948 23.6425 32.7882 23.6442 32.7824 23.6476C32.4467 23.6476 32.1102 23.6688 31.7772 23.606C30.7855 23.4939 29.7833 23.515 28.7973 23.6688C26.8941 23.9443 25.0828 24.6645 23.5105 25.7712C23.4544 25.8232 23.3957 25.8722 23.3346 25.9181C22.1713 26.6886 20.9758 26.7344 19.7438 26.088C19.3869 25.9003 19.1158 25.5851 18.7394 25.4297C18.2836 25.1653 17.7598 25.0415 17.2338 25.0738C15.1664 25.18 13.835 27.0453 14.4094 29.0304C14.6036 29.7347 15.0668 30.3344 15.6992 30.7004C15.7257 30.7243 15.7541 30.7458 15.7842 30.765L23.1893 35.0359L33.0509 40.762C35.0901 41.9393 37.1294 43.1169 39.1687 44.2948C39.6785 44.5878 40.1883 44.8715 40.6981 45.1603C41.2402 45.4772 41.7772 45.8016 42.3244 46.1091C42.9473 46.4586 43.6759 46.57 44.3748 46.4226C45.6638 46.178 46.6171 45.1484 46.8151 43.7893C46.991 42.5899 46.3308 41.3081 45.2151 40.7382C44.7384 40.4944 44.238 40.2965 43.8157 39.9559C43.2209 39.3893 42.8164 38.714 42.6932 37.8892L42.6856 37.8093C42.6856 37.7771 42.6796 37.7456 42.6771 37.7142C42.6882 37.6948 42.6931 37.6724 42.6912 37.65C42.6892 37.6277 42.6804 37.6065 42.666 37.5893L42.683 37.5732ZM28.6987 47.08C29.2297 47.0842 29.7597 47.035 30.2808 46.9331C32.0322 46.5945 33.6242 45.6913 34.8131 44.3619C34.9278 44.2353 34.9168 44.192 34.7698 44.107C34.1232 43.7435 33.4808 43.3697 32.8418 42.9917C32.7059 42.9068 32.6286 42.9212 32.502 43.0308C30.9581 44.3899 29.1745 44.8418 27.1922 44.2931C24.3287 43.5014 22.6285 40.5785 23.2955 37.6675C23.3252 37.5392 23.3023 37.4815 23.1893 37.4177C22.5316 37.0446 21.8765 36.6666 21.2239 36.2838C21.0871 36.1988 21.0344 36.2039 20.9809 36.3687C20.5804 37.5909 20.4746 38.8904 20.6719 40.1613C20.8692 41.4322 21.3641 42.6384 22.1163 43.6818C22.8685 44.7251 23.8566 45.576 25.0003 46.1651C26.1439 46.7542 27.4105 47.0648 28.697 47.0716L28.6987 47.08ZM28.4234 43.2083C29.698 43.2083 30.5672 42.9025 31.3447 42.3198C31.4653 42.2289 31.4526 42.195 31.3294 42.1245C29.1134 40.8475 26.899 39.5685 24.6864 38.2876C24.5454 38.2026 24.5012 38.2213 24.4808 38.3895C24.3311 39.48 24.6192 40.5855 25.2821 41.4644C26.1309 42.612 27.295 43.1812 28.4234 43.2083Z" fill="#492504"/>
<path d="M31.7612 23.6301C32.0943 23.6929 32.4308 23.6683 32.7664 23.6717C32.7817 23.6955 32.7936 23.6921 32.8046 23.6717C33.0595 23.6717 33.2822 23.5494 33.5226 23.4959C33.5412 23.5124 33.5634 23.5244 33.5875 23.5307C33.6116 23.5371 33.6368 23.5376 33.6611 23.5324C34.2823 23.4989 34.9053 23.5233 35.522 23.6054C35.7476 23.6436 35.979 23.6313 36.1993 23.5694C36.4197 23.5076 36.6236 23.3978 36.7965 23.2478C37.2723 22.8469 37.5816 22.3398 37.5799 21.7129C37.5799 21.2406 37.5358 20.7683 37.5986 20.2969C37.7847 18.8996 38.3081 17.6636 39.3923 16.7293C40.056 16.1542 40.8521 15.9648 41.7205 16.0158C42.2303 16.0472 42.7198 16.1933 43.2143 16.3088C43.4938 16.5254 43.6612 16.8287 43.821 17.1311C44.081 17.6156 44.2393 18.1481 44.2863 18.696C44.3332 19.2439 44.2679 19.7956 44.0941 20.3173C43.9204 20.839 43.642 21.3198 43.2759 21.7302C42.9099 22.1407 42.4639 22.4721 41.9652 22.7042C40.2293 23.5111 39.2266 25.7528 39.824 27.5375C39.8826 27.7073 39.9846 27.8636 40.0313 28.0403C40.0747 28.3597 40.1112 28.6808 40.1647 28.9985C40.3124 29.8317 40.3204 30.6837 40.1885 31.5196C40.0356 32.4404 39.8486 33.3544 39.705 34.2777C39.6602 34.5946 39.725 34.9173 39.8886 35.1924C40.0522 35.4676 40.3049 35.6786 40.6049 35.7905C41.0887 35.97 41.5395 36.2283 41.9389 36.555C42.1989 36.7631 42.396 37.035 42.6722 37.2227C42.6722 37.3467 42.6662 37.4699 42.6637 37.593C42.6501 37.6358 42.6541 37.6823 42.6747 37.7222C42.6747 37.7536 42.6807 37.785 42.6832 37.8173C42.6526 37.847 42.6569 37.8734 42.6909 37.8971C42.8141 38.7219 43.2143 39.3972 43.8133 39.9647C43.849 40.3353 43.849 40.7085 43.8133 41.0791C43.7164 41.9078 43.4224 42.7011 42.956 43.393C42.5579 43.9948 42.029 44.4989 41.4087 44.8676C41.1861 44.9984 40.9787 45.1742 40.6966 45.1649C40.1868 44.8761 39.677 44.5924 39.1672 44.2993C37.1279 43.1231 35.0886 41.9455 33.0494 40.7665L23.1674 35.0617L15.7623 30.7908C15.732 30.7719 15.7036 30.7503 15.6773 30.7262C15.6329 30.2565 15.6478 29.7831 15.7215 29.317C15.9399 28.0327 16.5661 26.9887 17.5696 26.1656C17.9214 25.8777 18.3216 25.6721 18.7167 25.4555C19.0931 25.6109 19.3641 25.9261 19.721 26.1138C20.9531 26.7619 22.1486 26.7161 23.3118 25.9439C23.373 25.898 23.4317 25.849 23.4877 25.797C23.6822 26.0177 23.9158 26.2006 24.1768 26.3364C24.6374 26.5971 25.103 26.5912 25.5508 26.2701C27.249 25.0353 29.1966 24.1865 31.2573 23.783C31.4315 23.7481 31.621 23.76 31.7612 23.6301ZM27.5816 26.4069L27.4685 26.4391L27.415 26.4629C27.0751 26.5997 26.7293 26.7279 26.4005 26.8927C25.5537 27.3085 24.7911 27.8773 24.1513 28.5704C24.0116 28.7187 23.9221 28.9072 23.8955 29.1092C23.869 29.3113 23.9068 29.5165 24.0035 29.6959C24.2066 30.0883 24.5481 30.276 24.9789 30.2828C25.2338 30.2828 25.4471 30.1418 25.6205 29.9643C26.0209 29.5514 26.476 29.1953 26.9732 28.9059C27.8956 28.3763 28.9326 28.0779 29.9955 28.0361L30.0397 28.0284C30.3769 27.984 30.7186 27.9863 31.0551 28.0352H31.1154L31.8938 28.1609C32.1759 28.2068 32.4631 28.2527 32.7333 28.127C32.9038 28.0552 33.0513 27.9381 33.1598 27.7883C33.2683 27.6385 33.3335 27.4619 33.3484 27.2775C33.3719 27.0888 33.3407 26.8972 33.2586 26.7256C33.1766 26.554 33.047 26.4095 32.8854 26.3092C32.8777 26.2667 32.848 26.2557 32.8106 26.2548L32.5081 26.1631C32.4969 26.1491 32.4816 26.1391 32.4644 26.1344C32.4471 26.1296 32.4288 26.1305 32.4121 26.1367L32.3382 26.1215C32.3272 26.1068 32.3114 26.0964 32.2936 26.092C32.2757 26.0877 32.257 26.0897 32.2404 26.0977L32.0017 26.0603C31.9566 25.9754 31.898 25.9855 31.8317 26.0374L31.6618 26.0195C31.4032 25.9308 31.1265 25.9087 30.8571 25.955H30.2564C29.987 25.8845 29.7253 25.9609 29.4611 25.9983C29.4611 25.9983 29.4543 26.0102 29.4517 26.0161L29.2368 26.0382C29.1577 25.9703 29.0915 25.9983 29.0311 26.0662L28.9394 26.079C28.8867 26.028 28.8442 26.0314 28.8145 26.1028L28.7295 26.1172C28.7133 26.0985 28.7015 26.1028 28.6913 26.1232L28.5808 26.1427C28.5128 26.135 28.4355 26.0951 28.3922 26.1886L28.3072 26.2055C28.2681 26.1563 28.2443 26.1801 28.2222 26.2225L28.1373 26.2421C28.1211 26.2242 28.1092 26.2285 28.099 26.248L28.0285 26.2676C28.0112 26.2595 27.9916 26.2583 27.9735 26.2642C27.9554 26.27 27.9401 26.2824 27.9308 26.299C27.9267 26.303 27.9217 26.3061 27.9163 26.3078C27.9108 26.3096 27.905 26.3101 27.8993 26.3092L27.8458 26.3296L27.6691 26.3771C27.6164 26.3296 27.596 26.3618 27.5816 26.4069Z" fill="#EAAC3D"/>
<path d="M28.6999 47.0799C27.4134 47.0731 26.1467 46.7626 25.0031 46.1735C23.8595 45.5844 22.8713 44.7335 22.1191 43.6902C21.3669 42.6468 20.872 41.4405 20.6747 40.1696C20.4774 38.8988 20.5833 37.5993 20.9838 36.3771C21.0373 36.2072 21.09 36.2072 21.2268 36.2921C21.8782 36.6761 22.5333 37.0541 23.1921 37.4261C23.3051 37.4898 23.3281 37.5476 23.2984 37.6759C22.6313 40.5843 24.3316 43.5072 27.1951 44.3014C29.1774 44.8502 30.9609 44.3991 32.5048 43.0392C32.6297 42.9296 32.707 42.9194 32.8447 43.0001C33.4837 43.3781 34.126 43.7518 34.7727 44.1154C34.9197 44.2003 34.9307 44.2428 34.816 44.3702C33.6271 45.6997 32.0351 46.6028 30.2837 46.9415C29.7617 47.0406 29.2311 47.087 28.6999 47.0799Z" fill="#F1EBE5"/>
<path d="M40.6992 45.1612C40.9813 45.1705 41.1886 44.9913 41.4113 44.8639C42.0316 44.4951 42.5605 43.9911 42.9586 43.3893C43.425 42.6974 43.7189 41.904 43.8159 41.0754C43.8516 40.7048 43.8516 40.3316 43.8159 39.9609C44.2407 40.3007 44.7387 40.4986 45.2153 40.7424C46.331 41.3124 46.9912 42.5942 46.8153 43.7936C46.6174 45.1467 45.664 46.1788 44.375 46.4268C43.6762 46.5743 42.9475 46.4629 42.3247 46.1134C41.7783 45.8025 41.2413 45.478 40.6992 45.1612Z" fill="#E18332"/>
<path d="M43.2151 16.2979C42.7206 16.1824 42.2345 16.0363 41.7213 16.0049C40.8529 15.9513 40.0568 16.1433 39.3931 16.7184C38.3089 17.6578 37.7855 18.8912 37.5994 20.286C37.5366 20.7574 37.5799 21.2297 37.5807 21.702C37.5807 22.3289 37.2732 22.836 36.7973 23.2369C36.6244 23.3869 36.4205 23.4967 36.2001 23.5585C35.9798 23.6204 35.7485 23.6327 35.5228 23.5945C34.9061 23.5124 34.2831 23.488 33.6619 23.5215C33.6376 23.5267 33.6124 23.5262 33.5883 23.5198C33.5642 23.5135 33.542 23.5015 33.5234 23.485C35.1379 22.7774 36.0513 21.5678 36.1762 19.7959C36.1966 19.502 36.1473 19.2013 36.1532 18.9065C36.1672 18.3539 36.2939 17.8099 36.5255 17.3079C36.7571 16.806 37.0888 16.3565 37.5002 15.9872C37.9116 15.6178 38.3941 15.3362 38.9182 15.1598C39.4422 14.9833 39.9968 14.9156 40.5479 14.9609C41.5109 15.0294 42.4164 15.4443 43.097 16.1289C43.1429 16.1832 43.2083 16.2215 43.2151 16.2979Z" fill="#F1EBE5"/>
<path d="M42.6724 37.2175C42.3962 37.0298 42.1991 36.758 41.9391 36.5499C41.5397 36.2232 41.0889 35.9648 40.6051 35.7854C40.3051 35.6734 40.0525 35.4624 39.8888 35.1873C39.7252 34.9122 39.6604 34.5895 39.7052 34.2725C39.8471 33.3492 40.0358 32.4352 40.1887 31.5144C40.3206 30.6786 40.3126 29.8266 40.1649 28.9933C40.1114 28.6756 40.0749 28.3545 40.0315 28.0352C41.3987 29.813 42.3181 31.788 42.6401 34.0186C42.7939 35.0787 42.8355 36.1481 42.6724 37.2175Z" fill="#E18332"/>
<path d="M18.7228 25.4506C18.3277 25.6672 17.9275 25.8753 17.5757 26.1607C16.5722 26.9838 15.946 28.0294 15.7276 29.3121C15.6539 29.7781 15.6391 30.2516 15.6835 30.7213C15.0522 30.3548 14.5902 29.7551 14.397 29.0513C13.8192 27.0662 15.1541 25.2008 17.2214 25.0946C17.746 25.0632 18.2682 25.187 18.7228 25.4506V25.4506Z" fill="#F1EBE5"/>
<path d="M31.7589 23.6294C31.6187 23.7593 31.4292 23.7474 31.2618 23.7806C29.2011 24.1841 27.2535 25.0329 25.5553 26.2677C25.1075 26.5896 24.6418 26.5947 24.1813 26.334C23.9203 26.1982 23.6866 26.0153 23.4922 25.7946C25.0646 24.6879 26.8759 23.9677 28.779 23.6922C29.765 23.5384 30.7672 23.5173 31.7589 23.6294V23.6294Z" fill="#F1EBE5"/>
<path d="M42.6752 37.717C42.6546 37.6771 42.6506 37.6307 42.6641 37.5879C42.6795 37.6054 42.6888 37.6274 42.6908 37.6506C42.6928 37.6739 42.6873 37.6971 42.6752 37.717V37.717Z" fill="#E18332"/>
<path d="M42.6884 37.8923C42.6544 37.8686 42.6502 37.8422 42.6808 37.8125L42.6884 37.8923Z" fill="#E18332"/>
<path d="M32.8044 23.6673C32.7932 23.6923 32.7811 23.6957 32.7656 23.6673C32.7715 23.6639 32.7782 23.6621 32.785 23.6621C32.7918 23.6621 32.7985 23.6639 32.8044 23.6673Z" fill="#E18332"/>
<path d="M30.2541 25.959H30.854C31.12 26.0184 31.391 25.9998 31.6595 26.0235L31.8295 26.0414C31.8529 26.0606 31.8812 26.0729 31.9112 26.077C31.9412 26.081 31.9718 26.0766 31.9994 26.0643L32.2382 26.1017L32.3359 26.1255L32.4098 26.1408C32.422 26.1534 32.4373 26.1624 32.4542 26.1671C32.4711 26.1717 32.4889 26.1717 32.5058 26.1671L32.8083 26.2588L32.8831 26.3132C33.0448 26.4135 33.1743 26.558 33.2564 26.7296C33.3384 26.9013 33.3696 27.0928 33.3462 27.2815C33.3313 27.4659 33.266 27.6426 33.1575 27.7923C33.0491 27.9421 32.9015 28.0593 32.731 28.131C32.4608 28.2567 32.1736 28.2108 31.8915 28.165L31.1132 28.0392C31.1096 28.0347 31.105 28.0309 31.0998 28.0284C31.0946 28.0258 31.0888 28.0245 31.083 28.0245C31.0772 28.0245 31.0715 28.0258 31.0662 28.0284C31.061 28.0309 31.0564 28.0347 31.0529 28.0392C30.7163 27.9903 30.3746 27.988 30.0375 28.0325L29.9933 28.0401C28.9312 28.0802 27.8945 28.3766 26.9718 28.904C26.4748 29.1942 26.0199 29.5512 25.6199 29.9649C25.45 30.1424 25.2358 30.2877 24.9784 30.2835C24.5476 30.2767 24.206 30.0889 24.0029 29.6965C23.9062 29.5171 23.8684 29.3119 23.895 29.1099C23.9215 28.9078 24.011 28.7193 24.1508 28.571C24.7906 27.8779 25.5531 27.3091 26.3999 26.8934C26.7288 26.7286 27.0737 26.6003 27.4145 26.4635L27.468 26.4398L27.581 26.4075C27.596 26.4139 27.6128 26.4147 27.6283 26.4099C27.6439 26.4051 27.6572 26.3949 27.666 26.3812L27.8427 26.3336L27.8962 26.3132C27.9019 26.3141 27.9077 26.3136 27.9132 26.3119C27.9186 26.3101 27.9236 26.3071 27.9277 26.303L28.0254 26.2716L28.0959 26.252H28.1155L28.1342 26.2435L28.2191 26.224C28.2257 26.2288 28.2332 26.2322 28.2412 26.234C28.2491 26.2358 28.2574 26.2359 28.2654 26.2343C28.2734 26.2327 28.2809 26.2294 28.2876 26.2247C28.2943 26.22 28.2999 26.214 28.3041 26.207L28.3891 26.19C28.4558 26.1995 28.5236 26.1831 28.5785 26.1442L28.689 26.1246H28.7086L28.7272 26.117L28.8122 26.1025C28.8335 26.1078 28.8557 26.1084 28.8773 26.1043C28.8988 26.1002 28.9192 26.0915 28.9371 26.0788L29.0289 26.066C29.0633 26.0757 29.0992 26.0781 29.1346 26.0733C29.17 26.0685 29.204 26.0565 29.2345 26.038L29.4486 26.0159C29.7171 25.9998 29.9882 26.0159 30.2541 25.959Z" fill="#492504"/>
<path d="M31.6571 26.0237C31.3886 25.9999 31.1175 26.0186 30.8516 25.9591C31.1212 25.9128 31.3982 25.935 31.6571 26.0237V26.0237Z" fill="#E18332"/>
<path d="M30.2547 25.9604C29.9888 26.0174 29.7177 26.0012 29.4492 26.0216C29.4492 26.0157 29.456 26.0046 29.4594 26.0038C29.7237 25.9664 29.9854 25.8899 30.2547 25.9604Z" fill="#E18332"/>
<path d="M29.233 26.043C29.2024 26.0615 29.1684 26.0735 29.1331 26.0783C29.0977 26.0831 29.0617 26.0806 29.0273 26.071C29.0877 26.003 29.1539 25.975 29.233 26.043Z" fill="#E18332"/>
<path d="M31.9981 26.0671C31.9704 26.0794 31.9399 26.0838 31.9098 26.0798C31.8798 26.0757 31.8515 26.0634 31.8281 26.0442C31.8986 25.9915 31.953 25.9822 31.9981 26.0671Z" fill="#E18332"/>
<path d="M28.5762 26.1523C28.5212 26.1913 28.4534 26.2077 28.3867 26.1982C28.4309 26.1014 28.5082 26.1413 28.5762 26.1523Z" fill="#E18332"/>
<path d="M28.9374 26.0834C28.9195 26.0961 28.8991 26.1048 28.8776 26.1089C28.856 26.113 28.8338 26.1124 28.8125 26.1072C28.8414 26.0358 28.8847 26.0324 28.9374 26.0834Z" fill="#E18332"/>
<path d="M28.2998 26.2111C28.2956 26.2181 28.29 26.2241 28.2833 26.2288C28.2767 26.2335 28.2691 26.2368 28.2611 26.2384C28.2531 26.24 28.2448 26.2399 28.2369 26.2381C28.2289 26.2364 28.2214 26.233 28.2148 26.2281C28.2369 26.1857 28.2607 26.1619 28.2998 26.2111Z" fill="#E18332"/>
<path d="M27.6631 26.3813C27.6543 26.395 27.641 26.4052 27.6254 26.41C27.6099 26.4148 27.5931 26.414 27.5781 26.4076C27.5951 26.36 27.6155 26.3277 27.6631 26.3813Z" fill="#E18332"/>
<path d="M32.8834 26.3141L32.8086 26.2598C32.846 26.2606 32.8757 26.2717 32.8834 26.3141Z" fill="#E18332"/>
<path d="M28.0196 26.2727L27.9219 26.3041C27.9312 26.2875 27.9465 26.2751 27.9646 26.2693C27.9827 26.2634 28.0023 26.2646 28.0196 26.2727V26.2727Z" fill="#E18332"/>
<path d="M32.5062 26.1684C32.4893 26.1731 32.4715 26.173 32.4546 26.1684C32.4377 26.1638 32.4223 26.1547 32.4102 26.1421C32.4269 26.1358 32.4452 26.135 32.4624 26.1397C32.4797 26.1445 32.495 26.1545 32.5062 26.1684Z" fill="#E18332"/>
<path d="M32.336 26.1274L32.2383 26.1036C32.2548 26.0956 32.2736 26.0936 32.2914 26.0979C32.3092 26.1023 32.325 26.1127 32.336 26.1274V26.1274Z" fill="#E18332"/>
<path d="M31.0508 28.0345C31.0544 28.0298 31.0591 28.0261 31.0644 28.0235C31.0697 28.0209 31.0755 28.0195 31.0814 28.0195C31.0873 28.0195 31.0931 28.0209 31.0984 28.0235C31.1037 28.0261 31.1084 28.0298 31.112 28.0345H31.0508Z" fill="#E18332"/>
<path d="M29.9922 28.0351L30.037 28.0273L29.9922 28.0351Z" fill="#E18332"/>
<path d="M27.4684 26.4414L27.4141 26.4655L27.4684 26.4414Z" fill="#E18332"/>
<path d="M27.8942 26.3145L27.8398 26.3351L27.8942 26.3145Z" fill="#E18332"/>
<path d="M28.1325 26.2468L28.1136 26.2554H28.0938C28.1041 26.2356 28.1162 26.2287 28.1325 26.2468Z" fill="#E18332"/>
<path d="M28.7263 26.1213L28.7073 26.1291H28.6875C28.6978 26.1067 28.7099 26.1024 28.7263 26.1213Z" fill="#E18332"/>
</g>
</g>
<defs>
<filter id="filter0_di_3068_20769" x="5.5" y="6" width="53" height="54" filterUnits="userSpaceOnUse" color-interpolation-filters="sRGB">
<feFlood flood-opacity="0" result="BackgroundImageFix"/>
<feColorMatrix in="SourceAlpha" type="matrix" values="0 0 0 0 0 0 0 0 0 0 0 0 0 0 0 0 0 0 127 0" result="hardAlpha"/>
<feOffset dx="-1" dy="1"/>
<feColorMatrix type="matrix" values="0 0 0 0 1 0 0 0 0 1 0 0 0 0 1 0 0 0 0.32 0"/>
<feBlend mode="normal" in2="BackgroundImageFix" result="effect1_dropShadow_3068_20769"/>
<feBlend mode="normal" in="SourceGraphic" in2="effect1_dropShadow_3068_20769" result="shape"/>
<feColorMatrix in="SourceAlpha" type="matrix" values="0 0 0 0 0 0 0 0 0 0 0 0 0 0 0 0 0 0 127 0" result="hardAlpha"/>
<feOffset dx="-1" dy="2"/>
<feGaussianBlur stdDeviation="1"/>
<feComposite in2="hardAlpha" operator="arithmetic" k2="-1" k3="1"/>
<feColorMatrix type="matrix" values="0 0 0 0 0 0 0 0 0 0 0 0 0 0 0 0 0 0 0.16 0"/>
<feBlend mode="normal" in2="shape" result="effect2_innerShadow_3068_20769"/>
</filter>
<filter id="filter1_d_3068_20769" x="10.2188" y="12.8887" width="38.6562" height="38.2227" filterUnits="userSpaceOnUse" color-interpolation-filters="sRGB">
<feFlood flood-opacity="0" result="BackgroundImageFix"/>
<feColorMatrix in="SourceAlpha" type="matrix" values="0 0 0 0 0 0 0 0 0 0 0 0 0 0 0 0 0 0 127 0" result="hardAlpha"/>
<feOffset dx="-1" dy="1"/>
<feGaussianBlur stdDeviation="0.5"/>
<feComposite in2="hardAlpha" operator="out"/>
<feColorMatrix type="matrix" values="0 0 0 0 0 0 0 0 0 0 0 0 0 0 0 0 0 0 0.08 0"/>
<feBlend mode="normal" in2="BackgroundImageFix" result="effect1_dropShadow_3068_20769"/>
<feBlend mode="normal" in="SourceGraphic" in2="effect1_dropShadow_3068_20769" result="shape"/>
</filter>
<clipPath id="clip0_3068_20769">
<rect width="64" height="64" fill="white" transform="translate(0.5)"/>
</clipPath>
</defs>
</svg>
