<svg viewBox="0 0 64 64" fill="none" xmlns="http://www.w3.org/2000/svg">
    <g clip-path="url(#clip0_bch)">
        <path d="M63.046 39.741c-4.274 17.143-21.64 27.576-38.786 23.301C7.12 58.768-3.314 41.404.962 24.262 5.235 7.117 22.6-3.317 39.742.957c17.145 4.274 27.578 21.64 23.304 38.784z" fill="#6CC64B"/>
        <path d="M3.873 24.988h0C7.745 9.45 23.482-.005 39.016 3.867h0c15.538 3.873 24.993 19.61 21.12 35.147-3.874 15.535-19.61 24.99-35.15 21.116C9.453 56.258-.002 40.522 3.873 24.988z" stroke="#fff" stroke-opacity=".24" stroke-width="6"/>
        <path d="M62.091 21.127L.413 37.13a31.878 31.878 0 01.546-12.867C5.23 7.118 22.596-3.317 39.738.958c10.74 2.677 18.846 10.49 22.353 20.17z" fill="#fff" opacity=".3"/>
        <g filter="url(#filter0_di_bch)">
            <path d="M57.222 38.29C53.749 52.218 39.64 60.695 25.708 57.222 11.782 53.749 3.304 39.64 6.778 25.713 10.25 11.783 24.36 3.305 38.288 6.778c13.93 3.473 22.408 17.582 18.935 31.512z" fill="#6CC64B"/>
        </g>
        <g filter="url(#filter1_d_bch)">
            <path d="M41.601 22.474c-1.318-3.59-4.801-4.007-8.883-3.326l-1.34-5.106-3.091.8 1.305 4.972c-.813.21-1.64.441-2.46.671l-1.313-5.004-3.089.799 1.338 5.105c-.665.187-1.319.37-1.96.535l-.004-.015-4.264 1.101.872 3.32s2.271-.635 2.244-.583c1.252-.323 1.852.302 2.136.902l1.526 5.817c.087-.022.2-.048.333-.063-.103.027-.214.054-.327.085l2.138 8.149c.049.41-.017 1.102-.891 1.33.049.024-2.247.58-2.247.58l.36 3.87 4.022-1.04c.749-.193 1.488-.37 2.213-.553l1.356 5.164 3.088-.799-1.341-5.11c.852-.201 1.674-.407 2.475-.614l1.333 5.086 3.091-.8-1.352-5.155c5.118-1.645 8.41-3.902 7.573-8.926-.672-4.045-2.983-5.33-6.12-5.279 1.552-1.381 2.248-3.288 1.28-5.913zm-1.426 12.16c1.014 3.86-5.673 5.12-7.767 5.665l-1.795-6.843c2.096-.541 8.506-2.847 9.562 1.178zm-3.971-9.28c.92 3.51-4.668 4.519-6.412 4.97l-1.629-6.205c1.745-.452 7.08-2.428 8.041 1.234z" fill="#fff"/>
        </g>
    </g>
    <defs>
        <filter id="filter0_di_bch" x="5" y="6" width="53" height="54" filterUnits="userSpaceOnUse" color-interpolation-filters="sRGB">
            <feFlood flood-opacity="0" result="BackgroundImageFix"/>
            <feColorMatrix in="SourceAlpha" values="0 0 0 0 0 0 0 0 0 0 0 0 0 0 0 0 0 0 127 0"/>
            <feOffset dx="-1" dy="1"/>
            <feColorMatrix values="0 0 0 0 1 0 0 0 0 1 0 0 0 0 1 0 0 0 0.32 0"/>
            <feBlend in2="BackgroundImageFix" result="effect1_dropShadow"/>
            <feBlend in="SourceGraphic" in2="effect1_dropShadow" result="shape"/>
            <feColorMatrix in="SourceAlpha" values="0 0 0 0 0 0 0 0 0 0 0 0 0 0 0 0 0 0 127 0" result="hardAlpha"/>
            <feOffset dx="-1" dy="2"/>
            <feGaussianBlur stdDeviation="1"/>
            <feComposite in2="hardAlpha" operator="arithmetic" k2="-1" k3="1"/>
            <feColorMatrix values="0 0 0 0 0 0 0 0 0 0 0 0 0 0 0 0 0 0 0.16 0"/>
            <feBlend in2="shape" result="effect2_innerShadow"/>
        </filter>
        <filter id="filter1_d_bch" x="15.84" y="14.042" width="30.732" height="37.941" filterUnits="userSpaceOnUse" color-interpolation-filters="sRGB">
            <feFlood flood-opacity="0" result="BackgroundImageFix"/>
            <feColorMatrix in="SourceAlpha" values="0 0 0 0 0 0 0 0 0 0 0 0 0 0 0 0 0 0 127 0"/>
            <feOffset dx="-1" dy="1"/>
            <feGaussianBlur stdDeviation=".5"/>
            <feColorMatrix values="0 0 0 0 0 0 0 0 0 0 0 0 0 0 0 0 0 0 0.08 0"/>
            <feBlend in2="BackgroundImageFix" result="effect1_dropShadow"/>
            <feBlend in="SourceGraphic" in2="effect1_dropShadow" result="shape"/>
        </filter>
        <clipPath id="clip0_bch">
            <path fill="#fff" d="M0 0h64v64H0z"/>
        </clipPath>
    </defs>
</svg>
