<svg width="65" height="64" viewBox="0 0 65 64" fill="none" xmlns="http://www.w3.org/2000/svg">
<path d="M63.0461 39.7406C58.7716 56.8836 41.4068 67.3166 24.26 63.0416C7.12012 58.7676 -3.31399 41.4036 0.962469 24.2616C5.23492 7.11662 22.5998 -3.31738 39.7416 0.956619C56.8874 5.23062 67.3205 22.5966 63.0461 39.7406Z" fill="#F0B90B"/>
<path d="M3.87326 24.9878L3.87345 24.987C7.74523 9.44988 23.4818 -0.00563118 39.0158 3.8675L39.016 3.86754C54.5539 7.74073 64.0089 23.4784 60.1352 39.0149C56.2617 54.5499 40.5252 64.005 24.9857 60.1307C9.45344 56.2575 -0.00205249 40.5218 3.87326 24.9878Z" stroke="white" stroke-opacity="0.24" stroke-width="6"/>
<g style="mix-blend-mode:screen" opacity="0.3">
<path d="M62.0911 21.1272L0.412762 37.1302C-0.264382 32.9715 -0.12597 28.6099 0.958563 24.2626C5.23102 7.1176 22.5959 -3.3164 39.7377 0.957596C50.4776 3.63476 58.5837 11.4487 62.0911 21.1272Z" fill="white"/>
</g>
<g filter="url(#filter0_di_34_15319)">
<path d="M57.2218 38.2897C53.7488 52.2183 39.6398 60.695 25.708 57.2216C11.7819 53.749 3.30421 39.6409 6.77883 25.7132C10.2502 11.783 24.3591 3.30545 38.2869 6.77804C52.2179 10.2506 60.6948 24.3604 57.2218 38.2897Z" fill="#F0B90B"/>
</g>
<path d="M22.1761 19.5142L32 14L41.8239 19.5142L38.2122 21.5512L32 18.0742L25.7878 21.5512L22.1761 19.5142ZM41.8239 26.4683L38.2122 24.4312L32 27.9083L25.7878 24.4312L22.1761 26.4683V30.5425L28.3882 34.0195V40.9736L32 43.0107L35.6118 40.9736V34.0195L41.8239 30.5425V26.4683ZM41.8239 37.4966V33.4225L38.2122 35.4595V39.5336L41.8239 37.4966ZM44.3883 38.9366L38.1761 42.4136V46.4878L48 40.9736V29.9454L44.3883 31.9825V38.9366ZM40.7765 22.9912L44.3883 25.0283V29.1025L48 27.0654V22.9912L44.3883 20.9542L40.7765 22.9912ZM28.3882 43.8888V47.9629L32 50L35.6118 47.9629V43.8888L32 45.9258L28.3882 43.8888ZM22.1761 37.4966L25.7878 39.5336V35.4595L22.1761 33.4225V37.4966ZM28.3882 22.9912L32 25.0283L35.6118 22.9912L32 20.9542L28.3882 22.9912ZM19.6117 25.0283L23.2235 22.9912L19.6117 20.9542L16 22.9912V27.0654L19.6117 29.1025V25.0283ZM19.6117 31.9825L16 29.9454V40.9736L25.8239 46.4878V42.4136L19.6117 38.9366V31.9825Z" fill="white"/>
<defs>
<filter id="filter0_di_34_15319" x="5" y="6" width="53" height="54" filterUnits="userSpaceOnUse" color-interpolation-filters="sRGB">
<feFlood flood-opacity="0" result="BackgroundImageFix"/>
<feColorMatrix in="SourceAlpha" type="matrix" values="0 0 0 0 0 0 0 0 0 0 0 0 0 0 0 0 0 0 127 0" result="hardAlpha"/>
<feOffset dx="-1" dy="1"/>
<feColorMatrix type="matrix" values="0 0 0 0 1 0 0 0 0 1 0 0 0 0 1 0 0 0 0.32 0"/>
<feBlend mode="normal" in2="BackgroundImageFix" result="effect1_dropShadow_34_15319"/>
<feBlend mode="normal" in="SourceGraphic" in2="effect1_dropShadow_34_15319" result="shape"/>
<feColorMatrix in="SourceAlpha" type="matrix" values="0 0 0 0 0 0 0 0 0 0 0 0 0 0 0 0 0 0 127 0" result="hardAlpha"/>
<feOffset dx="-1" dy="2"/>
<feGaussianBlur stdDeviation="1"/>
<feComposite in2="hardAlpha" operator="arithmetic" k2="-1" k3="1"/>
<feColorMatrix type="matrix" values="0 0 0 0 0 0 0 0 0 0 0 0 0 0 0 0 0 0 0.16 0"/>
<feBlend mode="normal" in2="shape" result="effect2_innerShadow_34_15319"/>
</filter>
</defs>
</svg>
