<svg width="65" height="64" viewBox="0 0 65 64" fill="none" xmlns="http://www.w3.org/2000/svg">
<path d="M63.0422 39.7409C58.7677 56.8839 41.4029 67.3169 24.256 63.0419C7.11622 58.7679 -3.31789 41.4039 0.958563 24.2619C5.23102 7.11695 22.5959 -3.31705 39.7377 0.956947C56.8835 5.23095 67.3166 22.5969 63.0422 39.7409Z" fill="white"/>
<path d="M3.86935 24.9881L3.86954 24.9874C7.74132 9.45021 23.4778 -0.00530312 39.0119 3.86783L39.0121 3.86787C54.55 7.74106 64.005 23.4787 60.1313 39.0152C56.2577 54.5502 40.5213 64.0053 24.9818 60.1311C9.44954 56.2579 -0.00595874 40.5221 3.86935 24.9881Z" stroke="white" stroke-opacity="0.24" stroke-width="6"/>
<path d="M56.7844 12C54.5642 12.439 52.4472 13.0589 50.7046 13.4462C46.7289 14.3372 43.0114 17.3847 42.1982 22.963C41.4753 27.9474 43.1534 30.0909 42.4176 35.8888C41.1268 46.0124 31.4199 49.4989 26.8891 51.6166C24.2688 52.8304 17.9051 55.6196 13 57.7502C18.3181 61.6757 24.8755 64 31.9879 64C49.672 64 64 49.6667 64 31.9762C64 24.4351 61.3926 17.5009 57.0296 12.0387C56.9522 12.0258 56.8747 12.0129 56.7844 12Z" fill="url(#paint0_linear)"/>
<path d="M28.3839 27.1345C30.8471 21.8384 29.9572 21.8256 31.8272 16.8501C34.1871 10.5409 41.5249 12.3362 43.5496 12.6055C46.8896 13.0543 47.7665 11.8746 54.8077 10.7461C55.1559 10.6948 55.4912 10.6435 55.8265 10.605C49.9717 4.10352 41.4604 0 31.9819 0C19.2536 0 8.26629 7.38634 3.12081 18.094C13.6697 20.6971 25.0568 26.3523 28.3839 27.1345ZM21.3943 5.53975C22.3229 5.68081 26.8364 11.259 27.6876 25.5829C27.6876 25.5829 21.8844 24.1979 20.6335 21.2229C19.6018 18.7736 20.943 15.5549 21.3943 5.53975ZM56.9484 11.9387C56.9613 11.9643 56.9871 11.9772 57 12.0028C56.9226 11.99 56.8324 11.99 56.755 11.9772C56.8195 11.9515 56.8839 11.9515 56.9484 11.9387ZM0 31.8023C0 29.2632 0.296606 26.8011 0.864027 24.4416C2.02466 25.4034 3.26267 26.4677 4.57805 27.6859C12.9088 35.3672 26.4624 41.4327 31.4016 35.7904C31.4145 35.8032 31.4274 35.8032 31.4274 35.816C30.5247 36.9958 27.0814 40.7274 20.5045 39.5733L9.97315 55.2099C3.75732 49.4137 0 40.9583 0 31.8023Z" fill="url(#paint1_linear)"/>
<g style="mix-blend-mode:screen" opacity="0.3">
<path d="M62.0911 21.1272L0.412762 37.1302C-0.264382 32.9715 -0.12597 28.6099 0.958563 24.2626C5.23102 7.1176 22.5959 -3.3164 39.7377 0.957603C50.4776 3.63477 58.5837 11.4487 62.0911 21.1272Z" fill="white"/>
</g>
<path d="M3.8732 24.9881L3.87339 24.9874C7.74517 9.45025 23.4817 -0.00526497 39.0158 3.86787L39.0159 3.86791C54.5538 7.7411 64.0088 23.4787 60.1351 39.0152C56.2616 54.5502 40.5252 64.0054 24.9856 60.1311C9.45338 56.2579 -0.00211353 40.5222 3.8732 24.9881Z" stroke="white" stroke-opacity="0.24" stroke-width="6"/>
<g filter="url(#filter0_di)">
<g clip-path="url(#clip0)">
<path d="M63.0422 39.7409C58.7677 56.8839 41.4029 67.3169 24.256 63.0419C7.11622 58.7679 -3.31789 41.4039 0.958563 24.2619C5.23102 7.11695 22.5959 -3.31705 39.7377 0.956947C56.8835 5.23095 67.3166 22.5969 63.0422 39.7409Z" fill="white"/>
<path d="M3.86935 24.9881L3.86954 24.9874C7.74132 9.45021 23.4778 -0.00530312 39.0119 3.86783L39.0121 3.86787C54.55 7.74106 64.005 23.4787 60.1313 39.0152C56.2577 54.5502 40.5213 64.0053 24.9818 60.1311C9.44954 56.2579 -0.00595874 40.5221 3.86935 24.9881Z" stroke="white" stroke-opacity="0.24" stroke-width="6"/>
<path d="M56.7844 12C54.5642 12.439 52.4472 13.0589 50.7046 13.4462C46.7289 14.3372 43.0114 17.3847 42.1982 22.963C41.4753 27.9474 43.1534 30.0909 42.4176 35.8888C41.1268 46.0124 31.4199 49.4989 26.8891 51.6166C24.2688 52.8304 17.9051 55.6196 13 57.7502C18.3181 61.6757 24.8755 64 31.9879 64C49.672 64 64 49.6667 64 31.9762C64 24.4351 61.3926 17.5009 57.0296 12.0387C56.9522 12.0258 56.8747 12.0129 56.7844 12Z" fill="url(#paint2_linear)"/>
<path d="M28.3839 27.1345C30.8471 21.8384 29.9572 21.8256 31.8272 16.8501C34.1871 10.5409 41.5249 12.3362 43.5496 12.6055C46.8896 13.0543 47.7665 11.8746 54.8077 10.7461C55.1559 10.6948 55.4912 10.6435 55.8265 10.605C49.9717 4.10352 41.4604 0 31.9819 0C19.2536 0 8.26629 7.38634 3.12081 18.094C13.6697 20.6971 25.0568 26.3523 28.3839 27.1345ZM21.3943 5.53975C22.3229 5.68081 26.8364 11.259 27.6876 25.5829C27.6876 25.5829 21.8844 24.198 20.6335 21.2229C19.6018 18.7736 20.943 15.5549 21.3943 5.53975ZM56.9484 11.9387C56.9613 11.9643 56.9871 11.9772 57 12.0028C56.9226 11.99 56.8324 11.99 56.755 11.9772C56.8195 11.9515 56.8839 11.9515 56.9484 11.9387ZM0 31.8023C0 29.2632 0.296606 26.8011 0.864027 24.4416C2.02466 25.4034 3.26267 26.4677 4.57805 27.6859C12.9088 35.3672 26.4624 41.4327 31.4016 35.7904C31.4145 35.8032 31.4274 35.8032 31.4274 35.816C30.5247 36.9958 27.0814 40.7274 20.5045 39.5733L10.1104 55C3.89457 49.2038 0 40.9583 0 31.8023Z" fill="url(#paint3_linear)"/>
</g>
</g>
<defs>
<filter id="filter0_di" x="5" y="6" width="53" height="54" filterUnits="userSpaceOnUse" color-interpolation-filters="sRGB">
<feFlood flood-opacity="0" result="BackgroundImageFix"/>
<feColorMatrix in="SourceAlpha" type="matrix" values="0 0 0 0 0 0 0 0 0 0 0 0 0 0 0 0 0 0 127 0"/>
<feOffset dx="-1" dy="1"/>
<feColorMatrix type="matrix" values="0 0 0 0 1 0 0 0 0 1 0 0 0 0 1 0 0 0 0.32 0"/>
<feBlend mode="normal" in2="BackgroundImageFix" result="effect1_dropShadow"/>
<feBlend mode="normal" in="SourceGraphic" in2="effect1_dropShadow" result="shape"/>
<feColorMatrix in="SourceAlpha" type="matrix" values="0 0 0 0 0 0 0 0 0 0 0 0 0 0 0 0 0 0 127 0" result="hardAlpha"/>
<feOffset dx="-1" dy="2"/>
<feGaussianBlur stdDeviation="1"/>
<feComposite in2="hardAlpha" operator="arithmetic" k2="-1" k3="1"/>
<feColorMatrix type="matrix" values="0 0 0 0 0 0 0 0 0 0 0 0 0 0 0 0 0 0 0.16 0"/>
<feBlend mode="normal" in2="shape" result="effect2_innerShadow"/>
</filter>
<linearGradient id="paint0_linear" x1="51.2127" y1="20.3875" x2="43.655" y2="62.0082" gradientUnits="userSpaceOnUse">
<stop stop-color="#FF496A"/>
<stop offset="1" stop-color="#E42648"/>
</linearGradient>
<linearGradient id="paint1_linear" x1="15.4367" y1="46.8467" x2="31.9528" y2="-0.0585392" gradientUnits="userSpaceOnUse">
<stop offset="0.00181229" stop-color="#1158F1"/>
<stop offset="1" stop-color="#119BED"/>
</linearGradient>
<linearGradient id="paint2_linear" x1="51.2127" y1="20.3875" x2="43.655" y2="62.0082" gradientUnits="userSpaceOnUse">
<stop stop-color="#FF496A"/>
<stop offset="1" stop-color="#E42648"/>
</linearGradient>
<linearGradient id="paint3_linear" x1="15.4367" y1="46.8467" x2="31.9528" y2="-0.0585388" gradientUnits="userSpaceOnUse">
<stop offset="0.00181229" stop-color="#1158F1"/>
<stop offset="1" stop-color="#119BED"/>
</linearGradient>
<clipPath id="clip0">
<rect x="6" y="6" width="52" height="52" rx="26" fill="white"/>
</clipPath>
</defs>
</svg>
