<svg viewBox="0 0 32 32" xmlns="http://www.w3.org/2000/svg">
    <g clip-path="url(#clip0656515)">
        <path
                d="M31.523 19.87c-2.137 8.572-10.82 13.788-19.393 11.651C3.56 29.384-1.657 20.702.48 12.131 2.617 3.558 11.3-1.659 19.871.478c8.573 2.137 13.79 10.82 11.652 19.393z"
                fill="#2D2D2D"
        />
        <path
                d="M3.392 12.857h0c1.736-6.965 8.79-11.204 15.753-9.468h0c6.965 1.737 11.204 8.791 9.467 15.756-1.736 6.963-8.79 11.202-15.756 9.465-6.963-1.736-11.201-8.79-9.464-15.753z"
                stroke="#fff"
                stroke-opacity=".24"
                stroke-width="6"
        />
        <path
                d="M31.046 10.564L.206 18.565a15.94 15.94 0 01.273-6.434C2.616 3.56 11.298-1.659 19.87.48c5.37 1.338 9.423 5.245 11.177 10.085z"
                fill="#fff"
                opacity=".3"
        />
        <g filter="url(#filter0_di656515)">
            <path
                    d="M28.61 19.145c-1.736 6.964-8.79 11.202-15.756 9.466-6.963-1.737-11.202-8.79-9.465-15.755C5.125 5.892 12.18 1.654 19.143 3.39c6.966 1.736 11.204 8.791 9.468 15.756z"
                    fill="#2D2D2D"
            />
        </g>
        <g filter="url(#filter1_d656515)" fill="#fff">
            <path
                    d="M15.96 24h.26c.045 0 .09 0 .136-.012h.011c.046 0 .08 0 .125-.011h.034c.034 0 .068 0 .102-.012h.034c.034 0 .068-.011.114-.011h.022c.046 0 .09-.012.136-.012.046 0 .08-.012.125-.023h.023c.034 0 .068-.012.102-.012h.022c.046-.011.08-.011.125-.023.09-.012.181-.035.26-.058h.023c.034-.012.08-.012.114-.023h.011c.09-.023.17-.047.261-.07a9.916 9.916 0 01-2.528-.244c-1.247-.278-2.438-.777-3.447-1.636a7.218 7.218 0 01-2.517-5.557 6.849 6.849 0 011.553-4.316 6.673 6.673 0 015.012-2.437h.26V8h-.294a8.32 8.32 0 00-1.701.209 8.028 8.028 0 00-1.633.568 8.322 8.322 0 00-1.496.929c-.477.37-.919.8-1.304 1.276a7.91 7.91 0 00-.941 1.427 8.266 8.266 0 00-.624 1.543 8.61 8.61 0 00-.306 1.613l-.034.51v.302c.011.592.08 1.172.204 1.74a8.48 8.48 0 00.556 1.671c.283.638.793 1.578 1.553 2.286A8.644 8.644 0 0015.755 24h.204z"
            />
            <path
                    d="M18.541 22.536a11.344 11.344 0 01-1.674-.186c-2.345-.43-4.36-1.894-5.1-4.101-.899-2.684.479-5.588 3.097-6.471a4.757 4.757 0 011.548-.256c.672 0 1.344.14 1.958.395l.638-1.383c-.194-.08-.387-.15-.58-.22A6.583 6.583 0 0016.411 10c-.683 0-1.366.116-2.015.337a6.3 6.3 0 00-2.242 1.324 6.441 6.441 0 00-1.503 2.021 6.68 6.68 0 00-.637 2.451 6.728 6.728 0 00.34 2.604c.285.848.74 1.626 1.367 2.312.558.615 1.207 1.08 1.992 1.51.82.441 1.833.674 2.892.825.683.093 1.593.116 2.128.116.467-.174.66-.256.911-.36a8.62 8.62 0 00.65-.337c.215-.128.25-.151.614-.395a.632.632 0 00.091-.07c-1.252.233-1.571.22-2.459.198z"
            />
            <path
                    d="M21.537 20.584c-.357.022-.864.056-1.44.056-1.025 0-2.28-.09-3.352-.438-1.658-.54-3.225-1.921-3.225-3.63 0-1.707 1.417-3.078 3.156-3.078 1.187 0 2.212.64 2.753 1.573l1.371-.663a4.352 4.352 0 00-.818-1.067 4.644 4.644 0 00-1.486-.977 4.774 4.774 0 00-3.64 0 4.644 4.644 0 00-2.487 2.426A4.46 4.46 0 0012 16.561c0 .619.138 1.236.403 1.82.242.517.576 1 1.002 1.45.749.787 1.774 1.416 2.868 1.775 1.049.337 2.592.46 4.09.36a7.35 7.35 0 001.255-.18c.507-.393.979-.843 1.382-1.337-.346.034-1.002.101-1.463.135z"
            />
        </g>
    </g>
    <defs>
        <filter id="filter0_di656515" x="2" y="3" width="27" height="28" filterUnits="userSpaceOnUse" color-interpolation-filters="sRGB">
            <feFlood flood-opacity="0" result="BackgroundImageFix" />
            <feColorMatrix in="SourceAlpha" values="0 0 0 0 0 0 0 0 0 0 0 0 0 0 0 0 0 0 127 0" />
            <feOffset dx="-1" dy="1" />
            <feColorMatrix values="0 0 0 0 1 0 0 0 0 1 0 0 0 0 1 0 0 0 0.32 0" />
            <feBlend in2="BackgroundImageFix" result="effect1_dropShadow" />
            <feBlend in="SourceGraphic" in2="effect1_dropShadow" result="shape" />
            <feColorMatrix in="SourceAlpha" values="0 0 0 0 0 0 0 0 0 0 0 0 0 0 0 0 0 0 127 0" result="hardAlpha" />
            <feOffset dx="-1" dy="2" />
            <feGaussianBlur stdDeviation="1" />
            <feComposite in2="hardAlpha" operator="arithmetic" k2="-1" k3="1" />
            <feColorMatrix values="0 0 0 0 0 0 0 0 0 0 0 0 0 0 0 0 0 0 0.16 0" />
            <feBlend in2="shape" result="effect2_innerShadow" />
        </filter>
        <filter
                id="filter1_d656515"
                x="2.5"
                y="4.5"
                width="25"
                height="25"
                filterUnits="userSpaceOnUse"
                color-interpolation-filters="sRGB"
        >
            <feFlood flood-opacity="0" result="BackgroundImageFix" />
            <feColorMatrix in="SourceAlpha" values="0 0 0 0 0 0 0 0 0 0 0 0 0 0 0 0 0 0 127 0" />
            <feOffset dx="-1" dy="1" />
            <feGaussianBlur stdDeviation=".5" />
            <feColorMatrix values="0 0 0 0 0 0 0 0 0 0 0 0 0 0 0 0 0 0 0.08 0" />
            <feBlend in2="BackgroundImageFix" result="effect1_dropShadow" />
            <feBlend in="SourceGraphic" in2="effect1_dropShadow" result="shape" />
        </filter>
        <clipPath id="clip0656515">
            <path fill="#fff" d="M0 0h32v32H0z" />
        </clipPath>
    </defs>
</svg>
