<svg width="64" height="64" fill="none" xmlns="http://www.w3.org/2000/svg"><g clip-path="url(#clip0)"><path d="M63.046 39.741c-4.274 17.143-21.64 27.576-38.786 23.301C7.12 58.768-3.314 41.404.962 24.262 5.235 7.117 22.6-3.317 39.742.957c17.145 4.274 27.578 21.64 23.304 38.784z" fill="#D9B432"/><path d="M3.873 24.988h0C7.745 9.45 23.482-.005 39.016 3.867h0c15.538 3.873 24.993 19.61 21.12 35.147-3.874 15.535-19.61 24.99-35.15 21.116C9.453 56.258-.002 40.522 3.873 24.988z" stroke="#fff" stroke-opacity=".24" stroke-width="6"/><path d="M62.091 21.127L.413 37.13a31.878 31.878 0 01.546-12.867C5.23 7.118 22.596-3.317 39.738.958c10.74 2.677 18.846 10.49 22.353 20.17z" fill="#fff" opacity=".3"/><g filter="url(#filter0_di)"><path d="M57.222 38.29C53.749 52.218 39.64 60.695 25.708 57.222 11.782 53.749 3.304 39.64 6.778 25.713 10.25 11.783 24.36 3.305 38.288 6.778c13.93 3.473 22.408 17.582 18.935 31.512z" fill="#D9B432"/></g></g><path d="M24.328 20a7.335 7.335 0 00-7.187 8.764 7.331 7.331 0 009.997 5.343 7.333 7.333 0 004.53-6.769A7.341 7.341 0 0024.328 20zm0 11.66a4.328 4.328 0 01-3.06-7.385 4.328 4.328 0 017.387 3.06 4.34 4.34 0 01-4.327 4.326zm21.62-5.387a6.17 6.17 0 01-.771 3 8.424 8.424 0 00-2.633-1.45 3.264 3.264 0 00-5.182-3.858 3.264 3.264 0 00-.957 2.308c-.004.541.13 1.075.392 1.55a8.433 8.433 0 00-2.634 1.45A6.264 6.264 0 0139.673 20a6.283 6.283 0 016.275 6.273zm-6.276 2.538a7.336 7.336 0 00-7.2 8.757 7.332 7.332 0 009.994 5.352A7.334 7.334 0 0047 36.15a7.346 7.346 0 00-7.328-7.339zm0 11.653a4.322 4.322 0 01-3.046-7.38A4.321 4.321 0 0144 36.15a4.326 4.326 0 01-4.327 4.313zm-9.069-3.262a6.275 6.275 0 01-6.277 6.276 6.278 6.278 0 01-6.278-6.276h3.013a3.264 3.264 0 006.53 0h3.012z" fill="#fff"/><defs><clipPath id="clip0"><path fill="#fff" d="M0 0h64v64H0z"/></clipPath><filter id="filter0_di" x="5" y="6" width="53" height="54" filterUnits="userSpaceOnUse" color-interpolation-filters="sRGB"><feFlood flood-opacity="0" result="BackgroundImageFix"/><feColorMatrix in="SourceAlpha" values="0 0 0 0 0 0 0 0 0 0 0 0 0 0 0 0 0 0 127 0" result="hardAlpha"/><feOffset dx="-1" dy="1"/><feColorMatrix values="0 0 0 0 1 0 0 0 0 1 0 0 0 0 1 0 0 0 0.32 0"/><feBlend in2="BackgroundImageFix" result="effect1_dropShadow"/><feBlend in="SourceGraphic" in2="effect1_dropShadow" result="shape"/><feColorMatrix in="SourceAlpha" values="0 0 0 0 0 0 0 0 0 0 0 0 0 0 0 0 0 0 127 0" result="hardAlpha"/><feOffset dx="-1" dy="2"/><feGaussianBlur stdDeviation="1"/><feComposite in2="hardAlpha" operator="arithmetic" k2="-1" k3="1"/><feColorMatrix values="0 0 0 0 0 0 0 0 0 0 0 0 0 0 0 0 0 0 0.16 0"/><feBlend in2="shape" result="effect2_innerShadow"/></filter></defs></svg>