<svg viewBox="0 0 64 64" xmlns="http://www.w3.org/2000/svg" fill="none">
    <path fill="#24C7D6" d="M63.046 39.741c-4.274 17.143-21.64 27.576-38.786 23.301C7.12 58.768-3.314 41.404.962 24.262 5.235 7.117 22.6-3.317 39.742.957c17.145 4.274 27.578 21.64 23.304 38.784z"/>
    <path stroke="#fff" stroke-opacity=".24" stroke-width="6" d="M3.873 24.988h0C7.745 9.45 23.482-.006 39.016 3.867h0c15.538 3.873 24.993 19.61 21.12 35.147-3.874 15.535-19.61 24.99-35.15 21.116C9.453 56.258-.002 40.522 3.873 24.988z"/>
    <path fill="#fff" d="M62.091 21.127L.413 37.13a31.878 31.878 0 01.546-12.867C5.23 7.118 22.596-3.317 39.738.958c10.74 2.677 18.846 10.49 22.353 20.17z" opacity=".3"/>
    <g filter="url(#filter0_di_cake)">
        <path fill="#24C7D6" d="M57.222 38.29C53.749 52.218 39.64 60.695 25.708 57.22 11.782 53.75 3.304 39.642 6.778 25.713 10.25 11.783 24.36 3.305 38.288 6.778 52.217 10.25 60.695 24.36 57.222 38.29z"/>
    </g>
    <path fill="#606063" fill-rule="evenodd" d="M15.372 35.162a6.122 6.122 0 00.086 1.365h-.093v.557c0 .272.018.542.052.808.678 5.2 7.844 9.292 16.583 9.292 8.74 0 15.905-4.091 16.583-9.292.034-.266.052-.536.052-.808v-.557h-.093a6.252 6.252 0 00.086-1.365c-.25-5.445-7.6-9.812-16.628-9.812-9.029 0-16.377 4.367-16.628 9.812zm-1.367 0c.124-3.322 2.382-6.113 5.524-8.02 3.257-1.978 7.67-3.157 12.471-3.157s9.214 1.179 12.471 3.157c3.142 1.907 5.4 4.698 5.524 8.02H50v1.922c0 3.45-2.296 6.346-5.529 8.309-3.257 1.977-7.67 3.156-12.471 3.156s-9.214-1.178-12.471-3.156C16.296 43.43 14 40.533 14 37.084v-1.922h.005z" clip-rule="evenodd"/>
    <path fill="#BEBEBE" d="M48.635 37.085c0 5.578-7.448 10.1-16.635 10.1-9.187 0-16.635-4.522-16.635-10.1v-1.6h33.27v1.6z"/>
    <path fill="#F9FBFF" d="M48.635 35.45c0 5.578-7.448 10.1-16.635 10.1-9.187 0-16.635-4.522-16.635-10.1 0-5.578 7.448-10.1 16.635-10.1 9.187 0 16.635 4.522 16.635 10.1z"/>
    <path fill="#633001" fill-rule="evenodd" d="M17.924 32.597v.019c0 .46.067.909.194 1.346h-.194v.591c0 .261.022.52.064.774.634 3.84 5.94 6.838 12.391 6.838s11.757-2.998 12.391-6.838a4.74 4.74 0 00.064-.774v-.591h-.194a4.791 4.791 0 00.194-1.346v-.02c-.017-4.194-5.587-7.591-12.455-7.591s-12.438 3.397-12.455 7.592zm-1.365 0v1.956c0 2.758 1.823 5.033 4.301 6.547 2.502 1.529 5.87 2.43 9.519 2.43s7.017-.901 9.519-2.43c2.478-1.514 4.3-3.79 4.3-6.547v-1.895l.001-.042c0-2.757-1.823-5.033-4.301-6.547-2.501-1.528-5.87-2.43-9.519-2.43-3.648 0-7.017.902-9.519 2.43-2.472 1.51-4.292 3.78-4.3 6.528z" clip-rule="evenodd"/>
    <path fill="#FEDC90" d="M42.834 34.553c0 4.204-5.576 7.612-12.455 7.612-6.879 0-12.455-3.408-12.455-7.612v-1.785h24.91v1.785z"/>
    <path fill="#D1884F" d="M42.834 32.616c0 4.203-5.576 7.611-12.455 7.611-6.879 0-12.455-3.407-12.455-7.611s5.576-7.611 12.455-7.611c6.879 0 12.455 3.407 12.455 7.61z"/>
    <path fill="#633001" fill-rule="evenodd" d="M21.678 28.502v.019c0 .46.066.91.194 1.346h-.194v.591c0 .262.021.52.063.774.634 3.84 5.94 6.838 12.392 6.838 6.451 0 11.757-2.998 12.391-6.838a4.74 4.74 0 00.063-.773v-.592h-.194c.125-.425.191-.862.194-1.308v-.038-.019c-.016-4.195-5.586-7.592-12.454-7.592-6.869 0-12.438 3.397-12.455 7.592zm-1.365 0v1.957c0 2.757 1.823 5.032 4.3 6.546 2.502 1.529 5.871 2.43 9.52 2.43 3.648 0 7.017-.901 9.518-2.43 2.478-1.514 4.301-3.79 4.301-6.547v-1.894-.043c0-2.757-1.823-5.032-4.3-6.547-2.502-1.528-5.87-2.43-9.52-2.43-3.648 0-7.017.902-9.518 2.43-2.472 1.511-4.293 3.78-4.301 6.528z" clip-rule="evenodd"/>
    <path fill="#FEDC90" d="M46.587 30.459c0 4.203-5.576 7.61-12.454 7.61-6.879 0-12.455-3.407-12.455-7.61v-1.786h24.91v1.786z"/>
    <path fill="#D1884F" d="M46.587 28.521c0 4.204-5.576 7.611-12.454 7.611-6.879 0-12.455-3.407-12.455-7.611s5.576-7.611 12.455-7.611c6.878 0 12.454 3.407 12.454 7.611z"/>
    <path fill="#633001" fill-rule="evenodd" d="M17.924 24.407v.02c0 .459.067.908.194 1.345h-.194v.592c0 .26.022.519.064.773.634 3.84 5.94 6.838 12.391 6.838s11.757-2.998 12.391-6.838a4.74 4.74 0 00.064-.773v-.592h-.194a4.79 4.79 0 00.194-1.346v-.019c-.017-4.195-5.587-7.592-12.455-7.592s-12.438 3.397-12.455 7.592zm-1.365 0v1.957c0 2.757 1.823 5.032 4.301 6.546 2.502 1.529 5.87 2.43 9.519 2.43s7.017-.901 9.519-2.43c2.478-1.514 4.3-3.79 4.3-6.546v-1.895l.001-.043c0-2.757-1.823-5.032-4.301-6.546-2.501-1.529-5.87-2.43-9.519-2.43-3.648 0-7.017.901-9.519 2.43-2.472 1.51-4.292 3.779-4.3 6.527z" clip-rule="evenodd"/>
    <path fill="#FEDC90" d="M42.834 26.364c0 4.203-5.576 7.611-12.455 7.611-6.879 0-12.455-3.408-12.455-7.611v-1.786h24.91v1.786z"/>
    <path fill="#D1884F" d="M42.834 24.426c0 4.204-5.576 7.612-12.455 7.612-6.879 0-12.455-3.408-12.455-7.612 0-4.203 5.576-7.611 12.455-7.611 6.879 0 12.455 3.408 12.455 7.611z"/>
    <path fill="url(#paint0_linear)" fill-rule="evenodd" d="M20.87 24.9c0 1.403 1.02 2.66 2.629 3.506l-1.115 1.93v4.887a1.17 1.17 0 002.34 0v-3.886l1.2-2.077c.766.162 1.59.25 2.446.25 4.142 0 7.5-2.064 7.5-4.61 0-2.547-3.358-4.611-7.5-4.611-4.142 0-7.5 2.064-7.5 4.61z" clip-rule="evenodd"/>
    <path fill="#633001" fill-rule="evenodd" d="M23.499 28.406a7.34 7.34 0 01-.512-.296c-1.31-.83-2.117-1.962-2.117-3.21 0-2.547 3.358-4.611 7.5-4.611 4.142 0 7.5 2.064 7.5 4.61 0 2.547-3.358 4.612-7.5 4.612-.857 0-1.68-.088-2.447-.251l-1.199 2.077v3.886a1.17 1.17 0 01-2.34 0v-4.886l1.115-1.931zm-2.309 1.951v4.866a2.364 2.364 0 004.729 0v-3.566l.622-1.077c.59.082 1.203.125 1.83.125 2.255 0 4.354-.56 5.928-1.527 1.554-.956 2.765-2.435 2.765-4.278 0-1.843-1.21-3.322-2.765-4.278-1.574-.968-3.674-1.527-5.929-1.527-2.255 0-4.355.56-5.929 1.527-1.554.956-2.765 2.435-2.765 4.278 0 1.617.927 2.95 2.214 3.904l-.532.921a1.189 1.189 0 00-.168.632z" clip-rule="evenodd"/>
    <path fill="#9E7200" d="M23.213 22.957c0 1.32 1.68 2.389 3.754 2.389 2.073 0 3.753-1.07 3.753-2.389 0-1.32-1.68-2.389-3.753-2.389-2.073 0-3.754 1.07-3.754 2.39z"/>
    <path fill="#9E7200" d="M23.213 21.933h7.507v1.024h-7.507v-1.024z"/>
    <path fill="#F0B90B" d="M23.213 21.933c0 1.32 1.68 2.389 3.754 2.389 2.073 0 3.753-1.07 3.753-2.389 0-1.319-1.68-2.388-3.753-2.388-2.073 0-3.754 1.07-3.754 2.388z"/>
    <path fill="#9E7200" d="M25.542 21.645l1.058-.673a.682.682 0 01.733 0l1.058.673c.21.135.21.442 0 .576l-1.058.674a.683.683 0 01-.733 0l-1.058-.674a.341.341 0 010-.576z"/>
    <path fill="#633001" fill-rule="evenodd" d="M23.671 19.237c.899-.572 2.067-.886 3.296-.886 1.228 0 2.397.314 3.295.886.884.563 1.653 1.487 1.653 2.696v1.024c0 1.21-.768 2.134-1.653 2.697-.898.572-2.067.886-3.295.886-1.229 0-2.397-.314-3.296-.886-.884-.563-1.652-1.487-1.652-2.697v-1.024c0-1.21.768-2.134 1.652-2.696zm3.296.308c-2.073 0-3.754 1.07-3.754 2.388v1.024c0 1.32 1.68 2.389 3.754 2.389 2.073 0 3.753-1.07 3.753-2.389v-1.024c0-1.319-1.68-2.388-3.753-2.388z" clip-rule="evenodd"/>
    <defs>
        <linearGradient id="paint0_linear_cake" x1="28.451" x2="28.451" y1="20.443" y2="36.272" gradientUnits="userSpaceOnUse">
            <stop stop-color="#9F4A08"/>
            <stop offset=".37" stop-color="#7D3900"/>
            <stop offset="1" stop-color="#8D4104"/>
        </linearGradient>
        <filter id="filter0_di_cake" width="53" height="54" x="5" y="6" color-interpolation-filters="sRGB" filterUnits="userSpaceOnUse">
            <feFlood flood-opacity="0" result="BackgroundImageFix"/>
            <feColorMatrix in="SourceAlpha" values="0 0 0 0 0 0 0 0 0 0 0 0 0 0 0 0 0 0 127 0"/>
            <feOffset dx="-1" dy="1"/>
            <feColorMatrix values="0 0 0 0 1 0 0 0 0 1 0 0 0 0 1 0 0 0 0.32 0"/>
            <feBlend in2="BackgroundImageFix" result="effect1_dropShadow"/>
            <feBlend in="SourceGraphic" in2="effect1_dropShadow" result="shape"/>
            <feColorMatrix in="SourceAlpha" result="hardAlpha" values="0 0 0 0 0 0 0 0 0 0 0 0 0 0 0 0 0 0 127 0"/>
            <feOffset dx="-1" dy="2"/>
            <feGaussianBlur stdDeviation="1"/>
            <feComposite in2="hardAlpha" k2="-1" k3="1" operator="arithmetic"/>
            <feColorMatrix values="0 0 0 0 0 0 0 0 0 0 0 0 0 0 0 0 0 0 0.16 0"/>
            <feBlend in2="shape" result="effect2_innerShadow"/>
        </filter>
    </defs>
</svg>