<svg viewBox="0 0 64 64" fill="none" xmlns="http://www.w3.org/2000/svg">
    <g clip-path="url(#clip0_chz)">
        <path
                d="M63.046 39.741c-4.274 17.143-21.64 27.576-38.786 23.301C7.12 58.768-3.314 41.404.962 24.262 5.235 7.117 22.6-3.317 39.742.957c17.145 4.274 27.578 21.64 23.304 38.784z"
                fill="#CD0124"
        />
        <path
                d="M3.873 24.988h0C7.745 9.45 23.482-.006 39.016 3.867h0c15.538 3.873 24.993 19.61 21.12 35.147-3.874 15.535-19.61 24.99-35.15 21.116C9.453 56.258-.002 40.522 3.873 24.988z"
                stroke="#fff"
                stroke-opacity=".24"
                stroke-width="6"
        />
        <g style="mix-blend-mode: screen">
            <path
                    d="M62.091 21.127L.413 37.13a31.878 31.878 0 01.546-12.867C5.23 7.118 22.596-3.317 39.738.958c10.74 2.677 18.846 10.49 22.353 20.17z"
                    fill="#fff"
                    opacity=".3"
            />
        </g>
        <g filter="url(#filter0_di_chz)">
            <path
                    d="M57.222 38.29C53.749 52.218 39.64 60.695 25.708 57.22 11.782 53.75 3.304 39.642 6.778 25.713 10.25 11.783 24.36 3.305 38.288 6.778 52.217 10.25 60.695 24.36 57.222 38.29z"
                    fill="#CD0124"
            />
        </g>
        <g filter="url(#filter1_d_chz)">
            <path d="M18 22a3 3 0 100-6 3 3 0 000 6zM46 22a3 3 0 100-6 3 3 0 000 6z" fill="#fff" />
            <path d="M46 19H18l14 30 14-30z" stroke="#fff" stroke-width="2" stroke-linecap="round" stroke-linejoin="round" />
            <path d="M18 19l21 15M46 19L25 34" stroke="#fff" stroke-width="2" />
            <path d="M39 37a3 3 0 100-6 3 3 0 000 6zM25 37a3 3 0 100-6 3 3 0 000 6zM32 52a3 3 0 100-6 3 3 0 000 6z" fill="#fff" />
        </g>
    </g>
    <defs>
        <filter id="filter0_di_chz" x="1" y="3" width="60" height="60" filterUnits="userSpaceOnUse" color-interpolation-filters="sRGB">
            <feFlood flood-opacity="0" result="BackgroundImageFix" />
            <feColorMatrix in="SourceAlpha" values="0 0 0 0 0 0 0 0 0 0 0 0 0 0 0 0 0 0 127 0" />
            <feOffset dx="-1" dy="1" />
            <feGaussianBlur stdDeviation="2" />
            <feColorMatrix values="0 0 0 0 1 0 0 0 0 1 0 0 0 0 1 0 0 0 0.32 0" />
            <feBlend in2="BackgroundImageFix" result="effect1_dropShadow" />
            <feBlend in="SourceGraphic" in2="effect1_dropShadow" result="shape" />
            <feColorMatrix in="SourceAlpha" values="0 0 0 0 0 0 0 0 0 0 0 0 0 0 0 0 0 0 127 0" result="hardAlpha" />
            <feOffset dx="-1" dy="2" />
            <feGaussianBlur stdDeviation="1" />
            <feComposite in2="hardAlpha" operator="arithmetic" k2="-1" k3="1" />
            <feColorMatrix values="0 0 0 0 0 0 0 0 0 0 0 0 0 0 0 0 0 0 0.16 0" />
            <feBlend in2="shape" result="effect2_innerShadow" />
        </filter>
        <filter id="filter1_d_chz" x="13" y="16" width="36" height="38" filterUnits="userSpaceOnUse" color-interpolation-filters="sRGB">
            <feFlood flood-opacity="0" result="BackgroundImageFix" />
            <feColorMatrix in="SourceAlpha" values="0 0 0 0 0 0 0 0 0 0 0 0 0 0 0 0 0 0 127 0" />
            <feOffset dx="-1" dy="1" />
            <feGaussianBlur stdDeviation=".5" />
            <feColorMatrix values="0 0 0 0 0 0 0 0 0 0 0 0 0 0 0 0 0 0 0.08 0" />
            <feBlend in2="BackgroundImageFix" result="effect1_dropShadow" />
            <feBlend in="SourceGraphic" in2="effect1_dropShadow" result="shape" />
        </filter>
        <clipPath id="clip0_chz"><path fill="#fff" d="M0 0h64v64H0z" /></clipPath>
    </defs>
</svg>
