<svg viewBox="0 0 64 64" xmlns="http://www.w3.org/2000/svg" fill="none">
    <path fill="#00D395" d="M63.046 39.741c-4.274 17.143-21.64 27.576-38.786 23.301C7.12 58.768-3.314 41.404.962 24.262 5.235 7.117 22.6-3.317 39.742.957c17.145 4.274 27.578 21.64 23.304 38.784z"/>
    <path stroke="#fff" stroke-opacity=".24" stroke-width="6" d="M3.873 24.988h0C7.745 9.45 23.482-.006 39.016 3.867h0c15.538 3.873 24.993 19.61 21.12 35.147-3.874 15.535-19.61 24.99-35.15 21.116C9.453 56.258-.002 40.522 3.873 24.988z"/>
    <path fill="#fff" d="M62.091 21.127L.413 37.13a31.878 31.878 0 01.546-12.867C5.23 7.118 22.596-3.317 39.738.958c10.74 2.677 18.846 10.49 22.353 20.17z" opacity=".3"/>
    <g filter="url(#filter0_di_comp)">
        <path fill="#00D395" d="M57.222 38.29C53.749 52.218 39.64 60.695 25.708 57.22 11.782 53.75 3.304 39.642 6.778 25.713 10.25 11.783 24.36 3.305 38.288 6.778 52.217 10.25 60.695 24.36 57.222 38.29z"/>
    </g>
    <g filter="url(#filter1_d_comp)">
        <path fill="#fff" fill-rule="evenodd" d="M19.45 42.072A3.024 3.024 0 0118 39.492V33.63c0-.228.06-.444.168-.635a1.268 1.268 0 011.727-.456l13.225 7.71a2.537 2.537 0 011.247 2.17v6.067c0 .276-.072.552-.216.792a1.516 1.516 0 01-2.074.503l-12.626-7.71zm19.713-11.128a2.537 2.537 0 011.247 2.17V45.43c0 .36-.192.695-.515.875l-2.89 1.643a.357.357 0 01-.12.048V41.16a2.52 2.52 0 00-1.223-2.158l-11.607-6.943v-7.733c0-.228.06-.444.168-.636a1.268 1.268 0 011.727-.456l13.213 7.71zm5.78-9.088a2.513 2.513 0 011.259 2.182v17.985c0 .372-.204.708-.528.888l-2.746 1.487v-12.53a2.52 2.52 0 00-1.223-2.159l-11.87-7.122v-7.326c0-.228.06-.444.168-.636a1.268 1.268 0 011.726-.455l13.214 7.685z" clip-rule="evenodd"/>
    </g>
    <defs>
        <filter id="filter0_di_comp" width="53" height="54" x="5" y="6" color-interpolation-filters="sRGB" filterUnits="userSpaceOnUse">
            <feFlood flood-opacity="0" result="BackgroundImageFix"/>
            <feColorMatrix in="SourceAlpha" values="0 0 0 0 0 0 0 0 0 0 0 0 0 0 0 0 0 0 127 0"/>
            <feOffset dx="-1" dy="1"/>
            <feColorMatrix values="0 0 0 0 1 0 0 0 0 1 0 0 0 0 1 0 0 0 0.32 0"/>
            <feBlend in2="BackgroundImageFix" result="effect1_dropShadow"/>
            <feBlend in="SourceGraphic" in2="effect1_dropShadow" result="shape"/>
            <feColorMatrix in="SourceAlpha" result="hardAlpha" values="0 0 0 0 0 0 0 0 0 0 0 0 0 0 0 0 0 0 127 0"/>
            <feOffset dx="-1" dy="2"/>
            <feGaussianBlur stdDeviation="1"/>
            <feComposite in2="hardAlpha" k2="-1" k3="1" operator="arithmetic"/>
            <feColorMatrix values="0 0 0 0 0 0 0 0 0 0 0 0 0 0 0 0 0 0 0.16 0"/>
            <feBlend in2="shape" result="effect2_innerShadow"/>
        </filter>
        <filter id="filter1_d_comp" width="30.202" height="38" x="16" y="14" color-interpolation-filters="sRGB" filterUnits="userSpaceOnUse">
            <feFlood flood-opacity="0" result="BackgroundImageFix"/>
            <feColorMatrix in="SourceAlpha" values="0 0 0 0 0 0 0 0 0 0 0 0 0 0 0 0 0 0 127 0"/>
            <feOffset dx="-1" dy="1"/>
            <feGaussianBlur stdDeviation=".5"/>
            <feColorMatrix values="0 0 0 0 0 0 0 0 0 0 0 0 0 0 0 0 0 0 0.08 0"/>
            <feBlend in2="BackgroundImageFix" result="effect1_dropShadow"/>
            <feBlend in="SourceGraphic" in2="effect1_dropShadow" result="shape"/>
        </filter>
    </defs>
</svg>
