<svg viewBox="0 0 64 64" fill="none" xmlns="http://www.w3.org/2000/svg">
    <g clip-path="url(#clip0_doge)">
        <path fill="#C2A633" d="M63.046 39.741c-4.274 17.143-21.64 27.576-38.786 23.301C7.12 58.768-3.314 41.404.962 24.262 5.235 7.117 22.6-3.317 39.742.957c17.145 4.274 27.578 21.64 23.304 38.784z"/>
        <path stroke="#fff" stroke-opacity=".24" stroke-width="6" d="M3.873 24.988h0C7.745 9.45 23.482-.006 39.016 3.867h0c15.538 3.873 24.993 19.61 21.12 35.147-3.874 15.535-19.61 24.99-35.15 21.116C9.453 56.258-.002 40.522 3.873 24.988z"/>
        <path fill="#fff" d="M62.091 21.127L.413 37.13a31.878 31.878 0 01.546-12.867C5.23 7.118 22.596-3.317 39.738.958c10.74 2.677 18.846 10.49 22.353 20.17z" opacity=".3"/>
        <g filter="url(#filter0_di_doge)">
            <path fill="#C2A633" d="M57.222 38.29C53.749 52.218 39.64 60.695 25.708 57.22 11.782 53.75 3.304 39.642 6.778 25.713 10.25 11.783 24.36 3.305 38.288 6.778 52.217 10.25 60.695 24.36 57.222 38.29z"/>
        </g>
        <g clip-path="url(#clip1_doge)" filter="url(#filter1_d_doge)">
            <path fill="#fff" d="M30.003 15.992h-9.197v14.249h-3.778v3.49h3.778v14.248h10.717s15.07 1.263 15.07-15.727c0-16.711-14.413-16.26-16.59-16.26zm1.274 26.074h-4.435v-8.335h6.652v-3.49h-6.652v-8.336h4.23c1.58 0 9.536.636 9.548 10.463.012 9.827-8.204 9.698-9.343 9.698z"/>
        </g>
    </g>
    <defs>
        <clipPath id="clip0_doge">
            <path fill="#fff" d="M0 0h64v64H0z"/>
        </clipPath>
        <clipPath id="clip1_doge">
            <path fill="#fff" d="M0 0h32v32H0z" transform="translate(16 16)"/>
        </clipPath>
        <filter id="filter0_di_doge" width="53" height="54" x="5" y="6" color-interpolation-filters="sRGB" filterUnits="userSpaceOnUse">
            <feFlood flood-opacity="0" result="BackgroundImageFix"/>
            <feColorMatrix in="SourceAlpha" values="0 0 0 0 0 0 0 0 0 0 0 0 0 0 0 0 0 0 127 0"/>
            <feOffset dx="-1" dy="1"/>
            <feColorMatrix values="0 0 0 0 1 0 0 0 0 1 0 0 0 0 1 0 0 0 0.32 0"/>
            <feBlend in2="BackgroundImageFix" result="effect1_dropShadow"/>
            <feBlend in="SourceGraphic" in2="effect1_dropShadow" result="shape"/>
            <feColorMatrix in="SourceAlpha" result="hardAlpha" values="0 0 0 0 0 0 0 0 0 0 0 0 0 0 0 0 0 0 127 0"/>
            <feOffset dx="-1" dy="2"/>
            <feGaussianBlur stdDeviation="1"/>
            <feComposite in2="hardAlpha" k2="-1" k3="1" operator="arithmetic"/>
            <feColorMatrix values="0 0 0 0 0 0 0 0 0 0 0 0 0 0 0 0 0 0 0.16 0"/>
            <feBlend in2="shape" result="effect2_innerShadow"/>
        </filter>
        <filter id="filter1_d_doge" width="31.564" height="34.009" x="15.028" y="15.991" color-interpolation-filters="sRGB" filterUnits="userSpaceOnUse">
            <feFlood flood-opacity="0" result="BackgroundImageFix"/>
            <feColorMatrix in="SourceAlpha" values="0 0 0 0 0 0 0 0 0 0 0 0 0 0 0 0 0 0 127 0"/>
            <feOffset dx="-1" dy="1"/>
            <feGaussianBlur stdDeviation=".5"/>
            <feColorMatrix values="0 0 0 0 0 0 0 0 0 0 0 0 0 0 0 0 0 0 0.08 0"/>
            <feBlend in2="BackgroundImageFix" result="effect1_dropShadow"/>
            <feBlend in="SourceGraphic" in2="effect1_dropShadow" result="shape"/>
        </filter>
    </defs>
</svg>
