<svg viewBox="0 0 64 64" fill="none" xmlns="http://www.w3.org/2000/svg">
    <g clip-path="url(#clip0_enj)">
        <path
                d="M63.046 39.741c-4.274 17.143-21.64 27.576-38.786 23.301C7.12 58.768-3.314 41.404.962 24.262 5.235 7.117 22.6-3.317 39.742.957c17.145 4.274 27.578 21.64 23.304 38.784z"
                fill="#7866D5"
        />
        <path
                d="M3.873 24.988h0C7.745 9.45 23.482-.006 39.016 3.867h0c15.538 3.873 24.993 19.61 21.12 35.147-3.874 15.535-19.61 24.99-35.15 21.116C9.453 56.258-.002 40.522 3.873 24.988z"
                stroke="#fff"
                stroke-opacity=".24"
                stroke-width="6"
        />
        <g style="mix-blend-mode: screen">
            <path
                    d="M62.091 21.127L.413 37.13a31.878 31.878 0 01.546-12.867C5.23 7.118 22.596-3.317 39.738.958c10.74 2.677 18.846 10.49 22.353 20.17z"
                    fill="#fff"
                    opacity=".3"
            />
        </g>
        <g filter="url(#filter0_di_enj)">
            <path
                    d="M57.222 38.29C53.749 52.218 39.64 60.695 25.708 57.22 11.782 53.75 3.304 39.642 6.778 25.713 10.25 11.783 24.36 3.305 38.288 6.778 52.217 10.25 60.695 24.36 57.222 38.29z"
                    fill="#7866D5"
            />
        </g>
        <g filter="url(#filter1_d_enj)" fill="#fff">
            <path
                    d="M42.762 19.662c.836.105 1.708.174 2.544.314 1.638.313 2.195 1.15 1.916 2.822-.07.628-.557 1.115-1.184 1.22a4.52 4.52 0 01-1.185.07c-5.436 0-10.837.034-16.273.034-.802 0-1.638.07-2.44.21-2.683.418-3.728 1.533-3.937 4.25-.105 1.255-.105 1.255 1.184 1.255H45.62c.348 0 .662.105.975.279.976.627.732 1.638.697 2.544-.035.732-.488 1.15-1.254 1.29-.314.069-.628.069-.976.069H22.9c-.802 0-.802 0-.732.801.035.732.104 1.464.279 2.196.348 1.324 1.15 2.16 2.509 2.543 1.463.419 2.996.488 4.495.523h15.855c.662 0 1.29.07 1.707.697.662 1.045.314 2.404-.731 3.066-.14.105-.28.175-.453.21-1.15.383-2.335.453-3.555.487-4.983.105-9.931.105-14.88 0a25.11 25.11 0 01-4.564-.522c-3.52-.732-5.297-2.544-5.89-6.098-.139-.802-.208-1.638-.313-2.474v-6.482c.07-.627.14-1.29.21-1.917.452-4.007 2.264-5.993 6.202-6.9 1.394-.313 2.857-.382 4.251-.522l15.472.035z"
            />
            <path
                    d="M34.817 45.24c-2.509 0-4.983-.035-7.457-.07a23.43 23.43 0 01-4.67-.558c-3.798-.801-5.75-2.822-6.376-6.586a15.81 15.81 0 01-.21-1.742c-.034-.244-.07-.488-.104-.767v-6.62l.07-.628c.035-.453.104-.871.14-1.29.487-4.285 2.508-6.48 6.724-7.421 1.115-.244 2.196-.349 3.276-.453L27.255 19h15.612c.244.035.522.07.766.07.593.07 1.185.104 1.812.244 1.986.383 2.753 1.498 2.405 3.52-.105.87-.802 1.602-1.743 1.741-.418.07-.836.105-1.289.105a2525.8 2525.8 0 01-16.238.07c-.767 0-1.568.07-2.335.209-2.405.383-3.206 1.254-3.415 3.694 0 .209-.035.418-.035.592H45.62c.453 0 .906.14 1.289.348 1.185.767 1.08 1.917 1.01 2.753 0 .105-.034.244-.034.349-.07.975-.663 1.637-1.743 1.846-.383.07-.732.07-1.08.07H22.795v.14c.035.731.105 1.428.279 2.125.279 1.08.94 1.743 2.056 2.056 1.498.418 3.031.488 4.356.488 4.111.035 8.293.035 12.37.035h3.485c.522 0 1.603 0 2.23 1.01a2.79 2.79 0 01.348 2.16 2.884 2.884 0 01-1.881 2.057c-1.29.418-2.614.488-3.729.523-2.474 0-4.983.034-7.492.034zm-17.563-9.827c.035.244.07.488.07.732l.21 1.672c.557 3.276 2.125 4.879 5.4 5.575 1.464.314 2.962.488 4.46.523 4.914.105 9.932.105 14.88 0 1.01-.035 2.23-.104 3.346-.453.104-.035.209-.104.313-.14.349-.243.627-.592.732-1.01a1.526 1.526 0 00-.21-1.22c-.208-.313-.487-.417-1.15-.417h-3.484c-4.042 0-8.258 0-12.37-.035-1.394 0-3.032-.07-4.67-.558-1.568-.418-2.543-1.429-2.927-2.997a10.686 10.686 0 01-.279-2.334v-.035c-.034-.488-.07-.837.21-1.15.278-.314.662-.314 1.15-.314h22.162c.279 0 .592 0 .871-.07.557-.104.697-.348.732-.696 0-.14.035-.244.035-.384.07-.87.07-1.289-.419-1.603a1.304 1.304 0 00-.627-.174H23.387c-.766 0-1.22 0-1.568-.348-.348-.349-.278-.837-.244-1.569.244-2.996 1.499-4.355 4.46-4.808.837-.14 1.673-.21 2.545-.244 5.436 0 10.837-.035 16.273-.035.383 0 .732 0 1.08-.07a.742.742 0 00.662-.662c.244-1.394-.104-1.847-1.428-2.125a13.69 13.69 0 00-1.673-.21 5.69 5.69 0 00-.767-.07H27.325c-.348.036-.697.07-1.045.105-1.08.105-2.091.175-3.137.418-3.658.906-5.261 2.684-5.68 6.447-.034.418-.104.836-.139 1.29l-.07.592v6.377z"
            />
        </g>
    </g>
    <defs>
        <filter id="filter0_di_enj" x="1" y="3" width="60" height="60" filterUnits="userSpaceOnUse" color-interpolation-filters="sRGB">
            <feFlood flood-opacity="0" result="BackgroundImageFix" />
            <feColorMatrix in="SourceAlpha" values="0 0 0 0 0 0 0 0 0 0 0 0 0 0 0 0 0 0 127 0" />
            <feOffset dx="-1" dy="1" />
            <feGaussianBlur stdDeviation="2" />
            <feColorMatrix values="0 0 0 0 1 0 0 0 0 1 0 0 0 0 1 0 0 0 0.32 0" />
            <feBlend in2="BackgroundImageFix" result="effect1_dropShadow" />
            <feBlend in="SourceGraphic" in2="effect1_dropShadow" result="shape" />
            <feColorMatrix in="SourceAlpha" values="0 0 0 0 0 0 0 0 0 0 0 0 0 0 0 0 0 0 127 0" result="hardAlpha" />
            <feOffset dx="-1" dy="2" />
            <feGaussianBlur stdDeviation="1" />
            <feComposite in2="hardAlpha" operator="arithmetic" k2="-1" k3="1" />
            <feColorMatrix values="0 0 0 0 0 0 0 0 0 0 0 0 0 0 0 0 0 0 0.16 0" />
            <feBlend in2="shape" result="effect2_innerShadow" />
        </filter>
        <filter
                id="filter1_d_enj"
                x="14"
                y="19"
                width="34"
                height="28.239"
                filterUnits="userSpaceOnUse"
                color-interpolation-filters="sRGB"
        >
            <feFlood flood-opacity="0" result="BackgroundImageFix" />
            <feColorMatrix in="SourceAlpha" values="0 0 0 0 0 0 0 0 0 0 0 0 0 0 0 0 0 0 127 0" />
            <feOffset dx="-1" dy="1" />
            <feGaussianBlur stdDeviation=".5" />
            <feColorMatrix values="0 0 0 0 0 0 0 0 0 0 0 0 0 0 0 0 0 0 0.08 0" />
            <feBlend in2="BackgroundImageFix" result="effect1_dropShadow" />
            <feBlend in="SourceGraphic" in2="effect1_dropShadow" result="shape" />
        </filter>
        <clipPath id="clip0_enj"><path fill="#fff" d="M0 0h64v64H0z" /></clipPath>
    </defs>
</svg>
