<svg width="64" height="64" viewBox="0 0 64 64" fill="none" xmlns="http://www.w3.org/2000/svg">
<g clip-path="url(#clip0_1657_9376)">
<path d="M63.0461 39.7416C58.7716 56.8846 41.4068 67.3176 24.26 63.0426C7.12012 58.7686 -3.31399 41.4046 0.962469 24.2626C5.23492 7.1176 22.5998 -3.3164 39.7416 0.957596C56.8874 5.2316 67.3205 22.5976 63.0461 39.7416Z" fill="#2F6BF6"/>
<path d="M3.87326 24.9888L3.87345 24.988C7.74523 9.45086 23.4818 -0.00465467 39.0158 3.86848L39.016 3.86852C54.5539 7.74171 64.0089 23.4793 60.1352 39.0158C56.2617 54.5509 40.5252 64.006 24.9857 60.1317C9.45344 56.2585 -0.00205251 40.5228 3.87326 24.9888Z" stroke="white" stroke-opacity="0.24" stroke-width="6"/>
<g style="mix-blend-mode:screen" opacity="0.3">
<path d="M62.0911 21.1272L0.412762 37.1302C-0.264382 32.9715 -0.12597 28.6099 0.958563 24.2626C5.23102 7.1176 22.5959 -3.3164 39.7377 0.957596C50.4776 3.63476 58.5837 11.4487 62.0911 21.1272Z" fill="white"/>
</g>
<g filter="url(#filter0_di_1657_9376)">
<path d="M57.2218 38.2897C53.7488 52.2183 39.6398 60.695 25.708 57.2216C11.7819 53.749 3.30421 39.6409 6.77883 25.7132C10.2502 11.783 24.3591 3.30545 38.2869 6.77804C52.2179 10.2506 60.6948 24.3604 57.2218 38.2897Z" fill="#2F6BF6"/>
</g>
<path d="M20.8039 31.6105C20.8039 27.8753 20.8187 24.14 20.7965 20.4047C20.7891 19.6117 21.1003 19.0929 21.7896 18.7298C24.6652 17.2253 27.5259 15.6986 30.4089 14.1941C31.4465 13.6531 32.5359 13.6605 33.5735 14.2015C36.4491 15.6986 39.3172 17.2253 42.1928 18.7372C42.882 19.1003 43.1933 19.6265 43.1933 20.4121C43.1785 27.8604 43.1785 35.3162 43.1933 42.7645C43.1933 43.602 42.8672 44.1504 42.1335 44.5358C39.295 46.018 36.4713 47.5299 33.6254 49.0122C32.5433 49.5754 31.4316 49.5754 30.3422 49.0122C27.5037 47.5299 24.68 46.018 21.8341 44.5358C21.0929 44.1504 20.7891 43.5871 20.7891 42.7497C20.8187 39.044 20.8039 35.3236 20.8039 31.6105ZM22.1898 32.9223C22.1898 33.2188 22.1898 33.4041 22.1898 33.5819C22.1898 36.5761 22.2046 39.5702 22.175 42.5718C22.1676 43.0535 22.3454 43.2685 22.7456 43.476C25.2951 44.7878 27.8446 46.0921 30.3496 47.4781C31.4909 48.108 32.4914 48.0932 33.618 47.4706C36.1452 46.0773 38.7095 44.7507 41.2664 43.4167C41.6592 43.2166 41.7926 42.9794 41.7926 42.5422C41.7703 39.548 41.7852 36.5539 41.7778 33.5523C41.7778 33.3744 41.8445 33.1817 41.6888 32.9816C41.4961 33.0706 41.3108 33.1521 41.1256 33.2484C38.7243 34.5158 36.3082 35.7608 33.9144 37.0578C32.5878 37.7767 31.3353 37.7767 30.0087 37.0578C27.474 35.6793 24.8875 34.3453 22.1898 32.9223ZM22.3899 20.1008C25.3099 21.6424 28.1929 23.1765 31.0981 24.681C31.7503 25.0219 32.4396 24.9256 33.0992 24.5772C35.6338 23.2358 38.1685 21.9018 40.7031 20.5603C40.9922 20.4047 41.2812 20.2491 41.5777 20.0934C41.4443 19.8415 41.2219 19.797 41.044 19.7006C38.4353 18.3221 35.8191 16.9585 33.2177 15.5652C32.3803 15.1131 31.6021 15.1057 30.7572 15.5577C28.141 16.9585 25.5026 18.337 22.879 19.7229C22.716 19.8118 22.5159 19.8563 22.3899 20.1008ZM22.2713 31.403C25.3248 33.0113 28.267 34.5602 31.2908 36.1536C31.2908 33.0631 31.2834 30.1061 31.2982 27.1564C31.2982 26.7191 31.1722 26.7117 30.8313 26.8896C28.0225 28.3718 25.2062 29.8541 22.2713 31.403ZM41.6814 31.403C38.7317 29.8467 35.9154 28.3718 33.1066 26.8747C32.6693 26.645 32.6767 26.8673 32.6767 27.1934C32.6841 29.4094 32.6767 31.6254 32.6767 33.8413C32.6767 34.575 32.6767 35.3088 32.6767 36.1462C35.7079 34.5454 38.6428 33.0039 41.6814 31.403ZM33.8848 25.7186C36.4861 27.0897 38.9615 28.3866 41.4294 29.6984C41.8296 29.9059 41.7926 29.6317 41.7926 29.3946C41.7926 26.9489 41.7926 24.5105 41.7926 22.0648C41.7926 21.7461 41.7629 21.5683 41.3776 21.7758C38.9244 23.0728 36.4639 24.3623 33.8848 25.7186ZM29.9346 25.6815C29.8753 25.6445 29.816 25.5926 29.7493 25.5555C27.3851 24.303 25.0209 23.0654 22.6641 21.8054C22.2417 21.5831 22.1824 21.7091 22.1824 22.1241C22.1972 24.5254 22.2046 26.9266 22.1824 29.3279C22.175 29.8911 22.3751 29.7874 22.716 29.6021C24.9987 28.3866 27.2962 27.186 29.5788 25.978C29.7048 25.9113 29.8679 25.8816 29.9346 25.6815Z" fill="#F9FBFE"/>
<path d="M45.3423 20.5157C44.7864 20.6342 44.5641 20.4934 44.5789 19.8931C44.6086 18.6777 43.8971 17.8847 42.8595 17.3881C42.2073 17.0842 42.5779 16.7804 42.7483 16.4172C42.9633 15.98 43.1634 15.9355 43.608 16.1949C45.031 17.0101 45.9055 18.1441 45.9945 19.8264C46.0167 20.3378 46.0019 20.7454 45.3423 20.5157Z" fill="#F9FBFE"/>
<path d="M18.6763 42.7338C19.2247 42.6004 19.4248 42.7709 19.41 43.3267C19.3878 44.5125 20.04 45.2907 21.0405 45.8391C21.2332 45.9429 21.626 46.0022 21.5222 46.3134C21.4036 46.6618 21.1516 46.9656 20.9293 47.2695C20.87 47.351 20.7366 47.2547 20.6477 47.2102C19.1358 46.4172 18.1056 45.2907 18.0093 43.4823C17.9796 42.9265 17.9796 42.5041 18.6763 42.7338Z" fill="#F9FBFE"/>
</g>
<defs>
<filter id="filter0_di_1657_9376" x="5" y="6" width="53" height="54" filterUnits="userSpaceOnUse" color-interpolation-filters="sRGB">
<feFlood flood-opacity="0" result="BackgroundImageFix"/>
<feColorMatrix in="SourceAlpha" type="matrix" values="0 0 0 0 0 0 0 0 0 0 0 0 0 0 0 0 0 0 127 0" result="hardAlpha"/>
<feOffset dx="-1" dy="1"/>
<feColorMatrix type="matrix" values="0 0 0 0 1 0 0 0 0 1 0 0 0 0 1 0 0 0 0.32 0"/>
<feBlend mode="normal" in2="BackgroundImageFix" result="effect1_dropShadow_1657_9376"/>
<feBlend mode="normal" in="SourceGraphic" in2="effect1_dropShadow_1657_9376" result="shape"/>
<feColorMatrix in="SourceAlpha" type="matrix" values="0 0 0 0 0 0 0 0 0 0 0 0 0 0 0 0 0 0 127 0" result="hardAlpha"/>
<feOffset dx="-1" dy="2"/>
<feGaussianBlur stdDeviation="1"/>
<feComposite in2="hardAlpha" operator="arithmetic" k2="-1" k3="1"/>
<feColorMatrix type="matrix" values="0 0 0 0 0 0 0 0 0 0 0 0 0 0 0 0 0 0 0.16 0"/>
<feBlend mode="normal" in2="shape" result="effect2_innerShadow_1657_9376"/>
</filter>
<clipPath id="clip0_1657_9376">
<rect width="64" height="64" fill="white"/>
</clipPath>
</defs>
</svg>
