<svg width="64" height="64" fill="none" xmlns="http://www.w3.org/2000/svg"><g clip-path="url(#a)"><path d="M32 64a32 32 0 1 0 0-64 32 32 0 0 0 0 64Z" fill="#2283F6"/><path d="M54.78 32a22.78 22.78 0 1 1-45.56 0 22.78 22.78 0 0 1 45.56 0Z" fill="#fff" stroke="#fff" stroke-width="1.69"/><g clip-path="url(#b)"><path d="M16.35 31c-2.18 4.75-2.99 8.3-2.99 8.3s9.83-1.01 16.32 6.41c0 0 4.98-2.24 12.18.13 0 0 4.06-5.13 9.14-5.24 0 0-.87-4.08-3.96-7.47.66-1.55.99-3.55.99-3.55s-.51-1.44-3.77-4.45c-.1-5.36-3.23-8-3.23-8s-3.14 1.28-4.97 4.08c0 0-3.26.06-5.91.83l-1.96.1s-1.23-2.44-5.77-3.9c0 0-3.48.96-3.8 8.66 0 0-1.9-.43-3.4 4.1 0 0 .15.05 1.13 0Z" fill="#080C1B"/><path d="M28.06 24.95a12.33 12.33 0 0 0-5.33-4.4s-2.35 1.67-1.75 5.52c.42-2.19 1.68-3.27 1.68-3.27s1.5 1.1 2.12 3.36c.62 2.25 3.28-1.21 3.28-1.21Z" fill="#2283F6"/><path d="M32.68 23.23c-8.91 0-12.69 5.68-12.69 5.68a3.6 3.6 0 0 1 1.68-.13s-3.3 3.33-4.96 7.88c0 0 4.1-.5 7.51 1.67-.83-7.1 5.7-9.63 8.06-7.96-.33-.93-1.46-2.44-4.46-1.79 2.67-2.77 7.96-1.58 10.67 1.78.2-.53.32-1.07.38-1.62 0 0 1.54.8 1.97 2.1.1-.85.81-1.9.81-1.9s.58.76.96 2.06a2.65 2.65 0 0 1 2.5-1.06s-3.53-6.7-12.43-6.7Z" fill="#2283F6"/><path d="M27.82 28.58c-3.85 1.07-6.22 3.93-7.17 8.32 1.27.26 2.47.74 3.57 1.42-.84-7.09 5.69-9.62 8.05-7.95-.32-.93-1.45-2.44-4.45-1.8Z" fill="#fff"/><path d="M36.7 23.73c2.36 1 4.67 2.25 6.2 5.62l.94.73c.4-.14.84-.19 1.27-.13 0 0-2.45-4.66-8.42-6.22Z" fill="#636363"/><path d="M43.14 32.22c.48-1.1 1.39-1.14 1.39-1.14a5.1 5.1 0 0 1-.62 1.95c-.2-.32-.46-.6-.77-.81ZM33.78 33.37c5.2.95 5.72 6.99 8.72 6.99 1.82 0 2.48-1.06 2.48-1.06-1.18.15-2.03-.87-2.1-1.58-.06-.7.1-1.61.1-1.61s1.59.08 2.28.6c.63-.36 1.45-.43 1.45-.43s-.86-1.36-3.1-2c-.28.63-1 1.23-1 1.23s-1.41-2.23-4.81-3.03c.24.44.38.93.43 1.43 0 0-1.57-1.23-4.45-.54Z" fill="#fff"/><path d="M33.59 36.19c-.61-.69-.48-1.35-.48-1.35s.3-.31 1.18-.31c1.89 0 3.59 3.36 5.1 4.77-2.17-.76-6.06 1.5-6.79-2.7.67 1.18 1.6 1.19 1.6 1.19-.13-.3-.17-.64-.13-.97.58.62 1.75.64 1.75.64a5.41 5.41 0 0 1-1.71-2.39c-.45.44-.52 1.12-.52 1.12Z" fill="#fff"/><path d="M33.08 33.67c-2.95.93-1.23 6.96 2.74 6.5 3.98-.46 5.69.72 6.39 2.54a6.85 6.85 0 0 0-3.69-1.08 2.2 2.2 0 0 1 1.27 1.57 3.82 3.82 0 0 0-2.66-1.05c-2.12 0-4.3.78-6.13.01-1.95-2.64-1.16-5.25-1.16-5.25-.84.46-1.02 1.42-1.02 1.42s-.58-4.7 4.26-4.66Z" fill="#fff"/><path d="M42.21 42.71c-4.18-5-10.98 2.18-12.36-5.8 0 0-.8 2.6 1.15 5.25 1.82.77 4.01-.01 6.13-.01.99 0 1.94.37 2.66 1.05a2.2 2.2 0 0 0-1.27-1.57c1.31 0 2.59.38 3.69 1.08ZM33.32 28.88a10.7 10.7 0 0 0 1.52 2.56s1 .14 1.9-.27c0 0-.97-1.67-3.42-2.29Z" fill="#fff"/><path d="M35.86 23.54c2.36 1 3.86 2.2 4.75 5.02l1.4.32c.57 1.04 2.62 1.01 3.1 1.07 0 0-2.7-5.18-9.25-6.4ZM38.54 21.87c.84-1.52 1.96-1.82 1.96-1.82s1.46 1.78 1.55 4.71a10.32 10.32 0 0 0-2.83-1.51 3.9 3.9 0 0 1 1.65.2 4.78 4.78 0 0 0-.9-2.47s-.55.13-1.43.89Z" fill="#6CCAFF"/><path d="M45.3 38.64c.51-.47.93-1.02 1.23-1.64-.34.07-.67.18-.97.33a3.2 3.2 0 0 0-.25 1.3Z" fill="#8FD7FF"/><path d="m41.04 16.55-.42.2a12.42 12.42 0 0 0-2.77 1.8 14.92 14.92 0 0 0-1.76 1.73l-.26.31s-3.92 0-5.68 1.46c2.8-.65 6.22 0 6.22 0l.25-.37.1-.13.12-.15.23-.28a13.2 13.2 0 0 1 3.7-3 9.63 9.63 0 0 1 1.86 3.06 11.13 11.13 0 0 1 .74 3.75v.22l-.01.38.3.21.06.04.06.04.13.1a7.34 7.34 0 0 1 .76.67 9.01 9.01 0 0 1 1.61 2.15c.18.34.34.7.46 1.07a15.06 15.06 0 0 1-.91 2.87l-.1.2-.08.19-.27.53.5.32c.54.33 1.04.72 1.5 1.16l.33.34.31.36a7.3 7.3 0 0 1 1.65 3.84 13.38 13.38 0 0 0-4.08 2.59c-.44.4-.85.81-1.23 1.26a14.34 14.34 0 0 1 4.53-2.41 12 12 0 0 1 1.62-.38l.5-.08v-.7l-.02-.14-.02-.29a8.35 8.35 0 0 0-1.29-3.62c-.2-.31-.41-.61-.65-.9-.1-.14-.23-.27-.36-.41a10.29 10.29 0 0 0-1.63-1.4l.17-.4a16.17 16.17 0 0 0 .84-2.84l.04-.16-.06-.16a8.86 8.86 0 0 0-1.43-2.76 10.49 10.49 0 0 0-1.9-1.93l-.03-.03v-.24a10.96 10.96 0 0 0-.2-1.7 12.5 12.5 0 0 0-1.08-3.26 11.2 11.2 0 0 0-2.35-3.1Z" fill="#6CCAFF"/><path d="m45.05 29.84-.07-.14.07.14ZM45.07 29.88l-.02-.04.02.04ZM45.08 29.9l-.01-.02.01.02ZM45.1 29.95l-.02-.05.03.05Z" fill="#fff"/><path d="M42.02 29.55c.25.46.45.95.6 1.46a2.65 2.65 0 0 1 2.5-1.06 3.32 3.32 0 0 0-3.1-.4ZM38.87 28.74c-3.17-3.91-10.17-4.86-14.73.1a4.56 4.56 0 0 1 3.67-.26h.02c2.67-2.77 7.96-1.57 10.66 1.78.2-.53.32-1.07.38-1.62Z" fill="#fff"/><path d="M28.1 44.09a22.43 22.43 0 0 0-5.8-3.62 24.7 24.7 0 0 0-4.37-1.41 27.56 27.56 0 0 0-3.79-.57 22.04 22.04 0 0 1 3.04-6.88l.16-.22.15-.21.9-1.16-1.45.11-.66.05.01-.02a17.35 17.35 0 0 1 2.73-2.73l.26-.2-.01-.33v-.6a16.86 16.86 0 0 1 .78-4.32c.25-.78.6-1.52 1.05-2.22.36-.57.8-1.08 1.33-1.52a18.9 18.9 0 0 1 2.82 1.43 15.3 15.3 0 0 1 2.4 1.88l.15.15.07.07.05.07.28.31c-2.29-3.96-5.99-5.39-5.99-5.39l-.28.22A8 8 0 0 0 20 19.06c-.5.78-.9 1.62-1.19 2.5a15.8 15.8 0 0 0-.8 4l-.04.68v.37a10.16 10.16 0 0 0-.82.71c-.34.32-.68.64-1 .98-.32.35-.63.71-.9 1.1-.3.38-.57.8-.78 1.25l-.48 1 1.12-.08.57-.04-.5.85a23.4 23.4 0 0 0-2.48 6.58l-.16.77h.78c1.48-.02 2.96.07 4.43.28 1.47.22 2.91.57 4.32 1.06A21.84 21.84 0 0 1 28 44.2c.6.45 1.16.96 1.68 1.5a13.62 13.62 0 0 0-1.58-1.62Z" fill="#080C1B"/><path d="M40.82 26.96c.05.54-.02 1.09-.2 1.6-.73-1.2-2.65-2.48-2.65-2.48s.12 1.83-.35 3.13l.95.91c.14-.45.24-.91.3-1.38a4.78 4.78 0 0 1 1.97 2.1c.64-.76.8-1.9.8-1.9.33.47.6.97.78 1.5l.85-.43a6.6 6.6 0 0 0-2.45-3.05Z" fill="#fff"/></g><path d="M64.11 32c.44 0 .8.35.78.79a32.9 32.9 0 0 1-32.1 32.1.77.77 0 0 1-.79-.78v-2.37a.8.8 0 0 1 .79-.8A28.95 28.95 0 0 0 60.94 32.8a.8.8 0 0 1 .8-.79h2.37ZM32-.11a.77.77 0 0 0-.79-.78 32.9 32.9 0 0 0-32.1 32.1c-.01.44.34.79.78.79h2.37a.8.8 0 0 0 .8-.79A28.95 28.95 0 0 1 31.2 3.06a.8.8 0 0 0 .79-.8V-.1Z" fill="#fff"/><path fill-rule="evenodd" clip-rule="evenodd" d="M63.07 39.7A31.8 31.8 0 0 0 64 32a32.16 32.16 0 0 0-1.33-9.16 3 3 0 0 0-2.22 3.5 29.15 29.15 0 0 1 0 11.32 3 3 0 0 0 2.22 3.5l.4-1.45Zm-2.91 7.51a3 3 0 0 0-4.04.9 29.18 29.18 0 0 1-8 8 3 3 0 0 0-.9 4.05A31.9 31.9 0 0 0 58.6 49.78a32 32 0 0 0 1.55-2.57Zm-19 15.46a3 3 0 0 0-3.5-2.22 29.15 29.15 0 0 1-11.32 0 3 3 0 0 0-3.5 2.22A31.8 31.8 0 0 0 32 64a32.16 32.16 0 0 0 9.16-1.33Zm-24.37-2.51a3 3 0 0 0-.9-4.04 29.18 29.18 0 0 1-8-8 3 3 0 0 0-4.05-.9 31.93 31.93 0 0 0 11.65 12.2l1.3.74Zm-15.46-19a3 3 0 0 0 2.22-3.5 29.16 29.16 0 0 1 0-11.32 3 3 0 0 0-2.22-3.5A31.75 31.75 0 0 0 0 32a32.16 32.16 0 0 0 1.33 9.16Zm2.51-24.37a3 3 0 0 0 4.04-.9 29.18 29.18 0 0 1 8-8 3 3 0 0 0 .9-4.05 31.93 31.93 0 0 0-12.2 11.65l-.74 1.3Zm19-15.46a3 3 0 0 0 3.5 2.22 29.16 29.16 0 0 1 11.32 0 3 3 0 0 0 3.5-2.22A31.75 31.75 0 0 0 32 0a32.16 32.16 0 0 0-9.16 1.33Zm24.37 2.51a3 3 0 0 0 .9 4.04 29.18 29.18 0 0 1 8 8 3 3 0 0 0 4.05.9A31.9 31.9 0 0 0 49.78 5.4a31.98 31.98 0 0 0-2.57-1.55Z" fill="#fff"/></g><defs><clipPath id="a"><path d="M0 32a32 32 0 1 1 64 0 32 32 0 0 1-64 0Z" fill="#fff"/></clipPath><clipPath id="b"><path fill="#fff" transform="translate(12.55 16.48)" d="M0 0h38.45v29.38H0z"/></clipPath></defs></svg>