<svg viewBox="0 0 64 64" fill="none" xmlns="http://www.w3.org/2000/svg">
    <path d="M63.046 39.741c-4.274 17.143-21.64 27.576-38.786 23.301C7.12 58.768-3.314 41.404.962 24.262 5.235 7.117 22.6-3.317 39.742.957c17.145 4.274 27.578 21.64 23.304 38.784z" fill="#0D2D60"/>
    <path d="M3.873 24.988h0C7.745 9.45 23.482-.006 39.016 3.867h0c15.538 3.873 24.993 19.61 21.12 35.147-3.874 15.535-19.61 24.99-35.15 21.116C9.453 56.258-.002 40.522 3.873 24.988z" stroke="#fff" stroke-opacity=".24" stroke-width="6"/>
    <path d="M62.091 21.127L.413 37.13a31.878 31.878 0 01.546-12.867C5.23 7.118 22.596-3.317 39.738.958c10.74 2.677 18.846 10.49 22.353 20.17z" fill="#fff" opacity=".3"/>
    <g filter="url(#filter0_di_glm)">
        <path d="M57.222 38.29C53.749 52.218 39.64 60.695 25.708 57.22 11.782 53.75 3.304 39.642 6.778 25.713 10.25 11.783 24.36 3.305 38.288 6.778 52.217 10.25 60.695 24.36 57.222 38.29z" fill="#0D2D60"/>
    </g>
    <g filter="url(#filter1_d_glm)">
        <path fill-rule="evenodd" clip-rule="evenodd" d="M42.178 15.364l-1.997-1.998-3.48 3.48a8.176 8.176 0 10-5.937 14.775v2.756a8.177 8.177 0 001.241 16.257 8.175 8.175 0 001.584-16.198v-2.875a8.178 8.178 0 005.11-12.718l3.48-3.48zm-4.822 8.175a5.35 5.35 0 11-10.701 0 5.35 5.35 0 0110.7 0zm0 18.92a5.35 5.35 0 11-10.701 0 5.35 5.35 0 0110.7 0z" fill="#fff"/>
    </g>
    <defs>
        <filter id="filter0_di_glm" x="5" y="6" width="53" height="54" filterUnits="userSpaceOnUse" color-interpolation-filters="sRGB">
            <feFlood flood-opacity="0" result="BackgroundImageFix"/>
            <feColorMatrix in="SourceAlpha" values="0 0 0 0 0 0 0 0 0 0 0 0 0 0 0 0 0 0 127 0"/>
            <feOffset dx="-1" dy="1"/>
            <feColorMatrix values="0 0 0 0 1 0 0 0 0 1 0 0 0 0 1 0 0 0 0.32 0"/>
            <feBlend in2="BackgroundImageFix" result="effect1_dropShadow"/>
            <feBlend in="SourceGraphic" in2="effect1_dropShadow" result="shape"/>
            <feColorMatrix in="SourceAlpha" values="0 0 0 0 0 0 0 0 0 0 0 0 0 0 0 0 0 0 127 0" result="hardAlpha"/>
            <feOffset dx="-1" dy="2"/>
            <feGaussianBlur stdDeviation="1"/>
            <feComposite in2="hardAlpha" operator="arithmetic" k2="-1" k3="1"/>
            <feColorMatrix values="0 0 0 0 0 0 0 0 0 0 0 0 0 0 0 0 0 0 0.16 0"/>
            <feBlend in2="shape" result="effect2_innerShadow"/>
        </filter>
        <filter id="filter1_d_glm" x="21.83" y="13.366" width="20.349" height="39.268" filterUnits="userSpaceOnUse" color-interpolation-filters="sRGB">
            <feFlood flood-opacity="0" result="BackgroundImageFix"/>
            <feColorMatrix in="SourceAlpha" values="0 0 0 0 0 0 0 0 0 0 0 0 0 0 0 0 0 0 127 0"/>
            <feOffset dx="-1" dy="1"/>
            <feGaussianBlur stdDeviation=".5"/>
            <feColorMatrix values="0 0 0 0 0 0 0 0 0 0 0 0 0 0 0 0 0 0 0.08 0"/>
            <feBlend in2="BackgroundImageFix" result="effect1_dropShadow"/>
            <feBlend in="SourceGraphic" in2="effect1_dropShadow" result="shape"/>
        </filter>
    </defs>
</svg>
