<svg width="64" height="64" fill="none" xmlns="http://www.w3.org/2000/svg"><g clip-path="url(#a)"><path d="M63.046 39.741c-4.274 17.143-21.64 27.576-38.786 23.301C7.12 58.768-3.314 41.404.962 24.262 5.235 7.117 22.6-3.317 39.742.957c17.145 4.274 27.578 21.64 23.304 38.784Z" fill="#fff"/><path d="M3.873 24.988C7.745 9.45 23.482-.005 39.016 3.867c15.538 3.873 24.993 19.61 21.12 35.147-3.874 15.535-19.61 24.99-35.15 21.116C9.453 56.258-.002 40.522 3.873 24.988Z" stroke="#fff" stroke-opacity=".24" stroke-width="6"/><path d="M62.091 21.127.413 37.13a31.878 31.878 0 0 1 .546-12.867C5.23 7.118 22.596-3.317 39.738.958c10.74 2.677 18.846 10.49 22.353 20.17Z" fill="#fff" style="mix-blend-mode:screen" opacity=".3"/><g filter="url(#b)"><path d="M57.222 38.29C53.749 52.218 39.64 60.695 25.708 57.222 11.782 53.749 3.304 39.64 6.778 25.713 10.25 11.783 24.36 3.305 38.288 6.778c13.93 3.473 22.408 17.582 18.935 31.512Z" fill="#E8E8E8"/></g><path d="M10.006 20.008a.253.253 0 0 0 .051.064c.032.031.09.089.134.126l.125.112c.026.024.118.103.204.177l.199.17c.02.018.054.044.072.06.018.012.063.049.1.078.039.03.123.09.189.135.066.043.204.124.308.18.103.053.251.125.327.158a7.012 7.012 0 0 0 .625.225c.084.026.2.059.26.076.06.014.174.042.255.06a7.77 7.77 0 0 0 .421.08c.004 0 .039.039.08.087.038.047.107.125.15.171a2.537 2.537 0 0 0 .37.31 3.332 3.332 0 0 0 .574.325c.06.028.17.074.246.103.078.032.201.074.275.1a5.563 5.563 0 0 0 .667.164c.014 0 .04.024.091.087.04.048.1.116.136.153a3.039 3.039 0 0 0 .304.255c.037.026.118.077.18.112.062.037.137.078.167.092.028.015.106.048.17.076a3.7 3.7 0 0 0 .44.15 3.304 3.304 0 0 0 .422.08l.09.01c.119.122.175.177.202.201.028.024.098.078.156.12.06.04.17.105.243.144.074.037.19.087.257.11.065.023.167.052.224.067a3.024 3.024 0 0 0 .311.052c.013 0 .021-.006.021-.011a.268.268 0 0 0-.05-.069c-.029-.03-.073-.079-.098-.108-.024-.028.004 0 .064.062.07.07.107.117.105.126-.003.009.027.046.08.1.045.046.107.103.137.127.03.024.091.07.139.103.048.032.129.083.18.114.052.03.133.074.179.098.048.024.118.058.158.076.04.018.104.044.143.06l.188.071c.065.022.166.057.226.074.06.018.17.05.246.07l.252.057.112.022c.104.115.17.174.212.207.042.031.105.076.142.098.037.022.102.057.144.079l.18.08.17.064c.038.013.119.039.18.055.062.019.148.043.194.052.044.011.13.03.192.042.093.019.116.026.128.045l.063.08a1.05 1.05 0 0 0 .205.191c.031.024.102.066.156.096.055.028.137.063.185.08a1.722 1.722 0 0 0 .34.073l.075.008a1.26 1.26 0 0 0 .32.373 1.4 1.4 0 0 0 .14.079c.044.022.112.05.153.06.039.01.107.023.153.028a.895.895 0 0 0 .25-.01c.016-.005.025.003.05.047.015.03.052.083.08.122a.791.791 0 0 0 .11.123 1.468 1.468 0 0 0 .319.216c.057.03.145.069.192.085a2.583 2.583 0 0 0 .557.117l.067.007c.036.066.068.114.095.15a1.226 1.226 0 0 0 .223.215c.037.03.107.08.158.11a3.54 3.54 0 0 0 .628.308c.059.023.16.062.224.084a8.197 8.197 0 0 0 .616.183l.168.042c.008.004.008.01.001.02a.293.293 0 0 1-.056.054c-.025.02-.106.067-.181.105a4.224 4.224 0 0 1-.224.104c-.05.018-.174.066-.278.103-.104.037-.19.072-.192.076-.002.005.01.025.025.047.016.023.056.061.093.085a.82.82 0 0 0 .13.072c.036.017.066.034.064.04 0 .005-.02.027-.043.049a2.08 2.08 0 0 1-.091.081c-.026.02-.088.063-.134.094-.047.03-.132.08-.19.11-.056.029-.14.071-.188.093l-.203.089-.147.059c-.018.005-.034.016-.037.024-.006.01-.018.015-.04.013-.017-.002-.034.002-.041.009-.01.01-.01.015.001.028l.09.084c.042.04.11.093.148.12a1.615 1.615 0 0 0 .292.155.733.733 0 0 0 .095.026c.02.004.076.028.125.056.05.026.123.059.166.073.042.013.13.052.193.085a.792.792 0 0 1 .166.105c.028.026.058.061.065.082a.183.183 0 0 1 .016.064.11.11 0 0 1-.013.05c-.005.01-.026.067-.046.126-.017.06-.049.153-.07.206-.02.056-.053.139-.076.185a2.09 2.09 0 0 1-.098.177.517.517 0 0 1-.108.13.351.351 0 0 0-.047.04c0 .002.018.002.039-.002a.56.56 0 0 0 .109-.032c.04-.012.09-.033.113-.042.022-.011.091-.044.153-.076l.161-.088c.027-.017.074-.046.103-.069.03-.02.09-.068.133-.103a1.18 1.18 0 0 0 .23-.255.661.661 0 0 0 .1-.262.591.591 0 0 0 .005-.123.752.752 0 0 0-.02-.102l-.012-.044a.47.47 0 0 1 .24.139.454.454 0 0 1 .128.28.738.738 0 0 1 0 .177 1.152 1.152 0 0 1-.028.16 2.879 2.879 0 0 1-.107.304c-.02.045-.034.082-.034.084a.632.632 0 0 0 .084-.031 2.025 2.025 0 0 0 .51-.321 1.114 1.114 0 0 0 .21-.257.769.769 0 0 0 .051-.122.79.79 0 0 0 .029-.14.736.736 0 0 0-.002-.125c-.006-.035-.006-.054.002-.054.003 0 .033.013.065.028a.418.418 0 0 1 .167.155.47.47 0 0 1 .037.317 1.092 1.092 0 0 1-.099.29 2.572 2.572 0 0 1-.14.25c-.015.023-.024.04-.02.04a2.455 2.455 0 0 0 .312-.107 2.052 2.052 0 0 0 .355-.205c.042-.031.116-.1.167-.151.053-.056.111-.128.141-.176.027-.044.062-.109.078-.142.014-.035.036-.103.049-.151a1.466 1.466 0 0 0 .037-.327v-.033l.776-.004c.107.046.167.08.202.104a.828.828 0 0 1 .113.1c.026.03.06.079.076.106.014.028.03.072.037.098a.537.537 0 0 1-.006.25.895.895 0 0 1-.133.296l-.07.105c-.01.012-.015.024-.013.026.003.002.067-.01.144-.031.076-.02.18-.054.229-.072a1.788 1.788 0 0 0 .364-.188c.046-.032.11-.083.14-.115a.892.892 0 0 0 .096-.12.462.462 0 0 0 .083-.308c0-.066 0-.12.002-.12l.04.028a.502.502 0 0 1 .074.066c.02.02.032.037.026.037-.003 0 .002.008.014.017.013.01.036.046.051.083a.668.668 0 0 1 .041.116c.005.03.007.094.005.152a.757.757 0 0 1-.079.304 1.35 1.35 0 0 1-.08.15.352.352 0 0 0-.041.077.34.34 0 0 0 .079-.03c.04-.018.127-.062.19-.097a2.268 2.268 0 0 0 .36-.231 1.21 1.21 0 0 0 .257-.273.67.67 0 0 0 .066-.14.293.293 0 0 0 .02-.148l-.006-.074a.602.602 0 0 1 .088.037.436.436 0 0 1 .142.139c.011.02.027.06.034.088a.542.542 0 0 1 .014.13c0 .042-.007.11-.014.149-.009.04-.026.109-.04.153a2.852 2.852 0 0 1-.092.216l-.067.144a.256.256 0 0 0 .063-.028 3.847 3.847 0 0 0 .37-.225 2.318 2.318 0 0 0 .31-.258c.037-.04.088-.1.112-.135.023-.037.055-.09.069-.122.012-.031.035-.107.047-.17.016-.075.022-.116.016-.127a.186.186 0 0 1-.016-.055 2.178 2.178 0 0 0-.075-.301 2.638 2.638 0 0 0-.125-.258l-.018-.028c.176-.142.275-.225.331-.279a2.6 2.6 0 0 0 .428-.493 1.542 1.542 0 0 0 .153-.304c.004 0 .058-.01.12-.018.061-.011.153-.028.202-.04a4.184 4.184 0 0 0 .435-.122 4.881 4.881 0 0 0 .544-.234 5.02 5.02 0 0 0 .462-.274 5.547 5.547 0 0 0 .362-.275c.045-.037.119-.105.163-.15.06-.059.09-.08.113-.086.017-.002.072-.015.121-.028a1.34 1.34 0 0 0 .17-.055.763.763 0 0 0 .264-.175.638.638 0 0 0 .075-.093c.009-.018.014-.035.012-.039a.328.328 0 0 1 .074-.01c.042-.004.128-.017.19-.028a2.132 2.132 0 0 0 .553-.174c.038-.022.1-.059.133-.083a1.74 1.74 0 0 0 .104-.081.874.874 0 0 0 .153-.194c.022-.035.027-.039.076-.05a3.729 3.729 0 0 0 .648-.2c.052-.025.132-.064.174-.087a1.345 1.345 0 0 0 .278-.201l.058-.054c.146-.017.229-.028.28-.035.05-.01.132-.026.183-.039a2.223 2.223 0 0 0 .426-.15c.054-.023.134-.062.176-.086.042-.024.128-.078.194-.122.063-.044.161-.122.22-.171.056-.05.137-.13.179-.176.042-.046.099-.116.127-.153a.708.708 0 0 0 .053-.081c0-.01-.04-.013-.171-.013-.146 0-.17.002-.17.015 0 .007-.019.033-.041.055a.485.485 0 0 1-.132.089 2.452 2.452 0 0 1-.189.083.577.577 0 0 1-.1.031 1.403 1.403 0 0 1 .009-.146c.005-.077.012-.146.012-.153 0-.01.05-.011.215-.011.185 0 .216.002.22.013.003.013.033.015.186.015.1 0 .247-.004.326-.01a3.024 3.024 0 0 0 .44-.066l.136-.039a2.24 2.24 0 0 0 .311-.13 1.765 1.765 0 0 0 .42-.31c.038-.04.085-.095.108-.124.032-.045.046-.056.072-.06.016-.001.056-.009.09-.014l.142-.028a3.91 3.91 0 0 0 .409-.125c.054-.022.127-.054.16-.07a1.58 1.58 0 0 0 .144-.078 2.014 2.014 0 0 0 .486-.386c.081-.086.083-.088.14-.1a5.345 5.345 0 0 0 .75-.216c.078-.027.198-.073.265-.1a4.485 4.485 0 0 0 .584-.307c.065-.044.16-.11.21-.15a3.06 3.06 0 0 0 .207-.188l.116-.12a4.586 4.586 0 0 0 .53-.118 4.593 4.593 0 0 0 .466-.168c.066-.027.18-.083.257-.121.076-.041.166-.087.197-.105l.122-.072a5.022 5.022 0 0 0 .602-.447c.058-.052.142-.13.183-.17l.077-.075a8.954 8.954 0 0 0 .67-.185 8.889 8.889 0 0 0 1.06-.412 7.186 7.186 0 0 0 1.021-.586 5.879 5.879 0 0 0 .454-.358c.05-.044.115-.105.145-.135.037-.037.05-.055.044-.063-.006-.007-2.123-.01-7.493-.013-6.036-.001-7.513 0-7.628.01l-.32.031a8.317 8.317 0 0 0-.538.08 5.834 5.834 0 0 0-.458.105 4.488 4.488 0 0 0-.734.256l-.084.037-.125.06a6.333 6.333 0 0 0-.224.119l-.202.12a7.234 7.234 0 0 0-.391.273l-.188.151a4.972 4.972 0 0 0-.315.28l-.175.172-.197.198c-.06.059-.15.15-.199.197l-.142.142-.148.139c-.053.048-.16.138-.24.2a4.702 4.702 0 0 1-1.132.705 3.867 3.867 0 0 1-.393.14 3.119 3.119 0 0 1-.409.086c-.056.009-.169.018-.246.02-.09.006-.19.004-.26-.004a2.269 2.269 0 0 1-.583-.12 2.843 2.843 0 0 1-.178-.066 3.008 3.008 0 0 1-.389-.207c-.046-.027-.123-.083-.176-.12a3.864 3.864 0 0 1-.398-.343 7.016 7.016 0 0 1-.281-.3c-.025-.028-.102-.126-.174-.216a9.756 9.756 0 0 0-.243-.292 6.143 6.143 0 0 0-.762-.701l-.157-.113a6.242 6.242 0 0 0-.836-.481 3.989 3.989 0 0 0-.246-.109l-.266-.102c-.08-.027-.206-.07-.282-.094a8.23 8.23 0 0 0-.251-.072 64.315 64.315 0 0 0-.257-.06c-.08-.017-.205-.043-.279-.056a12.36 12.36 0 0 0-.272-.043 13.533 13.533 0 0 0-.284-.034c-.132-.015-.538-.017-4.62-.023-2.462-.003-5.9-.007-7.638-.007-1.74-.002-3.166.002-3.168.006Z" fill="#D8A800"/><path fill-rule="evenodd" clip-rule="evenodd" d="m18.014 20.375.044.068c.025.038.091.12.148.18.058.061.14.14.185.178a.58.58 0 0 1 .093.083.58.58 0 0 1 .097.055c.049.032.134.081.294.164l-.175.004-2.824-.002c-2.413-.002-2.663-.003-2.82-.018a7.786 7.786 0 0 1-.281-.032l-.127-.014c-.007 0-.083-.011-.166-.024a4.645 4.645 0 0 1-.549-.111 2.564 2.564 0 0 1-.47-.157.483.483 0 0 1-.09-.046c-.003-.006-.006-.01-.008-.007-.004.001-.014 0-.027-.004-.01-.004-.02-.011-.02-.019 0-.005-.003-.007-.006-.003-.004.003-.028-.008-.056-.024a1.355 1.355 0 0 1-.249-.189c-.037-.035-.063-.066-.06-.071.002-.008 1.19-.01 7.067-.011Zm3.986.001c2.966 0 3.388.002 3.505.013l.227.03a6.624 6.624 0 0 1 .874.208c.06.019.11.037.111.043a1.401 1.401 0 0 1 .183.06 5.42 5.42 0 0 1 .716.323c.097.05.233.126.302.169a6.14 6.14 0 0 1 .799.587c.065.056.304.296.535.534.228.238.48.491.556.565a6.197 6.197 0 0 0 .482.419c.076.059.178.133.229.166a2.493 2.493 0 0 0 .357.197c.048.02.121.046.167.061.044.013.113.03.152.039a2.1 2.1 0 0 0 .144.022c.039.006.172.017.296.026.14.01.228.018.235.026.006.005.083.13.173.278.088.148.158.272.155.275a1.434 1.434 0 0 1-.343.007 1.902 1.902 0 0 1-.192-.029.59.59 0 0 1-.113-.031.635.635 0 0 1-.107-.03.76.76 0 0 1-.13-.05 1.265 1.265 0 0 1-.162-.066h-2.672c-1.697 0-2.717-.003-2.797-.01a3.696 3.696 0 0 1-.234-.027 1.11 1.11 0 0 1-.341-.103.62.62 0 0 1-.118-.08.205.205 0 0 1-.048-.053c0-.006.938-.01 2.797-.01 1.538 0 2.797-.003 2.797-.007 0-.003-.06-.037-.132-.073a3.632 3.632 0 0 1-.24-.135 3.888 3.888 0 0 1-.176-.12 2.694 2.694 0 0 1-.174-.151l-5.54-.008-.127-.02a3.43 3.43 0 0 1-.22-.044 2.6 2.6 0 0 1-.164-.052c-.039-.015-.069-.033-.069-.039 0-.007-.003-.009-.007-.005-.003.004-.02-.002-.038-.011a.76.76 0 0 1-.08-.056.52.52 0 0 1-.077-.088c-.017-.028-.03-.052-.026-.057.002-.004 1.3-.006 5.769-.006l-.025-.046a1.957 1.957 0 0 0-.614-.655 3.518 3.518 0 0 0-.264-.159l-6.475-.01-.084-.021a1.436 1.436 0 0 1-.266-.083c-.03-.013-.08-.04-.113-.06a.715.715 0 0 1-.197-.186.21.21 0 0 1-.026-.05c0-.005 1.133-.009 6.751-.012l-.098-.082a5.779 5.779 0 0 0-.51-.356 3.426 3.426 0 0 0-.217-.122.559.559 0 0 1-.108-.064c0 .005-.01.002-.024-.006a4.2 4.2 0 0 0-.357-.146.817.817 0 0 1-.1-.038c-.005-.006-.01-.008-.013-.004a.842.842 0 0 1-.14-.037l-6.85-.01-.108-.03a4.423 4.423 0 0 1-.203-.063 1.593 1.593 0 0 1-.164-.07.26.26 0 0 1-.068-.04c0-.005-.004-.006-.009-.005-.005.004-.04-.016-.08-.042a.693.693 0 0 1-.245-.279c.001-.009.682-.01 3.373-.01Zm16.955.006c.093.002.209.01.258.013.051.005 1.4.009 5.977.009l.005.02a.121.121 0 0 1-.001.05.414.414 0 0 1-.023.063.384.384 0 0 1-.055.08.656.656 0 0 1-.097.082 1.27 1.27 0 0 1-.161.092 3.25 3.25 0 0 1-.377.148l-3.168-.003c-1.742-.004-3.214-.006-3.27-.008a.739.739 0 0 0-.18.015c-.042.01-.123.033-.18.053a2.152 2.152 0 0 0-.193.074 5.641 5.641 0 0 0-.748.425c-.075.051-.137.09-.137.086 0-.005-.004 0-.009.01-.005.009-.012.012-.017.01-.006-.001-.01-.001-.01.002 0 .004-.028.03-.063.056-.033.026-.061.046-.06.048l1.39.005 2.298.011c.501.002 1.31.006 1.795.006.699 0 .882.002.882.011a.456.456 0 0 1-.074.089c-.04.04-.099.092-.129.112-.03.02-.084.056-.121.076a1.447 1.447 0 0 1-.157.075 2.3 2.3 0 0 1-.13.05c-.023.006-.046.013-.055.013a1.046 1.046 0 0 1-.142.037 3.146 3.146 0 0 1-.229.039c-.104.013-.474.015-5.842.015l-.16.12a1.704 1.704 0 0 1-.165.116c-.004 0-.007.002-.007.007 0 .006-.02.024-.042.04-.023.017-.044.03-.05.028-.003-.001-.007.002-.007.008 0 .005-.132.109-.294.23-.162.124-.299.227-.302.231-.006.004 1.184.004 2.643.002 1.46-.004 2.767-.002 3.156.01l-.028.023a1.619 1.619 0 0 1-.479.255 2.633 2.633 0 0 1-.377.098 5.853 5.853 0 0 1-.167.024c-.05.005-.975.009-5.188.009l-.134.06a3.024 3.024 0 0 1-.252.106 2.752 2.752 0 0 1-.19.057.817.817 0 0 1-.206.01 1.399 1.399 0 0 1-.199-.02.48.48 0 0 1-.079-.027c-.014-.01-.005-.018.086-.077a9.915 9.915 0 0 0 .595-.414 11.245 11.245 0 0 0 .818-.666l.242-.221c.065-.061.216-.21.338-.334.12-.124.253-.257.295-.295.043-.04.117-.106.166-.148a5.987 5.987 0 0 1 .373-.284 5.129 5.129 0 0 1 .686-.391c.066-.03.168-.074.23-.098.063-.024.168-.065.238-.089a4.508 4.508 0 0 1 1.172-.23c.076-.006.215-.006.31-.004Zm6.974-.006h3.533c1.94 0 3.534.002 3.535.006a.251.251 0 0 1-.054.068c-.032.035-.058.057-.058.052a.583.583 0 0 1-.095.08c-.044.029-.12.075-.17.1a1.056 1.056 0 0 1-.13.062 1.574 1.574 0 0 1-.22.088c-.049.017-.124.039-.167.052a1.336 1.336 0 0 1-.12.03 6.341 6.341 0 0 1-.3.068 5 5 0 0 1-.248.04 5.776 5.776 0 0 1-.25.033c-.07.01-.205.023-.298.032-.155.015-.412.016-2.796.018-1.445.002-2.716.002-3.022-.002l.103-.053c.057-.028.143-.08.192-.11.05-.034.124-.086.162-.117.04-.032.099-.083.13-.116.032-.032.062-.056.066-.052.005.004.007.002.007-.004 0-.007.026-.042.06-.08.031-.038.077-.097.098-.132l.042-.063Zm-25.32 1.427.036.05a2.575 2.575 0 0 0 .185.217.164.164 0 0 1 .04.039c.022.022.04.04.04.037 0-.002.026.018.059.046.034.028.086.068.114.089a3.077 3.077 0 0 0 .296.173.32.32 0 0 1 .086.054c0 .007-.816.009-2.43.009-1.457 0-2.519-.004-2.647-.01a15.078 15.078 0 0 1-.342-.018c-.068-.005-.2-.018-.292-.027a10.204 10.204 0 0 1-.574-.09 5.185 5.185 0 0 1-.445-.12c-.003-.003-.021-.006-.037-.01-.016-.004-.03-.011-.03-.019 0-.005-.002-.007-.007-.003-.003.003-.035-.006-.069-.019a2.623 2.623 0 0 1-.183-.085.86.86 0 0 1-.154-.092.335.335 0 0 1-.057-.035 1.319 1.319 0 0 1-.12-.103.287.287 0 0 1-.061-.072c.004-.008 1.112-.011 6.591-.011Zm22.724 0h3.295c1.811 0 3.297.003 3.298.007a.294.294 0 0 1-.056.07 1.573 1.573 0 0 1-.097.09c-.02.015-.074.052-.12.082a.51.51 0 0 1-.093.048c-.003-.004-.007 0-.007.003a.31.31 0 0 1-.082.048 2.612 2.612 0 0 1-.344.128 4.075 4.075 0 0 1-.463.11 6.876 6.876 0 0 1-.767.1c-.069.006-.222.013-.341.019-.129.005-1.19.009-2.648.009-1.613 0-2.43-.002-2.43-.01 0-.005.033-.025.074-.044.04-.02.114-.06.162-.09a.582.582 0 0 1 .104-.057c.009-.01.049-.04.091-.072a2.324 2.324 0 0 0 .292-.268c.03-.035.072-.088.094-.118l.038-.055Zm-20.498 1.25.072.082c.04.044.11.112.156.151.048.04.129.102.182.137a2.383 2.383 0 0 1 .109.081c.003 0 .04.018.08.039l.165.085c.049.024.091.048.091.053.002.008-.748.01-2.55.008-1.403 0-2.607-.006-2.674-.01a7.28 7.28 0 0 1-.229-.016l-.17-.013c-.034-.004-.136-.013-.224-.024a5.044 5.044 0 0 1-.265-.039c-.057-.01-.11-.018-.117-.018-.007 0-.082-.017-.167-.034-.083-.018-.176-.038-.206-.046a.273.273 0 0 1-.063-.024.821.821 0 0 1-.134-.037 5.196 5.196 0 0 1-.185-.066.656.656 0 0 1-.09-.044.672.672 0 0 1-.075-.037.296.296 0 0 1-.07-.043c-.004-.007-.006-.009-.006-.003 0 .003-.024-.01-.053-.028a1.623 1.623 0 0 1-.112-.085c-.034-.028-.058-.055-.055-.059.004-.007 1.11-.01 6.59-.01Zm18.274 0h3.293c2.187 0 3.294.003 3.298.01.002.004-.009.02-.025.035-.016.015-.056.044-.088.07a1.422 1.422 0 0 1-.262.153 2.68 2.68 0 0 1-.42.153c-.057.015-.164.041-.238.058a6.473 6.473 0 0 1-.785.118l-.301.024c-.104.009-.88.013-2.737.015-1.846.001-2.592 0-2.59-.008a.557.557 0 0 1 .101-.059 2.73 2.73 0 0 0 .36-.208 2.9 2.9 0 0 0 .182-.143c.048-.04.115-.107.148-.145l.064-.072Zm-8.943.693c.002.007.007.009.013.007.005-.003.019.008.054.052l6.433.005.09.02c.049.014.124.036.167.052.042.017.105.05.142.072a.991.991 0 0 1 .134.11.314.314 0 0 1 .06.067c-.002 0 .005.013.017.026a.486.486 0 0 1 .059.1c.02.044.044.112.054.153.01.043.021.107.032.218l-.032.033a.231.231 0 0 1-.08.052c-.048.016-.101.016-2.584.016l-.106.135c-.063.083-.099.135-.092.138.006.002.409.006 1.78.01l.047.025a.227.227 0 0 1 .069.058.23.23 0 0 1 .032.062c.005.019.01.054.012.078s.005.044.009.044c.003 0 .243-.107 1.057-.48h.604c.482.002.621.004.688.015.048.008.118.022.159.033.038.011.104.035.142.052.04.018.102.053.14.078.036.023.094.072.13.105a1.2 1.2 0 0 1 .102.118 1.221 1.221 0 0 1 .132.27c.01.036.028.1.035.141a1.807 1.807 0 0 1 .028.408c-.003.054-.009.096-.014.096-.005 0-.025-.03-.044-.068-.02-.037-.058-.1-.088-.139a1.055 1.055 0 0 0-.25-.221 1.15 1.15 0 0 0-.417-.151c-.078-.015-.197-.017-2.726-.023l-.104.137a1.987 1.987 0 0 0-.104.14c.002.004.634.011 1.408.019 1.324.014 1.41.016 1.48.033.042.01.104.028.136.039.031.01.095.038.139.06a.766.766 0 0 1 .232.173.866.866 0 0 1 .123.216h-3.817l-.028-.023a.843.843 0 0 0-.072-.048 1.025 1.025 0 0 0-.1-.037.551.551 0 0 0-.145-.015.863.863 0 0 0-.328.065.846.846 0 0 1-.114.035c-.01 0-.017.006-.014.011.004.006.002.006-.005.002-.006-.004-.02-.002-.032.004a1.14 1.14 0 0 1-.195.137l-.25.141a9.274 9.274 0 0 1-.27.139 1.606 1.606 0 0 1-.162.07 2.875 2.875 0 0 1-.297.116 1.525 1.525 0 0 1-.363.078.654.654 0 0 1-.175-.012 1.494 1.494 0 0 1-.3-.09.045.045 0 0 0-.024-.017c-.007 0-.014-.005-.018-.009a.055.055 0 0 0-.018-.01.164.164 0 0 1-.044-.025.94.94 0 0 1-.065-.059c-.019-.018-.031-.037-.03-.04.004-.004 0-.008-.005-.008-.003 0-.016-.017-.026-.037a.6.6 0 0 1-.027-.08.243.243 0 0 1 0-.1.251.251 0 0 1 .016-.065c.004-.002.007-.013.009-.022a.208.208 0 0 1 .023-.052c.009-.019.033-.052.05-.076l.04-.051a.817.817 0 0 0-.196-.01 1.556 1.556 0 0 1-.283-.018.678.678 0 0 1-.128-.037.234.234 0 0 1-.07-.05.1.1 0 0 1-.027-.074c0-.025.009-.059.024-.09a.575.575 0 0 1 .106-.135c.044-.048.116-.112.158-.146l.085-.066c.005-.004-.005-.015-.027-.026a.434.434 0 0 1-.082-.057.24.24 0 0 1-.072-.092.176.176 0 0 1-.02-.105.35.35 0 0 1 .035-.113.547.547 0 0 1 .104-.137 1.08 1.08 0 0 1 .148-.13c.04-.032.118-.085.169-.117a4.5 4.5 0 0 1 .292-.166l-1.364-.01-.121-.025a5.344 5.344 0 0 1-.23-.057 2.82 2.82 0 0 1-.34-.131.379.379 0 0 1-.059-.035c-.003-.002-.01-.008-.017-.008-.009-.001-.032-.014-.053-.025-.021-.013-.037-.03-.037-.035 0-.008-.004-.01-.007-.006s-.032-.011-.062-.033a1.264 1.264 0 0 1-.228-.227 4.98 4.98 0 0 1-.129-.19 1.09 1.09 0 0 1-.086-.15c0-.009.003-.01.005-.005Zm-7.818.284.129.081c.07.044.2.118.288.164.09.045.224.111.298.144a.709.709 0 0 1 .135.07c.002.008-.735.01-2.41.008-1.717-.002-2.453-.008-2.553-.015a15.474 15.474 0 0 1-.628-.057l-.197-.028a7.664 7.664 0 0 1-.292-.052 2.695 2.695 0 0 1-.466-.133.354.354 0 0 1-.098-.046c-.003-.005-.007-.007-.007-.001 0 .003-.024-.008-.056-.024a.264.264 0 0 1-.062-.04c-.003-.005-.007-.006-.007-.003 0 .004-.02-.007-.047-.024a.336.336 0 0 1-.05-.037c-.001-.003 1.352-.007 6.023-.007Zm15.261 0h6.016l-.026.024a1.664 1.664 0 0 1-.364.177 2.754 2.754 0 0 1-.418.109 5.908 5.908 0 0 1-.493.07l-.265.024a9.17 9.17 0 0 1-.324.017c-.106.005-1.039.007-3.955 0l-.007-.072a.785.785 0 0 0-.021-.124.374.374 0 0 0-.099-.18l-.044-.045Zm-7.237.616c.039.004.09.011.113.017.02.007.065.03.098.048.032.02.09.052.13.072.04.018.1.042.134.053.035.011.078.02.097.02.02 0 .035.004.039.01.002.005-.023.033-.056.06-.034.03-.097.08-.143.11a2.747 2.747 0 0 1-.461.242 2.705 2.705 0 0 1-.445.129l-.22.038c-.067.01-.203.017-.66.024l.005-.031a.736.736 0 0 1 .035-.098.434.434 0 0 1 .188-.201c0-.004-.81 0-1.797.006-.989.007-1.922.01-2.346.007l-.137-.048a2.298 2.298 0 0 1-.22-.092.907.907 0 0 1-.136-.08c-.028-.02-.049-.042-.045-.048.002-.005.853-.009 5.054-.009l.104-.05a2.092 2.092 0 0 1 .38-.146 2.11 2.11 0 0 1 .15-.03c.037-.003.099-.005.14-.003Zm10.505.229c.785 0 1.192.004 1.195.01.002.005-.031.032-.073.062-.044.03-.132.08-.196.113a3.244 3.244 0 0 1-.225.097 2.377 2.377 0 0 1-.424.113c-.093.017-.15.018-1.264.018l-.056-.1c-.03-.056-.076-.143-.1-.193a.702.702 0 0 1-.046-.105c0-.013.139-.015 1.19-.015Zm-9.583.028h.398c.349 0 .4.002.4.015a.417.417 0 0 1-.074.144c-.014.016-.025.029-.025.027-.002-.002-.018.015-.039.035a.616.616 0 0 1-.114.078 1.284 1.284 0 0 1-.327.105 2.468 2.468 0 0 1-.58.03l.361-.434Zm-7.32.02.034.026c.018.015.062.046.097.068.033.02.065.044.068.05a.601.601 0 0 1 .113.052 4.9 4.9 0 0 0 .248.121c.08.037.146.07.146.074.002.004-1.091.01-2.429.013-1.337.004-2.51.002-2.606-.002-.095-.005-.25-.014-.342-.022A19.32 19.32 0 0 1 21 25.27a3.777 3.777 0 0 1-.646-.138 1.326 1.326 0 0 1-.33-.15c-.036-.022-.064-.044-.06-.05.003-.007 1.015-.009 6.011-.009Zm6.648.496c.005.002.062.043.24.176l-.045.051a3.043 3.043 0 0 1-.28.272c-.036.03-.102.073-.144.101-.04.026-.105.063-.142.081a.285.285 0 0 1-.074.03c-.004-.004-.007 0-.007.004a.342.342 0 0 1-.097.042 2.423 2.423 0 0 1-.15.046 1.722 1.722 0 0 1-.65.031.44.44 0 0 1-.09-.022c-.004-.002.01-.018.031-.033.02-.017.08-.076.134-.133.054-.057.123-.138.151-.18a.92.92 0 0 1 .069-.087c.007-.006.012-.015.012-.019 0-.003.014-.035.069-.133h.11c.06 0 .15-.007.2-.014.049-.01.135-.028.193-.045l.116-.031a.121.121 0 0 0 .035-.011c.013-.008.064-.026.113-.046.05-.019.115-.046.144-.06.029-.014.057-.023.062-.02Zm1.204.076c.005 0 .038.033.075.074a.612.612 0 0 1 .066.08 1.582 1.582 0 0 1-.21.24 1.345 1.345 0 0 1-.25.187 1.192 1.192 0 0 1-.498.152.94.94 0 0 1-.215.002 1.293 1.293 0 0 1-.232-.047c-.003-.003.03-.031.076-.062a3.02 3.02 0 0 0 .333-.266c.04-.04.091-.098.154-.181l.09-.004a1.68 1.68 0 0 0 .185-.024 1.747 1.747 0 0 0 .345-.116c.04-.018.076-.035.08-.035Zm-2.684.174-.004.05c0 .029-.01.071-.024.103a.496.496 0 0 1-.094.125.773.773 0 0 1-.121.104.315.315 0 0 1-.065.03c-.006 0-.01.005-.01.008 0 .004-.032.02-.071.035-.039.015-.106.037-.15.052a3.28 3.28 0 0 1-.18.042 3.29 3.29 0 0 1-.209.032l-.109.009c-.002-.002.042-.081.093-.177.053-.094.096-.175.096-.177 0-.004-.486-.006-2.16-.01l-.122-.044a2.7 2.7 0 0 1-.179-.072.71.71 0 0 1-.095-.057c-.02-.015-.037-.035-.037-.042-.002-.013.165-.015 3.44-.011Zm11.095-.004c.195 0 .215.002.223.016.006.011.004.026-.005.045a.231.231 0 0 1-.042.055.523.523 0 0 1-.14.083c0-.004-.005-.002-.008.004a.187.187 0 0 1-.054.031c-.025.01-.048.017-.048.011 0-.003-.002-.002-.005.004a.36.36 0 0 1-.085.037.533.533 0 0 1-.077.022l.012-.144.014-.153c0-.01.051-.011.215-.011Zm-14.957.009.028.035a.533.533 0 0 0 .094.083 1.4 1.4 0 0 0 .156.098c.05.028.094.055.097.06a.636.636 0 0 1 .125.052c.065.032.12.06.122.063.001.006-1.007.011-2.24.013-1.245.004-2.322.004-2.423-.002a7.534 7.534 0 0 1-.74-.07 4.597 4.597 0 0 1-.301-.055 2.724 2.724 0 0 1-.463-.152 1.564 1.564 0 0 1-.127-.072c-.028-.018-.05-.038-.048-.044.004-.005.968-.009 5.72-.009Zm6.463.526c.004 0 .009.024.012.053a.4.4 0 0 0 .016.078.325.325 0 0 0 .057.064.86.86 0 0 0 .11.084c.037.022.087.05.111.062.023.011.043.024.043.028a.588.588 0 0 1-.07.074 3.113 3.113 0 0 1-.119.107c-.028.02-.074.053-.104.072-.03.018-.084.048-.121.064a1.933 1.933 0 0 1-.134.048c-.044.011-.11.02-.185.024a1.026 1.026 0 0 1-.343-.04 1.408 1.408 0 0 1-.146-.058.506.506 0 0 1-.072-.04c0-.002.02-.015.042-.03a.58.58 0 0 0 .282-.343c0-.007-.007-.013-.016-.013-.007 0-.012-.002-.01-.003.001-.002.052-.015.11-.03a2.132 2.132 0 0 0 .431-.153l.106-.048Zm-2.827.133c.006 0 .018.01.029.026a.22.22 0 0 0 .058.055.337.337 0 0 0 .075.04c.02.008.074.014.12.014a.25.25 0 0 1 .083.007 1.18 1.18 0 0 1-.216.19 1.48 1.48 0 0 1-.534.232c-.06.015-.155.03-.211.037a2.7 2.7 0 0 1-.292.006 2.676 2.676 0 0 1-.507-.061.26.26 0 0 1 .067.002c.04.003.086.007.105.01.03.005.048-.003.162-.073.07-.044.152-.094.18-.114.028-.019.05-.032.05-.028s.004.004.008-.004a.725.725 0 0 1 .083-.068c.042-.033.105-.09.202-.196l.266-.037.273-.038Zm1.409.027a9.198 9.198 0 0 1 .434.128c.002.002-.023.035-.053.075a1.362 1.362 0 0 1-.12.13 1.018 1.018 0 0 1-.524.255c-.005-.004-.01-.003-.012.001a.268.268 0 0 1-.08.015c-.04.004-.122.007-.182.007a1.44 1.44 0 0 1-.35-.038 3.197 3.197 0 0 1-.133-.032c-.028-.01-.05-.018-.05-.022-.002-.004.02-.015.045-.024a.606.606 0 0 0 .218-.15.7.7 0 0 0 .113-.195h.06c.033 0 .12-.013.192-.028.07-.016.199-.05.281-.074l.16-.048Zm-3.15.028h.298c.164 0 .3.004.3.007a.478.478 0 0 1-.011.045.24.24 0 0 1-.032.068.35.35 0 0 1-.068.063.742.742 0 0 1-.138.07l-.139-.1a1.397 1.397 0 0 1-.14-.107c-.002-.005-.006-.007-.01-.005-.003.003-.019-.006-.033-.019l-.028-.022Zm-3.18.037c1.88 0 2.836.004 2.84.01.001.005 0 .012-.006.014-.005.002-.009.015-.009.028 0 .018.013.033.057.066.03.024.09.063.132.085.042.022.102.052.135.065.032.014.062.03.067.035.005.005-.767.007-2.107.005-1.87-.003-2.138-.005-2.33-.02-.118-.008-.285-.022-.371-.03a9.29 9.29 0 0 1-.674-.088 5.594 5.594 0 0 1-.287-.063 2.76 2.76 0 0 1-.203-.059.22.22 0 0 1-.073-.035c-.004-.011.566-.013 2.83-.013Zm10.997.23c.018.002.815.004 3.515.004l-.018.02a.484.484 0 0 1-.084.056c-.039.02-.104.05-.15.065-.044.016-.14.04-.215.057a3.92 3.92 0 0 1-.295.046c-.09.011-.24.026-.333.031a18.724 18.724 0 0 1-1.294 0l-.332-.02c-.064-.006-.37-.01-.678-.01-.519 0-.56 0-.547-.014a.843.843 0 0 1 .098-.076 3.71 3.71 0 0 1 .157-.1c.04-.021.088-.043.107-.05a.229.229 0 0 1 .07-.008Zm-4.36.307c.006 0 .038.031.073.068.035.04.08.08.107.094a.712.712 0 0 0 .113.043c.037.01.112.027.169.039a7.364 7.364 0 0 0 .436.048l-.023.018c-.012.01-.079.05-.148.092a4.43 4.43 0 0 1-.206.115c-.045.02-.126.057-.179.079a2.015 2.015 0 0 1-.396.113 1.327 1.327 0 0 1-.368 0l-.127-.03-.098-.039a.943.943 0 0 1-.241-.171c-.025-.026-.044-.048-.04-.05.001-.002.057-.022.124-.044.067-.023.127-.041.136-.041.007-.002.014-.004.017-.007.002-.002.057-.024.122-.05.063-.024.186-.08.27-.124.085-.044.16-.08.163-.077a.33.33 0 0 1 .051-.048.166.166 0 0 1 .046-.028Zm-1.714.037.078.037a1.437 1.437 0 0 0 .394.118c.062.01.123.018.164.03l-.058.062a.966.966 0 0 1-.256.192 1.477 1.477 0 0 1-.325.11 1.947 1.947 0 0 1-.45.015 3.048 3.048 0 0 1-.388-.077c-.01-.006-.007-.007.012-.007a.335.335 0 0 0 .099-.057c.04-.03.099-.078.128-.106.03-.027.07-.07.09-.094a.143.143 0 0 1 .085-.059.624.624 0 0 1 .067-.018.134.134 0 0 0 .031-.01c.007-.001.058-.02.113-.038.054-.019.125-.048.156-.065l.06-.033Zm-1.679.03c.013 0 .023.001.025.007.003.005.002.018-.004.027a.447.447 0 0 1-.05.069 5.65 5.65 0 0 1-.21.214h-1.3c-.72 0-1.396-.004-1.516-.01a13.647 13.647 0 0 1-.767-.052c-.076-.006-.205-.023-.284-.032a11.36 11.36 0 0 1-.278-.043 3.341 3.341 0 0 1-.197-.038l-.076-.019a1.51 1.51 0 0 1-.167-.044c-.058-.019-.118-.037-.132-.043-.014-.005-.024-.014-.024-.02s.834-.01 2.48-.011c1.365-.002 2.49-.004 2.5-.006Zm.262.073c.004 0 .055.017.113.037.06.02.114.04.122.044.007.002.023.008.031.008l.072.018c.03.01.08.019.111.022.03.004.055.01.055.013a.14.14 0 0 1-.037.037 1.173 1.173 0 0 1-.12.072.454.454 0 0 0-.082.05c-.002.006-.01.01-.018.01a.794.794 0 0 0-.113.032 3.9 3.9 0 0 1-.178.052 2.29 2.29 0 0 1-.161.03c-.058.009-.08.009-.078.002 0-.006.064-.106.14-.22a4.21 4.21 0 0 1 .143-.207Zm6.655.113c.005 0 .012.009.023.04l1.65-.003c.963-.004 1.648 0 1.648.003a.222.222 0 0 1-.065.032 2.2 2.2 0 0 1-.347.09c-.007.004-.05.011-.098.02l-.183.028c-.055.008-.159.02-.23.028-.071.01-.163.017-.202.02l-.21.015c-.087.007-.367.011-.728.013-.323 0-.77-.004-.992-.008a14.44 14.44 0 0 1-.412-.012.263.263 0 0 1 .03-.078.315.315 0 0 1 .042-.076c.004 0 .007-.005.007-.01 0-.008.014-.034.03-.058a.164.164 0 0 1 .037-.044Zm-2.566.3c.012 0 .016.008.016.026a.26.26 0 0 1-.034.087 2.25 2.25 0 0 1-.088.137 1.709 1.709 0 0 1-.322.332.58.58 0 0 1-.095.059.326.326 0 0 1-.074.044c-.04.02-.112.05-.162.065a1.283 1.283 0 0 1-.338.064 1.313 1.313 0 0 1-.304-.02c-.01-.004-.02-.007-.02-.011 0-.006.027-.015.06-.024a.75.75 0 0 0 .268-.148c.05-.038.116-.103.148-.142.031-.039.067-.08.08-.094.013-.02.029-.026.07-.031a.79.79 0 0 0 .124-.03c.04-.01.117-.04.171-.064.055-.024.15-.072.211-.105a.744.744 0 0 1 .11-.054c0 .004.001.004.005-.004a.488.488 0 0 1 .083-.05.47.47 0 0 1 .091-.036Zm-2.015.095a.387.387 0 0 0 .077.12c.023.02.06.05.085.06a.776.776 0 0 0 .24.078c.045.007.133.017.314.024l-.026.022c-.016.013-.032.02-.035.019-.004-.002-.006 0-.006.005 0 .006-.05.048-.11.098-.06.048-.134.105-.164.125a1.71 1.71 0 0 1-.293.15 1.434 1.434 0 0 1-.352.077c-.06.006-.15.006-.218 0a2.244 2.244 0 0 1-.18-.018 1.918 1.918 0 0 1-.464-.146l.062-.044c.033-.024.09-.074.123-.109a.928.928 0 0 0 .1-.14.423.423 0 0 0 .05-.12l.105.003a.822.822 0 0 0 .187-.012c.044-.01.125-.032.18-.048a2.52 2.52 0 0 0 .313-.137.046.046 0 0 1 .012-.007Zm-1.76.018c.005 0 .054.026.107.055a1.382 1.382 0 0 0 .33.146c.03.008.08.015.11.015.055 0 .057 0 .051.02a.456.456 0 0 1-.197.244.907.907 0 0 1-.125.064 1.376 1.376 0 0 1-.341.09 2.149 2.149 0 0 1-.342.017c-.156 0-.283-.005-.385-.016a14.924 14.924 0 0 1-.64-.087l-.252.246-.404.005a6.705 6.705 0 0 1-.505-.002 3.588 3.588 0 0 1-.468-.083.951.951 0 0 1-.12-.037c-.005-.002-.015-.005-.022-.005-.007-.002-.04-.01-.067-.019a2.373 2.373 0 0 1-.26-.101c-.006-.004.43-.008 1.013-.008.818-.001 1.017-.003.952-.024h.058a.226.226 0 0 0 .076-.009c.016-.007.017-.005.012.008-.007.014.004.018.085.027.05.006.11.013.133.017.036.006.053.002.166-.048a1.042 1.042 0 0 1 .156-.065c0-.002.023-.014.052-.027.03-.011.12-.054.2-.09a4.821 4.821 0 0 1 .18-.08.686.686 0 0 1 .09-.048c.047-.024.114-.06.147-.081.035-.02.067-.039.072-.04a.128.128 0 0 0 .032-.027.3.3 0 0 1 .106-.057Zm-.956.019c.004 0 .005.005.005.01a1.121 1.121 0 0 1-.151.168.684.684 0 0 0-.104.1l-.48.008c-.264.005-.622.009-.796.007a17.92 17.92 0 0 1-.519-.011 13.814 13.814 0 0 1-.373-.024 11.222 11.222 0 0 1-.517-.06 7.917 7.917 0 0 1-.23-.045 2.465 2.465 0 0 1-.344-.098c-.023-.011.251-.015 1.71-.019 1.618-.003 1.74-.005 1.764-.02a.123.123 0 0 1 .035-.016Zm6.966.014c.005.002.009.011.009.017 0 .007.042.013.15.018.082.004.688.008 1.346.008.952 0 1.197.002 1.197.01 0 .006-.025.027-.056.043a1.163 1.163 0 0 1-.272.102 3.26 3.26 0 0 1-.417.074l-.243.024c-.067.005-.246.012-.4.018-.152.006-.385.007-.515.006-.132-.004-.338-.01-.46-.015-.119-.006-.274-.013-.342-.019a1.236 1.236 0 0 1-.141-.016c-.016-.008-.014-.015.037-.111.03-.057.063-.116.075-.133.013-.018.029-.03.032-.026Zm-.885.397a.534.534 0 0 1 .206.061.651.651 0 0 1 .216.227.227.227 0 0 1 .025.133c0 .052-.005.09-.02.13a.748.748 0 0 1-.068.132 2.56 2.56 0 0 1-.086.118c-.021.022-.034.035-.03.028.005-.01.005-.012-.004-.008-.005.004-.01.013-.01.019a.237.237 0 0 1-.057.064l-.112.102a4.495 4.495 0 0 1-.592.39 1.114 1.114 0 0 1-.158.089c-.08.041-.187.093-.236.115-.05.02-.118.046-.151.055-.035.01-.102.022-.15.028-.046.006-.14.015-.21.02-.07.004-.31.013-.54.019-.227.005-.489.005-.584.002a1.929 1.929 0 0 1-.172-.012 77.898 77.898 0 0 0 .627-.384 3.67 3.67 0 0 1 .233-.141c.007-.008.102-.07.212-.14.109-.073.26-.174.336-.228.077-.053.176-.125.22-.16a1.774 1.774 0 0 0 .198-.177c.01-.013.062-.063.117-.113.054-.048.14-.116.193-.153.051-.037.122-.081.155-.098a.447.447 0 0 1 .072-.033.473.473 0 0 1 .1-.044c.05-.017.12-.034.157-.04a.778.778 0 0 1 .113 0Zm.663.18c.01 0 .037.008.066.02.05.018.074.018 1.026.018.614 0 .971.003.966.009a1.837 1.837 0 0 1-.197.074 3.107 3.107 0 0 1-.509.138 2.143 2.143 0 0 1-.382.033c-.088.002-.297 0-.767-.01l-.097-.1a1.218 1.218 0 0 1-.113-.128.067.067 0 0 1-.01-.04c.002-.008.01-.013.017-.013Zm-5.086.172c.1.004.134.008.194.028a.506.506 0 0 1 .241.177.784.784 0 0 1 .065.107c.01.026.023.069.024.095a.268.268 0 0 1-.008.103.42.42 0 0 1-.043.105.766.766 0 0 1-.091.116c-.035.035-.083.08-.106.098-.023.018-.042.03-.042.026s-.005 0-.009.01c-.005.008-.014.014-.017.01-.006-.002-.01 0-.01.006 0 .005-.034.03-.075.055a2.53 2.53 0 0 1-.329.174 1.715 1.715 0 0 1-.127.053.585.585 0 0 1-.098.044c-.051.02-.155.06-.229.087-.074.026-.195.066-.27.09a2.075 2.075 0 0 1-.179.052 3.046 3.046 0 0 1-.223.063l-.63-.046-.676-.05c-.025-.004-.046-.01-.046-.015 0-.005.009-.01.021-.015l.03-.005a10.448 10.448 0 0 0 1.311-.782c.095-.069.21-.148.252-.18a2.766 2.766 0 0 1 .725-.358.977.977 0 0 1 .345-.048Zm1.558 1.569.063.017a5.926 5.926 0 0 0 .512.08c.08.006.224.015.324.02a2.937 2.937 0 0 0 .52-.027c.034-.005.101-.018.149-.027.045-.011.107-.026.133-.034a.163.163 0 0 1 .059-.01c.003.001-.013.025-.037.053-.023.028-.08.083-.123.122a2.437 2.437 0 0 1-.373.257 4.015 4.015 0 0 1-.212.099 2.496 2.496 0 0 1-.454.137c-.061.012-.17.03-.243.04a3.122 3.122 0 0 1-.38.017 3.45 3.45 0 0 1-.871-.098c-.005-.006.017-.02.058-.039.037-.016.128-.064.204-.103a1.937 1.937 0 0 1 .148-.078 3.546 3.546 0 0 0 .195-.13.738.738 0 0 1 .083-.052 6.397 6.397 0 0 1 .151-.15l.094-.094Zm-4.233.114.151.028a6.968 6.968 0 0 0 .562.072 3.3 3.3 0 0 0 .341.006c.136-.004.229-.01.27-.019.035-.01.072-.018.084-.02.01-.004.02 0 .02.003 0 .006-.022.024-.048.041a.164.164 0 0 1-.053.028.48.48 0 0 1-.081.06c-.04.027-.121.075-.18.106a.536.536 0 0 1-.105.05c0-.004-.004-.002-.007.005a.927.927 0 0 1-.137.069 3.838 3.838 0 0 1-.238.094c-.06.02-.146.048-.194.06a2.732 2.732 0 0 1-.449.08c-.075.007-.18.009-.278.005a2.437 2.437 0 0 1-.246-.018 3.162 3.162 0 0 1-.194-.037 15.152 15.152 0 0 1-.501-.13c-.016-.005-.028-.01-.028-.016 0-.003.063.006.14.019.078.014.192.035.363.07l.077-.043c.044-.022.127-.07.187-.107.06-.035.132-.083.162-.103.03-.02.084-.063.123-.092.039-.03.069-.054.069-.052l.05-.044.089-.083c.02-.02.044-.034.05-.032Zm5.491.768c.02-.002.05.005.067.015a.085.085 0 0 1 .044.057c.012.033.012.05.003.103a.999.999 0 0 1-.038.142 1.03 1.03 0 0 1-.035.095c-.008.01-.02.003-.066-.041a.661.661 0 0 0-.12-.087c-.043-.024-.073-.033-.103-.031a.188.188 0 0 0-.095.031.342.342 0 0 1-.056.03c0-.004.003-.013.008-.024.007-.019.004-.02-.054-.028-.035-.006-.064-.015-.064-.02 0-.004.04-.032.085-.06.046-.027.114-.068.155-.088a.83.83 0 0 1 .109-.052c.021-.009.039-.012.039-.009 0 .004.003.004.008-.003.004-.006.023-.013.043-.019a.28.28 0 0 1 .07-.011Zm-4.301.028a.13.13 0 0 1 .073.018c.022.013.032.03.04.057.005.024.006.061.003.087a1.503 1.503 0 0 1-.08.258l-.065-.055a.702.702 0 0 0-.116-.085.187.187 0 0 0-.104-.027.167.167 0 0 0-.095.027c-.026.017-.05.026-.054.024-.004-.002-.002-.01.005-.018.009-.013.004-.017-.035-.024a.4.4 0 0 0-.062-.01c-.01 0-.017-.005-.016-.012a.34.34 0 0 1 .074-.056c.04-.026.111-.066.157-.09a.955.955 0 0 1 .216-.089.203.203 0 0 1 .059-.005Zm3.182.022c.054.003.061.005.084.035.025.028.026.035.021.083a.492.492 0 0 1-.053.15.594.594 0 0 1-.056.1 2.049 2.049 0 0 1-.202-.115 1.644 1.644 0 0 1-.192-.131c0-.006.012-.015.026-.023a1.491 1.491 0 0 1 .252-.088.448.448 0 0 1 .12-.011Zm-4.249.024c.026 0 .06.005.076.013.02.007.033.022.042.044.009.02.01.046.007.074a1.275 1.275 0 0 1-.1.23c-.013.019-.016.017-.14-.06a1.672 1.672 0 0 1-.137-.09.925.925 0 0 1-.139-.085c-.001-.003.01-.01.023-.017.012-.008.063-.028.11-.047.047-.018.114-.04.147-.047a.674.674 0 0 1 .111-.015Zm6.347.013c.024.002.056.009.072.016a.11.11 0 0 1 .037.04.172.172 0 0 1 .012.062c0 .02-.009.064-.02.096a.917.917 0 0 1-.078.168.113.113 0 0 1-.032-.03.552.552 0 0 0-.074-.06.353.353 0 0 0-.227-.06.636.636 0 0 1-.234-.046.54.54 0 0 1 .1-.055c.056-.026.148-.063.203-.082.056-.02.123-.038.147-.044a.541.541 0 0 1 .094-.005Z" fill="#FEFEFE"/><path d="M34.75 30.98a.9.9 0 0 1 .037.162.23.23 0 0 0 .014.053c.005.007.005.03 0 .054l-.009.042h4.022c.003 7.824.001 10.177 0 10.278a6.882 6.882 0 0 1-.055.662 10.824 10.824 0 0 1-.105.676c-.02.098-.048.236-.064.306a19.466 19.466 0 0 1-.169.651c-.026.084-.068.22-.095.301-.026.083-.074.222-.104.306a11.232 11.232 0 0 1-.42.986c-.032.065-.092.179-.13.255l-.154.276a10.19 10.19 0 0 1-.336.545l-.163.236c-.048.066-.14.188-.203.271a9.562 9.562 0 0 1-.762.87c-.085.084-.22.213-.301.289a15.067 15.067 0 0 1-.579.49 10.967 10.967 0 0 1-.764.537c-.068.045-.183.113-.252.156a11.617 11.617 0 0 1-1.105.574 10.016 10.016 0 0 1-.62.257l-.286.108c-.064.022-.211.072-.328.11l-.21.069a5.558 5.558 0 0 1-.342-.092 8.955 8.955 0 0 1-.692-.24 11.734 11.734 0 0 1-1.031-.47c-.07-.038-.2-.108-.289-.16-.088-.05-.223-.129-.3-.175a11.29 11.29 0 0 1-.656-.435 12.162 12.162 0 0 1-.306-.227l-.27-.218a9.926 9.926 0 0 1-1.157-1.142 8.958 8.958 0 0 1-.382-.48 9.226 9.226 0 0 1-.385-.553c-.06-.093-.148-.235-.196-.314-.046-.081-.118-.205-.157-.279a8.86 8.86 0 0 1-.179-.347 10.095 10.095 0 0 1-.305-.672l-.1-.258a14.777 14.777 0 0 1-.197-.577 7.38 7.38 0 0 1-.095-.325c-.028-.098-.065-.245-.086-.328l-.06-.253a15.909 15.909 0 0 1-.125-.659l-.05-.323c-.008-.076-.026-.208-.034-.293-.02-.157-.02-.207-.02-5.245v-5.087h2.109c.966 0 1.457-.003 1.457-.009a.167.167 0 0 0-.042-.048 1.132 1.132 0 0 0-.16-.098 1.772 1.772 0 0 0-.194-.085c-.042-.014-.1-.04-.132-.057l-.056-.031h-3.304v10.549a12.574 12.574 0 0 0 .503 2.535 14.441 14.441 0 0 0 .222.635 8.291 8.291 0 0 0 .22.531c.039.09.12.259.178.375a10.601 10.601 0 0 0 .354.659c.038.064.11.182.162.262a9.151 9.151 0 0 0 .382.56c.066.091.176.233.239.315.063.079.174.212.245.295a12.84 12.84 0 0 0 .706.738 9.358 9.358 0 0 0 .47.419c.063.051.191.155.288.23.095.074.222.17.278.21.056.041.178.126.27.189.09.06.226.151.3.197.074.047.192.118.26.16a11.485 11.485 0 0 0 1.995.927c.068.022.181.06.25.081a8.633 8.633 0 0 0 .396.111.491.491 0 0 0 .13-.03l.336-.116a15.178 15.178 0 0 0 .759-.286c.086-.037.23-.1.318-.14.09-.039.222-.101.292-.135a14.113 14.113 0 0 0 .738-.39c.08-.049.229-.137.327-.2.099-.06.278-.18.4-.266a8.373 8.373 0 0 0 .605-.454c.055-.044.157-.129.225-.188.069-.059.196-.173.284-.253a11.643 11.643 0 0 0 .68-.706 7.95 7.95 0 0 0 .265-.32 9.41 9.41 0 0 0 .933-1.404 12.068 12.068 0 0 0 .427-.882 8.882 8.882 0 0 0 .354-.969 10.34 10.34 0 0 0 .465-2.545c.007-.143.009-1.843.007-5.476l-.002-5.27c-4.284-.006-4.39-.004-4.384.011Z" fill="#15366F"/><path fill-rule="evenodd" clip-rule="evenodd" d="M40.974 30.965c.035 0 .106.005.159.01.05.008.128.026.17.04.043.014.102.038.134.053a1.234 1.234 0 0 1 .306.225 1.128 1.128 0 0 1 .314.803 1.3 1.3 0 0 1-.046.341 1.31 1.31 0 0 1-.16.327 1.222 1.222 0 0 1-.217.232 1.039 1.039 0 0 1-.304.168 1.05 1.05 0 0 1-.643.018 1.194 1.194 0 0 1-.353-.182 1.284 1.284 0 0 1-.247-.266 1.37 1.37 0 0 1-.072-.127 1.868 1.868 0 0 1-.06-.15 1.284 1.284 0 0 1-.039-.166 1.3 1.3 0 0 1 .04-.563 1.22 1.22 0 0 1 .133-.276 1.256 1.256 0 0 1 .248-.266c.04-.032.116-.08.17-.107a1.07 1.07 0 0 1 .466-.114Zm-.206.182c-.033.01-.096.03-.139.048a.986.986 0 0 0-.148.083 1.042 1.042 0 0 0-.239.244.93.93 0 0 0-.123.277c-.01.038-.023.097-.028.13a1.367 1.367 0 0 0 0 .333c.005.035.019.097.031.14a1.8 1.8 0 0 0 .057.148c.019.038.052.1.075.132a1.142 1.142 0 0 0 .173.19.93.93 0 0 0 .153.1c.025.011.065.03.09.039.024.01.07.026.103.035a.801.801 0 0 0 .206.017.677.677 0 0 0 .238-.026c.05-.015.114-.04.144-.054.03-.015.076-.04.104-.059a.926.926 0 0 0 .185-.168c.02-.022.051-.064.07-.092.018-.03.046-.081.064-.118.016-.037.038-.102.053-.144.012-.043.026-.105.031-.14a1.395 1.395 0 0 0 0-.332c-.003-.034-.017-.093-.026-.131a1.06 1.06 0 0 0-.099-.235 1.012 1.012 0 0 0-.18-.221 1.74 1.74 0 0 0-.12-.093 1.323 1.323 0 0 0-.113-.059.838.838 0 0 0-.324-.065 1.116 1.116 0 0 0-.151.003l-.087.018Z" fill="#85D8F8"/><path d="M29.832 31.038c-.035.01-.095.03-.135.044l-.11.047c-.02.009-.038.022-.038.03 0 .005.026.018.061.027.034.007.111.018.173.022.061.004.12.007.13.01.009.001.02.005.023.008a.448.448 0 0 0 .047.028.35.35 0 0 1 .083.066l.039.041a.462.462 0 0 0 .035-.203c-.002-.033-.009-.063-.02-.077a.147.147 0 0 0-.05-.045c-.023-.013-.05-.016-.104-.016a.536.536 0 0 0-.134.018Z" fill="#FEFEFE"/><path d="M30.698 31.04a.666.666 0 0 0-.003.092c-.002.048-.006.111-.01.139l-.005.05a34.41 34.41 0 0 0 1.113-.01l.05-.005a1.08 1.08 0 0 0-.17-.165 1.053 1.053 0 0 0-.132-.073l-.07-.03c-.599 0-.773 0-.773.002Zm-2.223.164a.73.73 0 0 1 .018.09l.005.045c.188 0 .234-.004.234-.01a.204.204 0 0 0-.047-.053.58.58 0 0 0-.197-.11l-.025-.006.012.044Zm4.256 0c.003.02.005.052.005.07v.035a.567.567 0 0 0 .14-.005c.003-.004-.015-.028-.038-.052-.024-.022-.056-.051-.072-.063a.147.147 0 0 0-.035-.02c-.004 0-.004.017 0 .035Zm1.022.034a.328.328 0 0 1 .008.046c0 .014.008.016.075.014.05-.001.072-.005.069-.01a.465.465 0 0 0-.13-.072c-.029-.01-.029-.01-.022.021Zm-4.215.053.002.039c.129 0 .144-.004.136-.011a.972.972 0 0 0-.13-.065c-.006 0-.01.017-.008.037Z" fill="#15366F"/><path d="m33.83 31.298-.07.002a.44.44 0 0 1-.023.13.765.765 0 0 1-.178.28 1.517 1.517 0 0 1-.302.243 2.282 2.282 0 0 1-.203.119 3.51 3.51 0 0 1-.19.097.34.34 0 0 1-.079.03.352.352 0 0 1 .042-.078 1.359 1.359 0 0 0 .134-.29.77.77 0 0 0 .025-.164.953.953 0 0 0-.005-.15.626.626 0 0 0-.081-.19c-.013-.014-.03-.018-.087-.018h-.072c-.01.082-.023.131-.032.163a.803.803 0 0 1-.06.125.892.892 0 0 1-.096.12c-.03.032-.093.083-.14.115a1.79 1.79 0 0 1-.364.188 3.06 3.06 0 0 1-.228.072c-.078.02-.141.033-.145.031-.001-.002.004-.014.013-.026a1.645 1.645 0 0 0 .157-.26.895.895 0 0 0 .047-.142.537.537 0 0 0 .005-.25.412.412 0 0 0-.033-.088l-.021-.042c-.578.005-.84.007-.956.01h-.211c-.03.123-.053.19-.069.224a1.081 1.081 0 0 1-.19.294 2.276 2.276 0 0 1-.123.12 1.89 1.89 0 0 1-.292.197.92.92 0 0 0-.106.063c-.004-.002-.018 0-.03.004-.012.001-.021.009-.021.013 0 .005-.004.009-.007.007a.932.932 0 0 0-.086.026l-.078.03c0 1.833.004 2.36.005 2.352a.174.174 0 0 1 .011-.028l.007-.024c0-.005.004-.016.005-.024.004-.007.01-.033.018-.055a.506.506 0 0 0 .01-.057.155.155 0 0 1 .01-.026.024.024 0 0 0 .001-.019c-.003-.003-.002-.01.004-.016a.388.388 0 0 0 .019-.061l.014-.061c0-.005.004-.017.005-.024a.415.415 0 0 0 .016-.057c.007-.022.012-.048.014-.056a.08.08 0 0 1 .007-.027l.016-.057.012-.056c0-.009.004-.02.008-.026.003-.007.005-.016.001-.02-.002-.004 0-.011.004-.017a.164.164 0 0 0 .02-.06.63.63 0 0 0 .018-.08.996.996 0 0 0 .029-.112.776.776 0 0 0 .02-.15c-.001-.038-.006-.053-.027-.074-.02-.018-.043-.027-.081-.035a.578.578 0 0 0-.074-.009c-.018 0-.021-.005-.021-.042v-.043h.908c0 .067-.004.085-.007.085l-.048.006a.49.49 0 0 0-.084.016.255.255 0 0 0-.07.034.23.23 0 0 0-.046.068c-.013.027-.04.125-.066.22-.022.092-.044.175-.044.182-.001.007-.003.02-.007.028a.69.69 0 0 0-.019.07.536.536 0 0 0-.018.075 1.622 1.622 0 0 1-.025.09l-.011.056a.743.743 0 0 0-.026.1.835.835 0 0 0-.018.074 1.693 1.693 0 0 1-.025.09l-.012.056a.08.08 0 0 1-.008.027c-.001.01-.012.04-.019.072a.873.873 0 0 0-.017.074l-.008.033-.02.07c-.008.032-.017.065-.018.076a.092.092 0 0 1-.007.033 1.363 1.363 0 0 0-.028.107.945.945 0 0 0-.023.118c0 .013.005.037.014.054.007.016.017.03.02.026.006-.002.01.001.01.007 0 .007.003.01.007.005.003-.003.012-.003.016 0a.123.123 0 0 0 .045.015 1.318 1.318 0 0 0 .45-.063c.033-.01.057-.022.057-.025 0-.002.006-.004.01-.006a.4.4 0 0 0 .146-.083c.017-.015.03-.028.033-.026a.427.427 0 0 0 .063-.059c.032-.033.054-.06.05-.06-.006 0 0-.006.01-.015.012-.008.02-.019.02-.023 0-.005.011-.022.024-.035a.132.132 0 0 0 .023-.033c-.002-.004.007-.016.017-.03a.114.114 0 0 0 .025-.042c.003-.015.01-.018.02-.015a.15.15 0 0 0 .033.01c.012.002.02.009.02.016 0 .006-.006.03-.013.054a.139.139 0 0 0-.01.046c.003.004 0 .01-.003.015a2.468 2.468 0 0 0-.095.325c-.023.079-.04.145-.04.147 0 .002-.284.002-.632.002h-.63l.005.92c.232.002 2.015.002 4.11 0h3.81c-.007 4.073-.01 5.278-.014 5.304a1.98 1.98 0 0 1-.009.098c-.001.03-.01.108-.017.179-.01.07-.016.145-.02.17-.001.022-.007.053-.008.07-.002.014-.011.075-.022.136l-.022.14a1.596 1.596 0 0 1-.023.122c-.01.05-.02.1-.021.113a.212.212 0 0 1-.01.038l-.024.108c-.01.051-.021.1-.021.108a5.413 5.413 0 0 1-.028.103l-.018.075a3.962 3.962 0 0 0-.088.321 19.265 19.265 0 0 1-.136.406c-.012.035-.019.062-.015.062a.58.58 0 0 0-.047.109 11.9 11.9 0 0 1-.11.271 2.99 2.99 0 0 0-.086.207 5.24 5.24 0 0 0-.074.148c-.037.077-.065.14-.061.14a1.39 1.39 0 0 0-.074.131 7.01 7.01 0 0 1-.096.175.709.709 0 0 0-.044.087.817.817 0 0 0-.038.057c-.018.028-.03.056-.027.06.004.003.002.006-.003.006-.007 0-.02.013-.026.03-.01.017-.016.033-.015.037.002.005-.001.007-.007.007a.415.415 0 0 0-.063.09.859.859 0 0 0-.055.097.727.727 0 0 0-.069.094c-.026.037-.043.07-.04.072.004.003.004.005-.001.005a.413.413 0 0 0-.073.087.597.597 0 0 0-.065.1.286.286 0 0 0-.049.057c-.023.031-.042.057-.042.059a.51.51 0 0 1-.044.053.546.546 0 0 0-.044.058c.002.003-.01.018-.028.033-.016.015-.027.027-.025.03.004.001-.009.016-.026.033-.018.016-.03.031-.027.033a.165.165 0 0 1-.032.037c-.019.02-.036.039-.035.042a.34.34 0 0 1-.05.057 6.538 6.538 0 0 1-.215.233l-.173.177a2.05 2.05 0 0 0-.099.092c-.05.05-.093.09-.095.089a.21.21 0 0 0-.035.035.184.184 0 0 1-.04.039.336.336 0 0 0-.055.044.258.258 0 0 1-.05.042l-.048.043a.378.378 0 0 1-.05.042c-.001-.002-.019.013-.04.034a.172.172 0 0 1-.04.03l-.043.038a.238.238 0 0 1-.046.038.911.911 0 0 0-.06.041.26.26 0 0 0-.056.052c0 .003-.003.007-.007.007a.38.38 0 0 0-.075.048.473.473 0 0 0-.07.06c0 .003-.003.005-.006.001-.005-.002-.02.007-.032.02-.014.011-.026.022-.03.022a2.968 2.968 0 0 0-.262.181c-.002.004-.009.008-.016.008-.007 0-.014.005-.014.01.002.008-.002.01-.003.006-.004-.003-.04.015-.083.043l-.196.12a.912.912 0 0 0-.123.079c-.005.005-.007.005-.007.002 0-.004-.028.01-.061.027a.305.305 0 0 0-.062.043c-.002.004-.007.005-.012.004-.006-.004-.01-.002-.01.003 0 .006-.003.01-.006.008-.004-.002-.02.003-.035.013-.018.007-.03.016-.03.022 0 .005-.002.007-.005.004-.006-.004-.032.005-.062.022a.273.273 0 0 0-.058.035c-.004.002-.01.007-.018.007-.009.002-.016.007-.016.013-.001.004-.007.005-.012.004-.005-.002-.009-.002-.009.002 0 .003-.005.007-.01.009-.007 0-.064.026-.129.057-.063.031-.153.072-.197.092l-.086.04c-.002.005-.007.006-.012.008a17.676 17.676 0 0 0-.431.177c-.006 0-.105.037-.22.078a6.417 6.417 0 0 1-.25.088l-.032.013c-.004.002-.007.004-.01.004a.32.32 0 0 0-.077.02.27.27 0 0 1-.038.015.374.374 0 0 0-.051.015c-.02.005-.039.009-.042.005a.272.272 0 0 0-.062-.016l-.162-.044a3.423 3.423 0 0 0-.144-.043.344.344 0 0 0-.062-.022c-.03-.01-.058-.019-.063-.019a.577.577 0 0 1-.074-.03c-.021-.006-.039-.01-.039-.005.002.004-.003.002-.01-.005a.078.078 0 0 0-.03-.015.056.056 0 0 1-.027-.01c-.005-.001-.031-.014-.06-.023-.03-.011-.052-.017-.052-.013 0 .004-.004.002-.008-.004a.204.204 0 0 0-.06-.03.939.939 0 0 0-.066-.021.04.04 0 0 1-.02-.01c-.001-.003-.012-.007-.02-.009-.011-.002-.022-.005-.024-.01a.637.637 0 0 0-.136-.055 1.38 1.38 0 0 0-.142-.068 2.157 2.157 0 0 0-.162-.07.16.16 0 0 0-.044-.026c-.023-.01-.044-.018-.047-.016-.004.002-.007-.002-.007-.008 0-.005-.004-.007-.009-.005-.005.004-.01.002-.012-.002a.865.865 0 0 0-.123-.068 1.853 1.853 0 0 1-.15-.081c-.016-.013-.034-.02-.039-.017-.005.002-.009 0-.009-.006 0-.005-.003-.007-.008-.003-.006.002-.01-.002-.01-.008 0-.007-.003-.009-.008-.002-.005.006-.009.3-.009.827l-.002.818a.706.706 0 0 0 .152.066 3.154 3.154 0 0 0 .28.135c.003.003.04.022.084.04a.279.279 0 0 0 .078.028c0-.004.003-.002.007.004a.91.91 0 0 0 .128.059 4.124 4.124 0 0 0 .148.059l.11.044c.055.02.101.035.101.031 0-.003.004-.002.007.004.004.006.076.033.159.063.084.028.188.063.228.075l.095.028c.011.002.025.006.032.01a.133.133 0 0 0 .032.009.198.198 0 0 1 .031.009.626.626 0 0 0 .08.024c.038.01.07.018.072.015.003-.002.01 0 .016.005.007.006.014.01.017.008a.29.29 0 0 1 .044.009c.02.005.039.007.044.003a19.066 19.066 0 0 0 .567-.186c.093-.035.172-.065.174-.068.002-.004.012-.008.023-.01a.354.354 0 0 0 .05-.016.227.227 0 0 1 .047-.018c.009-.002.03-.012.05-.019a.227.227 0 0 1 .047-.018.753.753 0 0 0 .058-.024c.024-.011.049-.023.053-.023l.058-.024a.272.272 0 0 0 .061-.03.56.56 0 0 0 .125-.046l.174-.079a.284.284 0 0 0 .07-.04.13.13 0 0 0 .048-.013c.023-.01.043-.02.043-.026 0-.005.003-.01.007-.007.003.002.026-.006.049-.017.025-.01.042-.022.042-.026.002-.003.005-.003.01-.002.004.002.01 0 .01-.005 0-.004.001-.008.007-.008a.17.17 0 0 0 .049-.014c.023-.011.042-.022.042-.026s.004-.006.009-.004c.005.004.014-.002.023-.009l.012-.01c0 .005.03-.01.065-.029.037-.018.067-.037.07-.039.002-.003.011-.007.018-.009.007-.002.014-.007.016-.013.002-.003.007-.005.01-.003.006.003.01.002.01-.004s.005-.007.01-.006c.003.004.009 0 .009-.007-.002-.005.002-.007.005-.004.005.004.039-.01.076-.031a.525.525 0 0 0 .07-.046c.004-.002.009-.006.014-.007a.682.682 0 0 0 .095-.05.612.612 0 0 0 .1-.067l.015.002a.09.09 0 0 0 .026-.018c.01-.011.021-.019.025-.017a1.496 1.496 0 0 0 .214-.133c.004.002.013-.003.021-.01.01-.008.018-.016.022-.016a1.316 1.316 0 0 0 .206-.138c0-.004.003-.004.008-.002.006.002.013-.004.018-.011.005-.01.009-.015.009-.011 0 .005.026-.01.056-.031a.442.442 0 0 0 .07-.054.175.175 0 0 0 .043-.026.143.143 0 0 0 .038-.033c0-.005.002-.007.008-.005a.615.615 0 0 0 .107-.07.624.624 0 0 0 .107-.091.247.247 0 0 0 .067-.042.249.249 0 0 0 .062-.054 1.203 1.203 0 0 0 .155-.12c.077-.063.14-.118.14-.124 0-.005.004-.007.01-.005.004.004.018-.01.033-.026.012-.017.024-.03.026-.028.002.002.07-.059.153-.133a3.526 3.526 0 0 0 .217-.202c.003 0 .056-.052.116-.117a1.513 1.513 0 0 1 .142-.14c.013-.011.021-.024.021-.028 0-.003.044-.051.099-.105a.874.874 0 0 0 .097-.105c-.002-.005.02-.03.046-.055a.195.195 0 0 0 .047-.06c-.002-.005.004-.01.007-.01a.72.72 0 0 0 .093-.102l.125-.151c.023-.03.04-.056.036-.06-.004-.005 0-.007.005-.007.007 0 .033-.03.061-.066a.423.423 0 0 0 .046-.066l.032-.04c.017-.021.032-.042.028-.045a.748.748 0 0 0 .099-.127c.045-.065.08-.12.079-.12-.004 0 .007-.014.02-.028.013-.017.024-.034.024-.04 0-.006.005-.014.012-.018.009-.001.012-.009.01-.013-.003-.005-.001-.009.002-.009a.175.175 0 0 0 .034-.04.15.15 0 0 0 .023-.045 1.763 1.763 0 0 0 .099-.146l.15-.25a.749.749 0 0 0 .064-.122c-.002-.002.005-.015.016-.028.01-.013.017-.026.016-.03-.002-.003-.002-.007.002-.007.005 0 .015-.014.024-.031.01-.019.018-.037.016-.04-.002-.004 0-.01.005-.014a.53.53 0 0 0 .057-.094 1.09 1.09 0 0 0 .056-.112c.003 0 .044-.081.091-.181.046-.1.087-.186.088-.194 0-.009.006-.016.007-.02a.803.803 0 0 0 .053-.109.499.499 0 0 0 .043-.116c.007 0 .014-.011.017-.026a.205.205 0 0 0 .005-.033c-.001-.004.002-.006.007-.006.006 0 .011-.01.014-.024a.472.472 0 0 0 .004-.031c0-.004.002-.01.007-.011a.377.377 0 0 0 .04-.094c.002-.008.006-.017.01-.019.001-.003.006-.013.008-.024a.052.052 0 0 1 .009-.024c.003-.002.007-.013.009-.022.002-.011.005-.022.008-.024.004-.002.008-.013.01-.024a1.516 1.516 0 0 0 .083-.23 1.249 1.249 0 0 0 .044-.118c.013-.045.02-.078.017-.078-.004 0 0-.008.007-.015.007-.01.008-.015.005-.015-.005.002-.004-.005.004-.013.007-.009.01-.014.005-.014s-.004-.006.003-.015c.007-.008.01-.015.006-.013-.006 0-.004-.006.003-.015.009-.007.01-.014.005-.014-.005.001-.005-.004 0-.012a.26.26 0 0 0 .03-.072l.023-.08a.223.223 0 0 1 .014-.047.345.345 0 0 0 .014-.048.14.14 0 0 1 .01-.04.248.248 0 0 0 .015-.048.15.15 0 0 1 .009-.037.421.421 0 0 0 .016-.058c.007-.022.012-.047.014-.055a3.144 3.144 0 0 0 .047-.194c.02-.083.035-.151.032-.155-.002-.002 0-.009.005-.013a.127.127 0 0 0 .01-.042.141.141 0 0 1 .01-.042.232.232 0 0 0 .012-.052l.009-.057c0-.008.005-.032.012-.052.005-.02.01-.053.014-.074.002-.022.012-.081.023-.133l.023-.13.026-.183c.01-.081.028-.207.035-.283a4.318 4.318 0 0 0 .029-.324c.003-.03.008-.135.01-.23.004-.095.005-2.444.005-5.221l-.003-5.047h-4.018a1.378 1.378 0 0 1-.056.203 1.311 1.311 0 0 1-.07.122 1.45 1.45 0 0 1-.25.264 3.067 3.067 0 0 1-.394.271 1.157 1.157 0 0 0-.14.087c-.002-.004-.018.002-.037.013-.02.009-.035.014-.034.01l.067-.143c.036-.074.076-.172.092-.216a1.027 1.027 0 0 0 .055-.303.588.588 0 0 0-.013-.123.608.608 0 0 0-.025-.076.521.521 0 0 0-.04-.061.207.207 0 0 0-.039-.037.312.312 0 0 0-.082-.004Z" fill="#FEFEFE"/><path d="M29.549 31.374a.858.858 0 0 1-.042.23.897.897 0 0 1-.073.14l-.047.073c0 2.705.003 3.493.007 3.497.003.003.012.001.02-.004.004-.008.01-.01.01-.006s.012 0 .028-.009a.266.266 0 0 0 .05-.035c.01-.01.017-.022.015-.026-.002-.004 0-.007.005-.007.006 0 .013-.01.016-.02.002-.011.005-.024.004-.028-.002-.004.001-.008.007-.008.005 0 .012-.016.015-.035.002-.02.004-.037.002-.037s.002-.007.009-.016c.009-.01.01-.018.007-.022s-.002-.011.002-.017a.367.367 0 0 0 .02-.06c.006-.028.013-.056.013-.062 0-.005.004-.016.006-.024a.909.909 0 0 0 .038-.145c0-.01.006-.024.007-.034a.09.09 0 0 0 .007-.031c.002-.011.002-.553 0-1.205v-1.186a.38.38 0 0 0-.068.03c-.004.003-.01.005-.016.001-.004-.006-.01-.004-.018.004-.007.007-.016.007-.024.002-.01-.008-.01-.01.001-.013.01-.004.014-.01.013-.015-.004-.006 0-.01.003-.01.006 0 .025-.025.044-.057a.29.29 0 0 0 .03-.064c-.002-.002 0-.008.005-.01a.464.464 0 0 0 .029-.035.156.156 0 0 0 .019-.038c0-.004-.005 0-.009.007-.007.01-.009-.118-.007-.378l.002-.391h-.13v.044Z" fill="#FCFCFC"/><path d="M29.681 31.339a6.964 6.964 0 0 0-.005.393l.002.38c.045-.087.054-.114.05-.118-.003-.006 0-.007.006-.007.007 0 .009-.004.007-.01-.004-.005-.002-.009.002-.009.003 0 .012-.018.02-.04.008-.023.013-.043.015-.045l.01-.033a.78.78 0 0 0 .037-.214.606.606 0 0 0-.04-.186.45.45 0 0 0-.056-.076c-.03-.033-.044-.044-.048-.035Z" fill="#FEFEFE"/><path d="m24.85 37.877.003 6.534c.03.079.04.105.044.107a.049.049 0 0 1 .009.024c.002.01.005.02.009.024.003.002.007.012.008.022.002.01.006.022.01.024a.042.042 0 0 1 .008.018c.002.01.023.065.05.127.024.063.049.115.052.119.005.002.007.005.005.009-.001.002.013.037.029.077a.28.28 0 0 0 .038.072c.004 0 .006.004.002.008-.002.003.002.014.009.026.012.016.014-.873.014-6.85v-6.87l-.292-.005.001 6.534Z" fill="#DCDCDC"/><path d="m25.138 38.22-.003 6.875c.125.255.163.33.169.332.003.002.005.006.002.011-.002.006.001.01.006.01.006 0 .008.003.006.007-.004.004.003.026.017.05a.554.554 0 0 0 .029.046 2.893 2.893 0 0 0 .195.362c.007.01.014.016.016.014.003-.001.005-.782.005-1.732 0-.952-.002-1.74-.003-1.753-.004-.013-.008-.043-.011-.065-.004-.024-.007-.048-.01-.052a.175.175 0 0 1-.01-.047.143.143 0 0 0-.012-.052c-.003-.008-.005-.017-.003-.019a.382.382 0 0 0-.009-.075 1.318 1.318 0 0 1-.026-.146l-.011-.074a19.356 19.356 0 0 1-.058-.447c-.005-.02-.009-1.014-.009-2.58v-2.55l.157-.003c.005-.919.003-.978-.009-.98a.19.19 0 0 0-.037-.003c-.014 0-.032 0-.04.002a.124.124 0 0 0-.043.035.151.151 0 0 0-.033.051c-.004.019-.009.02-.05.019l-.043-.002c.007-.056.028-.16.052-.27.025-.107.043-.199.04-.2 0-.003 0-.01.006-.017.005-.006.009-.015.007-.019a.32.32 0 0 1 .009-.044c.007-.02.009-.04.007-.043-.002-.003 0-.01.005-.016.004-.008.007-.015.007-.018a.088.088 0 0 1 .004-.034c.005-.024.01-.026.047-.026.021 0 .043.004.044.008a.64.64 0 0 1 .006.096c.001.05.007.105.014.127.008.03.01-.291.012-1.806v-1.844l-.44-.005-.002 6.877Z" fill="#DFDFDF"/><path d="M25.578 33.193c0 1.019 0 1.859.002 1.866a.064.064 0 0 0 .007.018c.003.002.007.012.009.019.002.007.007.015.012.017.004.001.005.007.004.01-.004.006 0 .01.003.01.005 0 .007.005.005.01-.001.005.002.012.01.014.006.004.013.01.013.018 0 .01.023.037.051.063a.622.622 0 0 0 .087.066.465.465 0 0 0 .234.041c.012-.004.014-.06.014-.445v-.439a1.8 1.8 0 0 1-.22-.258.71.71 0 0 1-.09-.21.558.558 0 0 1 .007-.193l.01-.057a.07.07 0 0 1 .008-.026c.003-.005.003-.01 0-.01-.004 0-.002-.004.001-.008a.412.412 0 0 0 .04-.074.413.413 0 0 1 .055-.09.368.368 0 0 1 .069-.074l.08-.072c.008-.007.013-.01.013-.006-.002.004.006.002.013-.007.014-.011.015-.112.014-1.02v-1.008l-.45-.005v1.85Z" fill="#E2E2E2"/><path d="m26.025 32.356.002 1.01a1.11 1.11 0 0 1 .139-.05.936.936 0 0 1 .17-.02l.108-.001.005-1.947-.426-.005.002 1.013Z" fill="#E5E5E5"/><path d="M26.445 32.322c0 .864.002.98.014.982l.036.002c.012.002.061.017.109.031a.422.422 0 0 0 .102.03c.003.005.016.01.028.01h.021v-2.034h-.31v.98Z" fill="#E8E8E8"/><path d="M26.756 32.36v1.016a.173.173 0 0 0 .079-.013.222.222 0 0 0 .047-.037c.018-.02.03-.026.06-.024.023 0 .04.004.042.011a.032.032 0 0 1-.003.023.106.106 0 0 0-.013.04l-.008.043c-.002.005-.006.014-.007.02a.149.149 0 0 0-.013.044l-.005.043a.043.043 0 0 1-.007.016.676.676 0 0 0-.032.122l-.005.022-.005.015a1.36 1.36 0 0 0-.035.122.305.305 0 0 0-.016.092c.003.004-.013.004-.036.002l-.043-.004v1.128a.376.376 0 0 1 .072-.035.392.392 0 0 1 .107-.002c.009.001.025.009.037.016a.595.595 0 0 1 .056.044c.018.017.032.032.028.032-.001 0 .004.015.013.031.012.02.016.046.016.087a.241.241 0 0 1-.023.098.366.366 0 0 1-.046.074c-.014.016-.028.03-.03.027-.003-.002-.014.006-.025.017-.012.01-.022.017-.022.015h-.006l-.02.003-.057.006-.057-.002a.067.067 0 0 1-.022-.011.026.026 0 0 0-.015-.008c-.003 0-.006.203-.008.453l-.002.45.44-.004.003-.878-.049-.002c.025-.113.034-.157.035-.173l.013-.056c.003-.016.005-.895.005-1.952l-.004-1.923-.44-.005v1.016Z" fill="#EAEAEA"/><path d="M27.194 33.256c.004 1.676.005 1.916.016 1.882a1.644 1.644 0 0 0 .054-.234.307.307 0 0 0 .007-.043.098.098 0 0 1 .01-.023.136.136 0 0 0 .006-.041c.004-.03.006-.03.046-.03h.042c.01.15.016.214.021.24a.314.314 0 0 0 .02.065.11.11 0 0 1 .008.024l.025.048a.46.46 0 0 0 .118.125c.004 0 .01.008.016.015.005.008.009.011.009.008 0-.004.007 0 .016.007.014.017.015-.011.019-.543l.005-.557a.487.487 0 0 0-.056-.098c.003-.002-.002-.026-.01-.057a.414.414 0 0 1-.02-.13c0-.04.009-.102.018-.143a.578.578 0 0 1 .038-.113l.021-.042c.008-1.044.008-1.347.004-1.347a1.57 1.57 0 0 1-.241.089l-.04.007c.094-.092.144-.153.17-.196.027-.04.065-.114.088-.164.023-.048.042-.09.042-.094-.002-.002-.005.002-.01.01-.005.009-.01-.086-.01-.28v-.293c-.32 0-.416-.002-.423-.005-.009-.004-.01.382-.009 1.913Z" fill="#EDEDED"/><path d="M27.625 31.64c.002.256.003.293.016.276a1.82 1.82 0 0 0 .08-.209c0-.008.008-.029.013-.045.005-.015.012-.033.012-.043l.007-.022c.004-.005.01-.027.018-.048a.438.438 0 0 1 .023-.055.112.112 0 0 0 .012-.052.166.166 0 0 0-.016-.064l-.016-.032-.151-.003.002.297Z" fill="#F0F0F0"/><path d="M28.49 31.416a.75.75 0 0 1-.032.139 1.005 1.005 0 0 1-.046.098.185.185 0 0 0-.022.048.058.058 0 0 1-.018.02c-.012.01-.014.088-.016.8-.002.624 0 .79.009.794a.11.11 0 0 0 .033.01.085.085 0 0 1 .034.009l.02.009.027.01c.007 0 .02.005.027.01.009.004.038.01.068.013.035.002.064 0 .085-.01a.211.211 0 0 0 .05-.038c.017-.02.029-.026.057-.026h.037c0-.943-.003-1.051-.012-1.048a4.741 4.741 0 0 0-.069.028.322.322 0 0 1-.061.022c0-.002.014-.039.033-.083.02-.044.046-.114.062-.159.015-.044.035-.11.045-.145a.366.366 0 0 0 .018-.08c0-.009-.004-.003-.007.01-.005.012-.007-.06-.007-.17-.002-.117.002-.185.007-.174.003.01.007.013.009.008a.34.34 0 0 0-.023-.067.882.882 0 0 0-.04-.08l-.018-.025h-.24l-.01.078Z" fill="#F5F5F5"/><path d="M24.195 36.435v5.086a18.427 18.427 0 0 0 .104.78c.012.074.039.224.06.329a10.689 10.689 0 0 0 .151.68c.021.084.04.158.046.165.004.01.007-2.546.007-6.056l.002-6.07h-.37v5.086Z" fill="#D8D8D8"/><path d="M24.563 37.423a903.71 903.71 0 0 0 .007 6.1c.003.013.009.03.009.037.002.007.01.046.023.085.01.039.042.142.068.23a3.851 3.851 0 0 0 .064.192c0 .008.007.03.014.047.007.018.014.035.014.038l.028.085c.016.043.032.083.033.089a.071.071 0 0 1 .01.024c.001.007.006.018.012.022.005.007.008-2.019.008-6.507v-6.517h-.287l-.003 6.075Z" fill="#DBDBDB"/><path fill-rule="evenodd" clip-rule="evenodd" d="m40.576 31.459.343.004c.234.003.354.007.379.014.019.008.052.019.072.028.02.01.053.03.074.046.024.02.047.052.063.085.018.04.025.074.028.13a.558.558 0 0 1-.009.127.354.354 0 0 1-.09.164.373.373 0 0 1-.061.04c-.023.011-.08.028-.208.054l.176.28c.095.154.173.283.171.288-.004.006-.042.01-.176.01l-.042-.073-.122-.21-.18-.3-.258.001-.003.578-.159.003.002-1.27Zm.16.555.472-.003c.095-.05.114-.069.134-.1a.17.17 0 0 0 .024-.103.35.35 0 0 0-.009-.095.204.204 0 0 0-.038-.062.218.218 0 0 0-.065-.044.51.51 0 0 0-.127-.024 2.793 2.793 0 0 0-.24-.01h-.15v.441Z" fill="#85D8F8"/><path d="M28.805 31.677c0 .182.001.19.014.15a.593.593 0 0 0 .014-.156.457.457 0 0 0-.014-.15c-.013-.034-.014-.029-.014.156Z" fill="#F8F8F8"/><path d="M28.3 31.81a1.47 1.47 0 0 1-.147.142 1.602 1.602 0 0 0-.106.092.323.323 0 0 0-.061.035l-.053.035-.005 1.222a.885.885 0 0 1 .118-.032c.019-.004.08-.005.139-.005.056.001.118.003.135.007l.035.006.004-1.569-.058.067Z" fill="#F2F2F2"/><path d="M29.37 31.828c-.008.007-.013.017-.011.022a1.524 1.524 0 0 1-.204.186l-.06.047-.01 4.251.298-.002.004-.926c-.042 0-.044-.004-.046-.04-.002-.025-.002-.041.002-.04.002.002.014 0 .026-.003l.023-.006c-.009-3.279-.01-3.498-.023-3.49Z" fill="#FAFAFA"/><path d="M29.04 32.114a.896.896 0 0 1-.106.066.36.36 0 0 0-.077.048c0-.003-.012 0-.026.008l-.027.015v1.112l-.003.823-.002.814c.063.01.086.013.091.015.007 0 .013.005.013.01 0 .006.001.006.003.003.004-.004.023.014.046.04a.222.222 0 0 1 .05.087.318.318 0 0 1 .006.081c-.002.024-.005.046-.008.048-.004.002-.008.013-.01.024a.06.06 0 0 1-.015.03c-.009.005-.01.01-.007.01s-.012.02-.034.04a.335.335 0 0 1-.086.053l-.044.017v.878l.29-.002c-.001-2.113-.005-3.07-.007-3.49l-.003-.761-.044.031Z" fill="#F8F8F8"/><path d="m27.9 32.129-.081.048a.175.175 0 0 0-.057.037c-.002.003-.005.005-.009.003a.242.242 0 0 0-.065.028l-.058.03-.005 1.322a.52.52 0 0 1 .095-.122.356.356 0 0 1 .067-.06c.005 0 .012-.008.016-.015.003-.01.009-.015.01-.013.004 0 .025-.01.051-.02a.233.233 0 0 0 .055-.035c.009-.01.01-.142.009-.617l-.002-.607-.026.02Z" fill="#F0F0F0"/><path d="M26.235 33.302a.648.648 0 0 0-.223.078.663.663 0 0 0-.121.105.455.455 0 0 0-.11.155.858.858 0 0 0-.052.15.474.474 0 0 0-.01.15.473.473 0 0 0 .029.147c.016.035.044.092.065.127.023.035.122.146.24.267.109.113.212.227.228.253.018.026.04.07.053.1a.275.275 0 0 1 .021.107.478.478 0 0 1-.047.192.439.439 0 0 1-.166.175.433.433 0 0 1-.355-.002.467.467 0 0 1-.215-.276.941.941 0 0 1-.018-.15l-.005-.109a.29.29 0 0 0-.084 0l-.073.334c-.04.18-.072.334-.072.338 0 .005.02.01.043.01.038 0 .044-.003.054-.025a.192.192 0 0 1 .035-.052.143.143 0 0 1 .053-.031c.02-.004.058.005.148.037.067.024.155.05.197.059a1.045 1.045 0 0 0 .371-.015.683.683 0 0 0 .412-.332.73.73 0 0 0 .051-.105.616.616 0 0 0 .028-.127.49.49 0 0 0 .002-.161.806.806 0 0 0-.03-.136.815.815 0 0 0-.072-.135 1.147 1.147 0 0 0-.112-.146 3.537 3.537 0 0 0-.208-.2 1.412 1.412 0 0 1-.173-.178.372.372 0 0 1-.037-.096.449.449 0 0 1-.003-.11.411.411 0 0 1 .032-.114.407.407 0 0 1 .07-.101.247.247 0 0 1 .091-.063c.041-.014.066-.018.14-.014.077.003.096.007.142.03a.303.303 0 0 1 .083.064c.017.018.042.059.056.088.014.03.032.074.037.096a.858.858 0 0 1 .018.133l.005.089c.076.009.076.009.086-.028l.076-.297a6.58 6.58 0 0 0 .067-.27c0-.007-.014-.01-.039-.01-.03-.002-.042.003-.06.023a.222.222 0 0 1-.047.037.177.177 0 0 1-.069.013.598.598 0 0 1-.142-.031 1.228 1.228 0 0 0-.178-.043 1.248 1.248 0 0 0-.116-.009l-.096.01Zm1.838 0a.97.97 0 0 0-.095.019.734.734 0 0 0-.21.11.585.585 0 0 0-.158.214.83.83 0 0 0-.051.144.604.604 0 0 0 .016.288c.01.032.044.093.072.137.032.048.09.118.153.183.056.057.143.145.192.197.05.052.106.118.125.15.02.03.042.077.051.1a.29.29 0 0 1 .018.099c0 .03-.007.077-.014.107a.75.75 0 0 1-.04.094.398.398 0 0 1-.157.16.449.449 0 0 1-.111.037.45.45 0 0 1-.248-.037.42.42 0 0 1-.11-.088.729.729 0 0 1-.077-.11.58.58 0 0 1-.048-.243l-.005-.096c-.074 0-.081.004-.085.02l-.073.344-.07.321c.082.002.087-.002.105-.033a.267.267 0 0 1 .038-.052.129.129 0 0 1 .048-.022c.02-.004.055.005.107.024.044.017.113.04.155.053a.578.578 0 0 0 .226.025.645.645 0 0 0 .513-.19.888.888 0 0 0 .074-.085.745.745 0 0 0 .118-.245.744.744 0 0 0-.001-.305.59.59 0 0 0-.04-.104.882.882 0 0 0-.14-.21 6.355 6.355 0 0 0-.206-.203 2.557 2.557 0 0 1-.176-.173.441.441 0 0 1-.04-.067.323.323 0 0 1-.02-.098.288.288 0 0 1 .014-.133.32.32 0 0 1 .125-.183.3.3 0 0 1 .074-.036.485.485 0 0 1 .106-.01c.044 0 .09.006.116.015.025.01.06.028.081.043a.346.346 0 0 1 .074.085.519.519 0 0 1 .08.271l.006.089c.076.005.076.003.086-.035l.076-.296c.037-.142.067-.26.067-.265 0-.006-.02-.01-.04-.01-.034 0-.045.004-.059.023a.16.16 0 0 1-.045.038.196.196 0 0 1-.073.013.59.59 0 0 1-.14-.031 1.285 1.285 0 0 0-.178-.043 1.247 1.247 0 0 0-.116-.009l-.09.01Zm8.997 0a.941.941 0 0 0-.26.094 1.52 1.52 0 0 0-.171.11 1.944 1.944 0 0 0-.162.149c-.044.046-.113.129-.151.182a1.952 1.952 0 0 0-.19.325 1.292 1.292 0 0 0-.084.268c-.012.042-.024.133-.03.197a1 1 0 0 0 0 .207c.008.048.022.12.034.159a.96.96 0 0 0 .055.13c.02.034.054.084.08.113a.69.69 0 0 0 .389.212c.041.008.105.015.14.015a1.212 1.212 0 0 0 .322-.057 1.42 1.42 0 0 0 .132-.056 1.334 1.334 0 0 0 .449-.4 1.795 1.795 0 0 0 .206-.338 1.265 1.265 0 0 0 .125-.489 1.05 1.05 0 0 0-.027-.337.998.998 0 0 0-.05-.128.712.712 0 0 0-.157-.201.724.724 0 0 0-.129-.085.73.73 0 0 0-.136-.057.835.835 0 0 0-.197-.018c-.079-.002-.163 0-.188.005Zm-4.477.035c-.01.01-.31.423-.673.917-.36.497-.676.927-.698.954a.387.387 0 0 1-.167.13.162.162 0 0 0-.053.025.091.091 0 0 0-.006.035v.026h.574v-.07a.627.627 0 0 1-.13-.027c-.021-.01-.034-.023-.037-.041a.165.165 0 0 1 .003-.065.4.4 0 0 1 .036-.08c.012-.023.072-.111.13-.198l.105-.157h.629c-.004.402-.005.42-.023.461a.185.185 0 0 1-.042.057.313.313 0 0 1-.076.032.449.449 0 0 1-.081.014c-.016 0-.03.002-.032.006a.18.18 0 0 0-.008.039l-.008.03h.891l.004-.06c0-.005-.022-.013-.055-.018a.314.314 0 0 1-.084-.024.086.086 0 0 1-.043-.048.993.993 0 0 1-.02-.164 77.062 77.062 0 0 1-.027-.962l-.02-.828c-.063 0-.08.005-.09.016Zm-2.846.043v.039a.621.621 0 0 1 .169.038c.01.008.024.024.03.037a.26.26 0 0 1 .008.06c0 .018-.01.077-.023.128-.01.052-.1.406-.197.786a15.78 15.78 0 0 1-.197.739.21.21 0 0 1-.047.066.29.29 0 0 1-.062.035c-.02.006-.046.015-.06.017-.023.005-.024.01-.024.044v.037h1.589c.012-.048.05-.18.09-.327.042-.145.074-.265.072-.27a.265.265 0 0 0-.037-.008c-.03-.006-.032-.004-.081.077a1.12 1.12 0 0 1-.25.277 1.014 1.014 0 0 1-.252.11c-.037.01-.098.023-.135.028-.037.006-.111.011-.166.011a.487.487 0 0 1-.133-.009.074.074 0 0 1-.048-.042.119.119 0 0 1-.009-.072c.002-.024.092-.39.2-.812.107-.425.203-.794.216-.821a.232.232 0 0 1 .045-.069.244.244 0 0 1 .066-.03.619.619 0 0 1 .091-.02l.053-.005v-.085h-.908v.04Zm3.745.22c-.056.143-.102.269-.104.278-.003.013.004.017.034.02.037.006.04.004.07-.035a1.898 1.898 0 0 1 .264-.265c.03-.02.084-.05.121-.069.037-.016.1-.039.14-.05a.956.956 0 0 1 .255-.023c.098-.002.181-.002.181.001 0 .002-.317.417-.704.923a97.22 97.22 0 0 0-.713.94.119.119 0 0 0-.01.053v.033l1.481-.004.222-.592a.354.354 0 0 0-.063-.013c-.01-.002-.028.018-.051.052a1.12 1.12 0 0 1-.245.262 1.05 1.05 0 0 1-.12.077 1.73 1.73 0 0 1-.116.052c-.035.013-.102.03-.147.039a2.284 2.284 0 0 1-.444.02c-.012-.004.058-.102.382-.524l.715-.936c.31-.407.316-.417.316-.457v-.043h-1.364l-.1.26Zm1.705-.218c0 .04.002.042.029.042.014 0 .054.006.09.015.045.01.064.018.075.035a.19.19 0 0 1 .02.057.365.365 0 0 1-.015.118c-.008.044-.098.393-.197.775a75.68 75.68 0 0 1-.193.738.605.605 0 0 1-.037.078.187.187 0 0 1-.121.076l-.047.01c-.012.004-.015.015-.015.043v.037h.87c0-.061-.005-.076-.011-.076a.979.979 0 0 1-.083-.013c-.051-.01-.078-.02-.092-.035a.13.13 0 0 1-.026-.059.454.454 0 0 1 .01-.109c.01-.038.097-.387.197-.775.1-.387.187-.716.192-.732a.36.36 0 0 1 .072-.13.252.252 0 0 1 .138-.053c.012 0 .016-.01.016-.042v-.043h-.872v.043Z" fill="#15366F"/><path d="M28.785 33.426a15.656 15.656 0 0 0-.116.447c-.01.038-.012.04-.046.04-.021 0-.039-.005-.04-.013a.348.348 0 0 1-.01-.077 1.11 1.11 0 0 0-.01-.104.143.143 0 0 0-.01-.046.09.09 0 0 1-.009-.024.224.224 0 0 0-.018-.05c-.008-.018-.019-.035-.023-.035-.003 0-.007-.005-.007-.013 0-.009-.003-.014-.008-.014-.006 0-.01-.006-.01-.011 0-.008-.008-.023-.019-.034a.21.21 0 0 0-.028-.022c-.003 0-.015-.007-.026-.018a.128.128 0 0 0-.035-.022c-.016-.006-.016.02-.016.44 0 .436 0 .447.018.458.008.006.017.015.017.019a1.097 1.097 0 0 1 .1.173.54.54 0 0 1 .04.087.777.777 0 0 1 0 .325.655.655 0 0 1-.047.121 1.072 1.072 0 0 1-.061.11 2.986 2.986 0 0 1-.08.099c.01-.006.011.105.01.533l-.002.54h.454c0-.776-.004-.874-.013-.877a.29.29 0 0 0-.045-.008.2.2 0 0 1-.064-.017.153.153 0 0 1-.056-.05.305.305 0 0 1-.03-.05c0-.006-.003-.012-.009-.012-.005 0-.007-.028-.007-.072a.293.293 0 0 1 .018-.102c.009-.014.02-.042.03-.059.007-.016.017-.03.023-.03a.145.145 0 0 0 .042-.023.186.186 0 0 1 .067-.028c.019-.003.037-.01.038-.016.004-.008.004-.371.002-.809-.002-.688-.003-.791-.014-.756Z" fill="#F5F5F5"/><path d="M37.11 33.415c-.027.009-.051.022-.051.028-.002.005-.007.007-.013.005-.003-.004-.008-.002-.008.004 0 .005-.004.007-.01.005-.005-.003-.012.002-.015.01-.004.009-.01.014-.016.014a.266.266 0 0 0-.065.05.278.278 0 0 0-.056.065c0 .005-.007.016-.018.024-.009.005-.016.013-.016.016.002.002-.007.017-.02.032a.898.898 0 0 0-.064.105.565.565 0 0 0-.044.092c-.002.007-.007.017-.01.018a.041.041 0 0 0-.01.02.39.39 0 0 1-.02.053 1.187 1.187 0 0 0-.076.21c-.002.002-.002.007 0 .01 0 .006-.002.008-.008.008a.285.285 0 0 0-.028.074c-.01.039-.02.076-.02.081a2.204 2.204 0 0 0-.08.34c-.009.046-.016.09-.016.098l-.005.121c-.004.06 0 .13.003.155.006.026.013.058.014.07a.331.331 0 0 0 .132.197c.006 0 .011.003.015.005l.031.014a.51.51 0 0 0 .164.007c.025-.005.05-.01.055-.014a.108.108 0 0 1 .026-.01c.01 0 .021-.007.025-.012.003-.008.007-.01.007-.006s.012 0 .026-.009c.016-.01.028-.018.026-.022 0-.006.006-.006.011-.004.004.004.014-.003.021-.016.009-.011.014-.017.014-.011 0 .005.018-.01.04-.034a.345.345 0 0 0 .04-.046c-.002-.003.008-.018.022-.033a.736.736 0 0 0 .067-.103.596.596 0 0 0 .046-.089c.005 0 .012-.01.016-.022a.124.124 0 0 0 .005-.028c-.002-.003.002-.007.007-.007s.007-.004.004-.01c-.002-.005-.002-.01.003-.01a.412.412 0 0 0 .035-.069 3.29 3.29 0 0 0 .145-.42.591.591 0 0 0 .024-.111c-.003-.006-.002-.011.002-.013s.01-.024.014-.05c.005-.024.009-.053.01-.064 0-.01.004-.023.008-.028a2.173 2.173 0 0 0 .035-.3c0-.041-.002-.099-.005-.128a.247.247 0 0 0-.013-.056.049.049 0 0 1-.01-.024.27.27 0 0 0-.027-.064.256.256 0 0 0-.136-.124.455.455 0 0 0-.233.006Z" fill="#FEFEFE"/><path d="M26.303 33.413a.06.06 0 0 1-.014.01l-.01.001a.065.065 0 0 1-.02.006.044.044 0 0 0-.024.014c-.004.008-.01.008-.01.004 0-.005-.004-.004-.01.004a.185.185 0 0 1-.028.024.097.097 0 0 0-.026.027.08.08 0 0 1-.02.026.41.41 0 0 0-.063.172.464.464 0 0 0 .003.11c.006.03.016.062.025.069.007.007.01.017.009.018a.647.647 0 0 0 .11.127c.004 0 .038.032.078.069a.452.452 0 0 0 .076.066c.003-.002.012.008.023.023a.105.105 0 0 0 .033.03c.014.008.016-.014.016-.4v-.407c-.109 0-.144.002-.148.007Z" fill="#E5E5E5"/><path d="M26.453 33.825c0 .273.003.42.01.42a.08.08 0 0 1 .028.02c.013.01.022.023.022.028 0 .006.017.03.04.054.021.024.04.05.04.053 0 .006.008.015.016.019.007.005.013.009.01.009-.006.002 0 .013.01.028a.71.71 0 0 1 .042.08l.026.067.013.08a.715.715 0 0 1-.014.273c.003 0-.01.031-.03.072l-.053.101a.217.217 0 0 1-.034.044c-.01.01-.015.017-.014.017.004 0-.019.026-.049.057a.375.375 0 0 1-.06.056c-.003 0-.007.232-.007.516v.517l.301-.004.006-.893a.505.505 0 0 1-.09-.112.061.061 0 0 0-.01-.026 1.106 1.106 0 0 1 .01-.155c.002-.008.007-.011.012-.011s.005-.004.002-.008c-.004-.003.012-.026.035-.05l.042-.042c-.009-1.175-.01-1.268-.024-1.325a.85.85 0 0 0-.048-.13.56.56 0 0 0-.067-.097c-.02-.016-.04-.031-.047-.031-.007 0-.014-.004-.014-.01 0-.005-.004-.009-.008-.007-.003.002-.014-.002-.024-.007a.187.187 0 0 0-.046-.019l-.028-.005.002.42Z" fill="#E8E8E8"/><path d="M28.134 33.413c-.002.006-.01.01-.02.006-.006-.002-.012.001-.012.007 0 .007-.003.01-.007.005-.003-.003-.017 0-.031.008a.42.42 0 0 0-.057.04c-.017.017-.031.035-.031.043 0 .01-.004.015-.01.015-.004 0-.013.014-.022.033a.58.58 0 0 0-.012.166c0 .074.001.142.003.151.004.01.009.017.014.017.005 0 .009.003.009.01 0 .003.023.032.051.064.03.031.055.057.06.057.003 0 .021.017.04.037.018.022.034.037.036.035.001 0 .047.042.103.098l.1.1c.004-.733.003-.88-.005-.886a.453.453 0 0 0-.105-.013c-.065-.002-.099.002-.104.007Z" fill="#F2F2F2"/><path d="M27.915 33.66a.674.674 0 0 0 .002.175c.002.006.005.012.009.012.003 0 .007-.05.007-.113a.931.931 0 0 0-.004-.112.134.134 0 0 0-.014.038Z" fill="#F0F0F0"/><path d="M32.268 33.946c-.005.008-.007.013-.001.013.003 0-.002.006-.013.015-.01.007-.017.018-.016.022.004.006.002.01-.001.01a.872.872 0 0 0-.076.097c-.037.052-.069.1-.07.105a.051.051 0 0 1-.02.02c-.009.008-.014.017-.012.023.003.005.002.009-.002.009a.682.682 0 0 0-.076.098l-.072.107c0 .003-.008.01-.017.018-.01.006-.014.017-.013.02.004.006 0 .01-.003.01a.28.28 0 0 0-.053.064 3.237 3.237 0 0 0-.05.074c-.005.011.045.013.267.013h.27a8.511 8.511 0 0 1-.014-.482 1.467 1.467 0 0 0-.007-.245c-.005-.004-.014 0-.02.01Z" fill="#FEFEFE"/><path d="M27.63 34.76c0 .364.005.557.01.557s.021.006.035.013a.576.576 0 0 0 .202.007c.013-.001.03-.005.04-.005.013-.002.015-.028.015-.4v-.399a1.245 1.245 0 0 0-.156-.144.279.279 0 0 0-.053-.074 1.422 1.422 0 0 1-.06-.072c-.012-.016-.021-.031-.02-.035.002-.002 0-.005-.006-.005-.008 0-.01.136-.008.557Z" fill="#F0F0F0"/><path d="M26.027 34.904c0 .284.004.435.01.435a.306.306 0 0 0 .048-.009c.023-.003.04-.013.04-.018 0-.006.006-.008.01-.004.005.002.008 0 .008-.005 0-.006.006-.008.011-.004a.343.343 0 0 0 .076-.067.545.545 0 0 0 .067-.079l.001-.017a.057.057 0 0 1 .015-.018.333.333 0 0 0 .026-.066.58.58 0 0 0 .014-.111.252.252 0 0 0-.027-.114.201.201 0 0 0-.031-.06c-.004 0-.007-.007-.007-.014 0-.008-.004-.013-.009-.013-.005 0-.009-.008-.009-.015a.769.769 0 0 0-.104-.124 1.19 1.19 0 0 0-.114-.112c-.005 0-.01-.004-.01-.011 0-.006-.004-.011-.008-.011-.003 0-.007.197-.007.437Z" fill="#E5E5E5"/><path d="M27.932 34.924c0 .218.001.397.003.397a.117.117 0 0 0 .034-.015.128.128 0 0 0 .037-.026c.003-.005.007-.007.007-.003 0 .003.019-.013.042-.037a.827.827 0 0 0 .069-.083.309.309 0 0 0 .026-.052l.014-.042a.318.318 0 0 0 .016-.089.3.3 0 0 0-.007-.107c-.007-.024-.016-.044-.02-.044-.003 0-.005-.004-.001-.01.001-.003 0-.009-.006-.009-.005 0-.007-.002-.003-.007.002-.004-.005-.017-.014-.028-.01-.01-.014-.022-.01-.026.003-.001-.003-.005-.01-.009-.008-.002-.015-.01-.015-.018 0-.008-.01-.02-.02-.026-.009-.007-.016-.015-.012-.017a.457.457 0 0 0-.064-.075l-.066-.07v.396Z" fill="#F2F2F2"/><path d="M26.795 35.02c-.02.01-.049.03-.065.044a.257.257 0 0 0-.053.074.25.25 0 0 0-.02.104c0 .035.006.07.017.094.009.02.028.048.042.062.014.015.04.032.06.041a.227.227 0 0 0 .164-.004.263.263 0 0 0 .122-.12.214.214 0 0 0 .02-.101.185.185 0 0 0-.02-.094.276.276 0 0 0-.043-.063.194.194 0 0 0-.06-.04.254.254 0 0 0-.08-.015.246.246 0 0 0-.084.018Zm1.94-.007a.245.245 0 0 0-.115.092.287.287 0 0 0-.031.067.31.31 0 0 0-.01.07c0 .02.005.053.011.073.006.02.023.052.038.07a.23.23 0 0 0 .063.05.23.23 0 0 0 .18-.003.292.292 0 0 0 .079-.065.36.36 0 0 0 .047-.083.316.316 0 0 0 .012-.07.298.298 0 0 0-.008-.065.274.274 0 0 0-.043-.074.263.263 0 0 0-.07-.055.187.187 0 0 0-.081-.016.264.264 0 0 0-.072.009Z" fill="#15366F"/><path d="M28.332 35.273c-.01.011-.022.02-.026.02a.122.122 0 0 0-.039.028.122.122 0 0 1-.047.033c-.01.002-.018.01-.018.015 0 .005-.003.007-.009.004-.005-.002-.008 0-.008.005 0 .006-.004.01-.007.008a.175.175 0 0 0-.032.005c-.014.002-.025.01-.025.013 0 .004-.005.007-.01.007a.62.62 0 0 0-.076.017c-.033.007-.07.017-.08.018-.017.002-.018.012-.022.447l-.005.443c.368 0 .419-.002.422-.011.002-.008.004-.251.002-.543l-.002-.531-.018.022Z" fill="#F2F2F2"/><path d="M26.425 35.328a.087.087 0 0 1-.035.024c-.013.004-.022.013-.022.019 0 .007-.001.009-.007.005-.003-.003-.02 0-.037.01a.456.456 0 0 1-.086.035l-.067.018-.072.01-.067.007c-.007-.002-.009.15-.009.439v.44h.426c0-.793-.001-1.023-.005-1.023a.077.077 0 0 0-.02.016Z" fill="#E5E5E5"/><path d="M27.323 35.347c-.01.002-.019.007-.019.013 0 .003-.007.009-.014.009s-.014.004-.014.01c0 .005-.007.018-.018.029-.008.013-.016.026-.012.03.002.003 0 .005-.005.005-.006 0-.007.004-.006.007.002.004-.007.008-.017.006l-.023-.002-.004.882h.435c0-.814-.002-.912-.01-.912a.406.406 0 0 1-.07-.018c-.032-.011-.062-.022-.068-.022a.5.5 0 0 1-.044-.019.293.293 0 0 0-.063-.02.13.13 0 0 0-.048.002Z" fill="#EDEDED"/><path d="m25.578 35.847-.004.489.45-.004v-.874a4.137 4.137 0 0 1-.19-.017 1.564 1.564 0 0 1-.135-.043 2.298 2.298 0 0 0-.114-.038c-.004 0-.006.22-.007.487Z" fill="#E2E2E2"/><path d="m29.385 35.87-.002.466h.296l-.01-.925-.28-.005-.004.465Z" fill="#FCFCFC"/><path d="m27.627 35.884-.002.452.301-.004.005-.884a.632.632 0 0 1-.146.004 1.47 1.47 0 0 1-.125-.013l-.032-.007-.001.452Z" fill="#F0F0F0"/><path d="m27.55 36.334-2.132.002c0 4.964.002 5.035.018 5.185a10.554 10.554 0 0 0 .086.607c.017.098.039.22.05.271l.022.118c.003.013.026.118.054.235.029.116.074.293.103.395.03.101.077.26.107.352a11.975 11.975 0 0 0 .22.596 11.306 11.306 0 0 0 .341.729 10.59 10.59 0 0 0 .344.581c.066.104.17.257.23.34.06.08.167.223.24.313.072.09.184.224.248.297.065.073.191.207.281.301.092.093.215.212.273.268l.217.194a8.91 8.91 0 0 0 .686.53c.116.08.273.185.347.232a10.598 10.598 0 0 0 .565.324 8.208 8.208 0 0 0 1.626.654l.116.031c.208-.068.364-.122.48-.164a9.273 9.273 0 0 0 1.181-.515 9.85 9.85 0 0 0 .377-.203l.266-.16a9.592 9.592 0 0 0 .898-.655c.08-.07.205-.18.278-.246a9.526 9.526 0 0 0 .686-.727c.074-.09.178-.221.23-.292.053-.07.141-.193.2-.276a8.698 8.698 0 0 0 .336-.541 7.249 7.249 0 0 0 .288-.56c.044-.091.108-.233.141-.313.033-.081.086-.216.118-.3a10.018 10.018 0 0 0 .224-.686c.026-.097.061-.235.08-.311.018-.076.048-.214.067-.31.02-.096.044-.238.058-.316.013-.077.03-.204.04-.286.01-.079.026-.217.034-.304.014-.146.016-.395.018-2.779l.003-2.618c-6.135.003-8.875.005-10.046.007Z" fill="#15366F"/><path d="M29.566 42.172c0 3.045.004 5.54.007 5.545.004.008.048.035.097.067.05.03.16.09.245.136a1.064 1.064 0 0 0 .162.08c.003.005.07.042.15.079a9.528 9.528 0 0 0 .638.267c.074.028.185.067.247.089.061.02.123.039.137.04.012 0 .025.006.025.01s.005.005.012.002c.009-.002.014-.002.014.002 0 .005.005.009.01.009.008.002.041.01.076.022.034.01.065.016.069.013.003-.002.007 0 .009.003.001.006.031.015.065.024.035.008.068.012.077.006.007-.004.081-.028.166-.052a2.857 2.857 0 0 0 .264-.085c.008-.001.049-.014.093-.029a.28.28 0 0 0 .077-.033c0-.004.004-.006.007-.004a.362.362 0 0 0 .108-.037.3.3 0 0 0 .053-.018.233.233 0 0 1 .04-.017c.002-.002.03-.011.062-.024a.258.258 0 0 0 .063-.031c.004-.006.007-.008.012-.008l.029-.003c.012-.004.022-.01.022-.015 0-.006.004-.01.007-.008a.175.175 0 0 0 .032-.005c.012-.004.023-.011.023-.018 0-.006.003-.008.007-.004s.016.002.025-.006a.164.164 0 0 1 .023-.01.507.507 0 0 0 .056-.025c.028-.013.05-.027.05-.033 0-.004.003-.005.006-.002.002.004.032-.005.065-.022a.261.261 0 0 0 .067-.039c.004-.007.007-.009.007-.003 0 .003.058-.024.129-.061a1.08 1.08 0 0 0 .14-.081c0 .003.032-.011.073-.034a.367.367 0 0 0 .072-.044.643.643 0 0 0 .116-.063l.123-.074.03-.018V36.637h-4.087v5.535Z" fill="#FEFEFE"/><path d="M33.653 42.147c0 5.242 0 5.508.016 5.504.009-.004.07-.04.138-.083.065-.043.198-.131.295-.2a7.01 7.01 0 0 0 .458-.345c.032-.027.093-.077.135-.114.04-.037.125-.11.183-.164a10.318 10.318 0 0 0 .648-.677 6.655 6.655 0 0 0 .558-.766c.05-.078.118-.188.151-.25a6.532 6.532 0 0 0 .532-1.107c.035-.09.088-.236.118-.324l.093-.301a7.854 7.854 0 0 0 .208-.888c.012-.07.031-.203.045-.295.013-.094.03-.234.037-.315.014-.133.016-.364.018-2.665l.004-2.52h-3.637v5.51Zm-7.928-3.099c0 2.334 0 2.407.017 2.558a9.388 9.388 0 0 0 .132.836c.016.085.051.238.074.337a9.046 9.046 0 0 0 .315 1.024c.02.056.06.156.086.222.029.066.09.207.138.31.047.103.116.245.153.316.037.068.102.19.146.267.044.078.127.212.181.3.056.087.143.218.194.29.05.074.132.183.177.246a7.997 7.997 0 0 0 1.537 1.51c.067.05.181.129.252.178l.283.185c.084.051.155.094.157.094.003 0 .003-2.491.003-5.538l-.003-5.537h-3.842v2.402Z" fill="#85D8F8"/><path d="M25.577 44.22c-.002 1.624-.002 1.722.012 1.752.01.016.021.031.025.031.005 0 .009.004.007.008 0 .003.028.057.065.118.037.06.07.108.074.108.003 0 .005.004.003.01-.003.005.002.013.011.018.009.006.012.01.009.01-.004 0 .009.023.028.055.02.03.04.06.05.07.008.01.013.02.013.026 0 .005.008.013.016.018.01.004.014.01.009.01-.004 0 .007.018.023.042.016.024.032.042.037.042.003 0 .003.004.002.008-.002.003.008.02.023.037a.128.128 0 0 1 .026.04c0 .004.003.01.009.01.005 0 .01-.449.01-1.324.002-.847 0-1.33-.005-1.345a.093.093 0 0 0-.02-.031c-.003-.004-.005-.006-.001-.006.003 0 0-.02-.01-.046a1.885 1.885 0 0 0-.032-.081.477.477 0 0 1-.02-.054.212.212 0 0 0-.014-.038.2.2 0 0 1-.014-.037.18.18 0 0 0-.018-.052 1.003 1.003 0 0 0-.015-.044c-.002-.006-.023-.078-.05-.16a2.412 2.412 0 0 0-.052-.16.24.24 0 0 1-.007-.029.21.21 0 0 0-.013-.046.29.29 0 0 1-.014-.042c0-.008-.02-.078-.038-.155a7.182 7.182 0 0 1-.06-.24 1.555 1.555 0 0 0-.029-.113c-.003-.007-.005-.017-.003-.02a.331.331 0 0 0-.012-.052.197.197 0 0 1-.01-.052c0-.005 0-.007-.005-.007s-.008.75-.01 1.722Z" fill="#E2E2E2"/><path d="m26.025 45.317-.002 1.319c.037.063.053.081.058.081.006 0 .008.002.006.006-.004.003.01.024.028.046.018.02.032.039.032.04-.002.004.012.024.031.047.018.02.032.04.032.04a.188.188 0 0 0 .035.048c.021.024.037.046.037.046a.22.22 0 0 0 .039.052.323.323 0 0 1 .04.052c-.001.001.01.014.023.027a.203.203 0 0 1 .034.04c.005.01.014.02.02.021.01.004.011-.23.013-1.144l.002-1.15a1.08 1.08 0 0 0-.083-.143c.004-.002-.007-.03-.026-.065a.265.265 0 0 0-.04-.066c-.004 0-.006-.006-.002-.011.001-.006 0-.01-.006-.01-.005 0-.007-.003-.003-.009.002-.006 0-.01-.006-.01-.005 0-.007-.003-.003-.008.002-.006 0-.01-.005-.01-.006 0-.007-.005-.006-.009.004-.005 0-.015-.005-.022-.007-.007-.014-.018-.014-.026a.042.042 0 0 0-.014-.02c-.005-.004-.007-.008-.004-.008a.389.389 0 0 0-.035-.092.501.501 0 0 0-.056-.105.171.171 0 0 0-.014-.048c-.01-.022-.021-.044-.027-.046-.003-.002-.007-.007-.005-.011a.16.16 0 0 0-.005-.031c-.002-.013-.009-.024-.014-.024-.005 0-.009-.002-.005-.004.003-.004 0-.02-.01-.04a.376.376 0 0 0-.026-.054c-.01-.017-.012.171-.014 1.3Z" fill="#E5E5E5"/><path d="M26.449 46.051c-.004 1.083-.002 1.148.012 1.157.009.006.014.013.013.015a.49.49 0 0 0 .066.085c.04.044.073.083.073.084a.3.3 0 0 0 .042.048.375.375 0 0 1 .05.061.24.24 0 0 0 .03.032l.022.014c-.002-1.78.002-2.127.009-2.129.003-.002-.004-.017-.02-.033-.014-.017-.024-.031-.02-.031a.298.298 0 0 0-.034-.058.313.313 0 0 0-.046-.062c-.004 0-.007-.008-.007-.015 0-.01-.004-.015-.009-.015-.005 0-.009-.004-.007-.007a.264.264 0 0 0-.028-.061.216.216 0 0 0-.039-.054c-.003 0-.005-.003-.003-.007.003-.004-.004-.019-.014-.031a.072.072 0 0 1-.02-.026c.002 0-.009-.022-.02-.05a.155.155 0 0 0-.033-.046c-.003 0-.005-.004-.003-.01.002-.005 0-.009-.005-.009-.004 0-.01.504-.01 1.148Z" fill="#E8E8E8"/><path d="m26.756 46.485-.004 1.066c.296.31.385.4.389.4.003 0 .016.012.028.025l.023.022c.003-1.687.002-1.982-.005-1.986-.006-.004-.01-.009-.01-.014a.39.39 0 0 0-.047-.069.349.349 0 0 0-.052-.059c-.004 0-.006-.002-.004-.005.003-.006-.01-.026-.028-.048a.162.162 0 0 1-.032-.043.162.162 0 0 0-.026-.037c-.016-.018-.028-.035-.028-.035a1.061 1.061 0 0 0-.123-.172.216.216 0 0 0-.025-.046c-.013-.02-.027-.036-.032-.036-.003 0-.005-.004-.005-.01a.02.02 0 0 0-.009-.016c-.003-.002-.009.457-.01 1.063Z" fill="#EAEAEA"/><path d="M27.195 47.005c0 .788-.001.987-.01.983-.005-.003.005.012.025.034.019.02.038.038.042.038.003 0 .024.019.046.043.02.022.042.042.049.042.005-.001.012.004.016.011a2.003 2.003 0 0 0 .224.203c.003 0 .013.011.022.023l.02.02-.002-1.888a5.19 5.19 0 0 1-.233-.258c0-.002-.028-.033-.061-.07a.469.469 0 0 1-.058-.074c.002-.004-.01-.017-.025-.03-.014-.013-.025-.024-.023-.025.004-.002-.003-.012-.014-.023l-.018-.018v.989Z" fill="#EDEDED"/><path d="M27.627 47.459v.943a.49.49 0 0 0 .107.083c.005-.002.009 0 .007.004 0 .005.025.027.055.051.03.026.056.045.058.043.003 0 .01.007.02.02.006.011.017.018.02.015.006-.002.01 0 .01.005 0 .006.006.013.015.019.016.007.016-.039.012-.908-.005-.871-.005-.917-.02-.928a2.415 2.415 0 0 1-.15-.151l-.136-.14.002.944Z" fill="#F0F0F0"/><path d="M27.932 47.73c0 .895 0 .908.019.93.009.013.018.02.018.015 0-.005.007 0 .014.011.007.013.019.022.026.022.007 0 .016.006.018.013.003.01.008.013.014.011.005-.004.009-.002.009.002s.017.02.038.037c.021.015.04.03.044.03.004 0 .021.012.037.029.016.015.032.026.035.024.004-.004.008-.002.008.002 0 .003.03.03.066.057.037.026.07.048.073.048.001 0 .005-.393.005-.873v-.874a2.116 2.116 0 0 0-.095-.093.224.224 0 0 0-.057-.044c-.001.004-.012-.007-.024-.022-.012-.017-.027-.028-.032-.028-.005 0-.021-.016-.037-.033a.167.167 0 0 0-.032-.03c-.001.004-.017-.01-.037-.033a.161.161 0 0 0-.04-.037.144.144 0 0 1-.039-.035l-.031-.035v.906Z" fill="#F2F2F2"/><path d="M28.355 48.092v.878c.034.022.044.026.044.022 0-.003.006 0 .01.01.005.009.013.014.017.01.005-.001.012.002.014.01.002.01.009.013.014.01.005-.003.01 0 .012.01.004.008.01.011.014.01.006-.004.011.001.014.009.002.007.01.01.013.009.005-.004.009-.002.009.002 0 .003.061.048.137.097.076.052.14.093.144.093.004 0 .007-.384.007-.855v-.854c-.042-.03-.054-.037-.054-.033 0 .002-.013-.008-.03-.024-.016-.015-.032-.026-.035-.022-.004.002-.008 0-.008-.004a.306.306 0 0 0-.09-.072c-.001.002-.008-.006-.015-.017-.005-.009-.014-.014-.02-.013-.005.004-.008.002-.008-.001a.398.398 0 0 0-.102-.085.404.404 0 0 1-.04-.035c-.018-.019-.036-.033-.041-.033-.004 0-.006.396-.006.878Z" fill="#F5F5F5"/><path d="m28.803 48.413.002.858c.086.053.116.068.12.07.005 0 .017.008.027.017.01.009.021.015.025.013.003-.004.007-.002.007.002 0 .003.012.014.026.024.014.009.027.012.027.01 0-.001.009.004.02.015.012.01.024.019.027.019.004 0 .007-.38.007-.844v-.843c-.045-.03-.061-.037-.065-.035-.003.002-.007 0-.007-.005 0-.004-.016-.019-.035-.032-.02-.015-.037-.024-.037-.02 0 .005-.003 0-.009-.01-.005-.008-.012-.012-.017-.01-.006.002-.01.002-.01-.004a.282.282 0 0 0-.056-.046l-.052-.039v.86Z" fill="#F8F8F8"/><path d="M29.09 48.605c0 .56.003.843.009.84.005-.002.008 0 .008.003 0 .004.011.013.025.02.014.008.028.013.032.011.003 0 .007.004.007.008 0 .005.003.007.009.005.005-.001.01-.001.01.002.002.006.023.02.046.034.023.014.042.022.042.018s.004-.002.007.004a.21.21 0 0 0 .055.035l.046.026c0-1.392-.002-1.672-.01-1.669-.005.002-.008.002-.008-.001 0-.004-.014-.017-.034-.028a.174.174 0 0 0-.042-.02c-.005 0-.012-.004-.014-.01a.147.147 0 0 0-.042-.033c-.021-.015-.04-.022-.044-.018-.002.003-.004.002-.004-.004 0-.007-.012-.018-.026-.026a.118.118 0 0 0-.033-.015c-.004.002-.011-.005-.015-.012-.003-.01-.01-.015-.015-.015-.006 0-.01.288-.01.845Z" fill="#FAFAFA"/><path d="M29.387 48.78v.834c.042.019.058.024.061.026.004 0 .01.008.018.013.005.007.016.011.02.01.005-.005.01-.003.01.003s.003.007.009.006c.003-.004.008-.002.008.003 0 .006.004.008.01.006.005-.004.008-.002.008.003 0 .006.004.008.009.006.005-.004.009 0 .009.004 0 .005.003.007.008.005.006-.002.01 0 .01.004 0 .005.005.007.008.005.005-.002.009 0 .009.008 0 .005.002.007.005.003.002-.003.01 0 .018.008.009.007.017.013.023.009.005-.002.008 0 .008.006 0 .005.004.007.01.003.005-.002.008 0 .008.006 0 .005.005.007.009.004.007-.002.01-.287.01-.824v-.819c-.07-.04-.09-.05-.091-.046a.664.664 0 0 0-.1-.066 1.33 1.33 0 0 0-.092-.054c-.003 0-.005.377-.005.834Z" fill="#FCFCFC"/></g><defs><clipPath id="a"><path fill="#fff" d="M0 0h64v64H0z"/></clipPath><filter id="b" x="5" y="6" width="53" height="54" filterUnits="userSpaceOnUse" color-interpolation-filters="sRGB"><feFlood flood-opacity="0" result="BackgroundImageFix"/><feColorMatrix in="SourceAlpha" values="0 0 0 0 0 0 0 0 0 0 0 0 0 0 0 0 0 0 127 0" result="hardAlpha"/><feOffset dx="-1" dy="1"/><feColorMatrix values="0 0 0 0 1 0 0 0 0 1 0 0 0 0 1 0 0 0 0.32 0"/><feBlend in2="BackgroundImageFix" result="effect1_dropShadow_7276_154908"/><feBlend in="SourceGraphic" in2="effect1_dropShadow_7276_154908" result="shape"/><feColorMatrix in="SourceAlpha" values="0 0 0 0 0 0 0 0 0 0 0 0 0 0 0 0 0 0 127 0" result="hardAlpha"/><feOffset dx="-1" dy="2"/><feGaussianBlur stdDeviation="1"/><feComposite in2="hardAlpha" operator="arithmetic" k2="-1" k3="1"/><feColorMatrix values="0 0 0 0 0 0 0 0 0 0 0 0 0 0 0 0 0 0 0.16 0"/><feBlend in2="shape" result="effect2_innerShadow_7276_154908"/></filter></defs></svg>