<svg xmlns="http://www.w3.org/2000/svg" viewBox="0 0 64 64"><defs><style>.a{fill:#0c164b}.e{fill:#2bbdf7}.e,.f,.g{fill-rule:evenodd}.f{fill:#2891f9}.g{fill:#2b6def}</style></defs><path class="a" d="M63.05 39.74A32 32 0 1139.74 1a32 32 0 0123.31 38.74z"/><path d="M3.87 25h0A29 29 0 0139 3.87h0A29 29 0 113.87 25z" fill="none" stroke="#fff" stroke-opacity=".24" stroke-width="6"/><path d="M62.09 21.13l-61.68 16a32 32 0 0161.68-16z" fill="#fff" opacity=".3"/><path class="a" d="M57.22 38.29A26 26 0 1138.29 6.78a26 26 0 0118.93 31.51z"/><path class="e" d="M27.94 29.64l4 8.81 6-3.41v-6.82z"/><path class="f" d="M45.68 23.11L42 21.72l-4-.31v21.18l6 3.4 4.73-9.55-3-9.23z"/><path class="e" d="M45.31 21.41l-1.39 3.41V46l6-3.41V21.41z"/><path class="g" d="M44 18l-6 3.41 6 3.41 6-3.41z"/><path class="f" d="M32 31.63L26 25l-12-3.6v21.18L20 46l1.7-11.73L26 35l6 3.4v-6.77z"/><path class="g" d="M20 18l-6 3.41 18 10.22 2.71-1.54 3.27-1.86z"/><path class="e" d="M20 31.63V46l6-3.41V35z"/></svg>