<svg width="65" height="64" viewBox="0 0 65 64" fill="none" xmlns="http://www.w3.org/2000/svg">
    <path d="M63.0461 39.741C58.7716 56.884 41.4068 67.317 24.26 63.042C7.12012 58.768 -3.31399 41.404 0.962469 24.262C5.23492 7.11699 22.5998 -3.31701 39.7416 0.956985C56.8874 5.23099 67.3205 22.597 63.0461 39.741Z" fill="white"/>
    <path d="M3.87326 24.9881L3.87345 24.9874C7.74523 9.45025 23.4818 -0.00526497 39.0158 3.86787L39.016 3.86791C54.5539 7.7411 64.0089 23.4787 60.1352 39.0152C56.2617 54.5502 40.5252 64.0054 24.9857 60.1311C9.45344 56.2579 -0.00205249 40.5222 3.87326 24.9881Z" stroke="white" stroke-opacity="0.24" stroke-width="6"/>
    <g style="mix-blend-mode:screen" opacity="0.3">
        <path d="M62.0911 21.1272L0.412762 37.1302C-0.264382 32.9715 -0.12597 28.6099 0.958563 24.2626C5.23102 7.1176 22.5959 -3.3164 39.7377 0.957596C50.4776 3.63476 58.5837 11.4487 62.0911 21.1272Z" fill="white"/>
    </g>
    <g filter="url(#filter0_di)">
        <path d="M57.2218 38.2896C53.7488 52.2181 39.6398 60.6949 25.708 57.2215C11.7819 53.7489 3.30421 39.6408 6.77883 25.713C10.2502 11.7829 24.3591 3.30533 38.2869 6.77792C52.2179 10.2505 60.6948 24.3602 57.2218 38.2896Z" fill="#E8E8E8"/>
    </g>
    <path d="M16.1666 26.5857C13.496 27.5512 11.7909 30.8586 12.4072 33.9401C12.7154 35.4808 13.0646 36.1998 14.0301 37.2065C15.3038 38.5828 16.1255 38.891 18.3647 38.891C20.152 38.891 20.419 38.8294 21.4051 38.2952C23.2334 37.2681 24.24 35.6452 24.466 33.3444C24.7536 30.1807 22.9253 27.2225 20.2341 26.4624C19.1864 26.1748 17.1732 26.2364 16.1666 26.5857ZM20.6655 29.1536C21.8776 30.0369 22.4939 32.0707 22.0625 33.8579C21.2408 37.3092 16.7007 37.9871 15.1394 34.8851C14.1945 33.0362 14.6875 30.1396 16.1255 29.133C17.317 28.2702 19.433 28.2907 20.6655 29.1536Z" fill="black"/>
    <path d="M43.9614 26.6679C40.0993 28.2086 39.0105 33.899 41.9276 37.3503C43.5094 39.2402 47.2483 39.5895 48.9123 37.9871L49.3642 37.5557L49.4259 38.1309C49.4875 38.6445 49.5491 38.6856 50.5146 38.6856H51.5418L51.6034 35.4398L51.6651 32.2145H48.7685H45.8924V33.2417V34.2688H47.6386C49.5286 34.2688 49.5902 34.3099 49.0561 35.4192C48.6863 36.1793 47.3715 36.9394 46.3855 36.9394C44.023 36.9394 42.6055 35.2754 42.6055 32.5843C42.6261 29.6055 44.5366 27.9004 47.1456 28.5167C48.1522 28.7633 49.1793 29.6466 49.1793 30.2834C49.1793 30.4889 49.4875 30.571 50.4119 30.571H51.624L51.3364 29.6466C50.6995 27.4896 49.1177 26.4008 46.5087 26.3186C45.3583 26.2775 44.7215 26.3597 43.9614 26.6679Z" fill="black"/>
    <path d="M26.1711 32.6253V38.7883H27.1983H28.2255L28.2665 34.6386L28.3282 30.4683L29.8484 34.6386L31.3686 38.8088L32.3957 38.7472L33.4229 38.6855L34.9225 34.5769L36.4222 30.4683L36.4838 34.5769L36.5454 38.6855L37.6342 38.7472L38.7024 38.8088L38.6614 32.687L38.5997 26.5651H37.1823H35.7442L34.1008 31.1257C33.1969 33.6525 32.3957 35.6452 32.3341 35.5425C32.2519 35.4603 31.5124 33.5087 30.6906 31.1873C29.8689 28.8659 29.0883 26.8527 28.9855 26.7089C28.8623 26.5651 28.2871 26.4624 27.4859 26.4624H26.1711V32.6253Z" fill="black"/>
    <defs>
        <filter id="filter0_di" x="5" y="5.99988" width="53" height="54" filterUnits="userSpaceOnUse" color-interpolation-filters="sRGB">
            <feFlood flood-opacity="0" result="BackgroundImageFix"/>
            <feColorMatrix in="SourceAlpha" type="matrix" values="0 0 0 0 0 0 0 0 0 0 0 0 0 0 0 0 0 0 127 0"/>
            <feOffset dx="-1" dy="1"/>
            <feColorMatrix type="matrix" values="0 0 0 0 1 0 0 0 0 1 0 0 0 0 1 0 0 0 0.32 0"/>
            <feBlend mode="normal" in2="BackgroundImageFix" result="effect1_dropShadow"/>
            <feBlend mode="normal" in="SourceGraphic" in2="effect1_dropShadow" result="shape"/>
            <feColorMatrix in="SourceAlpha" type="matrix" values="0 0 0 0 0 0 0 0 0 0 0 0 0 0 0 0 0 0 127 0" result="hardAlpha"/>
            <feOffset dx="-1" dy="2"/>
            <feGaussianBlur stdDeviation="1"/>
            <feComposite in2="hardAlpha" operator="arithmetic" k2="-1" k3="1"/>
            <feColorMatrix type="matrix" values="0 0 0 0 0 0 0 0 0 0 0 0 0 0 0 0 0 0 0.16 0"/>
            <feBlend mode="normal" in2="shape" result="effect2_innerShadow"/>
        </filter>
    </defs>
</svg>
