<svg xmlns="http://www.w3.org/2000/svg" viewBox="0 0 64 64"><defs><style>.a{fill:#7d41f5}.d{fill:#fff}</style></defs><path class="a" d="M63.05 39.74A32 32 0 1139.74 1a32 32 0 0123.31 38.74z"/><path d="M3.87 25h0A29 29 0 0139 3.87h0A29 29 0 113.87 25z" fill="none" stroke="#fff" stroke-opacity=".24" stroke-width="6"/><path class="d" d="M62.09 21.13l-61.68 16a32 32 0 0161.68-16z" opacity=".3"/><path class="a" d="M57.22 38.29A26 26 0 1138.29 6.78a26 26 0 0118.93 31.51z"/><path class="d" d="M14 32v-9.4a1.83 1.83 0 01.9-1.6l8-4.78a1.83 1.83 0 011.85 0L33 21a1.84 1.84 0 01.91 1.58V26l-3.56 2v-3.2a1.83 1.83 0 00-.89-1.57l-4.62-2.8a1.8 1.8 0 00-1.86 0L18.52 23a1.84 1.84 0 00-.91 1.59v5.32a1.83 1.83 0 00.88 1.57l4.44 2.69a1.82 1.82 0 001.87 0l14.37-8.46a1.83 1.83 0 011.84 0l8.08 4.69A1.86 1.86 0 0150 32v9.48a1.84 1.84 0 01-.91 1.59L41 47.76a1.86 1.86 0 01-1.84 0l-8-4.67a1.83 1.83 0 01-.9-1.58v-3.39l3.6-2.12v3.36a1.83 1.83 0 00.9 1.58l4.41 2.61a1.81 1.81 0 001.84 0l4.5-2.55a1.84 1.84 0 00.91-1.59v-5.29a1.84 1.84 0 00-.91-1.58L41 29.89a1.83 1.83 0 00-1.84 0l-14.38 8.36a1.82 1.82 0 01-1.83 0l-8-4.65A1.86 1.86 0 0114 32z"/></svg>