<svg width="65" height="64" fill="none" xmlns="http://www.w3.org/2000/svg"><path d="M63.046 39.741c-4.274 17.143-21.64 27.576-38.786 23.301C7.12 58.768-3.314 41.404.962 24.262 5.235 7.117 22.6-3.317 39.742.957c17.145 4.274 27.578 21.64 23.304 38.784Z" fill="#F00500"/><path d="M3.873 24.988C7.745 9.45 23.482-.006 39.016 3.867c15.538 3.873 24.993 19.61 21.12 35.147-3.874 15.535-19.61 24.99-35.15 21.116C9.453 56.258-.002 40.522 3.873 24.988Z" stroke="#fff" stroke-opacity=".24" stroke-width="6"/><path d="M62.091 21.127.413 37.13a31.878 31.878 0 0 1 .546-12.867C5.23 7.118 22.596-3.317 39.738.958c10.74 2.677 18.846 10.49 22.353 20.17Z" fill="#fff" style="mix-blend-mode:screen" opacity=".3"/><g filter="url(#a)"><path d="M57.222 38.29C53.749 52.218 39.64 60.695 25.708 57.22 11.782 53.75 3.304 39.642 6.778 25.713 10.25 11.783 24.36 3.305 38.288 6.778 52.217 10.25 60.695 24.36 57.222 38.29Z" fill="#F00500"/></g><g clip-path="url(#b)"><path d="M40.786 17.255a23.561 23.561 0 0 0-2.6 3.084l-.245-.08a17.795 17.795 0 0 0-4.356-.844c-.444-.034-2.104-.034-2.645 0-1.636.109-2.89.354-4.316.85-.057.023-.108.04-.16.057a23.204 23.204 0 0 0-2.685-3.062 18.665 18.665 0 0 1 16.779-.12l.228.115ZM49.61 38.879a17.8 17.8 0 0 1-3.192 5.599 19.84 19.84 0 0 1-2.497 2.445 18.422 18.422 0 0 1-7.2 3.552c-2.908.701-5.94.701-8.848 0a18.384 18.384 0 0 1-7.2-3.552 19.846 19.846 0 0 1-2.498-2.446 17.595 17.595 0 0 1-3.193-17.148 18.623 18.623 0 0 1 1.454-3.136c.268-.456.599-.97.759-1.18a59.055 59.055 0 0 0 1.47 5.17c-.017.04-.04.086-.062.126-1.329 2.691-2.047 5.285-2.218 8.044 0 .035-.006.075-.006.109-.045.826-.023 1.22.114 1.739.428 1.624 1.745 3.414 3.809 5.17 3.38 2.874 7.964 4.949 11.436 5.188 3.62.246 8.962-1.87 12.52-4.96a17.886 17.886 0 0 0 1.573-1.579c.353-.41.878-1.117.838-1.117-.011 0 0-.011.023-.023.017-.011.034-.028.023-.04-.006-.006.005-.023.022-.028.018-.006.029-.017.023-.029-.005-.011 0-.023.023-.028.017-.006.023-.023.017-.035-.005-.01 0-.022.012-.022.011 0 .022-.017.022-.029 0-.011.012-.028.023-.028a.025.025 0 0 0 .023-.023.596.596 0 0 1 .074-.131c.086-.131.428-.741.473-.844.325-.736.53-1.391.627-2.047.046-.313.075-.89.052-1.026-.006-.023-.006-.063-.012-.125-.011-.114-.017-.285-.028-.456a19.282 19.282 0 0 0-.052-.793c-.245-2.588-.906-4.703-2.16-6.944a1.978 1.978 0 0 1-.126-.24c-.011-.016-.017-.033-.022-.045.176-.53.9-2.748 1.476-5.285l.012.012.085.114c.148.2.542.792.718 1.077a17.946 17.946 0 0 1 1.876 4.19 17.79 17.79 0 0 1-.262 10.804Z" fill="#F00500"/><path d="M42.21 32.066c-.017.091-.285.365-.553.564-.786.576-2.195 1.112-3.626 1.368-.815.149-1.63.172-1.875.052-.16-.08-.183-.143-.126-.348.12-.427.508-.895 1.112-1.334.308-.222 1.556-.98 2.138-1.3.958-.524 1.733-.838 2.258-.912.165-.023.364-.028.427 0 .103.04.217.342.262.707.023.194.012 1.049-.017 1.203ZM28.78 33.953c-.034.069-.205.143-.4.171-.193.029-.786.011-1.122-.028-1.209-.16-2.492-.53-3.427-.987-.524-.256-.9-.513-1.18-.792l-.16-.166-.017-.216c-.028-.376-.022-.97.023-1.18.029-.177.091-.348.177-.502.046-.057.046-.057.25-.057.252 0 .463.04.805.148.7.217 1.744.741 3.016 1.505 1.049.628 1.442.935 1.744 1.357.205.262.342.633.29.747ZM36.853 41.89c0 .016-.069.29-.154.615-.086.325-.154.587-.154.598-.063.006-.12.012-.182.006h-.183l-.25.593c-.138.325-.263.627-.28.673l-.034.08-.12-.194-.12-.194v-1.58l-.045.012c-.097.023-.787.114-1.09.143a15.53 15.53 0 0 1-3.745-.08c-.2-.029-.37-.051-.376-.046-.006.006 0 .37.011.821l.017.81-.096.148c-.052.08-.103.148-.103.154-.017.017-.074-.074-.205-.336a3.853 3.853 0 0 1-.32-.867l-.04-.165-.176.011-.177.017-.046-.21a6.026 6.026 0 0 1-.062-.388l-.017-.183-.149-.13a5.185 5.185 0 0 0-.188-.16c-.028-.023-.04-.063-.04-.097v-.069l.713.006.713.005.022.075.023.074.245.011c.137.006.57.017.958.029l.713.017.182-.285.188-.285h.24l-.006-.593-.006-.593-.313-.137c-1.01-.445-1.602-.952-1.825-1.568-.045-.125-.045-.17-.057-.741-.005-.564-.005-.616.035-.741a.829.829 0 0 1 .587-.582c.097-.028.353-.028 1.699-.028l1.585.006.176.085c.211.103.308.177.428.337.137.182.177.324.177.672 0 .496-.035.924-.086 1.095a2.362 2.362 0 0 1-.33.655c-.286.365-.804.73-1.278.895l-.136.052.005.598.006.599.126.011.125.012.171.256.165.257h.764c.422 0 .793.006.827.011.057.012.068.006.125-.09l.069-.104h.655c.49-.022.639-.01.639.006Z" fill="#000"/><path d="M33.842 43.525c-.108.063-.182.091-.2.08-.016-.006-.096-.074-.182-.137l-.154-.125-.16.17c-.347.377-.358.394-.461.4-.16.017-.194-.012-.388-.302-.102-.149-.182-.274-.182-.274s-.074-.011-.16-.017l-.16-.017-.074.154-.074.154-.13-.04a2.768 2.768 0 0 1-.303-.12l-.171-.086v-.325l1.517.006 1.516.006.006.154c.005.182.011.177-.24.32Z" fill="#000"/><path d="M48.094 36.57c-.006-.023-.006-.063-.011-.125-1.369-.148-5.274-.24-8.9 2.753 0 0-1.169-5.359-6.642-5.359-5.473 0-7.502 5.36-7.502 5.36-3.068-3.302-7.172-3.062-8.655-2.846 0 .035-.005.075-.005.109-.046.826-.023 1.22.114 1.739.427 1.624 1.744 3.415 3.808 5.17 3.38 2.874 7.965 4.95 11.437 5.188 3.62.246 8.962-1.87 12.519-4.96a17.886 17.886 0 0 0 1.574-1.579c.353-.41.877-1.117.838-1.117-.012 0 0-.011.022-.023.017-.011.035-.028.023-.04-.005-.005.006-.023.023-.028.017-.006.029-.017.023-.029-.006-.011 0-.023.023-.028.017-.006.022-.023.017-.034-.006-.012 0-.023.011-.023s.023-.017.023-.029c0-.011.011-.028.023-.028a.025.025 0 0 0 .023-.023.597.597 0 0 1 .074-.131c.085-.131.427-.741.473-.844.325-.735.53-1.391.627-2.047.034-.313.063-.889.04-1.026ZM33.84 43.526c-.108.062-.182.09-.2.08-.017-.006-.096-.075-.182-.138l-.154-.125-.16.171c-.347.376-.359.393-.461.4-.16.016-.194-.012-.388-.303-.102-.148-.182-.274-.182-.274s-.074-.011-.16-.017l-.16-.017-.074.154-.074.154-.13-.04a2.774 2.774 0 0 1-.303-.12l-.171-.085v-.325l1.516.006 1.517.005.006.154c.005.183.011.177-.24.32Zm2.85-1.027c-.085.325-.153.587-.153.599-.063.006-.12.011-.183.006h-.182l-.245.598c-.137.325-.262.627-.28.673l-.034.08-.12-.194-.12-.194v-1.58l-.045.012a18.81 18.81 0 0 1-1.089.143 15.542 15.542 0 0 1-3.745-.08c-.2-.029-.37-.051-.377-.046-.005.006 0 .371.012.821l.017.81-.097.148c-.051.08-.103.148-.103.154-.017.017-.074-.074-.205-.336a3.859 3.859 0 0 1-.32-.867l-.04-.165-.176.011-.177.017-.045-.21a5.972 5.972 0 0 1-.063-.388l-.017-.183-.148-.13a5.252 5.252 0 0 0-.188-.16c-.029-.023-.04-.063-.04-.097v-.069l.712.006.713.006.023.074.023.074.245.011c.137.006.57.017.958.029l.712.017.183-.285.188-.285h.24l-.006-.593-.006-.593-.314-.137c-1.009-.445-1.602-.952-1.824-1.568-.046-.125-.046-.17-.057-.74-.006-.565-.006-.617.034-.742a.829.829 0 0 1 .587-.581c.097-.029.354-.029 1.7-.029l1.584.006.177.085c.21.103.308.177.428.337.136.182.176.325.176.672 0 .496-.034.924-.085 1.095a2.365 2.365 0 0 1-.331.655c-.285.365-.804.73-1.277.896l-.137.05.006.6.006.598.125.011.125.012.171.257.166.256h.764c.422 0 .792.006.826.011.057.012.069.006.126-.09l.068-.103h.656c.507 0 .655.005.655.022-.017-.005-.09.274-.176.593Z" fill="#fff"/><path d="M48.048 35.989a19.276 19.276 0 0 0-.051-.793c-.245-2.588-.907-4.703-2.16-6.944a1.978 1.978 0 0 1-.126-.24c-.012-.016-.017-.034-.023-.045.177-.53.9-2.748 1.477-5.285.78-3.443 1.277-7.468-.24-8.677 0 0-2.622-.194-6.134 3.25a23.546 23.546 0 0 0-2.6 3.084l-.245-.08a17.793 17.793 0 0 0-4.356-.843c-.444-.035-2.103-.035-2.645 0-1.636.108-2.89.353-4.316.849-.057.023-.108.04-.16.057a23.205 23.205 0 0 0-2.685-3.061c-3.654-3.461-6.373-3.262-6.373-3.262-1.608 1.249-1.06 5.456-.228 9.014a59.06 59.06 0 0 0 1.47 5.17c-.017.04-.04.086-.062.126-1.329 2.691-2.047 5.285-2.218 8.044 1.488-.216 5.587-.461 8.66 2.845 0 0 2.03-5.359 7.503-5.359 5.473 0 6.641 5.36 6.641 5.36a12.15 12.15 0 0 1 8.9-2.754 32.332 32.332 0 0 0-.029-.456Zm-28.317-9.955s-2.132-5.33-1.585-8.374c.091-.514.262-.964.53-1.306 0 0 2.418.24 6.317 4.572 0 0-.741.36-1.733 1.123 0 0-.006.006-.012.006-1.077.827-2.457 2.138-3.517 3.98Zm9.048 7.92c-.035.068-.206.142-.4.17-.193.029-.786.012-1.123-.028-1.208-.16-2.491-.53-3.426-.986-.524-.257-.9-.514-1.18-.793l-.16-.165-.017-.217c-.028-.376-.023-.97.023-1.18a1.55 1.55 0 0 1 .177-.502c.045-.057.045-.057.25-.057.251 0 .462.04.804.148.702.217 1.745.742 3.016 1.505 1.05.628 1.443.936 1.745 1.357.205.263.342.633.29.747Zm13.431-1.888c-.017.091-.285.365-.553.565-.786.575-2.195 1.111-3.626 1.368-.815.148-1.63.17-1.875.051-.16-.08-.183-.142-.126-.348.12-.427.508-.895 1.112-1.334.308-.222 1.556-.98 2.138-1.3.958-.524 1.733-.838 2.258-.912.165-.022.365-.028.427 0 .103.04.217.342.262.707.023.194.012 1.05-.017 1.203Zm-.946-10.017-.011-.005c-.958-.764-1.677-1.123-1.677-1.123 3.769-4.333 6.1-4.573 6.1-4.573.257.348.422.793.514 1.306.53 3.044-1.528 8.38-1.528 8.38a13.58 13.58 0 0 0-3.398-3.985Z" fill="#FFA409"/><path d="M46.195 17.654c-.445-.057-2.548-.068-4.931 4.396l-.012-.006c-.958-.764-1.676-1.123-1.676-1.123 3.769-4.333 6.1-4.572 6.1-4.572.263.347.428.792.52 1.305Z" fill="#FF9300"/><path d="M44.67 26.034a13.526 13.526 0 0 0-3.404-3.985c2.383-4.464 4.48-4.452 4.931-4.395.53 3.05-1.528 8.38-1.528 8.38ZM46.283 17.671l-.086-.017.086.017Z" fill="#FF8300"/><path d="M24.993 20.92s-.74.36-1.733 1.124c0 0-.006.006-.011.006-2.469-4.47-4.64-4.453-5.108-4.396.09-.513.262-.963.53-1.305.006 0 2.423.239 6.322 4.572Z" fill="#FF9300"/><path d="M23.257 22.05c-1.084.832-2.463 2.137-3.524 3.984 0 0-2.132-5.33-1.585-8.38.462-.057 2.64-.069 5.109 4.395Z" fill="#FF8300"/><path d="m18.148 17.654-.091.017.09-.017Z" fill="#FF8300"/><path d="M38.9 28.993s-1.825.115-1.597-1.31c.228-1.426 1.653-1.597 2.052-1.54.4.057 1.996.627 1.71 1.824-.284 1.198-.683.97-.911 1.026-.229.058-1.255 0-1.255 0ZM25.444 28.993s-1.824.115-1.596-1.31c.228-1.426 1.653-1.597 2.052-1.54.4.057 1.996.627 1.71 1.824-.284 1.198-.684.97-.912 1.026-.228.058-1.254 0-1.254 0Z" fill="#fff"/></g><defs><clipPath id="b"><path fill="#fff" transform="translate(14 14)" d="M0 0h36.584v37H0z"/></clipPath><filter id="a" x="5" y="6" width="53" height="54" filterUnits="userSpaceOnUse" color-interpolation-filters="sRGB"><feFlood flood-opacity="0" result="BackgroundImageFix"/><feColorMatrix in="SourceAlpha" values="0 0 0 0 0 0 0 0 0 0 0 0 0 0 0 0 0 0 127 0" result="hardAlpha"/><feOffset dx="-1" dy="1"/><feColorMatrix values="0 0 0 0 1 0 0 0 0 1 0 0 0 0 1 0 0 0 0.32 0"/><feBlend in2="BackgroundImageFix" result="effect1_dropShadow_6284:149759"/><feBlend in="SourceGraphic" in2="effect1_dropShadow_6284:149759" result="shape"/><feColorMatrix in="SourceAlpha" values="0 0 0 0 0 0 0 0 0 0 0 0 0 0 0 0 0 0 127 0" result="hardAlpha"/><feOffset dx="-1" dy="2"/><feGaussianBlur stdDeviation="1"/><feComposite in2="hardAlpha" operator="arithmetic" k2="-1" k3="1"/><feColorMatrix values="0 0 0 0 0 0 0 0 0 0 0 0 0 0 0 0 0 0 0.16 0"/><feBlend in2="shape" result="effect2_innerShadow_6284:149759"/></filter></defs></svg>