<svg width="64" height="64" fill="none" xmlns="http://www.w3.org/2000/svg"><g clip-path="url(#a)"><path d="M63.046 39.741c-4.274 17.143-21.64 27.576-38.786 23.301C7.12 58.768-3.314 41.404.962 24.262 5.235 7.117 22.6-3.317 39.742.957c17.145 4.274 27.578 21.64 23.304 38.784Z" fill="#000"/><path d="M3.873 24.988C7.745 9.45 23.482-.005 39.016 3.867c15.538 3.873 24.993 19.61 21.12 35.147-3.874 15.535-19.61 24.99-35.15 21.116C9.453 56.258-.002 40.522 3.873 24.988Z" stroke="#fff" stroke-opacity=".24" stroke-width="6"/><path d="M62.091 21.127.413 37.13a31.878 31.878 0 0 1 .546-12.867C5.23 7.118 22.596-3.317 39.738.958c10.74 2.677 18.846 10.49 22.353 20.17Z" fill="#fff" style="mix-blend-mode:screen" opacity=".3"/><g filter="url(#b)"><path d="M57.222 38.29C53.749 52.218 39.64 60.695 25.708 57.222 11.782 53.749 3.304 39.64 6.778 25.713 10.25 11.783 24.36 3.305 38.288 6.778c13.93 3.473 22.408 17.582 18.935 31.512Z" fill="#000"/></g></g><path d="M21.325 39.35a1.068 1.068 0 0 1 .79-.35l24.35.02a.534.534 0 0 1 .528.624.538.538 0 0 1-.133.275l-5.185 5.73a1.07 1.07 0 0 1-.791.351l-24.35-.02a.534.534 0 0 1-.488-.321.539.539 0 0 1 .094-.578l5.185-5.73Zm25.533-4.77a.538.538 0 0 1-.395.9l-24.349.02a1.066 1.066 0 0 1-.79-.35l-5.185-5.734a.54.54 0 0 1 .103-.811.54.54 0 0 1 .292-.089l24.35-.02a1.062 1.062 0 0 1 .79.352l5.184 5.733ZM21.325 18.35a1.066 1.066 0 0 1 .79-.35l24.35.02a.533.533 0 0 1 .527.623.537.537 0 0 1-.132.275l-5.185 5.73a1.07 1.07 0 0 1-.791.35l-24.35-.02a.533.533 0 0 1-.526-.623.54.54 0 0 1 .132-.275l5.185-5.73Z" fill="url(#c)"/><defs><linearGradient id="c" x1="16.941" y1="46.61" x2="46.161" y2="17.495" gradientUnits="userSpaceOnUse"><stop stop-color="#9945FF"/><stop offset=".2" stop-color="#7962E7"/><stop offset="1" stop-color="#00D18C"/></linearGradient><clipPath id="a"><path fill="#fff" d="M0 0h64v64H0z"/></clipPath><filter id="b" x="5" y="6" width="53" height="54" filterUnits="userSpaceOnUse" color-interpolation-filters="sRGB"><feFlood flood-opacity="0" result="BackgroundImageFix"/><feColorMatrix in="SourceAlpha" values="0 0 0 0 0 0 0 0 0 0 0 0 0 0 0 0 0 0 127 0" result="hardAlpha"/><feOffset dx="-1" dy="1"/><feColorMatrix values="0 0 0 0 1 0 0 0 0 1 0 0 0 0 1 0 0 0 0.32 0"/><feBlend in2="BackgroundImageFix" result="effect1_dropShadow_7978_118753"/><feBlend in="SourceGraphic" in2="effect1_dropShadow_7978_118753" result="shape"/><feColorMatrix in="SourceAlpha" values="0 0 0 0 0 0 0 0 0 0 0 0 0 0 0 0 0 0 127 0" result="hardAlpha"/><feOffset dx="-1" dy="2"/><feGaussianBlur stdDeviation="1"/><feComposite in2="hardAlpha" operator="arithmetic" k2="-1" k3="1"/><feColorMatrix values="0 0 0 0 0 0 0 0 0 0 0 0 0 0 0 0 0 0 0.16 0"/><feBlend in2="shape" result="effect2_innerShadow_7978_118753"/></filter></defs></svg>