<svg viewBox="0 0 64 64" fill="none" xmlns="http://www.w3.org/2000/svg">
    <path d="M63.046 39.741c-4.274 17.143-21.64 27.576-38.786 23.301C7.12 58.768-3.314 41.404.962 24.262 5.235 7.117 22.6-3.317 39.742.957c17.145 4.274 27.578 21.64 23.304 38.784z" fill="#0377FF"/>
    <path d="M3.873 24.988h0C7.745 9.45 23.482-.006 39.016 3.867h0c15.538 3.873 24.993 19.61 21.12 35.147-3.874 15.535-19.61 24.99-35.15 21.116C9.453 56.258-.002 40.522 3.873 24.988z" stroke="#fff" stroke-opacity=".24" stroke-width="6"/>
    <path d="M62.091 21.127L.413 37.13a31.878 31.878 0 01.546-12.867C5.23 7.118 22.596-3.317 39.738.958c10.74 2.677 18.846 10.49 22.353 20.17z" fill="#fff" opacity=".3"/>
    <g filter="url(#filter0_di_storj)">
        <path d="M57.222 38.29C53.749 52.218 39.64 60.695 25.708 57.22 11.782 53.75 3.304 39.642 6.778 25.713 10.25 11.783 24.36 3.305 38.288 6.778 52.217 10.25 60.695 24.36 57.222 38.29z" fill="#0377FF"/>
    </g>
    <g clip-path="url(#clip0_storj)" fill="#fff">
        <path d="M19.12 38.482a.984.984 0 10.985.984c0-.174-.048-.333-.127-.492a1 1 0 00-.858-.492zm13.908-21.418a.984.984 0 10-1.969 0 .984.984 0 001.97 0zm12.004 8.542a.984.984 0 10-.984-.985.97.97 0 00.127.477.981.981 0 00.857.508zm-25.452-1.89a.968.968 0 00-1.334.366.968.968 0 00.366 1.333.968.968 0 001.333-.365.972.972 0 00-.365-1.334zm25.848 14.956c-.143-.095-.317-.127-.492-.143a.983.983 0 100 1.97c.35 0 .666-.191.857-.493a.972.972 0 00-.365-1.334zM31.06 46.88c-.048.445.222.873.635 1.032.095.032.206.064.301.064a1.037 1.037 0 001.016-.842.979.979 0 00-1.937-.285.055.055 0 00-.015.031"/>
        <path d="M46.397 36.862a2.591 2.591 0 00-.366-.174v-9.193c.143-.048.286-.127.43-.19a3.077 3.077 0 001.19-4.176 3.076 3.076 0 00-4.176-1.191 2.593 2.593 0 00-.35.222l-8.096-4.683c.015-.143.031-.27.031-.413A3.066 3.066 0 0031.996 14c-1.683 0-3.096 1.397-3.096 3.08 0 .143.016.27.032.413l-8.034 4.652a3.07 3.07 0 00-4.932 2.837 3.07 3.07 0 001.202 2.037c.111.08.222.159.35.238.129.08.267.143.412.19v9.177a3.06 3.06 0 00-1.7 3.985 3.06 3.06 0 003.986 1.7c.143-.049.27-.128.397-.191.127-.08.254-.16.38-.254l7.955 4.588a3.067 3.067 0 002.54 3.509 3.067 3.067 0 003.51-2.54c.03-.175.03-.334.03-.509a3.889 3.889 0 00-.03-.444l7.906-4.557c.127.095.254.19.397.27a3.07 3.07 0 004.176-1.175c.793-1.476.317-3.286-1.08-4.144zm.555 3.842a2.353 2.353 0 01-3.207.842 2.336 2.336 0 01-1.095-2.556l-3.715-2.175a4.144 4.144 0 01-4.494.936c-.555.174-1.746.286-1.746.286v6.54c1.302.398 2.016 1.78 1.62 3.08-.396 1.303-1.778 2.017-3.08 1.62-.016 0-.032-.015-.047-.015a1.711 1.711 0 01-.302-.127c-1.223-.603-1.7-2.096-1.096-3.302a2.512 2.512 0 011.476-1.255V37.91a10.98 10.98 0 01-1.365-.524 4.927 4.927 0 01-4.065-1l-4.43 2.556a2.357 2.357 0 11-2.841-1.746 2.358 2.358 0 012.16.571l4.144-2.397a4.965 4.965 0 01.54-6.382l-4.716-2.7a2.321 2.321 0 01-3.303-.11 2.34 2.34 0 01.111-3.319 2.32 2.32 0 013.303.111c.54.572.746 1.365.571 2.128l5.224 3a4.935 4.935 0 012.222-.587c.731-.603 2.603-1.223 2.603-1.223v-7.144a2.188 2.188 0 01-1.46-2.73c.349-1.16 1.572-1.795 2.731-1.446a2.189 2.189 0 011.46 2.731 2.175 2.175 0 01-1.46 1.46v7.003s3.43.857 4.509 2.143l5.557-3.16c-.286-1.27.492-2.54 1.762-2.825 1.27-.286 2.54.492 2.826 1.762.286 1.27-.492 2.54-1.762 2.826a2.365 2.365 0 01-2.144-.587l-5.493 3.111c.159.334.302.666.397 1.016a4.14 4.14 0 011.397 5.24l3.636 2.111a2.321 2.321 0 012.763-.302 2.341 2.341 0 01.81 3.207z"/>
        <path d="M36.712 31.687l-.048-.366a1.965 1.965 0 00-.063-.254c0-.031-.016-.063-.016-.095-.032-.095-.064-.206-.096-.302v-.015a4.206 4.206 0 00-1.19-1.7l-.016-.015a2.106 2.106 0 00-.302-.222l-.016-.016c-.095-.064-.206-.143-.301-.19l-.016-.016a2.965 2.965 0 00-.318-.16l-.031-.015a7.924 7.924 0 00-.35-.143l-.015-.016c-.127-.031-.239-.08-.366-.095h-.015a3.169 3.169 0 00-.382-.064h-.015a3.924 3.924 0 00-2 .239l-.08.063a3.369 3.369 0 00-.35.159.744.744 0 01-.158.08c-.048.015-.127.079-.175.11a6.609 6.609 0 00-.222.16l-.048.03c-.095.064-.175.144-.27.223l-.08.08a3.91 3.91 0 00-.253.27 3.464 3.464 0 00-.572-.048c-.063 0-.11 0-.159.016a3.141 3.141 0 00-1.968.825c-.27.238-.492.54-.666.858l-.017.032a2.244 2.244 0 00-.127.286c-.016.032-.016.047-.032.08-.034.081-.06.166-.08.253-.015.032-.015.08-.03.111-.017.08-.033.159-.049.254 0 .032-.015.064-.015.111a2.82 2.82 0 00-.016.365c-.003.101.002.202.016.302 0 .032.015.064.015.111.016.064.016.127.032.19.016.064.016.08.032.128a.464.464 0 01.032.143c0 .047.031.095.047.143a.766.766 0 00.048.11c.024.052.045.105.063.16.016.031.032.047.032.079.223.523.6.966 1.08 1.27.238.143.476.27.73.35.099.033.2.06.302.078l.032.016.285.048.064.016c.111.016.222.016.35.016.428 0 .84-.08 1.222-.254.095.063.174.127.27.19l.032.016c.079.048.174.095.27.143h.015c.907.462 1.955.57 2.937.302h.016c.143-.031.282-.08.413-.143l.429-.19c.408.318.91.49 1.428.491.111 0 .207-.015.318-.015l.08-.016c.101-.016.202-.037.301-.064.098-.03.193-.067.286-.111l.047-.016c.096-.047.175-.095.27-.143.397-.254.7-.635.874-1.063.063-.143.095-.286.127-.43v-.047c.016-.063.016-.127.031-.19 0-.08.016-.159.016-.238 0-1.048-.65-1.953-1.62-2.255"/>
    </g>
    <defs>
        <clipPath id="clip0_storj">
            <path fill="#fff" transform="translate(14 14)" d="M0 0h36v36H0z"/>
        </clipPath>
        <filter id="filter0_di_storj" x="5" y="6" width="53" height="54" filterUnits="userSpaceOnUse" color-interpolation-filters="sRGB">
            <feFlood flood-opacity="0" result="BackgroundImageFix"/>
            <feColorMatrix in="SourceAlpha" values="0 0 0 0 0 0 0 0 0 0 0 0 0 0 0 0 0 0 127 0"/>
            <feOffset dx="-1" dy="1"/>
            <feColorMatrix values="0 0 0 0 1 0 0 0 0 1 0 0 0 0 1 0 0 0 0.32 0"/>
            <feBlend in2="BackgroundImageFix" result="effect1_dropShadow"/>
            <feBlend in="SourceGraphic" in2="effect1_dropShadow" result="shape"/>
            <feColorMatrix in="SourceAlpha" values="0 0 0 0 0 0 0 0 0 0 0 0 0 0 0 0 0 0 127 0" result="hardAlpha"/>
            <feOffset dx="-1" dy="2"/>
            <feGaussianBlur stdDeviation="1"/>
            <feComposite in2="hardAlpha" operator="arithmetic" k2="-1" k3="1"/>
            <feColorMatrix values="0 0 0 0 0 0 0 0 0 0 0 0 0 0 0 0 0 0 0.16 0"/>
            <feBlend in2="shape" result="effect2_innerShadow"/>
        </filter>
    </defs>
</svg>
