<svg viewBox="0 0 64 64" xmlns="http://www.w3.org/2000/svg" fill="none">
    <path fill="#FFEAF4" d="M63.046 39.741c-4.274 17.143-21.64 27.576-38.786 23.301C7.12 58.768-3.314 41.404.962 24.262 5.235 7.117 22.6-3.317 39.742.957c17.145 4.274 27.578 21.64 23.304 38.784z"/>
    <path stroke="#fff" stroke-opacity=".24" stroke-width="6" d="M3.873 24.988h0C7.745 9.45 23.482-.006 39.016 3.867h0c15.538 3.873 24.993 19.61 21.12 35.147-3.874 15.535-19.61 24.99-35.15 21.116C9.453 56.258-.002 40.522 3.873 24.988z"/>
    <path fill="#fff" d="M62.091 21.127L.413 37.13a31.878 31.878 0 01.546-12.867C5.23 7.118 22.596-3.317 39.738.958c10.74 2.677 18.846 10.49 22.353 20.17z" opacity=".3"/>
    <g filter="url(#filter0_di_uni)">
        <path fill="#FFEAF4" d="M57.222 38.29C53.749 52.218 39.64 60.695 25.708 57.22 11.782 53.75 3.304 39.642 6.778 25.713 10.25 11.783 24.36 3.305 38.288 6.778 52.217 10.25 60.695 24.36 57.222 38.29z"/>
    </g>
    <g fill="#FF007A" filter="url(#filter1_d_uni)">
        <path d="M25.83 18.41c-.429-.066-.447-.074-.245-.105.386-.06 1.3.022 1.928.171 1.469.35 2.805 1.246 4.231 2.836l.38.423.542-.087c2.284-.368 4.607-.076 6.55.823.535.248 1.378.74 1.483.867.034.04.095.3.137.576.144.959.072 1.693-.22 2.242-.16.299-.169.393-.062.649a.625.625 0 00.56.354c.483 0 1.003-.782 1.244-1.87l.095-.432.19.215c1.04 1.18 1.856 2.788 1.996 3.933l.036.299-.174-.272c-.301-.467-.603-.785-.99-1.041-.698-.462-1.435-.62-3.388-.723-1.764-.093-2.762-.244-3.752-.567-1.684-.55-2.534-1.283-4.534-3.912-.889-1.167-1.438-1.814-1.985-2.334-1.24-1.182-2.46-1.802-4.022-2.045z"/>
        <path d="M41.097 21.018c.044-.783.15-1.299.363-1.77.084-.187.163-.34.176-.34.012 0-.025.138-.082.306-.155.458-.18 1.084-.073 1.812.135.923.212 1.056 1.187 2.054.457.468.989 1.058 1.181 1.312l.35.46-.35-.329c-.428-.402-1.414-1.188-1.632-1.3-.146-.075-.167-.074-.258.016-.083.082-.1.207-.112.794-.017.916-.142 1.504-.443 2.092-.163.318-.188.25-.041-.109.11-.268.121-.385.12-1.272-.002-1.782-.213-2.21-1.451-2.944-.314-.185-.83-.454-1.149-.595-.318-.142-.57-.266-.561-.275.035-.035 1.243.318 1.729.506.723.278.842.314.93.28.059-.022.087-.194.116-.698zM26.662 24.065c-.87-1.2-1.408-3.04-1.292-4.415l.036-.426.198.037c.372.067 1.014.307 1.314.49.824.5 1.181 1.16 1.544 2.856.107.496.246 1.058.31 1.248.104.306.494 1.021.812 1.486.228.334.076.493-.43.447-.771-.07-1.817-.792-2.492-1.723zM40.041 32.996c-4.067-1.64-5.5-3.063-5.5-5.465 0-.354.013-.643.028-.643.014 0 .172.117.35.26.824.662 1.748.945 4.304 1.318 1.505.22 2.351.398 3.132.657 2.483.825 4.019 2.498 4.385 4.777.106.662.044 1.904-.129 2.559-.136.517-.552 1.449-.662 1.484-.03.01-.06-.107-.068-.267-.042-.855-.474-1.689-1.199-2.313-.825-.71-1.932-1.274-4.64-2.367zM37.186 33.678a7.249 7.249 0 00-.196-.862l-.104-.31.193.217c.266.3.477.684.656 1.194.136.39.151.506.15 1.14 0 .623-.018.753-.144 1.104a3.49 3.49 0 01-.858 1.368c-.743.757-1.698 1.176-3.076 1.35-.24.03-.938.082-1.552.113-1.547.081-2.566.248-3.48.57-.132.046-.25.074-.262.062-.037-.037.586-.41 1.1-.657.727-.35 1.449-.541 3.067-.811.8-.134 1.625-.295 1.834-.36 1.98-.608 2.998-2.176 2.672-4.118z"/>
        <path d="M39.05 36.994c-.54-1.163-.664-2.287-.368-3.334.032-.112.083-.204.113-.204s.158.07.284.153c.249.168.748.451 2.078 1.178 1.66.906 2.607 1.608 3.251 2.41.564.703.913 1.503 1.08 2.478.096.553.04 1.883-.102 2.44-.446 1.754-1.483 3.132-2.963 3.936a3.794 3.794 0 01-.433.215c-.02 0 .058-.2.176-.447.498-1.042.554-2.056.178-3.184-.23-.691-.7-1.535-1.649-2.96-1.103-1.656-1.373-2.097-1.645-2.681zM23.774 43.271c1.51-1.276 3.387-2.183 5.098-2.461.737-.12 1.965-.072 2.648.103 1.094.28 2.073.908 2.582 1.657.498.731.71 1.369.933 2.787.088.56.183 1.121.212 1.248.167.736.492 1.323.894 1.618.64.469 1.74.498 2.823.075.183-.072.343-.122.354-.11.04.039-.506.404-.89.597-.518.259-.93.359-1.476.359-.992 0-1.815-.506-2.502-1.536-.136-.203-.44-.81-.676-1.35-.725-1.656-1.083-2.161-1.925-2.714-.733-.48-1.678-.566-2.39-.217-.933.459-1.194 1.654-.525 2.412.266.3.762.56 1.167.611a1.247 1.247 0 001.41-1.25c0-.498-.19-.783-.672-1-.657-.297-1.363.05-1.36.668.002.264.116.43.38.55.17.076.173.082.035.053-.603-.125-.744-.853-.26-1.336.583-.58 1.786-.324 2.2.468.173.332.193.995.042 1.395-.339.895-1.327 1.366-2.329 1.11-.682-.175-.96-.364-1.782-1.212-1.43-1.475-1.985-1.76-4.045-2.083l-.395-.062.45-.38z"/>
        <path fill-rule="evenodd" d="M17.64 14.882c4.774 5.803 7.488 10.192 7.854 10.698.302.417.188.793-.329 1.087-.287.164-.878.33-1.174.33-.334 0-.711-.162-.986-.423-.194-.184-.977-1.355-2.785-4.164-1.383-2.15-2.54-3.933-2.572-3.963-.073-.069-.072-.067 2.431 4.419 1.572 2.817 2.102 3.812 2.102 3.945 0 .271-.073.414-.407.786-.556.622-.805 1.32-.984 2.765-.201 1.62-.767 2.764-2.335 4.723-.918 1.146-1.068 1.356-1.3 1.818-.291.582-.371.908-.404 1.643-.034.776.033 1.278.27 2.021.207.65.424 1.08.977 1.938.478.742.753 1.292.753 1.508 0 .171.033.171.773.004 1.772-.4 3.21-1.106 4.02-1.97.5-.534.618-.829.622-1.561.002-.48-.015-.58-.144-.855-.21-.45-.594-.822-1.438-1.4-1.107-.758-1.58-1.368-1.71-2.207-.108-.688.017-1.174.629-2.46.634-1.33.79-1.896.897-3.237.069-.867.164-1.208.412-1.483.26-.286.492-.382 1.134-.47 1.046-.143 1.711-.414 2.259-.92.475-.438.673-.86.704-1.495l.023-.482-.265-.31C25.706 24.045 16.997 14 16.938 14c-.012 0 .304.397.703.882zm1.65 24.543a.853.853 0 00-.261-1.123c-.343-.229-.877-.121-.877.177 0 .09.05.157.163.215.191.098.205.209.055.435-.152.228-.14.43.034.566.281.22.678.099.887-.27zM27.592 28.627c-.491.15-.968.672-1.116 1.218-.09.334-.039.918.096 1.099.218.291.429.368 1 .364 1.118-.008 2.09-.488 2.203-1.088.093-.492-.334-1.174-.922-1.474-.304-.154-.949-.215-1.261-.12zm1.307 1.023c.172-.245.097-.51-.196-.69-.559-.341-1.403-.059-1.403.47 0 .263.44.55.844.55.268 0 .636-.16.755-.33z" clip-rule="evenodd"/>
    </g>
    <defs>
        <filter id="filter0_di_uni" width="53" height="54" x="5" y="6" color-interpolation-filters="sRGB" filterUnits="userSpaceOnUse">
            <feFlood flood-opacity="0" result="BackgroundImageFix"/>
            <feColorMatrix in="SourceAlpha" values="0 0 0 0 0 0 0 0 0 0 0 0 0 0 0 0 0 0 127 0"/>
            <feOffset dx="-1" dy="1"/>
            <feColorMatrix values="0 0 0 0 1 0 0 0 0 1 0 0 0 0 1 0 0 0 0.32 0"/>
            <feBlend in2="BackgroundImageFix" result="effect1_dropShadow"/>
            <feBlend in="SourceGraphic" in2="effect1_dropShadow" result="shape"/>
            <feColorMatrix in="SourceAlpha" result="hardAlpha" values="0 0 0 0 0 0 0 0 0 0 0 0 0 0 0 0 0 0 127 0"/>
            <feOffset dx="-1" dy="2"/>
            <feGaussianBlur stdDeviation="1"/>
            <feComposite in2="hardAlpha" k2="-1" k3="1" operator="arithmetic"/>
            <feColorMatrix values="0 0 0 0 0 0 0 0 0 0 0 0 0 0 0 0 0 0 0.16 0"/>
            <feBlend in2="shape" result="effect2_innerShadow"/>
        </filter>
        <filter id="filter1_d_uni" width="32.05" height="37.144" x="14.743" y="14" color-interpolation-filters="sRGB" filterUnits="userSpaceOnUse">
            <feFlood flood-opacity="0" result="BackgroundImageFix"/>
            <feColorMatrix in="SourceAlpha" values="0 0 0 0 0 0 0 0 0 0 0 0 0 0 0 0 0 0 127 0"/>
            <feOffset dx="-1" dy="1"/>
            <feGaussianBlur stdDeviation=".5"/>
            <feColorMatrix values="0 0 0 0 0 0 0 0 0 0 0 0 0 0 0 0 0 0 0.08 0"/>
            <feBlend in2="BackgroundImageFix" result="effect1_dropShadow"/>
            <feBlend in="SourceGraphic" in2="effect1_dropShadow" result="shape"/>
        </filter>
    </defs>
</svg>
