<svg width="64" height="64" viewBox="0 0 64 64" fill="none" xmlns="http://www.w3.org/2000/svg">
<g clip-path="url(#clip0_34_15311)">
<path d="M63.0461 39.7416C58.7716 56.8846 41.4068 67.3176 24.26 63.0426C7.12012 58.7686 -3.31399 41.4046 0.962469 24.2626C5.23492 7.1176 22.5998 -3.3164 39.7416 0.957596C56.8874 5.2316 67.3205 22.5976 63.0461 39.7416Z" fill="#0D131C"/>
<path d="M3.87326 24.9888L3.87345 24.988C7.74523 9.45086 23.4818 -0.00465462 39.0158 3.86848L39.016 3.86852C54.5539 7.74171 64.0089 23.4793 60.1352 39.0158C56.2617 54.5509 40.5252 64.006 24.9857 60.1317C9.45344 56.2585 -0.00205249 40.5228 3.87326 24.9888Z" stroke="white" stroke-opacity="0.24" stroke-width="6"/>
<g style="mix-blend-mode:screen" opacity="0.3">
<path d="M62.0911 21.1272L0.412762 37.1302C-0.264382 32.9715 -0.12597 28.6099 0.958563 24.2626C5.23102 7.1176 22.5959 -3.3164 39.7377 0.957596C50.4776 3.63476 58.5837 11.4487 62.0911 21.1272Z" fill="white"/>
</g>
<g filter="url(#filter0_di_34_15311)">
<path d="M57.2218 38.2897C53.7488 52.2183 39.6398 60.695 25.708 57.2216C11.7819 53.749 3.30421 39.6409 6.77883 25.7132C10.2502 11.783 24.3591 3.30545 38.2869 6.77804C52.2179 10.2506 60.6948 24.3604 57.2218 38.2897Z" fill="#0D131C"/>
</g>
<path d="M48 20.2001V22.8783L17 38.6747V35.9952L18.1266 35.4208C18.546 35.2071 18.8927 34.8742 19.1233 34.4639C19.3539 34.0536 19.458 33.5843 19.4224 33.115C19.3971 32.7837 19.3844 32.451 19.3844 32.1169C19.3842 29.6986 20.0526 27.3272 21.3158 25.2649C22.579 23.2026 24.3878 21.5298 26.5423 20.4312C28.6967 19.3327 31.113 18.8512 33.524 19.04C35.935 19.2289 38.2469 20.0806 40.2041 21.5012L37.7489 22.7524C36.1156 21.8403 34.2724 21.3706 32.4018 21.39C30.5312 21.4094 28.6982 21.9171 27.0842 22.8629C25.4702 23.8087 24.1313 25.1598 23.2002 26.7823C22.269 28.4047 21.7778 30.2423 21.7754 32.113C21.7756 32.5819 21.8062 33.0502 21.8672 33.5151L48 20.2001Z" fill="white"/>
<path d="M23.5289 38.0191L48 25.5593V28.2297L46.8721 28.8041C46.4531 29.0181 46.1067 29.3511 45.8764 29.7614C45.6461 30.1716 45.5421 30.6407 45.5776 31.1098C45.6025 31.443 45.6156 31.78 45.6156 32.1171C45.6148 34.5352 44.9456 36.9059 43.6818 38.9675C42.4181 41.029 40.609 42.7011 38.4545 43.7989C36.3 44.8967 33.884 45.3775 31.4734 45.1882C29.0627 44.9989 26.7513 44.1469 24.7946 42.7263L27.1108 41.5459L27.242 41.4764C28.8756 42.3924 30.7203 42.8651 32.5931 42.8477C34.4658 42.8304 36.3015 42.3235 37.9178 41.3773C39.5341 40.4312 40.8749 39.0788 41.8069 37.4544C42.739 35.8299 43.23 33.99 43.2312 32.1171C43.231 31.6452 43.2004 31.1738 43.1394 30.7059L17 44.0248V41.3479L23.5289 38.0191Z" fill="white"/>
</g>
<defs>
<filter id="filter0_di_34_15311" x="5" y="6" width="53" height="54" filterUnits="userSpaceOnUse" color-interpolation-filters="sRGB">
<feFlood flood-opacity="0" result="BackgroundImageFix"/>
<feColorMatrix in="SourceAlpha" type="matrix" values="0 0 0 0 0 0 0 0 0 0 0 0 0 0 0 0 0 0 127 0" result="hardAlpha"/>
<feOffset dx="-1" dy="1"/>
<feColorMatrix type="matrix" values="0 0 0 0 1 0 0 0 0 1 0 0 0 0 1 0 0 0 0.32 0"/>
<feBlend mode="normal" in2="BackgroundImageFix" result="effect1_dropShadow_34_15311"/>
<feBlend mode="normal" in="SourceGraphic" in2="effect1_dropShadow_34_15311" result="shape"/>
<feColorMatrix in="SourceAlpha" type="matrix" values="0 0 0 0 0 0 0 0 0 0 0 0 0 0 0 0 0 0 127 0" result="hardAlpha"/>
<feOffset dx="-1" dy="2"/>
<feGaussianBlur stdDeviation="1"/>
<feComposite in2="hardAlpha" operator="arithmetic" k2="-1" k3="1"/>
<feColorMatrix type="matrix" values="0 0 0 0 0 0 0 0 0 0 0 0 0 0 0 0 0 0 0.16 0"/>
<feBlend mode="normal" in2="shape" result="effect2_innerShadow_34_15311"/>
</filter>
<clipPath id="clip0_34_15311">
<rect width="64" height="64" fill="white"/>
</clipPath>
</defs>
</svg>
