<svg viewBox="0 0 64 64" fill="none" xmlns="http://www.w3.org/2000/svg">
    <g clip-path="url(#clip0_zrx)">
        <path
                d="M63.046 39.741c-4.274 17.143-21.64 27.576-38.786 23.301C7.12 58.768-3.314 41.404.962 24.262 5.235 7.117 22.6-3.317 39.742.957c17.145 4.274 27.578 21.64 23.304 38.784z"
                fill="#181818"
        />
        <path
                d="M3.873 24.988h0C7.745 9.45 23.482-.006 39.016 3.867h0c15.538 3.873 24.993 19.61 21.12 35.147-3.874 15.535-19.61 24.99-35.15 21.116C9.453 56.258-.002 40.522 3.873 24.988z"
                stroke="#fff"
                stroke-opacity=".24"
                stroke-width="6"
        />
        <g style="mix-blend-mode: screen">
            <path
                    d="M62.091 21.127L.413 37.13a31.878 31.878 0 01.546-12.867C5.23 7.118 22.596-3.317 39.738.958c10.74 2.677 18.846 10.49 22.353 20.17z"
                    fill="#fff"
                    opacity=".3"
            />
        </g>
        <g filter="url(#filter0_di_zrx)">
            <path
                    d="M57.222 38.29C53.749 52.218 39.64 60.695 25.708 57.22 11.782 53.75 3.304 39.642 6.778 25.713 10.25 11.783 24.36 3.305 38.288 6.778 52.217 10.25 60.695 24.36 57.222 38.29z"
                    fill="#181818"
            />
        </g>
        <g filter="url(#filter1_d_zrx)">
            <path
                    d="M41.275 37.882c1.229 1.649 2.496 3.336 3.763 5.023-2.534 2.991-5.683 4.908-9.485 5.714-4.224.882-8.218.23-12.097-1.918 3.456-2.569 6.836-5.1 10.253-7.63.768.728 1.498 1.457 2.228 2.147.806.767.5.805 1.536.23a10.644 10.644 0 003.533-3.26c.038-.076.115-.153.154-.23-.039 0 0 0 .115-.076zm-15.093 3.374c-.96.729-1.843 1.38-2.726 2.07-.653.5-1.306.96-1.959 1.458-.269.23-.46.23-.768-.038-2.918-2.608-4.762-5.83-5.453-9.664-.691-3.873-.077-7.554 1.767-11.044.038-.076.115-.192.153-.268 0-.038.038-.038.115-.077 2.535 3.336 5.108 6.672 7.642 10.009-.076.115-.115.192-.191.268-.769.805-1.537 1.61-2.343 2.378-.23.23-.269.422-.115.69.806 1.534 1.92 2.8 3.302 3.835.192.115.346.23.576.383zm14.325-23.813c-1.23.881-2.458 1.763-3.687 2.607-2.112 1.496-4.224 3.03-6.298 4.525-.269.192-.46.23-.691-.038-.691-.729-1.421-1.38-2.112-2.11-.193-.191-.385-.23-.653-.114-1.652.843-2.957 2.032-4.033 3.528a2.129 2.129 0 00-.23.306c-.614-.805-1.19-1.534-1.767-2.3-.614-.806-1.19-1.611-1.766-2.378-.192-.268-.23-.46.038-.729 2.957-3.26 6.606-5.176 10.984-5.637 3.456-.383 6.758.307 9.83 1.956.116.077.231.115.346.192 0 .115 0 .153.039.192zm6.26 23.008a326.04 326.04 0 01-2.266-2.953c-1.69-2.224-3.38-4.486-5.108-6.71-.23-.307-.23-.5.038-.768.73-.728 1.421-1.457 2.151-2.185.192-.192.269-.384.115-.652a11.372 11.372 0 00-3.494-4.027c-.116-.076-.23-.191-.384-.268.115-.115.23-.192.307-.269 1.46-1.112 2.919-2.185 4.378-3.297.23-.192.422-.269.691 0 3.648 3.297 5.607 7.4 5.799 12.347.077 2.876-.576 5.599-1.882 8.168-.115.154-.23.345-.346.614z"
                    fill="#fff"
            />
        </g>
    </g>
    <defs>
        <filter id="filter0_di_zrx" x="1" y="3" width="60" height="60" filterUnits="userSpaceOnUse" color-interpolation-filters="sRGB">
            <feFlood flood-opacity="0" result="BackgroundImageFix" />
            <feColorMatrix in="SourceAlpha" values="0 0 0 0 0 0 0 0 0 0 0 0 0 0 0 0 0 0 127 0" />
            <feOffset dx="-1" dy="1" />
            <feGaussianBlur stdDeviation="2" />
            <feColorMatrix values="0 0 0 0 1 0 0 0 0 1 0 0 0 0 1 0 0 0 0.32 0" />
            <feBlend in2="BackgroundImageFix" result="effect1_dropShadow" />
            <feBlend in="SourceGraphic" in2="effect1_dropShadow" result="shape" />
            <feColorMatrix in="SourceAlpha" values="0 0 0 0 0 0 0 0 0 0 0 0 0 0 0 0 0 0 127 0" result="hardAlpha" />
            <feOffset dx="-1" dy="2" />
            <feGaussianBlur stdDeviation="1" />
            <feComposite in2="hardAlpha" operator="arithmetic" k2="-1" k3="1" />
            <feColorMatrix values="0 0 0 0 0 0 0 0 0 0 0 0 0 0 0 0 0 0 0.16 0" />
            <feBlend in2="shape" result="effect2_innerShadow" />
        </filter>
        <filter id="filter1_d_zrx" x="13" y="15" width="36" height="36" filterUnits="userSpaceOnUse" color-interpolation-filters="sRGB">
            <feFlood flood-opacity="0" result="BackgroundImageFix" />
            <feColorMatrix in="SourceAlpha" values="0 0 0 0 0 0 0 0 0 0 0 0 0 0 0 0 0 0 127 0" />
            <feOffset dx="-1" dy="1" />
            <feGaussianBlur stdDeviation=".5" />
            <feColorMatrix values="0 0 0 0 0 0 0 0 0 0 0 0 0 0 0 0 0 0 0.08 0" />
            <feBlend in2="BackgroundImageFix" result="effect1_dropShadow" />
            <feBlend in="SourceGraphic" in2="effect1_dropShadow" result="shape" />
        </filter>
        <clipPath id="clip0_zrx"><path fill="#fff" d="M0 0h64v64H0z" /></clipPath>
    </defs>
</svg>
